M48
; DRILL file {KiCad (5.1.5-0-10_14)} date Monday, 16 November 2020 at 15:22:00
; FORMAT={-:-/ absolute / metric / decimal}
; #@! TF.CreationDate,2020-11-16T15:22:00+01:00
; #@! TF.GenerationSoftware,Kicad,Pcbnew,(5.1.5-0-10_14)
FMAT,2
METRIC
T1C1.100
T2C1.200
T3C1.350
T4C1.700
T5C2.510
T6C4.000
T7C4.000
%
G90
G05
T1
X126.0Y-76.62
X126.0Y-86.78
X126.0Y-94.4
X133.62Y-76.62
X133.62Y-86.78
X133.62Y-94.4
X124.73Y-72.86
X134.89Y-72.86
T2
X93.3Y-84.1
X93.3Y-99.1
X110.8Y-84.1
X110.8Y-91.6
X110.8Y-99.1
X128.76Y-65.82
X131.3Y-65.82
T3
X128.63Y-106.06
X128.65Y-111.14
X146.43Y-106.06
X146.45Y-111.14
T4
X153.67Y-61.33
X153.67Y-66.41
X142.27Y-94.47
X150.19Y-94.47
X99.92Y-112.0
X105.0Y-112.0
X145.09Y-61.54
X145.09Y-66.62
T5
X87.0Y-112.0
T6
X75.0Y-119.0
T7
X81.96Y-57.42
X142.7Y-75.19
T0
M30
