G04 #@! TF.GenerationSoftware,KiCad,Pcbnew,(5.1.5-0-10_14)*
G04 #@! TF.CreationDate,2020-11-16T15:22:10+01:00*
G04 #@! TF.ProjectId,AC_board,41435f62-6f61-4726-942e-6b696361645f,v01*
G04 #@! TF.SameCoordinates,Original*
G04 #@! TF.FileFunction,Copper,L1,Top*
G04 #@! TF.FilePolarity,Positive*
%FSLAX46Y46*%
G04 Gerber Fmt 4.6, Leading zero omitted, Abs format (unit mm)*
G04 Created by KiCad (PCBNEW (5.1.5-0-10_14)) date 2020-11-16 15:22:10*
%MOMM*%
%LPD*%
G04 APERTURE LIST*
%ADD10C,4.000000*%
%ADD11C,2.100000*%
%ADD12C,1.800000*%
%ADD13C,2.350000*%
%ADD14O,1.740000X2.200000*%
%ADD15C,0.100000*%
%ADD16C,2.700000*%
%ADD17C,2.200000*%
%ADD18C,8.000000*%
%ADD19R,2.200000X2.200000*%
%ADD20O,2.200000X2.200000*%
%ADD21O,3.160000X4.100000*%
%ADD22C,3.000000*%
%ADD23C,1.000000*%
G04 APERTURE END LIST*
D10*
X87000000Y-112000000D03*
D11*
X133620000Y-94400000D03*
X126000000Y-94400000D03*
X133620000Y-86780000D03*
X126000000Y-86780000D03*
D12*
X133620000Y-76620000D03*
X126000000Y-76620000D03*
D13*
X128650000Y-111140000D03*
X128630000Y-106060000D03*
X146450000Y-111140000D03*
X146430000Y-106060000D03*
D14*
X131300000Y-65820000D03*
G04 #@! TA.AperFunction,ComponentPad*
D15*
G36*
X129404505Y-64721204D02*
G01*
X129428773Y-64724804D01*
X129452572Y-64730765D01*
X129475671Y-64739030D01*
X129497850Y-64749520D01*
X129518893Y-64762132D01*
X129538599Y-64776747D01*
X129556777Y-64793223D01*
X129573253Y-64811401D01*
X129587868Y-64831107D01*
X129600480Y-64852150D01*
X129610970Y-64874329D01*
X129619235Y-64897428D01*
X129625196Y-64921227D01*
X129628796Y-64945495D01*
X129630000Y-64969999D01*
X129630000Y-66670001D01*
X129628796Y-66694505D01*
X129625196Y-66718773D01*
X129619235Y-66742572D01*
X129610970Y-66765671D01*
X129600480Y-66787850D01*
X129587868Y-66808893D01*
X129573253Y-66828599D01*
X129556777Y-66846777D01*
X129538599Y-66863253D01*
X129518893Y-66877868D01*
X129497850Y-66890480D01*
X129475671Y-66900970D01*
X129452572Y-66909235D01*
X129428773Y-66915196D01*
X129404505Y-66918796D01*
X129380001Y-66920000D01*
X128139999Y-66920000D01*
X128115495Y-66918796D01*
X128091227Y-66915196D01*
X128067428Y-66909235D01*
X128044329Y-66900970D01*
X128022150Y-66890480D01*
X128001107Y-66877868D01*
X127981401Y-66863253D01*
X127963223Y-66846777D01*
X127946747Y-66828599D01*
X127932132Y-66808893D01*
X127919520Y-66787850D01*
X127909030Y-66765671D01*
X127900765Y-66742572D01*
X127894804Y-66718773D01*
X127891204Y-66694505D01*
X127890000Y-66670001D01*
X127890000Y-64969999D01*
X127891204Y-64945495D01*
X127894804Y-64921227D01*
X127900765Y-64897428D01*
X127909030Y-64874329D01*
X127919520Y-64852150D01*
X127932132Y-64831107D01*
X127946747Y-64811401D01*
X127963223Y-64793223D01*
X127981401Y-64776747D01*
X128001107Y-64762132D01*
X128022150Y-64749520D01*
X128044329Y-64739030D01*
X128067428Y-64730765D01*
X128091227Y-64724804D01*
X128115495Y-64721204D01*
X128139999Y-64720000D01*
X129380001Y-64720000D01*
X129404505Y-64721204D01*
G37*
G04 #@! TD.AperFunction*
D16*
X153670000Y-66410000D03*
X153670000Y-61330000D03*
X145090000Y-66620000D03*
X145090000Y-61540000D03*
X99920000Y-112000000D03*
X105000000Y-112000000D03*
G04 #@! TA.AperFunction,ComponentPad*
D15*
G36*
X93903909Y-98002648D02*
G01*
X93957300Y-98010568D01*
X94009657Y-98023683D01*
X94060476Y-98041866D01*
X94109268Y-98064943D01*
X94155564Y-98092692D01*
X94198916Y-98124844D01*
X94238909Y-98161091D01*
X94275156Y-98201084D01*
X94307308Y-98244436D01*
X94335057Y-98290732D01*
X94358134Y-98339524D01*
X94376317Y-98390343D01*
X94389432Y-98442700D01*
X94397352Y-98496091D01*
X94400000Y-98550000D01*
X94400000Y-99650000D01*
X94397352Y-99703909D01*
X94389432Y-99757300D01*
X94376317Y-99809657D01*
X94358134Y-99860476D01*
X94335057Y-99909268D01*
X94307308Y-99955564D01*
X94275156Y-99998916D01*
X94238909Y-100038909D01*
X94198916Y-100075156D01*
X94155564Y-100107308D01*
X94109268Y-100135057D01*
X94060476Y-100158134D01*
X94009657Y-100176317D01*
X93957300Y-100189432D01*
X93903909Y-100197352D01*
X93850000Y-100200000D01*
X92750000Y-100200000D01*
X92696091Y-100197352D01*
X92642700Y-100189432D01*
X92590343Y-100176317D01*
X92539524Y-100158134D01*
X92490732Y-100135057D01*
X92444436Y-100107308D01*
X92401084Y-100075156D01*
X92361091Y-100038909D01*
X92324844Y-99998916D01*
X92292692Y-99955564D01*
X92264943Y-99909268D01*
X92241866Y-99860476D01*
X92223683Y-99809657D01*
X92210568Y-99757300D01*
X92202648Y-99703909D01*
X92200000Y-99650000D01*
X92200000Y-98550000D01*
X92202648Y-98496091D01*
X92210568Y-98442700D01*
X92223683Y-98390343D01*
X92241866Y-98339524D01*
X92264943Y-98290732D01*
X92292692Y-98244436D01*
X92324844Y-98201084D01*
X92361091Y-98161091D01*
X92401084Y-98124844D01*
X92444436Y-98092692D01*
X92490732Y-98064943D01*
X92539524Y-98041866D01*
X92590343Y-98023683D01*
X92642700Y-98010568D01*
X92696091Y-98002648D01*
X92750000Y-98000000D01*
X93850000Y-98000000D01*
X93903909Y-98002648D01*
G37*
G04 #@! TD.AperFunction*
D17*
X110800000Y-99100000D03*
X110800000Y-91600000D03*
X110800000Y-84100000D03*
X93300000Y-84100000D03*
D18*
X75000000Y-119000000D03*
D19*
X134890000Y-72860000D03*
D20*
X124730000Y-72860000D03*
G04 #@! TA.AperFunction,ComponentPad*
D15*
G36*
X143624504Y-92421204D02*
G01*
X143648773Y-92424804D01*
X143672571Y-92430765D01*
X143695671Y-92439030D01*
X143717849Y-92449520D01*
X143738893Y-92462133D01*
X143758598Y-92476747D01*
X143776777Y-92493223D01*
X143793253Y-92511402D01*
X143807867Y-92531107D01*
X143820480Y-92552151D01*
X143830970Y-92574329D01*
X143839235Y-92597429D01*
X143845196Y-92621227D01*
X143848796Y-92645496D01*
X143850000Y-92670000D01*
X143850000Y-96270000D01*
X143848796Y-96294504D01*
X143845196Y-96318773D01*
X143839235Y-96342571D01*
X143830970Y-96365671D01*
X143820480Y-96387849D01*
X143807867Y-96408893D01*
X143793253Y-96428598D01*
X143776777Y-96446777D01*
X143758598Y-96463253D01*
X143738893Y-96477867D01*
X143717849Y-96490480D01*
X143695671Y-96500970D01*
X143672571Y-96509235D01*
X143648773Y-96515196D01*
X143624504Y-96518796D01*
X143600000Y-96520000D01*
X140940000Y-96520000D01*
X140915496Y-96518796D01*
X140891227Y-96515196D01*
X140867429Y-96509235D01*
X140844329Y-96500970D01*
X140822151Y-96490480D01*
X140801107Y-96477867D01*
X140781402Y-96463253D01*
X140763223Y-96446777D01*
X140746747Y-96428598D01*
X140732133Y-96408893D01*
X140719520Y-96387849D01*
X140709030Y-96365671D01*
X140700765Y-96342571D01*
X140694804Y-96318773D01*
X140691204Y-96294504D01*
X140690000Y-96270000D01*
X140690000Y-92670000D01*
X140691204Y-92645496D01*
X140694804Y-92621227D01*
X140700765Y-92597429D01*
X140709030Y-92574329D01*
X140719520Y-92552151D01*
X140732133Y-92531107D01*
X140746747Y-92511402D01*
X140763223Y-92493223D01*
X140781402Y-92476747D01*
X140801107Y-92462133D01*
X140822151Y-92449520D01*
X140844329Y-92439030D01*
X140867429Y-92430765D01*
X140891227Y-92424804D01*
X140915496Y-92421204D01*
X140940000Y-92420000D01*
X143600000Y-92420000D01*
X143624504Y-92421204D01*
G37*
G04 #@! TD.AperFunction*
D21*
X150190000Y-94470000D03*
D22*
X110800000Y-84100000D02*
X116540000Y-84100000D01*
X119220000Y-86780000D02*
X126000000Y-86780000D01*
X116540000Y-84100000D02*
X119220000Y-86780000D01*
X133620000Y-86780000D02*
X141370000Y-86780000D01*
X153670000Y-74480000D02*
X141370000Y-86780000D01*
X153670000Y-66410000D02*
X153670000Y-74480000D01*
D23*
X134890000Y-75350000D02*
X133620000Y-76620000D01*
X134890000Y-72860000D02*
X134890000Y-75350000D01*
X131300000Y-65820000D02*
X131300000Y-69270000D01*
X131300000Y-69270000D02*
X134890000Y-72860000D01*
X125990000Y-76610000D02*
X126000000Y-76620000D01*
X124730000Y-75350000D02*
X126000000Y-76620000D01*
X124730000Y-72860000D02*
X124730000Y-75350000D01*
X128760000Y-68830000D02*
X124730000Y-72860000D01*
X128760000Y-65820000D02*
X128760000Y-68830000D01*
M02*
