G04 #@! TF.GenerationSoftware,KiCad,Pcbnew,(5.1.5-0-10_14)*
G04 #@! TF.CreationDate,2023-03-12T15:51:32+01:00*
G04 #@! TF.ProjectId,AC_board,41435f62-6f61-4726-942e-6b696361645f,v01*
G04 #@! TF.SameCoordinates,Original*
G04 #@! TF.FileFunction,Soldermask,Top*
G04 #@! TF.FilePolarity,Negative*
%FSLAX46Y46*%
G04 Gerber Fmt 4.6, Leading zero omitted, Abs format (unit mm)*
G04 Created by KiCad (PCBNEW (5.1.5-0-10_14)) date 2023-03-12 15:51:32*
%MOMM*%
%LPD*%
G04 APERTURE LIST*
%ADD10C,0.100000*%
G04 APERTURE END LIST*
D10*
G36*
X76181632Y-115104677D02*
G01*
X76487005Y-115231167D01*
X76918868Y-115410050D01*
X77582362Y-115853383D01*
X78146617Y-116417638D01*
X78589950Y-117081132D01*
X78768833Y-117512995D01*
X78895323Y-117818368D01*
X79051000Y-118601010D01*
X79051000Y-119398990D01*
X78895323Y-120181632D01*
X78768833Y-120487005D01*
X78589950Y-120918868D01*
X78146617Y-121582362D01*
X77582362Y-122146617D01*
X76918868Y-122589950D01*
X76487005Y-122768833D01*
X76181632Y-122895323D01*
X75398990Y-123051000D01*
X74601010Y-123051000D01*
X73818368Y-122895323D01*
X73512995Y-122768833D01*
X73081132Y-122589950D01*
X72417638Y-122146617D01*
X71853383Y-121582362D01*
X71410050Y-120918868D01*
X71231167Y-120487005D01*
X71104677Y-120181632D01*
X70949000Y-119398990D01*
X70949000Y-118601010D01*
X71104677Y-117818368D01*
X71231167Y-117512995D01*
X71410050Y-117081132D01*
X71853383Y-116417638D01*
X72417638Y-115853383D01*
X73081132Y-115410050D01*
X73512995Y-115231167D01*
X73818368Y-115104677D01*
X74601010Y-114949000D01*
X75398990Y-114949000D01*
X76181632Y-115104677D01*
G37*
G36*
X97238254Y-107827818D02*
G01*
X97611511Y-107982426D01*
X97611513Y-107982427D01*
X97947436Y-108206884D01*
X98233116Y-108492564D01*
X98457574Y-108828489D01*
X98612182Y-109201746D01*
X98691000Y-109597993D01*
X98691000Y-110002007D01*
X98612182Y-110398254D01*
X98457574Y-110771511D01*
X98457573Y-110771513D01*
X98233116Y-111107436D01*
X97947436Y-111393116D01*
X97611513Y-111617573D01*
X97611512Y-111617574D01*
X97611511Y-111617574D01*
X97238254Y-111772182D01*
X96842007Y-111851000D01*
X96437993Y-111851000D01*
X96041746Y-111772182D01*
X95668489Y-111617574D01*
X95668488Y-111617574D01*
X95668487Y-111617573D01*
X95332564Y-111393116D01*
X95046884Y-111107436D01*
X94822427Y-110771513D01*
X94822426Y-110771511D01*
X94667818Y-110398254D01*
X94589000Y-110002007D01*
X94589000Y-109597993D01*
X94667818Y-109201746D01*
X94822426Y-108828489D01*
X95046884Y-108492564D01*
X95332564Y-108206884D01*
X95668487Y-107982427D01*
X95668489Y-107982426D01*
X96041746Y-107827818D01*
X96437993Y-107749000D01*
X96842007Y-107749000D01*
X97238254Y-107827818D01*
G37*
G36*
X132538433Y-108434893D02*
G01*
X132628657Y-108452839D01*
X132724561Y-108492564D01*
X132883621Y-108558449D01*
X132883622Y-108558450D01*
X133113086Y-108711772D01*
X133308228Y-108906914D01*
X133410675Y-109060237D01*
X133461551Y-109136379D01*
X133567161Y-109391344D01*
X133621000Y-109662012D01*
X133621000Y-109937988D01*
X133567161Y-110208656D01*
X133461551Y-110463621D01*
X133461550Y-110463622D01*
X133308228Y-110693086D01*
X133113086Y-110888228D01*
X132959763Y-110990675D01*
X132883621Y-111041551D01*
X132734267Y-111103415D01*
X132628657Y-111147161D01*
X132538433Y-111165107D01*
X132357988Y-111201000D01*
X132082012Y-111201000D01*
X131901567Y-111165107D01*
X131811343Y-111147161D01*
X131705733Y-111103415D01*
X131556379Y-111041551D01*
X131480237Y-110990675D01*
X131326914Y-110888228D01*
X131131772Y-110693086D01*
X130978450Y-110463622D01*
X130978449Y-110463621D01*
X130872839Y-110208656D01*
X130819000Y-109937988D01*
X130819000Y-109662012D01*
X130872839Y-109391344D01*
X130978449Y-109136379D01*
X131029325Y-109060237D01*
X131131772Y-108906914D01*
X131326914Y-108711772D01*
X131556378Y-108558450D01*
X131556379Y-108558449D01*
X131715439Y-108492564D01*
X131811343Y-108452839D01*
X131901567Y-108434893D01*
X132082012Y-108399000D01*
X132357988Y-108399000D01*
X132538433Y-108434893D01*
G37*
G36*
X137618433Y-108434893D02*
G01*
X137708657Y-108452839D01*
X137804561Y-108492564D01*
X137963621Y-108558449D01*
X137963622Y-108558450D01*
X138193086Y-108711772D01*
X138388228Y-108906914D01*
X138490675Y-109060237D01*
X138541551Y-109136379D01*
X138647161Y-109391344D01*
X138701000Y-109662012D01*
X138701000Y-109937988D01*
X138647161Y-110208656D01*
X138541551Y-110463621D01*
X138541550Y-110463622D01*
X138388228Y-110693086D01*
X138193086Y-110888228D01*
X138039763Y-110990675D01*
X137963621Y-111041551D01*
X137814267Y-111103415D01*
X137708657Y-111147161D01*
X137618433Y-111165107D01*
X137437988Y-111201000D01*
X137162012Y-111201000D01*
X136981567Y-111165107D01*
X136891343Y-111147161D01*
X136785733Y-111103415D01*
X136636379Y-111041551D01*
X136560237Y-110990675D01*
X136406914Y-110888228D01*
X136211772Y-110693086D01*
X136058450Y-110463622D01*
X136058449Y-110463621D01*
X135952839Y-110208656D01*
X135899000Y-109937988D01*
X135899000Y-109662012D01*
X135952839Y-109391344D01*
X136058449Y-109136379D01*
X136109325Y-109060237D01*
X136211772Y-108906914D01*
X136406914Y-108711772D01*
X136636378Y-108558450D01*
X136636379Y-108558449D01*
X136795439Y-108492564D01*
X136891343Y-108452839D01*
X136981567Y-108434893D01*
X137162012Y-108399000D01*
X137437988Y-108399000D01*
X137618433Y-108434893D01*
G37*
G36*
X146288433Y-93834893D02*
G01*
X146378657Y-93852839D01*
X146484267Y-93896585D01*
X146633621Y-93958449D01*
X146633622Y-93958450D01*
X146863086Y-94111772D01*
X147058228Y-94306914D01*
X147160675Y-94460237D01*
X147211551Y-94536379D01*
X147317161Y-94791344D01*
X147371000Y-95062012D01*
X147371000Y-95337988D01*
X147317161Y-95608656D01*
X147211551Y-95863621D01*
X147211550Y-95863622D01*
X147058228Y-96093086D01*
X146863086Y-96288228D01*
X146709763Y-96390675D01*
X146633621Y-96441551D01*
X146484267Y-96503415D01*
X146378657Y-96547161D01*
X146288433Y-96565107D01*
X146107988Y-96601000D01*
X145832012Y-96601000D01*
X145651567Y-96565107D01*
X145561343Y-96547161D01*
X145455733Y-96503415D01*
X145306379Y-96441551D01*
X145230237Y-96390675D01*
X145076914Y-96288228D01*
X144881772Y-96093086D01*
X144728450Y-95863622D01*
X144728449Y-95863621D01*
X144622839Y-95608656D01*
X144569000Y-95337988D01*
X144569000Y-95062012D01*
X144622839Y-94791344D01*
X144728449Y-94536379D01*
X144779325Y-94460237D01*
X144881772Y-94306914D01*
X145076914Y-94111772D01*
X145306378Y-93958450D01*
X145306379Y-93958449D01*
X145455733Y-93896585D01*
X145561343Y-93852839D01*
X145651567Y-93834893D01*
X145832012Y-93799000D01*
X146107988Y-93799000D01*
X146288433Y-93834893D01*
G37*
G36*
X151368433Y-93834893D02*
G01*
X151458657Y-93852839D01*
X151564267Y-93896585D01*
X151713621Y-93958449D01*
X151713622Y-93958450D01*
X151943086Y-94111772D01*
X152138228Y-94306914D01*
X152240675Y-94460237D01*
X152291551Y-94536379D01*
X152397161Y-94791344D01*
X152451000Y-95062012D01*
X152451000Y-95337988D01*
X152397161Y-95608656D01*
X152291551Y-95863621D01*
X152291550Y-95863622D01*
X152138228Y-96093086D01*
X151943086Y-96288228D01*
X151789763Y-96390675D01*
X151713621Y-96441551D01*
X151564267Y-96503415D01*
X151458657Y-96547161D01*
X151368433Y-96565107D01*
X151187988Y-96601000D01*
X150912012Y-96601000D01*
X150731567Y-96565107D01*
X150641343Y-96547161D01*
X150535733Y-96503415D01*
X150386379Y-96441551D01*
X150310237Y-96390675D01*
X150156914Y-96288228D01*
X149961772Y-96093086D01*
X149808450Y-95863622D01*
X149808449Y-95863621D01*
X149702839Y-95608656D01*
X149649000Y-95337988D01*
X149649000Y-95062012D01*
X149702839Y-94791344D01*
X149808449Y-94536379D01*
X149859325Y-94460237D01*
X149961772Y-94306914D01*
X150156914Y-94111772D01*
X150386378Y-93958450D01*
X150386379Y-93958449D01*
X150535733Y-93896585D01*
X150641343Y-93852839D01*
X150731567Y-93834893D01*
X150912012Y-93799000D01*
X151187988Y-93799000D01*
X151368433Y-93834893D01*
G37*
G36*
X132718433Y-80604893D02*
G01*
X132808657Y-80622839D01*
X132914267Y-80666585D01*
X133063621Y-80728449D01*
X133063622Y-80728450D01*
X133293086Y-80881772D01*
X133488228Y-81076914D01*
X133559958Y-81184266D01*
X133641551Y-81306379D01*
X133747161Y-81561344D01*
X133801000Y-81832012D01*
X133801000Y-82107988D01*
X133747161Y-82378656D01*
X133641551Y-82633621D01*
X133641550Y-82633622D01*
X133488228Y-82863086D01*
X133293086Y-83058228D01*
X133243455Y-83091390D01*
X133063621Y-83211551D01*
X132914267Y-83273415D01*
X132808657Y-83317161D01*
X132718433Y-83335107D01*
X132537988Y-83371000D01*
X132262012Y-83371000D01*
X132081567Y-83335107D01*
X131991343Y-83317161D01*
X131885733Y-83273415D01*
X131736379Y-83211551D01*
X131556545Y-83091390D01*
X131506914Y-83058228D01*
X131311772Y-82863086D01*
X131158450Y-82633622D01*
X131158449Y-82633621D01*
X131052839Y-82378656D01*
X130999000Y-82107988D01*
X130999000Y-81832012D01*
X131052839Y-81561344D01*
X131158449Y-81306379D01*
X131240042Y-81184266D01*
X131311772Y-81076914D01*
X131506914Y-80881772D01*
X131736378Y-80728450D01*
X131736379Y-80728449D01*
X131885733Y-80666585D01*
X131991343Y-80622839D01*
X132081567Y-80604893D01*
X132262012Y-80569000D01*
X132537988Y-80569000D01*
X132718433Y-80604893D01*
G37*
G36*
X137798433Y-80604893D02*
G01*
X137888657Y-80622839D01*
X137994267Y-80666585D01*
X138143621Y-80728449D01*
X138143622Y-80728450D01*
X138373086Y-80881772D01*
X138568228Y-81076914D01*
X138639958Y-81184266D01*
X138721551Y-81306379D01*
X138827161Y-81561344D01*
X138881000Y-81832012D01*
X138881000Y-82107988D01*
X138827161Y-82378656D01*
X138721551Y-82633621D01*
X138721550Y-82633622D01*
X138568228Y-82863086D01*
X138373086Y-83058228D01*
X138323455Y-83091390D01*
X138143621Y-83211551D01*
X137994267Y-83273415D01*
X137888657Y-83317161D01*
X137798433Y-83335107D01*
X137617988Y-83371000D01*
X137342012Y-83371000D01*
X137161567Y-83335107D01*
X137071343Y-83317161D01*
X136965733Y-83273415D01*
X136816379Y-83211551D01*
X136636545Y-83091390D01*
X136586914Y-83058228D01*
X136391772Y-82863086D01*
X136238450Y-82633622D01*
X136238449Y-82633621D01*
X136132839Y-82378656D01*
X136079000Y-82107988D01*
X136079000Y-81832012D01*
X136132839Y-81561344D01*
X136238449Y-81306379D01*
X136320042Y-81184266D01*
X136391772Y-81076914D01*
X136586914Y-80881772D01*
X136816378Y-80728450D01*
X136816379Y-80728449D01*
X136965733Y-80666585D01*
X137071343Y-80622839D01*
X137161567Y-80604893D01*
X137342012Y-80569000D01*
X137617988Y-80569000D01*
X137798433Y-80604893D01*
G37*
G36*
X100724549Y-80851116D02*
G01*
X100835734Y-80873232D01*
X101045203Y-80959997D01*
X101233720Y-81085960D01*
X101394040Y-81246280D01*
X101520003Y-81434797D01*
X101606768Y-81644266D01*
X101651000Y-81866636D01*
X101651000Y-82093364D01*
X101606768Y-82315734D01*
X101520003Y-82525203D01*
X101394040Y-82713720D01*
X101233720Y-82874040D01*
X101045203Y-83000003D01*
X100835734Y-83086768D01*
X100724549Y-83108884D01*
X100613365Y-83131000D01*
X100386635Y-83131000D01*
X100275451Y-83108884D01*
X100164266Y-83086768D01*
X99954797Y-83000003D01*
X99766280Y-82874040D01*
X99605960Y-82713720D01*
X99479997Y-82525203D01*
X99393232Y-82315734D01*
X99349000Y-82093364D01*
X99349000Y-81866636D01*
X99393232Y-81644266D01*
X99479997Y-81434797D01*
X99605960Y-81246280D01*
X99766280Y-81085960D01*
X99954797Y-80959997D01*
X100164266Y-80873232D01*
X100275451Y-80851116D01*
X100386635Y-80829000D01*
X100613365Y-80829000D01*
X100724549Y-80851116D01*
G37*
G36*
X116237961Y-80839450D02*
G01*
X116334088Y-80868610D01*
X116422670Y-80915958D01*
X116500318Y-80979682D01*
X116564042Y-81057330D01*
X116611390Y-81145912D01*
X116640550Y-81242039D01*
X116651000Y-81348140D01*
X116651000Y-82611860D01*
X116640550Y-82717961D01*
X116611390Y-82814088D01*
X116564042Y-82902670D01*
X116500318Y-82980318D01*
X116422670Y-83044042D01*
X116334088Y-83091390D01*
X116237961Y-83120550D01*
X116131860Y-83131000D01*
X114868140Y-83131000D01*
X114762039Y-83120550D01*
X114665912Y-83091390D01*
X114577330Y-83044042D01*
X114499682Y-82980318D01*
X114435958Y-82902670D01*
X114388610Y-82814088D01*
X114359450Y-82717961D01*
X114349000Y-82611860D01*
X114349000Y-81348140D01*
X114359450Y-81242039D01*
X114388610Y-81145912D01*
X114435958Y-81057330D01*
X114499682Y-80979682D01*
X114577330Y-80915958D01*
X114665912Y-80868610D01*
X114762039Y-80839450D01*
X114868140Y-80829000D01*
X116131860Y-80829000D01*
X116237961Y-80839450D01*
G37*
G36*
X149478254Y-76597818D02*
G01*
X149851511Y-76752426D01*
X149851513Y-76752427D01*
X150187436Y-76976884D01*
X150473116Y-77262564D01*
X150697574Y-77598489D01*
X150852182Y-77971746D01*
X150931000Y-78367993D01*
X150931000Y-78772007D01*
X150852182Y-79168254D01*
X150697574Y-79541511D01*
X150697573Y-79541513D01*
X150473116Y-79877436D01*
X150187436Y-80163116D01*
X149851513Y-80387573D01*
X149851512Y-80387574D01*
X149851511Y-80387574D01*
X149478254Y-80542182D01*
X149082007Y-80621000D01*
X148677993Y-80621000D01*
X148281746Y-80542182D01*
X147908489Y-80387574D01*
X147908488Y-80387574D01*
X147908487Y-80387573D01*
X147572564Y-80163116D01*
X147286884Y-79877436D01*
X147062427Y-79541513D01*
X147062426Y-79541511D01*
X146907818Y-79168254D01*
X146829000Y-78772007D01*
X146829000Y-78367993D01*
X146907818Y-77971746D01*
X147062426Y-77598489D01*
X147286884Y-77262564D01*
X147572564Y-76976884D01*
X147908487Y-76752427D01*
X147908489Y-76752426D01*
X148281746Y-76597818D01*
X148677993Y-76519000D01*
X149082007Y-76519000D01*
X149478254Y-76597818D01*
G37*
G36*
X151368433Y-63074893D02*
G01*
X151458657Y-63092839D01*
X151564267Y-63136585D01*
X151713621Y-63198449D01*
X151713622Y-63198450D01*
X151943086Y-63351772D01*
X152138228Y-63546914D01*
X152240675Y-63700237D01*
X152291551Y-63776379D01*
X152397161Y-64031344D01*
X152451000Y-64302012D01*
X152451000Y-64577988D01*
X152397161Y-64848656D01*
X152291551Y-65103621D01*
X152291550Y-65103622D01*
X152138228Y-65333086D01*
X151943086Y-65528228D01*
X151855474Y-65586768D01*
X151713621Y-65681551D01*
X151564267Y-65743415D01*
X151458657Y-65787161D01*
X151368433Y-65805107D01*
X151187988Y-65841000D01*
X150912012Y-65841000D01*
X150731567Y-65805107D01*
X150641343Y-65787161D01*
X150535733Y-65743415D01*
X150386379Y-65681551D01*
X150244526Y-65586768D01*
X150156914Y-65528228D01*
X149961772Y-65333086D01*
X149808450Y-65103622D01*
X149808449Y-65103621D01*
X149702839Y-64848656D01*
X149649000Y-64577988D01*
X149649000Y-64302012D01*
X149702839Y-64031344D01*
X149808449Y-63776379D01*
X149859325Y-63700237D01*
X149961772Y-63546914D01*
X150156914Y-63351772D01*
X150386378Y-63198450D01*
X150386379Y-63198449D01*
X150535733Y-63136585D01*
X150641343Y-63092839D01*
X150731567Y-63074893D01*
X150912012Y-63039000D01*
X151187988Y-63039000D01*
X151368433Y-63074893D01*
G37*
G36*
X146288433Y-63074893D02*
G01*
X146378657Y-63092839D01*
X146484267Y-63136585D01*
X146633621Y-63198449D01*
X146633622Y-63198450D01*
X146863086Y-63351772D01*
X147058228Y-63546914D01*
X147160675Y-63700237D01*
X147211551Y-63776379D01*
X147317161Y-64031344D01*
X147371000Y-64302012D01*
X147371000Y-64577988D01*
X147317161Y-64848656D01*
X147211551Y-65103621D01*
X147211550Y-65103622D01*
X147058228Y-65333086D01*
X146863086Y-65528228D01*
X146775474Y-65586768D01*
X146633621Y-65681551D01*
X146484267Y-65743415D01*
X146378657Y-65787161D01*
X146288433Y-65805107D01*
X146107988Y-65841000D01*
X145832012Y-65841000D01*
X145651567Y-65805107D01*
X145561343Y-65787161D01*
X145455733Y-65743415D01*
X145306379Y-65681551D01*
X145164526Y-65586768D01*
X145076914Y-65528228D01*
X144881772Y-65333086D01*
X144728450Y-65103622D01*
X144728449Y-65103621D01*
X144622839Y-64848656D01*
X144569000Y-64577988D01*
X144569000Y-64302012D01*
X144622839Y-64031344D01*
X144728449Y-63776379D01*
X144779325Y-63700237D01*
X144881772Y-63546914D01*
X145076914Y-63351772D01*
X145306378Y-63198450D01*
X145306379Y-63198449D01*
X145455733Y-63136585D01*
X145561343Y-63092839D01*
X145651567Y-63074893D01*
X145832012Y-63039000D01*
X146107988Y-63039000D01*
X146288433Y-63074893D01*
G37*
G36*
X115724549Y-63351116D02*
G01*
X115835734Y-63373232D01*
X116045203Y-63459997D01*
X116233720Y-63585960D01*
X116394040Y-63746280D01*
X116520003Y-63934797D01*
X116606768Y-64144266D01*
X116651000Y-64366636D01*
X116651000Y-64593364D01*
X116606768Y-64815734D01*
X116520003Y-65025203D01*
X116394040Y-65213720D01*
X116233720Y-65374040D01*
X116045203Y-65500003D01*
X115835734Y-65586768D01*
X115724549Y-65608884D01*
X115613365Y-65631000D01*
X115386635Y-65631000D01*
X115275451Y-65608884D01*
X115164266Y-65586768D01*
X114954797Y-65500003D01*
X114766280Y-65374040D01*
X114605960Y-65213720D01*
X114479997Y-65025203D01*
X114393232Y-64815734D01*
X114349000Y-64593364D01*
X114349000Y-64366636D01*
X114393232Y-64144266D01*
X114479997Y-63934797D01*
X114605960Y-63746280D01*
X114766280Y-63585960D01*
X114954797Y-63459997D01*
X115164266Y-63373232D01*
X115275451Y-63351116D01*
X115386635Y-63329000D01*
X115613365Y-63329000D01*
X115724549Y-63351116D01*
G37*
G36*
X108224549Y-63351116D02*
G01*
X108335734Y-63373232D01*
X108545203Y-63459997D01*
X108733720Y-63585960D01*
X108894040Y-63746280D01*
X109020003Y-63934797D01*
X109106768Y-64144266D01*
X109151000Y-64366636D01*
X109151000Y-64593364D01*
X109106768Y-64815734D01*
X109020003Y-65025203D01*
X108894040Y-65213720D01*
X108733720Y-65374040D01*
X108545203Y-65500003D01*
X108335734Y-65586768D01*
X108224549Y-65608884D01*
X108113365Y-65631000D01*
X107886635Y-65631000D01*
X107775451Y-65608884D01*
X107664266Y-65586768D01*
X107454797Y-65500003D01*
X107266280Y-65374040D01*
X107105960Y-65213720D01*
X106979997Y-65025203D01*
X106893232Y-64815734D01*
X106849000Y-64593364D01*
X106849000Y-64366636D01*
X106893232Y-64144266D01*
X106979997Y-63934797D01*
X107105960Y-63746280D01*
X107266280Y-63585960D01*
X107454797Y-63459997D01*
X107664266Y-63373232D01*
X107775451Y-63351116D01*
X107886635Y-63329000D01*
X108113365Y-63329000D01*
X108224549Y-63351116D01*
G37*
G36*
X100724549Y-63351116D02*
G01*
X100835734Y-63373232D01*
X101045203Y-63459997D01*
X101233720Y-63585960D01*
X101394040Y-63746280D01*
X101520003Y-63934797D01*
X101606768Y-64144266D01*
X101651000Y-64366636D01*
X101651000Y-64593364D01*
X101606768Y-64815734D01*
X101520003Y-65025203D01*
X101394040Y-65213720D01*
X101233720Y-65374040D01*
X101045203Y-65500003D01*
X100835734Y-65586768D01*
X100724549Y-65608884D01*
X100613365Y-65631000D01*
X100386635Y-65631000D01*
X100275451Y-65608884D01*
X100164266Y-65586768D01*
X99954797Y-65500003D01*
X99766280Y-65374040D01*
X99605960Y-65213720D01*
X99479997Y-65025203D01*
X99393232Y-64815734D01*
X99349000Y-64593364D01*
X99349000Y-64366636D01*
X99393232Y-64144266D01*
X99479997Y-63934797D01*
X99605960Y-63746280D01*
X99766280Y-63585960D01*
X99954797Y-63459997D01*
X100164266Y-63373232D01*
X100275451Y-63351116D01*
X100386635Y-63329000D01*
X100613365Y-63329000D01*
X100724549Y-63351116D01*
G37*
G36*
X77438254Y-55057818D02*
G01*
X77801912Y-55208450D01*
X77811513Y-55212427D01*
X78147436Y-55436884D01*
X78433116Y-55722564D01*
X78646118Y-56041343D01*
X78657574Y-56058489D01*
X78812182Y-56431746D01*
X78891000Y-56827993D01*
X78891000Y-57232007D01*
X78812182Y-57628254D01*
X78657574Y-58001511D01*
X78657573Y-58001513D01*
X78433116Y-58337436D01*
X78147436Y-58623116D01*
X77811513Y-58847573D01*
X77811512Y-58847574D01*
X77811511Y-58847574D01*
X77438254Y-59002182D01*
X77042007Y-59081000D01*
X76637993Y-59081000D01*
X76241746Y-59002182D01*
X75868489Y-58847574D01*
X75868488Y-58847574D01*
X75868487Y-58847573D01*
X75532564Y-58623116D01*
X75246884Y-58337436D01*
X75022427Y-58001513D01*
X75022426Y-58001511D01*
X74867818Y-57628254D01*
X74789000Y-57232007D01*
X74789000Y-56827993D01*
X74867818Y-56431746D01*
X75022426Y-56058489D01*
X75033883Y-56041343D01*
X75246884Y-55722564D01*
X75532564Y-55436884D01*
X75868487Y-55212427D01*
X75878088Y-55208450D01*
X76241746Y-55057818D01*
X76637993Y-54979000D01*
X77042007Y-54979000D01*
X77438254Y-55057818D01*
G37*
G36*
X137858433Y-55084893D02*
G01*
X137948657Y-55102839D01*
X138054267Y-55146585D01*
X138203621Y-55208449D01*
X138203622Y-55208450D01*
X138433086Y-55361772D01*
X138628228Y-55556914D01*
X138730675Y-55710237D01*
X138781551Y-55786379D01*
X138843415Y-55935733D01*
X138887161Y-56041343D01*
X138905107Y-56131567D01*
X138941000Y-56312012D01*
X138941000Y-56587988D01*
X138887161Y-56858656D01*
X138781551Y-57113621D01*
X138781550Y-57113622D01*
X138628228Y-57343086D01*
X138433086Y-57538228D01*
X138298352Y-57628254D01*
X138203621Y-57691551D01*
X138054267Y-57753415D01*
X137948657Y-57797161D01*
X137858433Y-57815107D01*
X137677988Y-57851000D01*
X137402012Y-57851000D01*
X137221567Y-57815107D01*
X137131343Y-57797161D01*
X137025733Y-57753415D01*
X136876379Y-57691551D01*
X136781648Y-57628254D01*
X136646914Y-57538228D01*
X136451772Y-57343086D01*
X136298450Y-57113622D01*
X136298449Y-57113621D01*
X136192839Y-56858656D01*
X136139000Y-56587988D01*
X136139000Y-56312012D01*
X136174893Y-56131567D01*
X136192839Y-56041343D01*
X136236585Y-55935733D01*
X136298449Y-55786379D01*
X136349325Y-55710237D01*
X136451772Y-55556914D01*
X136646914Y-55361772D01*
X136876378Y-55208450D01*
X136876379Y-55208449D01*
X137025733Y-55146585D01*
X137131343Y-55102839D01*
X137221567Y-55084893D01*
X137402012Y-55049000D01*
X137677988Y-55049000D01*
X137858433Y-55084893D01*
G37*
G36*
X132778433Y-55084893D02*
G01*
X132868657Y-55102839D01*
X132974267Y-55146585D01*
X133123621Y-55208449D01*
X133123622Y-55208450D01*
X133353086Y-55361772D01*
X133548228Y-55556914D01*
X133650675Y-55710237D01*
X133701551Y-55786379D01*
X133763415Y-55935733D01*
X133807161Y-56041343D01*
X133825107Y-56131567D01*
X133861000Y-56312012D01*
X133861000Y-56587988D01*
X133807161Y-56858656D01*
X133701551Y-57113621D01*
X133701550Y-57113622D01*
X133548228Y-57343086D01*
X133353086Y-57538228D01*
X133218352Y-57628254D01*
X133123621Y-57691551D01*
X132974267Y-57753415D01*
X132868657Y-57797161D01*
X132778433Y-57815107D01*
X132597988Y-57851000D01*
X132322012Y-57851000D01*
X132141567Y-57815107D01*
X132051343Y-57797161D01*
X131945733Y-57753415D01*
X131796379Y-57691551D01*
X131701648Y-57628254D01*
X131566914Y-57538228D01*
X131371772Y-57343086D01*
X131218450Y-57113622D01*
X131218449Y-57113621D01*
X131112839Y-56858656D01*
X131059000Y-56587988D01*
X131059000Y-56312012D01*
X131094893Y-56131567D01*
X131112839Y-56041343D01*
X131156585Y-55935733D01*
X131218449Y-55786379D01*
X131269325Y-55710237D01*
X131371772Y-55556914D01*
X131566914Y-55361772D01*
X131796378Y-55208450D01*
X131796379Y-55208449D01*
X131945733Y-55146585D01*
X132051343Y-55102839D01*
X132141567Y-55084893D01*
X132322012Y-55049000D01*
X132597988Y-55049000D01*
X132778433Y-55084893D01*
G37*
M02*
