G04 #@! TF.GenerationSoftware,KiCad,Pcbnew,(5.1.5-0-10_14)*
G04 #@! TF.CreationDate,2020-11-16T15:22:10+01:00*
G04 #@! TF.ProjectId,AC_board,41435f62-6f61-4726-942e-6b696361645f,v01*
G04 #@! TF.SameCoordinates,Original*
G04 #@! TF.FileFunction,Soldermask,Bot*
G04 #@! TF.FilePolarity,Negative*
%FSLAX46Y46*%
G04 Gerber Fmt 4.6, Leading zero omitted, Abs format (unit mm)*
G04 Created by KiCad (PCBNEW (5.1.5-0-10_14)) date 2020-11-16 15:22:10*
%MOMM*%
%LPD*%
G04 APERTURE LIST*
%ADD10C,0.100000*%
G04 APERTURE END LIST*
D10*
G36*
X76181632Y-115104677D02*
G01*
X76487005Y-115231167D01*
X76918868Y-115410050D01*
X77582362Y-115853383D01*
X78146617Y-116417638D01*
X78589950Y-117081132D01*
X78768833Y-117512995D01*
X78895323Y-117818368D01*
X79051000Y-118601010D01*
X79051000Y-119398990D01*
X78895323Y-120181632D01*
X78768833Y-120487005D01*
X78589950Y-120918868D01*
X78146617Y-121582362D01*
X77582362Y-122146617D01*
X76918868Y-122589950D01*
X76487005Y-122768833D01*
X76181632Y-122895323D01*
X75398990Y-123051000D01*
X74601010Y-123051000D01*
X73818368Y-122895323D01*
X73512995Y-122768833D01*
X73081132Y-122589950D01*
X72417638Y-122146617D01*
X71853383Y-121582362D01*
X71410050Y-120918868D01*
X71231167Y-120487005D01*
X71104677Y-120181632D01*
X70949000Y-119398990D01*
X70949000Y-118601010D01*
X71104677Y-117818368D01*
X71231167Y-117512995D01*
X71410050Y-117081132D01*
X71853383Y-116417638D01*
X72417638Y-115853383D01*
X73081132Y-115410050D01*
X73512995Y-115231167D01*
X73818368Y-115104677D01*
X74601010Y-114949000D01*
X75398990Y-114949000D01*
X76181632Y-115104677D01*
G37*
G36*
X87598254Y-110027818D02*
G01*
X87971511Y-110182426D01*
X87971513Y-110182427D01*
X88307436Y-110406884D01*
X88593116Y-110692564D01*
X88811400Y-111019248D01*
X88817574Y-111028489D01*
X88972182Y-111401746D01*
X89051000Y-111797993D01*
X89051000Y-112202007D01*
X88972182Y-112598254D01*
X88817574Y-112971511D01*
X88817573Y-112971513D01*
X88593116Y-113307436D01*
X88307436Y-113593116D01*
X87971513Y-113817573D01*
X87971512Y-113817574D01*
X87971511Y-113817574D01*
X87598254Y-113972182D01*
X87202007Y-114051000D01*
X86797993Y-114051000D01*
X86401746Y-113972182D01*
X86028489Y-113817574D01*
X86028488Y-113817574D01*
X86028487Y-113817573D01*
X85692564Y-113593116D01*
X85406884Y-113307436D01*
X85182427Y-112971513D01*
X85182426Y-112971511D01*
X85027818Y-112598254D01*
X84949000Y-112202007D01*
X84949000Y-111797993D01*
X85027818Y-111401746D01*
X85182426Y-111028489D01*
X85188601Y-111019248D01*
X85406884Y-110692564D01*
X85692564Y-110406884D01*
X86028487Y-110182427D01*
X86028489Y-110182426D01*
X86401746Y-110027818D01*
X86797993Y-109949000D01*
X87202007Y-109949000D01*
X87598254Y-110027818D01*
G37*
G36*
X100238433Y-110634893D02*
G01*
X100328657Y-110652839D01*
X100424561Y-110692564D01*
X100583621Y-110758449D01*
X100619451Y-110782390D01*
X100813086Y-110911772D01*
X101008228Y-111106914D01*
X101110675Y-111260237D01*
X101161551Y-111336379D01*
X101267161Y-111591344D01*
X101321000Y-111862012D01*
X101321000Y-112137988D01*
X101267161Y-112408656D01*
X101161551Y-112663621D01*
X101161550Y-112663622D01*
X101008228Y-112893086D01*
X100813086Y-113088228D01*
X100659763Y-113190675D01*
X100583621Y-113241551D01*
X100434267Y-113303415D01*
X100328657Y-113347161D01*
X100238433Y-113365107D01*
X100057988Y-113401000D01*
X99782012Y-113401000D01*
X99601567Y-113365107D01*
X99511343Y-113347161D01*
X99405733Y-113303415D01*
X99256379Y-113241551D01*
X99180237Y-113190675D01*
X99026914Y-113088228D01*
X98831772Y-112893086D01*
X98678450Y-112663622D01*
X98678449Y-112663621D01*
X98572839Y-112408656D01*
X98519000Y-112137988D01*
X98519000Y-111862012D01*
X98572839Y-111591344D01*
X98678449Y-111336379D01*
X98729325Y-111260237D01*
X98831772Y-111106914D01*
X99026914Y-110911772D01*
X99220549Y-110782390D01*
X99256379Y-110758449D01*
X99415439Y-110692564D01*
X99511343Y-110652839D01*
X99601567Y-110634893D01*
X99782012Y-110599000D01*
X100057988Y-110599000D01*
X100238433Y-110634893D01*
G37*
G36*
X105318433Y-110634893D02*
G01*
X105408657Y-110652839D01*
X105504561Y-110692564D01*
X105663621Y-110758449D01*
X105699451Y-110782390D01*
X105893086Y-110911772D01*
X106088228Y-111106914D01*
X106190675Y-111260237D01*
X106241551Y-111336379D01*
X106347161Y-111591344D01*
X106401000Y-111862012D01*
X106401000Y-112137988D01*
X106347161Y-112408656D01*
X106241551Y-112663621D01*
X106241550Y-112663622D01*
X106088228Y-112893086D01*
X105893086Y-113088228D01*
X105739763Y-113190675D01*
X105663621Y-113241551D01*
X105514267Y-113303415D01*
X105408657Y-113347161D01*
X105318433Y-113365107D01*
X105137988Y-113401000D01*
X104862012Y-113401000D01*
X104681567Y-113365107D01*
X104591343Y-113347161D01*
X104485733Y-113303415D01*
X104336379Y-113241551D01*
X104260237Y-113190675D01*
X104106914Y-113088228D01*
X103911772Y-112893086D01*
X103758450Y-112663622D01*
X103758449Y-112663621D01*
X103652839Y-112408656D01*
X103599000Y-112137988D01*
X103599000Y-111862012D01*
X103652839Y-111591344D01*
X103758449Y-111336379D01*
X103809325Y-111260237D01*
X103911772Y-111106914D01*
X104106914Y-110911772D01*
X104300549Y-110782390D01*
X104336379Y-110758449D01*
X104495439Y-110692564D01*
X104591343Y-110652839D01*
X104681567Y-110634893D01*
X104862012Y-110599000D01*
X105137988Y-110599000D01*
X105318433Y-110634893D01*
G37*
G36*
X146807610Y-109961114D02*
G01*
X146968650Y-110027819D01*
X147030729Y-110053533D01*
X147081269Y-110087303D01*
X147231529Y-110187703D01*
X147402297Y-110358471D01*
X147536468Y-110559273D01*
X147628886Y-110782390D01*
X147676000Y-111019248D01*
X147676000Y-111260752D01*
X147628886Y-111497610D01*
X147536468Y-111720727D01*
X147402297Y-111921529D01*
X147231529Y-112092297D01*
X147081269Y-112192697D01*
X147030729Y-112226467D01*
X147030728Y-112226468D01*
X147030727Y-112226468D01*
X146807610Y-112318886D01*
X146570752Y-112366000D01*
X146329248Y-112366000D01*
X146092390Y-112318886D01*
X145869273Y-112226468D01*
X145869272Y-112226468D01*
X145869271Y-112226467D01*
X145818731Y-112192697D01*
X145668471Y-112092297D01*
X145497703Y-111921529D01*
X145363532Y-111720727D01*
X145271114Y-111497610D01*
X145224000Y-111260752D01*
X145224000Y-111019248D01*
X145271114Y-110782390D01*
X145363532Y-110559273D01*
X145497703Y-110358471D01*
X145668471Y-110187703D01*
X145818731Y-110087303D01*
X145869271Y-110053533D01*
X145931350Y-110027819D01*
X146092390Y-109961114D01*
X146329248Y-109914000D01*
X146570752Y-109914000D01*
X146807610Y-109961114D01*
G37*
G36*
X129007610Y-109961114D02*
G01*
X129168650Y-110027819D01*
X129230729Y-110053533D01*
X129281269Y-110087303D01*
X129431529Y-110187703D01*
X129602297Y-110358471D01*
X129736468Y-110559273D01*
X129828886Y-110782390D01*
X129876000Y-111019248D01*
X129876000Y-111260752D01*
X129828886Y-111497610D01*
X129736468Y-111720727D01*
X129602297Y-111921529D01*
X129431529Y-112092297D01*
X129281269Y-112192697D01*
X129230729Y-112226467D01*
X129230728Y-112226468D01*
X129230727Y-112226468D01*
X129007610Y-112318886D01*
X128770752Y-112366000D01*
X128529248Y-112366000D01*
X128292390Y-112318886D01*
X128069273Y-112226468D01*
X128069272Y-112226468D01*
X128069271Y-112226467D01*
X128018731Y-112192697D01*
X127868471Y-112092297D01*
X127697703Y-111921529D01*
X127563532Y-111720727D01*
X127471114Y-111497610D01*
X127424000Y-111260752D01*
X127424000Y-111019248D01*
X127471114Y-110782390D01*
X127563532Y-110559273D01*
X127697703Y-110358471D01*
X127868471Y-110187703D01*
X128018731Y-110087303D01*
X128069271Y-110053533D01*
X128131350Y-110027819D01*
X128292390Y-109961114D01*
X128529248Y-109914000D01*
X128770752Y-109914000D01*
X129007610Y-109961114D01*
G37*
G36*
X146787610Y-104881114D02*
G01*
X147010727Y-104973532D01*
X147010729Y-104973533D01*
X147061269Y-105007303D01*
X147211529Y-105107703D01*
X147382297Y-105278471D01*
X147516468Y-105479273D01*
X147608886Y-105702390D01*
X147656000Y-105939248D01*
X147656000Y-106180752D01*
X147608886Y-106417610D01*
X147516468Y-106640727D01*
X147382297Y-106841529D01*
X147211529Y-107012297D01*
X147061269Y-107112697D01*
X147010729Y-107146467D01*
X147010728Y-107146468D01*
X147010727Y-107146468D01*
X146787610Y-107238886D01*
X146550752Y-107286000D01*
X146309248Y-107286000D01*
X146072390Y-107238886D01*
X145849273Y-107146468D01*
X145849272Y-107146468D01*
X145849271Y-107146467D01*
X145798731Y-107112697D01*
X145648471Y-107012297D01*
X145477703Y-106841529D01*
X145343532Y-106640727D01*
X145251114Y-106417610D01*
X145204000Y-106180752D01*
X145204000Y-105939248D01*
X145251114Y-105702390D01*
X145343532Y-105479273D01*
X145477703Y-105278471D01*
X145648471Y-105107703D01*
X145798731Y-105007303D01*
X145849271Y-104973533D01*
X145849273Y-104973532D01*
X146072390Y-104881114D01*
X146309248Y-104834000D01*
X146550752Y-104834000D01*
X146787610Y-104881114D01*
G37*
G36*
X128987610Y-104881114D02*
G01*
X129210727Y-104973532D01*
X129210729Y-104973533D01*
X129261269Y-105007303D01*
X129411529Y-105107703D01*
X129582297Y-105278471D01*
X129716468Y-105479273D01*
X129808886Y-105702390D01*
X129856000Y-105939248D01*
X129856000Y-106180752D01*
X129808886Y-106417610D01*
X129716468Y-106640727D01*
X129582297Y-106841529D01*
X129411529Y-107012297D01*
X129261269Y-107112697D01*
X129210729Y-107146467D01*
X129210728Y-107146468D01*
X129210727Y-107146468D01*
X128987610Y-107238886D01*
X128750752Y-107286000D01*
X128509248Y-107286000D01*
X128272390Y-107238886D01*
X128049273Y-107146468D01*
X128049272Y-107146468D01*
X128049271Y-107146467D01*
X127998731Y-107112697D01*
X127848471Y-107012297D01*
X127677703Y-106841529D01*
X127543532Y-106640727D01*
X127451114Y-106417610D01*
X127404000Y-106180752D01*
X127404000Y-105939248D01*
X127451114Y-105702390D01*
X127543532Y-105479273D01*
X127677703Y-105278471D01*
X127848471Y-105107703D01*
X127998731Y-105007303D01*
X128049271Y-104973533D01*
X128049273Y-104973532D01*
X128272390Y-104881114D01*
X128509248Y-104834000D01*
X128750752Y-104834000D01*
X128987610Y-104881114D01*
G37*
G36*
X111024549Y-97971116D02*
G01*
X111135734Y-97993232D01*
X111345203Y-98079997D01*
X111533720Y-98205960D01*
X111694040Y-98366280D01*
X111820003Y-98554797D01*
X111906768Y-98764266D01*
X111951000Y-98986636D01*
X111951000Y-99213364D01*
X111906768Y-99435734D01*
X111820003Y-99645203D01*
X111694040Y-99833720D01*
X111533720Y-99994040D01*
X111345203Y-100120003D01*
X111135734Y-100206768D01*
X111024549Y-100228884D01*
X110913365Y-100251000D01*
X110686635Y-100251000D01*
X110575451Y-100228884D01*
X110464266Y-100206768D01*
X110254797Y-100120003D01*
X110066280Y-99994040D01*
X109905960Y-99833720D01*
X109779997Y-99645203D01*
X109693232Y-99435734D01*
X109649000Y-99213364D01*
X109649000Y-98986636D01*
X109693232Y-98764266D01*
X109779997Y-98554797D01*
X109905960Y-98366280D01*
X110066280Y-98205960D01*
X110254797Y-98079997D01*
X110464266Y-97993232D01*
X110575451Y-97971116D01*
X110686635Y-97949000D01*
X110913365Y-97949000D01*
X111024549Y-97971116D01*
G37*
G36*
X94037961Y-97959450D02*
G01*
X94134088Y-97988610D01*
X94222670Y-98035958D01*
X94300318Y-98099682D01*
X94364042Y-98177330D01*
X94411390Y-98265912D01*
X94440550Y-98362039D01*
X94451000Y-98468140D01*
X94451000Y-99731860D01*
X94440550Y-99837961D01*
X94411390Y-99934088D01*
X94364042Y-100022670D01*
X94300318Y-100100318D01*
X94222670Y-100164042D01*
X94134088Y-100211390D01*
X94037961Y-100240550D01*
X93931860Y-100251000D01*
X92668140Y-100251000D01*
X92562039Y-100240550D01*
X92465912Y-100211390D01*
X92377330Y-100164042D01*
X92299682Y-100100318D01*
X92235958Y-100022670D01*
X92188610Y-99934088D01*
X92159450Y-99837961D01*
X92149000Y-99731860D01*
X92149000Y-98468140D01*
X92159450Y-98362039D01*
X92188610Y-98265912D01*
X92235958Y-98177330D01*
X92299682Y-98099682D01*
X92377330Y-98035958D01*
X92465912Y-97988610D01*
X92562039Y-97959450D01*
X92668140Y-97949000D01*
X93931860Y-97949000D01*
X94037961Y-97959450D01*
G37*
G36*
X150509729Y-92392599D02*
G01*
X150817178Y-92485863D01*
X151100514Y-92637309D01*
X151100517Y-92637311D01*
X151100518Y-92637312D01*
X151348871Y-92841129D01*
X151348873Y-92841132D01*
X151552689Y-93089482D01*
X151704137Y-93372821D01*
X151797401Y-93680270D01*
X151821000Y-93919878D01*
X151821000Y-95020121D01*
X151797401Y-95259730D01*
X151704137Y-95567179D01*
X151552689Y-95850518D01*
X151348871Y-96098871D01*
X151100518Y-96302689D01*
X150817179Y-96454137D01*
X150509730Y-96547401D01*
X150190000Y-96578891D01*
X149870271Y-96547401D01*
X149562822Y-96454137D01*
X149279483Y-96302689D01*
X149031130Y-96098871D01*
X148827312Y-95850519D01*
X148756180Y-95717441D01*
X148675863Y-95567179D01*
X148582599Y-95259730D01*
X148559000Y-95020122D01*
X148559000Y-93919879D01*
X148582599Y-93680271D01*
X148675863Y-93372822D01*
X148827309Y-93089486D01*
X148827313Y-93089481D01*
X149031129Y-92841129D01*
X149279481Y-92637312D01*
X149279480Y-92637312D01*
X149279482Y-92637311D01*
X149562821Y-92485863D01*
X149870270Y-92392599D01*
X150190000Y-92361109D01*
X150509729Y-92392599D01*
G37*
G36*
X143777850Y-92372530D02*
G01*
X143806413Y-92381194D01*
X143832734Y-92395263D01*
X143855804Y-92414196D01*
X143874737Y-92437266D01*
X143888806Y-92463587D01*
X143897470Y-92492150D01*
X143901000Y-92527990D01*
X143901000Y-96412010D01*
X143897470Y-96447850D01*
X143888806Y-96476413D01*
X143874737Y-96502734D01*
X143855804Y-96525804D01*
X143832734Y-96544737D01*
X143806413Y-96558806D01*
X143777850Y-96567470D01*
X143742010Y-96571000D01*
X140797990Y-96571000D01*
X140762150Y-96567470D01*
X140733587Y-96558806D01*
X140707266Y-96544737D01*
X140684196Y-96525804D01*
X140665263Y-96502734D01*
X140651194Y-96476413D01*
X140642530Y-96447850D01*
X140639000Y-96412010D01*
X140639000Y-92527990D01*
X140642530Y-92492150D01*
X140651194Y-92463587D01*
X140665263Y-92437266D01*
X140684196Y-92414196D01*
X140707266Y-92395263D01*
X140733587Y-92381194D01*
X140762150Y-92372530D01*
X140797990Y-92369000D01*
X143742010Y-92369000D01*
X143777850Y-92372530D01*
G37*
G36*
X133834794Y-93320155D02*
G01*
X133941150Y-93341311D01*
X134017231Y-93372825D01*
X134141520Y-93424307D01*
X134321844Y-93544795D01*
X134475205Y-93698156D01*
X134595693Y-93878480D01*
X134678689Y-94078851D01*
X134721000Y-94291560D01*
X134721000Y-94508440D01*
X134678689Y-94721149D01*
X134595693Y-94921520D01*
X134475205Y-95101844D01*
X134321844Y-95255205D01*
X134141520Y-95375693D01*
X133941150Y-95458689D01*
X133834794Y-95479845D01*
X133728440Y-95501000D01*
X133511560Y-95501000D01*
X133405205Y-95479844D01*
X133298850Y-95458689D01*
X133098480Y-95375693D01*
X132918156Y-95255205D01*
X132764795Y-95101844D01*
X132644307Y-94921520D01*
X132561311Y-94721149D01*
X132519000Y-94508440D01*
X132519000Y-94291560D01*
X132561311Y-94078851D01*
X132644307Y-93878480D01*
X132764795Y-93698156D01*
X132918156Y-93544795D01*
X133098480Y-93424307D01*
X133222769Y-93372825D01*
X133298850Y-93341311D01*
X133405206Y-93320155D01*
X133511560Y-93299000D01*
X133728440Y-93299000D01*
X133834794Y-93320155D01*
G37*
G36*
X126214794Y-93320155D02*
G01*
X126321150Y-93341311D01*
X126397231Y-93372825D01*
X126521520Y-93424307D01*
X126701844Y-93544795D01*
X126855205Y-93698156D01*
X126975693Y-93878480D01*
X127058689Y-94078851D01*
X127101000Y-94291560D01*
X127101000Y-94508440D01*
X127058689Y-94721149D01*
X126975693Y-94921520D01*
X126855205Y-95101844D01*
X126701844Y-95255205D01*
X126521520Y-95375693D01*
X126321150Y-95458689D01*
X126214794Y-95479845D01*
X126108440Y-95501000D01*
X125891560Y-95501000D01*
X125785205Y-95479844D01*
X125678850Y-95458689D01*
X125478480Y-95375693D01*
X125298156Y-95255205D01*
X125144795Y-95101844D01*
X125024307Y-94921520D01*
X124941311Y-94721149D01*
X124899000Y-94508440D01*
X124899000Y-94291560D01*
X124941311Y-94078851D01*
X125024307Y-93878480D01*
X125144795Y-93698156D01*
X125298156Y-93544795D01*
X125478480Y-93424307D01*
X125602769Y-93372825D01*
X125678850Y-93341311D01*
X125785206Y-93320155D01*
X125891560Y-93299000D01*
X126108440Y-93299000D01*
X126214794Y-93320155D01*
G37*
G36*
X111024549Y-90471116D02*
G01*
X111135734Y-90493232D01*
X111345203Y-90579997D01*
X111533720Y-90705960D01*
X111694040Y-90866280D01*
X111820003Y-91054797D01*
X111906768Y-91264266D01*
X111951000Y-91486636D01*
X111951000Y-91713364D01*
X111906768Y-91935734D01*
X111820003Y-92145203D01*
X111694040Y-92333720D01*
X111533720Y-92494040D01*
X111345203Y-92620003D01*
X111345202Y-92620004D01*
X111345201Y-92620004D01*
X111283850Y-92645416D01*
X111135734Y-92706768D01*
X111024549Y-92728884D01*
X110913365Y-92751000D01*
X110686635Y-92751000D01*
X110575451Y-92728884D01*
X110464266Y-92706768D01*
X110316150Y-92645416D01*
X110254799Y-92620004D01*
X110254798Y-92620004D01*
X110254797Y-92620003D01*
X110066280Y-92494040D01*
X109905960Y-92333720D01*
X109779997Y-92145203D01*
X109693232Y-91935734D01*
X109649000Y-91713364D01*
X109649000Y-91486636D01*
X109693232Y-91264266D01*
X109779997Y-91054797D01*
X109905960Y-90866280D01*
X110066280Y-90705960D01*
X110254797Y-90579997D01*
X110464266Y-90493232D01*
X110575451Y-90471116D01*
X110686635Y-90449000D01*
X110913365Y-90449000D01*
X111024549Y-90471116D01*
G37*
G36*
X126214794Y-85700155D02*
G01*
X126321150Y-85721311D01*
X126421334Y-85762809D01*
X126521520Y-85804307D01*
X126701844Y-85924795D01*
X126855205Y-86078156D01*
X126975693Y-86258480D01*
X127058689Y-86458851D01*
X127101000Y-86671560D01*
X127101000Y-86888440D01*
X127058689Y-87101149D01*
X126975693Y-87301520D01*
X126855205Y-87481844D01*
X126701844Y-87635205D01*
X126521520Y-87755693D01*
X126421334Y-87797191D01*
X126321150Y-87838689D01*
X126214794Y-87859845D01*
X126108440Y-87881000D01*
X125891560Y-87881000D01*
X125785206Y-87859845D01*
X125678850Y-87838689D01*
X125578666Y-87797191D01*
X125478480Y-87755693D01*
X125298156Y-87635205D01*
X125144795Y-87481844D01*
X125024307Y-87301520D01*
X124941311Y-87101149D01*
X124899000Y-86888440D01*
X124899000Y-86671560D01*
X124941311Y-86458851D01*
X125024307Y-86258480D01*
X125144795Y-86078156D01*
X125298156Y-85924795D01*
X125478480Y-85804307D01*
X125678850Y-85721311D01*
X125785206Y-85700155D01*
X125891560Y-85679000D01*
X126108440Y-85679000D01*
X126214794Y-85700155D01*
G37*
G36*
X133834794Y-85700155D02*
G01*
X133941150Y-85721311D01*
X134041334Y-85762809D01*
X134141520Y-85804307D01*
X134321844Y-85924795D01*
X134475205Y-86078156D01*
X134595693Y-86258480D01*
X134678689Y-86458851D01*
X134721000Y-86671560D01*
X134721000Y-86888440D01*
X134678689Y-87101149D01*
X134595693Y-87301520D01*
X134475205Y-87481844D01*
X134321844Y-87635205D01*
X134141520Y-87755693D01*
X134041334Y-87797191D01*
X133941150Y-87838689D01*
X133834794Y-87859845D01*
X133728440Y-87881000D01*
X133511560Y-87881000D01*
X133405206Y-87859845D01*
X133298850Y-87838689D01*
X133198666Y-87797191D01*
X133098480Y-87755693D01*
X132918156Y-87635205D01*
X132764795Y-87481844D01*
X132644307Y-87301520D01*
X132561311Y-87101149D01*
X132519000Y-86888440D01*
X132519000Y-86671560D01*
X132561311Y-86458851D01*
X132644307Y-86258480D01*
X132764795Y-86078156D01*
X132918156Y-85924795D01*
X133098480Y-85804307D01*
X133298850Y-85721311D01*
X133405206Y-85700155D01*
X133511560Y-85679000D01*
X133728440Y-85679000D01*
X133834794Y-85700155D01*
G37*
G36*
X93524549Y-82971116D02*
G01*
X93635734Y-82993232D01*
X93845203Y-83079997D01*
X94033720Y-83205960D01*
X94194040Y-83366280D01*
X94320003Y-83554797D01*
X94406768Y-83764266D01*
X94451000Y-83986636D01*
X94451000Y-84213364D01*
X94406768Y-84435734D01*
X94320003Y-84645203D01*
X94194040Y-84833720D01*
X94033720Y-84994040D01*
X93845203Y-85120003D01*
X93635734Y-85206768D01*
X93524549Y-85228884D01*
X93413365Y-85251000D01*
X93186635Y-85251000D01*
X93075451Y-85228884D01*
X92964266Y-85206768D01*
X92754797Y-85120003D01*
X92566280Y-84994040D01*
X92405960Y-84833720D01*
X92279997Y-84645203D01*
X92193232Y-84435734D01*
X92149000Y-84213364D01*
X92149000Y-83986636D01*
X92193232Y-83764266D01*
X92279997Y-83554797D01*
X92405960Y-83366280D01*
X92566280Y-83205960D01*
X92754797Y-83079997D01*
X92964266Y-82993232D01*
X93075451Y-82971116D01*
X93186635Y-82949000D01*
X93413365Y-82949000D01*
X93524549Y-82971116D01*
G37*
G36*
X111024549Y-82971116D02*
G01*
X111135734Y-82993232D01*
X111345203Y-83079997D01*
X111533720Y-83205960D01*
X111694040Y-83366280D01*
X111820003Y-83554797D01*
X111906768Y-83764266D01*
X111951000Y-83986636D01*
X111951000Y-84213364D01*
X111906768Y-84435734D01*
X111820003Y-84645203D01*
X111694040Y-84833720D01*
X111533720Y-84994040D01*
X111345203Y-85120003D01*
X111135734Y-85206768D01*
X111024549Y-85228884D01*
X110913365Y-85251000D01*
X110686635Y-85251000D01*
X110575451Y-85228884D01*
X110464266Y-85206768D01*
X110254797Y-85120003D01*
X110066280Y-84994040D01*
X109905960Y-84833720D01*
X109779997Y-84645203D01*
X109693232Y-84435734D01*
X109649000Y-84213364D01*
X109649000Y-83986636D01*
X109693232Y-83764266D01*
X109779997Y-83554797D01*
X109905960Y-83366280D01*
X110066280Y-83205960D01*
X110254797Y-83079997D01*
X110464266Y-82993232D01*
X110575451Y-82971116D01*
X110686635Y-82949000D01*
X110913365Y-82949000D01*
X111024549Y-82971116D01*
G37*
G36*
X133897395Y-75705546D02*
G01*
X134070466Y-75777234D01*
X134086960Y-75788255D01*
X134226227Y-75881310D01*
X134358690Y-76013773D01*
X134358691Y-76013775D01*
X134462766Y-76169534D01*
X134534454Y-76342605D01*
X134571000Y-76526333D01*
X134571000Y-76713667D01*
X134534454Y-76897395D01*
X134462766Y-77070466D01*
X134462765Y-77070467D01*
X134358690Y-77226227D01*
X134226227Y-77358690D01*
X134147818Y-77411081D01*
X134070466Y-77462766D01*
X133897395Y-77534454D01*
X133713667Y-77571000D01*
X133526333Y-77571000D01*
X133342605Y-77534454D01*
X133169534Y-77462766D01*
X133092182Y-77411081D01*
X133013773Y-77358690D01*
X132881310Y-77226227D01*
X132777235Y-77070467D01*
X132777234Y-77070466D01*
X132705546Y-76897395D01*
X132669000Y-76713667D01*
X132669000Y-76526333D01*
X132705546Y-76342605D01*
X132777234Y-76169534D01*
X132881309Y-76013775D01*
X132881310Y-76013773D01*
X133013773Y-75881310D01*
X133153040Y-75788255D01*
X133169534Y-75777234D01*
X133342605Y-75705546D01*
X133526333Y-75669000D01*
X133713667Y-75669000D01*
X133897395Y-75705546D01*
G37*
G36*
X126277395Y-75705546D02*
G01*
X126450466Y-75777234D01*
X126466960Y-75788255D01*
X126606227Y-75881310D01*
X126738690Y-76013773D01*
X126738691Y-76013775D01*
X126842766Y-76169534D01*
X126914454Y-76342605D01*
X126951000Y-76526333D01*
X126951000Y-76713667D01*
X126914454Y-76897395D01*
X126842766Y-77070466D01*
X126842765Y-77070467D01*
X126738690Y-77226227D01*
X126606227Y-77358690D01*
X126527818Y-77411081D01*
X126450466Y-77462766D01*
X126277395Y-77534454D01*
X126093667Y-77571000D01*
X125906333Y-77571000D01*
X125722605Y-77534454D01*
X125549534Y-77462766D01*
X125472182Y-77411081D01*
X125393773Y-77358690D01*
X125261310Y-77226227D01*
X125157235Y-77070467D01*
X125157234Y-77070466D01*
X125085546Y-76897395D01*
X125049000Y-76713667D01*
X125049000Y-76526333D01*
X125085546Y-76342605D01*
X125157234Y-76169534D01*
X125261309Y-76013775D01*
X125261310Y-76013773D01*
X125393773Y-75881310D01*
X125533040Y-75788255D01*
X125549534Y-75777234D01*
X125722605Y-75705546D01*
X125906333Y-75669000D01*
X126093667Y-75669000D01*
X126277395Y-75705546D01*
G37*
G36*
X143298254Y-73217818D02*
G01*
X143671511Y-73372426D01*
X143671513Y-73372427D01*
X144002699Y-73593719D01*
X144007436Y-73596884D01*
X144293116Y-73882564D01*
X144517574Y-74218489D01*
X144672182Y-74591746D01*
X144751000Y-74987993D01*
X144751000Y-75392007D01*
X144672182Y-75788254D01*
X144578769Y-76013773D01*
X144517573Y-76161513D01*
X144293116Y-76497436D01*
X144007436Y-76783116D01*
X143671513Y-77007573D01*
X143671512Y-77007574D01*
X143671511Y-77007574D01*
X143298254Y-77162182D01*
X142902007Y-77241000D01*
X142497993Y-77241000D01*
X142101746Y-77162182D01*
X141728489Y-77007574D01*
X141728488Y-77007574D01*
X141728487Y-77007573D01*
X141392564Y-76783116D01*
X141106884Y-76497436D01*
X140882427Y-76161513D01*
X140821231Y-76013773D01*
X140727818Y-75788254D01*
X140649000Y-75392007D01*
X140649000Y-74987993D01*
X140727818Y-74591746D01*
X140882426Y-74218489D01*
X141106884Y-73882564D01*
X141392564Y-73596884D01*
X141397301Y-73593719D01*
X141728487Y-73372427D01*
X141728489Y-73372426D01*
X142101746Y-73217818D01*
X142497993Y-73139000D01*
X142902007Y-73139000D01*
X143298254Y-73217818D01*
G37*
G36*
X124954549Y-71731116D02*
G01*
X125065734Y-71753232D01*
X125275203Y-71839997D01*
X125463720Y-71965960D01*
X125624040Y-72126280D01*
X125750003Y-72314797D01*
X125836768Y-72524266D01*
X125881000Y-72746636D01*
X125881000Y-72973364D01*
X125836768Y-73195734D01*
X125750003Y-73405203D01*
X125624040Y-73593720D01*
X125463720Y-73754040D01*
X125275203Y-73880003D01*
X125275202Y-73880004D01*
X125275201Y-73880004D01*
X125213850Y-73905416D01*
X125065734Y-73966768D01*
X124954549Y-73988884D01*
X124843365Y-74011000D01*
X124616635Y-74011000D01*
X124505451Y-73988884D01*
X124394266Y-73966768D01*
X124246150Y-73905416D01*
X124184799Y-73880004D01*
X124184798Y-73880004D01*
X124184797Y-73880003D01*
X123996280Y-73754040D01*
X123835960Y-73593720D01*
X123709997Y-73405203D01*
X123623232Y-73195734D01*
X123579000Y-72973364D01*
X123579000Y-72746636D01*
X123623232Y-72524266D01*
X123709997Y-72314797D01*
X123835960Y-72126280D01*
X123996280Y-71965960D01*
X124184797Y-71839997D01*
X124394266Y-71753232D01*
X124505451Y-71731116D01*
X124616635Y-71709000D01*
X124843365Y-71709000D01*
X124954549Y-71731116D01*
G37*
G36*
X136041000Y-74011000D02*
G01*
X133739000Y-74011000D01*
X133739000Y-71709000D01*
X136041000Y-71709000D01*
X136041000Y-74011000D01*
G37*
G36*
X145408433Y-65254893D02*
G01*
X145498657Y-65272839D01*
X145604267Y-65316585D01*
X145753621Y-65378449D01*
X145753622Y-65378450D01*
X145983086Y-65531772D01*
X146178228Y-65726914D01*
X146280675Y-65880237D01*
X146331551Y-65956379D01*
X146437161Y-66211344D01*
X146491000Y-66482012D01*
X146491000Y-66757988D01*
X146464218Y-66892632D01*
X146437161Y-67028657D01*
X146393415Y-67134267D01*
X146331551Y-67283621D01*
X146318545Y-67303086D01*
X146178228Y-67513086D01*
X145983086Y-67708228D01*
X145909852Y-67757161D01*
X145753621Y-67861551D01*
X145604267Y-67923415D01*
X145498657Y-67967161D01*
X145408433Y-67985107D01*
X145227988Y-68021000D01*
X144952012Y-68021000D01*
X144771567Y-67985107D01*
X144681343Y-67967161D01*
X144575733Y-67923415D01*
X144426379Y-67861551D01*
X144270148Y-67757161D01*
X144196914Y-67708228D01*
X144001772Y-67513086D01*
X143861455Y-67303086D01*
X143848449Y-67283621D01*
X143786585Y-67134267D01*
X143742839Y-67028657D01*
X143715782Y-66892632D01*
X143689000Y-66757988D01*
X143689000Y-66482012D01*
X143742839Y-66211344D01*
X143848449Y-65956379D01*
X143899325Y-65880237D01*
X144001772Y-65726914D01*
X144196914Y-65531772D01*
X144426378Y-65378450D01*
X144426379Y-65378449D01*
X144575733Y-65316585D01*
X144681343Y-65272839D01*
X144771567Y-65254893D01*
X144952012Y-65219000D01*
X145227988Y-65219000D01*
X145408433Y-65254893D01*
G37*
G36*
X153988433Y-65044893D02*
G01*
X154078657Y-65062839D01*
X154184267Y-65106585D01*
X154333621Y-65168449D01*
X154333622Y-65168450D01*
X154563086Y-65321772D01*
X154758228Y-65516914D01*
X154860675Y-65670237D01*
X154911551Y-65746379D01*
X154973415Y-65895733D01*
X154998536Y-65956378D01*
X155017161Y-66001344D01*
X155071000Y-66272012D01*
X155071000Y-66547988D01*
X155017161Y-66818656D01*
X154911551Y-67073621D01*
X154911550Y-67073622D01*
X154758228Y-67303086D01*
X154563086Y-67498228D01*
X154409763Y-67600675D01*
X154333621Y-67651551D01*
X154196791Y-67708228D01*
X154078657Y-67757161D01*
X153988433Y-67775107D01*
X153807988Y-67811000D01*
X153532012Y-67811000D01*
X153351567Y-67775107D01*
X153261343Y-67757161D01*
X153143209Y-67708228D01*
X153006379Y-67651551D01*
X152930237Y-67600675D01*
X152776914Y-67498228D01*
X152581772Y-67303086D01*
X152428450Y-67073622D01*
X152428449Y-67073621D01*
X152322839Y-66818656D01*
X152269000Y-66547988D01*
X152269000Y-66272012D01*
X152322839Y-66001344D01*
X152341465Y-65956378D01*
X152366585Y-65895733D01*
X152428449Y-65746379D01*
X152479325Y-65670237D01*
X152581772Y-65516914D01*
X152776914Y-65321772D01*
X153006378Y-65168450D01*
X153006379Y-65168449D01*
X153155733Y-65106585D01*
X153261343Y-65062839D01*
X153351567Y-65044893D01*
X153532012Y-65009000D01*
X153807988Y-65009000D01*
X153988433Y-65044893D01*
G37*
G36*
X131480547Y-64682326D02*
G01*
X131654156Y-64734990D01*
X131654158Y-64734991D01*
X131814155Y-64820511D01*
X131954397Y-64935603D01*
X132033729Y-65032271D01*
X132069489Y-65075844D01*
X132155010Y-65235843D01*
X132207674Y-65409452D01*
X132221000Y-65544756D01*
X132221000Y-66095243D01*
X132207674Y-66230548D01*
X132155010Y-66404157D01*
X132069489Y-66564156D01*
X132033729Y-66607729D01*
X131954397Y-66704397D01*
X131889095Y-66757988D01*
X131814156Y-66819489D01*
X131654157Y-66905010D01*
X131480548Y-66957674D01*
X131300000Y-66975456D01*
X131119453Y-66957674D01*
X130945844Y-66905010D01*
X130785845Y-66819489D01*
X130710906Y-66757988D01*
X130645604Y-66704397D01*
X130530513Y-66564157D01*
X130530512Y-66564155D01*
X130444990Y-66404157D01*
X130392326Y-66230548D01*
X130379000Y-66095244D01*
X130379000Y-65544757D01*
X130392326Y-65409453D01*
X130444990Y-65235844D01*
X130530511Y-65075845D01*
X130541185Y-65062839D01*
X130645603Y-64935603D01*
X130771388Y-64832375D01*
X130785844Y-64820511D01*
X130945843Y-64734990D01*
X131119452Y-64682326D01*
X131300000Y-64664544D01*
X131480547Y-64682326D01*
G37*
G36*
X129539561Y-64672966D02*
G01*
X129572383Y-64682923D01*
X129602632Y-64699092D01*
X129629148Y-64720852D01*
X129650908Y-64747368D01*
X129667077Y-64777617D01*
X129677034Y-64810439D01*
X129681000Y-64850713D01*
X129681000Y-66789287D01*
X129677034Y-66829561D01*
X129667077Y-66862383D01*
X129650908Y-66892632D01*
X129629148Y-66919148D01*
X129602632Y-66940908D01*
X129572383Y-66957077D01*
X129539561Y-66967034D01*
X129499287Y-66971000D01*
X128020713Y-66971000D01*
X127980439Y-66967034D01*
X127947617Y-66957077D01*
X127917368Y-66940908D01*
X127890852Y-66919148D01*
X127869092Y-66892632D01*
X127852923Y-66862383D01*
X127842966Y-66829561D01*
X127839000Y-66789287D01*
X127839000Y-64850713D01*
X127842966Y-64810439D01*
X127852923Y-64777617D01*
X127869092Y-64747368D01*
X127890852Y-64720852D01*
X127917368Y-64699092D01*
X127947617Y-64682923D01*
X127980439Y-64672966D01*
X128020713Y-64669000D01*
X129499287Y-64669000D01*
X129539561Y-64672966D01*
G37*
G36*
X145408433Y-60174893D02*
G01*
X145498657Y-60192839D01*
X145604267Y-60236585D01*
X145753621Y-60298449D01*
X145753622Y-60298450D01*
X145983086Y-60451772D01*
X146178228Y-60646914D01*
X146280675Y-60800237D01*
X146331551Y-60876379D01*
X146350176Y-60921344D01*
X146437161Y-61131343D01*
X146491000Y-61402014D01*
X146491000Y-61677986D01*
X146437161Y-61948657D01*
X146393415Y-62054267D01*
X146331551Y-62203621D01*
X146318545Y-62223086D01*
X146178228Y-62433086D01*
X145983086Y-62628228D01*
X145909852Y-62677161D01*
X145753621Y-62781551D01*
X145604267Y-62843415D01*
X145498657Y-62887161D01*
X145408433Y-62905107D01*
X145227988Y-62941000D01*
X144952012Y-62941000D01*
X144771567Y-62905107D01*
X144681343Y-62887161D01*
X144575733Y-62843415D01*
X144426379Y-62781551D01*
X144270148Y-62677161D01*
X144196914Y-62628228D01*
X144001772Y-62433086D01*
X143861455Y-62223086D01*
X143848449Y-62203621D01*
X143786585Y-62054267D01*
X143742839Y-61948657D01*
X143689000Y-61677986D01*
X143689000Y-61402014D01*
X143742839Y-61131343D01*
X143829824Y-60921344D01*
X143848449Y-60876379D01*
X143899325Y-60800237D01*
X144001772Y-60646914D01*
X144196914Y-60451772D01*
X144426378Y-60298450D01*
X144426379Y-60298449D01*
X144575733Y-60236585D01*
X144681343Y-60192839D01*
X144771567Y-60174893D01*
X144952012Y-60139000D01*
X145227988Y-60139000D01*
X145408433Y-60174893D01*
G37*
G36*
X153988433Y-59964893D02*
G01*
X154078657Y-59982839D01*
X154184267Y-60026585D01*
X154333621Y-60088449D01*
X154333622Y-60088450D01*
X154563086Y-60241772D01*
X154758228Y-60436914D01*
X154860675Y-60590237D01*
X154911551Y-60666379D01*
X154973415Y-60815733D01*
X154998536Y-60876378D01*
X155017161Y-60921344D01*
X155071000Y-61192012D01*
X155071000Y-61467988D01*
X155017161Y-61738656D01*
X154911551Y-61993621D01*
X154911550Y-61993622D01*
X154758228Y-62223086D01*
X154563086Y-62418228D01*
X154409763Y-62520675D01*
X154333621Y-62571551D01*
X154196791Y-62628228D01*
X154078657Y-62677161D01*
X153988433Y-62695107D01*
X153807988Y-62731000D01*
X153532012Y-62731000D01*
X153351567Y-62695107D01*
X153261343Y-62677161D01*
X153143209Y-62628228D01*
X153006379Y-62571551D01*
X152930237Y-62520675D01*
X152776914Y-62418228D01*
X152581772Y-62223086D01*
X152428450Y-61993622D01*
X152428449Y-61993621D01*
X152322839Y-61738656D01*
X152269000Y-61467988D01*
X152269000Y-61192012D01*
X152322839Y-60921344D01*
X152341465Y-60876378D01*
X152366585Y-60815733D01*
X152428449Y-60666379D01*
X152479325Y-60590237D01*
X152581772Y-60436914D01*
X152776914Y-60241772D01*
X153006378Y-60088450D01*
X153006379Y-60088449D01*
X153155733Y-60026585D01*
X153261343Y-59982839D01*
X153351567Y-59964893D01*
X153532012Y-59929000D01*
X153807988Y-59929000D01*
X153988433Y-59964893D01*
G37*
G36*
X82558254Y-55447818D02*
G01*
X82931511Y-55602426D01*
X82931513Y-55602427D01*
X83267436Y-55826884D01*
X83553116Y-56112564D01*
X83777574Y-56448489D01*
X83932182Y-56821746D01*
X84011000Y-57217993D01*
X84011000Y-57622007D01*
X83932182Y-58018254D01*
X83777574Y-58391511D01*
X83777573Y-58391513D01*
X83553116Y-58727436D01*
X83267436Y-59013116D01*
X82931513Y-59237573D01*
X82931512Y-59237574D01*
X82931511Y-59237574D01*
X82558254Y-59392182D01*
X82162007Y-59471000D01*
X81757993Y-59471000D01*
X81361746Y-59392182D01*
X80988489Y-59237574D01*
X80988488Y-59237574D01*
X80988487Y-59237573D01*
X80652564Y-59013116D01*
X80366884Y-58727436D01*
X80142427Y-58391513D01*
X80142426Y-58391511D01*
X79987818Y-58018254D01*
X79909000Y-57622007D01*
X79909000Y-57217993D01*
X79987818Y-56821746D01*
X80142426Y-56448489D01*
X80366884Y-56112564D01*
X80652564Y-55826884D01*
X80988487Y-55602427D01*
X80988489Y-55602426D01*
X81361746Y-55447818D01*
X81757993Y-55369000D01*
X82162007Y-55369000D01*
X82558254Y-55447818D01*
G37*
M02*
