G04 #@! TF.GenerationSoftware,KiCad,Pcbnew,(5.1.5-0-10_14)*
G04 #@! TF.CreationDate,2023-03-12T15:51:32+01:00*
G04 #@! TF.ProjectId,AC_board,41435f62-6f61-4726-942e-6b696361645f,v01*
G04 #@! TF.SameCoordinates,Original*
G04 #@! TF.FileFunction,Copper,L2,Bot*
G04 #@! TF.FilePolarity,Positive*
%FSLAX46Y46*%
G04 Gerber Fmt 4.6, Leading zero omitted, Abs format (unit mm)*
G04 Created by KiCad (PCBNEW (5.1.5-0-10_14)) date 2023-03-12 15:51:32*
%MOMM*%
%LPD*%
G04 APERTURE LIST*
%ADD10C,2.700000*%
%ADD11C,4.000000*%
%ADD12C,0.100000*%
%ADD13C,2.200000*%
%ADD14C,8.000000*%
%ADD15C,3.000000*%
G04 APERTURE END LIST*
D10*
X132220000Y-109800000D03*
X137300000Y-109800000D03*
X145970000Y-95200000D03*
X151050000Y-95200000D03*
D11*
X96640000Y-109800000D03*
D10*
X151050000Y-64440000D03*
X145970000Y-64440000D03*
X137540000Y-56450000D03*
X132460000Y-56450000D03*
X137480000Y-81970000D03*
X132400000Y-81970000D03*
G04 #@! TA.AperFunction,ComponentPad*
D12*
G36*
X116103909Y-80882648D02*
G01*
X116157300Y-80890568D01*
X116209657Y-80903683D01*
X116260476Y-80921866D01*
X116309268Y-80944943D01*
X116355564Y-80972692D01*
X116398916Y-81004844D01*
X116438909Y-81041091D01*
X116475156Y-81081084D01*
X116507308Y-81124436D01*
X116535057Y-81170732D01*
X116558134Y-81219524D01*
X116576317Y-81270343D01*
X116589432Y-81322700D01*
X116597352Y-81376091D01*
X116600000Y-81430000D01*
X116600000Y-82530000D01*
X116597352Y-82583909D01*
X116589432Y-82637300D01*
X116576317Y-82689657D01*
X116558134Y-82740476D01*
X116535057Y-82789268D01*
X116507308Y-82835564D01*
X116475156Y-82878916D01*
X116438909Y-82918909D01*
X116398916Y-82955156D01*
X116355564Y-82987308D01*
X116309268Y-83015057D01*
X116260476Y-83038134D01*
X116209657Y-83056317D01*
X116157300Y-83069432D01*
X116103909Y-83077352D01*
X116050000Y-83080000D01*
X114950000Y-83080000D01*
X114896091Y-83077352D01*
X114842700Y-83069432D01*
X114790343Y-83056317D01*
X114739524Y-83038134D01*
X114690732Y-83015057D01*
X114644436Y-82987308D01*
X114601084Y-82955156D01*
X114561091Y-82918909D01*
X114524844Y-82878916D01*
X114492692Y-82835564D01*
X114464943Y-82789268D01*
X114441866Y-82740476D01*
X114423683Y-82689657D01*
X114410568Y-82637300D01*
X114402648Y-82583909D01*
X114400000Y-82530000D01*
X114400000Y-81430000D01*
X114402648Y-81376091D01*
X114410568Y-81322700D01*
X114423683Y-81270343D01*
X114441866Y-81219524D01*
X114464943Y-81170732D01*
X114492692Y-81124436D01*
X114524844Y-81081084D01*
X114561091Y-81041091D01*
X114601084Y-81004844D01*
X114644436Y-80972692D01*
X114690732Y-80944943D01*
X114739524Y-80921866D01*
X114790343Y-80903683D01*
X114842700Y-80890568D01*
X114896091Y-80882648D01*
X114950000Y-80880000D01*
X116050000Y-80880000D01*
X116103909Y-80882648D01*
G37*
G04 #@! TD.AperFunction*
D13*
X115500000Y-64480000D03*
X108000000Y-64480000D03*
X100500000Y-64480000D03*
X100500000Y-81980000D03*
D14*
X75000000Y-119000000D03*
D15*
X108000000Y-68040000D02*
X102810000Y-73230000D01*
X108000000Y-64480000D02*
X108000000Y-68040000D01*
X75000000Y-113343146D02*
X75000000Y-119000000D01*
X75000000Y-88990000D02*
X75000000Y-113343146D01*
X90760000Y-73230000D02*
X75000000Y-88990000D01*
X102810000Y-73230000D02*
X90760000Y-73230000D01*
M02*
