G04 #@! TF.GenerationSoftware,KiCad,Pcbnew,(5.1.5-0-10_14)*
G04 #@! TF.CreationDate,2020-11-16T15:22:10+01:00*
G04 #@! TF.ProjectId,AC_board,41435f62-6f61-4726-942e-6b696361645f,v01*
G04 #@! TF.SameCoordinates,Original*
G04 #@! TF.FileFunction,Profile,NP*
%FSLAX46Y46*%
G04 Gerber Fmt 4.6, Leading zero omitted, Abs format (unit mm)*
G04 Created by KiCad (PCBNEW (5.1.5-0-10_14)) date 2020-11-16 15:22:10*
%MOMM*%
%LPD*%
G04 APERTURE LIST*
%ADD10C,0.050000*%
G04 APERTURE END LIST*
D10*
X124560000Y-82570000D02*
X124560000Y-81320000D01*
X135060000Y-81320000D02*
X135060000Y-82570000D01*
X129060000Y-95320000D02*
X130560000Y-95320000D01*
X130560000Y-95320000D02*
G75*
G03X131310000Y-94570000I0J750000D01*
G01*
X129060000Y-95320000D02*
G75*
G02X128310000Y-94570000I0J750000D01*
G01*
X131310000Y-84070000D02*
X131310000Y-94570000D01*
X131310000Y-84070000D02*
G75*
G02X132060000Y-83320000I750000J0D01*
G01*
X134310000Y-83320000D02*
X132060000Y-83320000D01*
X134310000Y-83320000D02*
G75*
G03X135060000Y-82570000I0J750000D01*
G01*
X135060000Y-81320000D02*
G75*
G03X134060000Y-80320000I-1000000J0D01*
G01*
X125560000Y-80320000D02*
X134060000Y-80320000D01*
X125560000Y-80320000D02*
G75*
G03X124560000Y-81320000I0J-1000000D01*
G01*
X124560000Y-82570000D02*
G75*
G03X125310000Y-83320000I750000J0D01*
G01*
X127560000Y-83320000D02*
X125310000Y-83320000D01*
X127560000Y-83320000D02*
G75*
G02X128310000Y-84070000I0J-750000D01*
G01*
X128310000Y-84070000D02*
X128310000Y-94570000D01*
X165500000Y-125000000D02*
X69000000Y-125000000D01*
X165500000Y-50000000D02*
X165500000Y-125000000D01*
X69000000Y-50000000D02*
X165500000Y-50000000D01*
X69000000Y-125000000D02*
X69000000Y-50000000D01*
M02*
