M48
; DRILL file {KiCad (5.1.5-0-10_14)} date Sunday, 30 August 2020 at 11:21:37
; FORMAT={-:-/ absolute / metric / decimal}
; #@! TF.CreationDate,2020-08-30T11:21:37+02:00
; #@! TF.GenerationSoftware,Kicad,Pcbnew,(5.1.5-0-10_14)
FMAT,2
METRIC
T1C0.750
T2C0.762
T3C0.800
T4C0.900
T5C1.000
T6C1.050
T7C1.100
T8C1.200
T9C1.400
T10C1.780
T11C1.850
T12C3.050
T13C3.500
T14C4.000
%
G90
G05
T1
X313.5Y-173.46
X313.5Y-174.73
X313.5Y-176.0
T2
X169.12Y-218.55
X171.66Y-216.01
X174.2Y-218.55
T3
X171.31Y-195.85
X171.31Y-203.47
X173.85Y-195.85
X173.85Y-203.47
X176.39Y-195.85
X176.39Y-203.47
X178.93Y-195.85
X178.93Y-203.47
X204.35Y-192.81
X204.35Y-195.35
X204.35Y-197.89
X204.35Y-202.97
X209.43Y-192.81
X209.43Y-195.35
X209.43Y-197.89
X209.43Y-202.97
X313.5Y-181.96
X313.5Y-197.2
X313.5Y-151.86
X313.5Y-167.1
X165.58Y-172.89
X165.58Y-188.13
X171.9Y-172.99
X171.9Y-188.23
X165.59Y-197.18
X165.59Y-202.18
X188.79Y-188.36
X188.79Y-203.6
X195.14Y-188.42
X195.14Y-203.66
X178.71Y-167.43
X178.71Y-182.67
X164.96Y-167.42
X172.46Y-167.42
T4
X211.76Y-175.35
X214.3Y-175.35
T5
X178.87Y-188.23
X181.41Y-188.23
X305.91Y-175.98
X305.91Y-178.52
T6
X169.26Y-143.39
X209.26Y-143.39
X169.17Y-131.5
X209.17Y-131.5
T7
X202.18Y-208.82
X212.34Y-208.82
X195.14Y-208.83
X195.14Y-218.99
T8
X287.78Y-103.42
X290.32Y-103.42
X186.03Y-172.92
X186.03Y-175.46
X186.03Y-178.0
X185.9Y-216.0
X185.9Y-218.54
X185.9Y-221.08
X218.95Y-198.02
X218.95Y-200.56
T9
X219.8Y-183.5
X219.8Y-189.0
X224.0Y-183.5
X224.0Y-189.0
X228.2Y-183.5
X228.2Y-189.0
X232.4Y-183.5
X232.4Y-189.0
X236.6Y-183.5
X236.6Y-189.0
X240.8Y-183.5
X240.8Y-189.0
X245.0Y-183.5
X245.0Y-189.0
X249.2Y-183.5
X249.2Y-189.0
X253.4Y-183.5
X253.4Y-189.0
X257.6Y-183.5
X257.6Y-189.0
X261.8Y-183.5
X261.8Y-189.0
X266.0Y-183.5
X266.0Y-189.0
X308.5Y-92.0
X308.5Y-96.2
X308.5Y-100.4
X308.5Y-104.6
X308.5Y-108.8
X308.5Y-113.0
X308.5Y-117.2
X308.5Y-121.4
X308.5Y-125.6
X308.5Y-129.8
X308.5Y-134.0
X308.5Y-138.2
X314.0Y-92.0
X314.0Y-96.2
X314.0Y-100.4
X314.0Y-104.6
X314.0Y-108.8
X314.0Y-113.0
X314.0Y-117.2
X314.0Y-121.4
X314.0Y-125.6
X314.0Y-129.8
X314.0Y-134.0
X314.0Y-138.2
T10
X272.8Y-97.56
X272.8Y-102.64
X272.8Y-107.72
X272.8Y-112.8
X245.8Y-97.56
X245.8Y-102.64
X245.8Y-107.72
X245.8Y-112.8
X218.8Y-97.56
X218.8Y-102.64
X218.8Y-107.72
X218.8Y-112.8
X191.8Y-97.56
X191.8Y-102.64
X191.8Y-107.72
X191.8Y-112.8
T11
X216.8Y-80.0
X216.8Y-85.5
X221.0Y-80.0
X221.0Y-85.5
X189.8Y-80.0
X189.8Y-85.5
X194.0Y-80.0
X194.0Y-85.5
X270.8Y-80.0
X270.8Y-85.5
X275.0Y-80.0
X275.0Y-85.5
X243.8Y-80.0
X243.8Y-85.5
X248.0Y-80.0
X248.0Y-85.5
T12
X218.9Y-72.7
X191.9Y-72.7
X272.9Y-72.7
X245.9Y-72.7
T13
X201.83Y-175.46
T14
X204.4Y-105.9
X325.0Y-73.0
X166.0Y-73.0
X274.43Y-186.39
X229.58Y-206.29
X259.0Y-105.9
T0
M30
