M48
; DRILL file {KiCad (5.1.5-0-10_14)} date Sunday, 12 March 2023 at 15:51:08
; FORMAT={-:-/ absolute / metric / decimal}
; #@! TF.CreationDate,2023-03-12T15:51:08+01:00
; #@! TF.GenerationSoftware,Kicad,Pcbnew,(5.1.5-0-10_14)
FMAT,2
METRIC
T1C0.762
T2C0.800
T3C0.900
T4C1.000
T5C1.100
T6C1.200
T7C1.400
T8C1.600
T9C1.700
T10C1.850
T11C2.540
T12C3.000
T13C3.050
T14C3.500
T15C4.000
%
G90
G05
T1
X169.12Y-218.55
X171.66Y-216.01
X174.2Y-218.55
T2
X185.38Y-178.17
X200.62Y-178.17
X317.77Y-200.46
X320.31Y-197.92
X320.31Y-203.0
X185.39Y-188.44
X185.39Y-203.68
X320.32Y-177.85
X320.32Y-193.09
X165.59Y-197.18
X165.59Y-202.18
X185.42Y-173.05
X200.66Y-173.05
X185.4Y-183.28
X200.64Y-183.28
X305.04Y-209.15
X320.28Y-209.15
X171.31Y-195.85
X171.31Y-203.47
X173.85Y-195.85
X173.85Y-203.47
X176.39Y-195.85
X176.39Y-203.47
X178.93Y-195.85
X178.93Y-203.47
X173.83Y-209.52
X189.07Y-209.52
X171.27Y-184.76
X171.27Y-192.26
X192.24Y-188.44
X192.24Y-203.68
T3
X189.06Y-220.19
X191.6Y-220.19
T4
X303.68Y-203.02
X306.22Y-203.02
X202.5Y-203.79
X205.04Y-203.79
T5
X213.08Y-193.56
X213.08Y-203.72
T6
X206.13Y-183.23
X208.67Y-183.23
X211.21Y-183.23
X203.89Y-193.57
X203.89Y-196.11
X203.89Y-198.65
T7
X307.67Y-122.88
X307.67Y-127.08
X307.67Y-131.28
X307.67Y-135.48
X307.67Y-139.68
X307.67Y-143.88
X307.67Y-148.08
X307.67Y-152.28
X307.67Y-156.48
X307.67Y-160.68
X307.67Y-164.88
X307.67Y-169.08
X313.17Y-122.88
X313.17Y-127.08
X313.17Y-131.28
X313.17Y-135.48
X313.17Y-139.68
X313.17Y-143.88
X313.17Y-148.08
X313.17Y-152.28
X313.17Y-156.48
X313.17Y-160.68
X313.17Y-164.88
X313.17Y-169.08
X219.8Y-183.5
X219.8Y-189.0
X224.0Y-183.5
X224.0Y-189.0
X228.2Y-183.5
X228.2Y-189.0
X232.4Y-183.5
X232.4Y-189.0
X236.6Y-183.5
X236.6Y-189.0
X240.8Y-183.5
X240.8Y-189.0
X245.0Y-183.5
X245.0Y-189.0
X249.2Y-183.5
X249.2Y-189.0
X253.4Y-183.5
X253.4Y-189.0
X257.6Y-183.5
X257.6Y-189.0
X261.8Y-183.5
X261.8Y-189.0
X266.0Y-183.5
X266.0Y-189.0
T8
X178.48Y-99.52
X183.56Y-99.52
X188.64Y-99.52
X193.72Y-99.52
X206.0Y-99.48
X211.08Y-99.48
X216.16Y-99.48
X221.24Y-99.48
X233.29Y-99.52
X238.37Y-99.52
X243.45Y-99.52
X248.53Y-99.52
X260.76Y-99.67
X265.84Y-99.67
X270.92Y-99.67
X276.0Y-99.67
T9
X169.15Y-86.17
X169.15Y-90.13
T10
X189.8Y-80.0
X189.8Y-85.5
X194.0Y-80.0
X194.0Y-85.5
X270.8Y-80.0
X270.8Y-85.5
X275.0Y-80.0
X275.0Y-85.5
X243.8Y-80.0
X243.8Y-85.5
X248.0Y-80.0
X248.0Y-85.5
X216.8Y-80.0
X216.8Y-85.5
X221.0Y-80.0
X221.0Y-85.5
T11
X175.94Y-102.06
X196.26Y-102.06
X203.46Y-102.02
X223.78Y-102.02
X230.75Y-102.06
X251.07Y-102.06
X258.22Y-102.21
X278.54Y-102.21
T12
X308.13Y-118.18
X308.13Y-173.78
T13
X191.9Y-72.7
X272.9Y-72.7
X245.9Y-72.7
X218.9Y-72.7
T14
X208.67Y-167.43
T15
X297.32Y-179.08
X229.58Y-206.29
X325.0Y-73.0
X181.02Y-109.68
X191.18Y-109.68
X259.28Y-78.37
X170.0Y-150.0
X166.0Y-73.0
X208.54Y-109.64
X218.7Y-109.64
X235.83Y-109.68
X245.99Y-109.68
X263.3Y-109.83
X273.46Y-109.83
X204.76Y-84.82
X170.0Y-140.0
T0
M30
