G04 #@! TF.GenerationSoftware,KiCad,Pcbnew,(5.1.5-0-10_14)*
G04 #@! TF.CreationDate,2023-03-12T15:50:22+01:00*
G04 #@! TF.ProjectId,DC_Board,44435f42-6f61-4726-942e-6b696361645f,rev?*
G04 #@! TF.SameCoordinates,Original*
G04 #@! TF.FileFunction,Soldermask,Top*
G04 #@! TF.FilePolarity,Negative*
%FSLAX46Y46*%
G04 Gerber Fmt 4.6, Leading zero omitted, Abs format (unit mm)*
G04 Created by KiCad (PCBNEW (5.1.5-0-10_14)) date 2023-03-12 15:50:22*
%MOMM*%
%LPD*%
G04 APERTURE LIST*
%ADD10C,0.100000*%
G04 APERTURE END LIST*
D10*
G36*
X192551000Y-221141000D02*
G01*
X190649000Y-221141000D01*
X190649000Y-219239000D01*
X192551000Y-219239000D01*
X192551000Y-221141000D01*
G37*
G36*
X189337395Y-219275546D02*
G01*
X189510466Y-219347234D01*
X189510467Y-219347235D01*
X189666227Y-219451310D01*
X189798690Y-219583773D01*
X189798691Y-219583775D01*
X189902766Y-219739534D01*
X189974454Y-219912605D01*
X190011000Y-220096333D01*
X190011000Y-220283667D01*
X189974454Y-220467395D01*
X189902766Y-220640466D01*
X189902765Y-220640467D01*
X189798690Y-220796227D01*
X189666227Y-220928690D01*
X189587818Y-220981081D01*
X189510466Y-221032766D01*
X189337395Y-221104454D01*
X189153667Y-221141000D01*
X188966333Y-221141000D01*
X188782605Y-221104454D01*
X188609534Y-221032766D01*
X188532182Y-220981081D01*
X188453773Y-220928690D01*
X188321310Y-220796227D01*
X188217235Y-220640467D01*
X188217234Y-220640466D01*
X188145546Y-220467395D01*
X188109000Y-220283667D01*
X188109000Y-220096333D01*
X188145546Y-219912605D01*
X188217234Y-219739534D01*
X188321309Y-219583775D01*
X188321310Y-219583773D01*
X188453773Y-219451310D01*
X188609533Y-219347235D01*
X188609534Y-219347234D01*
X188782605Y-219275546D01*
X188966333Y-219239000D01*
X189153667Y-219239000D01*
X189337395Y-219275546D01*
G37*
G36*
X174437142Y-217768242D02*
G01*
X174585101Y-217829529D01*
X174718255Y-217918499D01*
X174831501Y-218031745D01*
X174920471Y-218164899D01*
X174981758Y-218312858D01*
X175013000Y-218469925D01*
X175013000Y-218630075D01*
X174981758Y-218787142D01*
X174920471Y-218935101D01*
X174831501Y-219068255D01*
X174718255Y-219181501D01*
X174585101Y-219270471D01*
X174437142Y-219331758D01*
X174280075Y-219363000D01*
X174119925Y-219363000D01*
X173962858Y-219331758D01*
X173814899Y-219270471D01*
X173681745Y-219181501D01*
X173568499Y-219068255D01*
X173479529Y-218935101D01*
X173418242Y-218787142D01*
X173387000Y-218630075D01*
X173387000Y-218469925D01*
X173418242Y-218312858D01*
X173479529Y-218164899D01*
X173568499Y-218031745D01*
X173681745Y-217918499D01*
X173814899Y-217829529D01*
X173962858Y-217768242D01*
X174119925Y-217737000D01*
X174280075Y-217737000D01*
X174437142Y-217768242D01*
G37*
G36*
X169357142Y-217768242D02*
G01*
X169505101Y-217829529D01*
X169638255Y-217918499D01*
X169751501Y-218031745D01*
X169840471Y-218164899D01*
X169901758Y-218312858D01*
X169933000Y-218469925D01*
X169933000Y-218630075D01*
X169901758Y-218787142D01*
X169840471Y-218935101D01*
X169751501Y-219068255D01*
X169638255Y-219181501D01*
X169505101Y-219270471D01*
X169357142Y-219331758D01*
X169200075Y-219363000D01*
X169039925Y-219363000D01*
X168882858Y-219331758D01*
X168734899Y-219270471D01*
X168601745Y-219181501D01*
X168488499Y-219068255D01*
X168399529Y-218935101D01*
X168338242Y-218787142D01*
X168307000Y-218630075D01*
X168307000Y-218469925D01*
X168338242Y-218312858D01*
X168399529Y-218164899D01*
X168488499Y-218031745D01*
X168601745Y-217918499D01*
X168734899Y-217829529D01*
X168882858Y-217768242D01*
X169039925Y-217737000D01*
X169200075Y-217737000D01*
X169357142Y-217768242D01*
G37*
G36*
X171897142Y-215228242D02*
G01*
X172045101Y-215289529D01*
X172178255Y-215378499D01*
X172291501Y-215491745D01*
X172380471Y-215624899D01*
X172441758Y-215772858D01*
X172473000Y-215929925D01*
X172473000Y-216090075D01*
X172441758Y-216247142D01*
X172380471Y-216395101D01*
X172291501Y-216528255D01*
X172178255Y-216641501D01*
X172045101Y-216730471D01*
X171897142Y-216791758D01*
X171740075Y-216823000D01*
X171579925Y-216823000D01*
X171422858Y-216791758D01*
X171274899Y-216730471D01*
X171141745Y-216641501D01*
X171028499Y-216528255D01*
X170939529Y-216395101D01*
X170878242Y-216247142D01*
X170847000Y-216090075D01*
X170847000Y-215929925D01*
X170878242Y-215772858D01*
X170939529Y-215624899D01*
X171028499Y-215491745D01*
X171141745Y-215378499D01*
X171274899Y-215289529D01*
X171422858Y-215228242D01*
X171579925Y-215197000D01*
X171740075Y-215197000D01*
X171897142Y-215228242D01*
G37*
G36*
X189318228Y-208701703D02*
G01*
X189473100Y-208765853D01*
X189612481Y-208858985D01*
X189731015Y-208977519D01*
X189824147Y-209116900D01*
X189888297Y-209271772D01*
X189921000Y-209436184D01*
X189921000Y-209603816D01*
X189888297Y-209768228D01*
X189824147Y-209923100D01*
X189731015Y-210062481D01*
X189612481Y-210181015D01*
X189473100Y-210274147D01*
X189318228Y-210338297D01*
X189153816Y-210371000D01*
X188986184Y-210371000D01*
X188821772Y-210338297D01*
X188666900Y-210274147D01*
X188527519Y-210181015D01*
X188408985Y-210062481D01*
X188315853Y-209923100D01*
X188251703Y-209768228D01*
X188219000Y-209603816D01*
X188219000Y-209436184D01*
X188251703Y-209271772D01*
X188315853Y-209116900D01*
X188408985Y-208977519D01*
X188527519Y-208858985D01*
X188666900Y-208765853D01*
X188821772Y-208701703D01*
X188986184Y-208669000D01*
X189153816Y-208669000D01*
X189318228Y-208701703D01*
G37*
G36*
X174078228Y-208701703D02*
G01*
X174233100Y-208765853D01*
X174372481Y-208858985D01*
X174491015Y-208977519D01*
X174584147Y-209116900D01*
X174648297Y-209271772D01*
X174681000Y-209436184D01*
X174681000Y-209603816D01*
X174648297Y-209768228D01*
X174584147Y-209923100D01*
X174491015Y-210062481D01*
X174372481Y-210181015D01*
X174233100Y-210274147D01*
X174078228Y-210338297D01*
X173913816Y-210371000D01*
X173746184Y-210371000D01*
X173581772Y-210338297D01*
X173426900Y-210274147D01*
X173287519Y-210181015D01*
X173168985Y-210062481D01*
X173075853Y-209923100D01*
X173011703Y-209768228D01*
X172979000Y-209603816D01*
X172979000Y-209436184D01*
X173011703Y-209271772D01*
X173075853Y-209116900D01*
X173168985Y-208977519D01*
X173287519Y-208858985D01*
X173426900Y-208765853D01*
X173581772Y-208701703D01*
X173746184Y-208669000D01*
X173913816Y-208669000D01*
X174078228Y-208701703D01*
G37*
G36*
X320528228Y-208331703D02*
G01*
X320683100Y-208395853D01*
X320822481Y-208488985D01*
X320941015Y-208607519D01*
X321034147Y-208746900D01*
X321098297Y-208901772D01*
X321131000Y-209066184D01*
X321131000Y-209233816D01*
X321098297Y-209398228D01*
X321034147Y-209553100D01*
X320941015Y-209692481D01*
X320822481Y-209811015D01*
X320683100Y-209904147D01*
X320528228Y-209968297D01*
X320363816Y-210001000D01*
X320196184Y-210001000D01*
X320031772Y-209968297D01*
X319876900Y-209904147D01*
X319737519Y-209811015D01*
X319618985Y-209692481D01*
X319525853Y-209553100D01*
X319461703Y-209398228D01*
X319429000Y-209233816D01*
X319429000Y-209066184D01*
X319461703Y-208901772D01*
X319525853Y-208746900D01*
X319618985Y-208607519D01*
X319737519Y-208488985D01*
X319876900Y-208395853D01*
X320031772Y-208331703D01*
X320196184Y-208299000D01*
X320363816Y-208299000D01*
X320528228Y-208331703D01*
G37*
G36*
X305288228Y-208331703D02*
G01*
X305443100Y-208395853D01*
X305582481Y-208488985D01*
X305701015Y-208607519D01*
X305794147Y-208746900D01*
X305858297Y-208901772D01*
X305891000Y-209066184D01*
X305891000Y-209233816D01*
X305858297Y-209398228D01*
X305794147Y-209553100D01*
X305701015Y-209692481D01*
X305582481Y-209811015D01*
X305443100Y-209904147D01*
X305288228Y-209968297D01*
X305123816Y-210001000D01*
X304956184Y-210001000D01*
X304791772Y-209968297D01*
X304636900Y-209904147D01*
X304497519Y-209811015D01*
X304378985Y-209692481D01*
X304285853Y-209553100D01*
X304221703Y-209398228D01*
X304189000Y-209233816D01*
X304189000Y-209066184D01*
X304221703Y-208901772D01*
X304285853Y-208746900D01*
X304378985Y-208607519D01*
X304497519Y-208488985D01*
X304636900Y-208395853D01*
X304791772Y-208331703D01*
X304956184Y-208299000D01*
X305123816Y-208299000D01*
X305288228Y-208331703D01*
G37*
G36*
X230178254Y-204317818D02*
G01*
X230551511Y-204472426D01*
X230551513Y-204472427D01*
X230725162Y-204588456D01*
X230887436Y-204696884D01*
X231173116Y-204982564D01*
X231397574Y-205318489D01*
X231552182Y-205691746D01*
X231631000Y-206087993D01*
X231631000Y-206492007D01*
X231552182Y-206888254D01*
X231397574Y-207261511D01*
X231397573Y-207261513D01*
X231173116Y-207597436D01*
X230887436Y-207883116D01*
X230551513Y-208107573D01*
X230551512Y-208107574D01*
X230551511Y-208107574D01*
X230178254Y-208262182D01*
X229782007Y-208341000D01*
X229377993Y-208341000D01*
X228981746Y-208262182D01*
X228608489Y-208107574D01*
X228608488Y-208107574D01*
X228608487Y-208107573D01*
X228272564Y-207883116D01*
X227986884Y-207597436D01*
X227762427Y-207261513D01*
X227762426Y-207261511D01*
X227607818Y-206888254D01*
X227529000Y-206492007D01*
X227529000Y-206087993D01*
X227607818Y-205691746D01*
X227762426Y-205318489D01*
X227986884Y-204982564D01*
X228272564Y-204696884D01*
X228434838Y-204588456D01*
X228608487Y-204472427D01*
X228608489Y-204472426D01*
X228981746Y-204317818D01*
X229377993Y-204239000D01*
X229782007Y-204239000D01*
X230178254Y-204317818D01*
G37*
G36*
X214231000Y-204871000D02*
G01*
X211929000Y-204871000D01*
X211929000Y-202569000D01*
X214231000Y-202569000D01*
X214231000Y-204871000D01*
G37*
G36*
X205941000Y-204691000D02*
G01*
X204139000Y-204691000D01*
X204139000Y-202889000D01*
X205941000Y-202889000D01*
X205941000Y-204691000D01*
G37*
G36*
X202613512Y-202893927D02*
G01*
X202762812Y-202923624D01*
X202926784Y-202991544D01*
X203074354Y-203090147D01*
X203199853Y-203215646D01*
X203298456Y-203363216D01*
X203366376Y-203527188D01*
X203401000Y-203701259D01*
X203401000Y-203878741D01*
X203366376Y-204052812D01*
X203298456Y-204216784D01*
X203199853Y-204364354D01*
X203074354Y-204489853D01*
X202926784Y-204588456D01*
X202762812Y-204656376D01*
X202613512Y-204686073D01*
X202588742Y-204691000D01*
X202411258Y-204691000D01*
X202386488Y-204686073D01*
X202237188Y-204656376D01*
X202073216Y-204588456D01*
X201925646Y-204489853D01*
X201800147Y-204364354D01*
X201701544Y-204216784D01*
X201633624Y-204052812D01*
X201599000Y-203878741D01*
X201599000Y-203701259D01*
X201633624Y-203527188D01*
X201701544Y-203363216D01*
X201800147Y-203215646D01*
X201925646Y-203090147D01*
X202073216Y-202991544D01*
X202237188Y-202923624D01*
X202386488Y-202893927D01*
X202411258Y-202889000D01*
X202588742Y-202889000D01*
X202613512Y-202893927D01*
G37*
G36*
X192488228Y-202861703D02*
G01*
X192643100Y-202925853D01*
X192782481Y-203018985D01*
X192901015Y-203137519D01*
X192994147Y-203276900D01*
X193058297Y-203431772D01*
X193091000Y-203596184D01*
X193091000Y-203763816D01*
X193058297Y-203928228D01*
X192994147Y-204083100D01*
X192901015Y-204222481D01*
X192782481Y-204341015D01*
X192643100Y-204434147D01*
X192488228Y-204498297D01*
X192323816Y-204531000D01*
X192156184Y-204531000D01*
X191991772Y-204498297D01*
X191836900Y-204434147D01*
X191697519Y-204341015D01*
X191578985Y-204222481D01*
X191485853Y-204083100D01*
X191421703Y-203928228D01*
X191389000Y-203763816D01*
X191389000Y-203596184D01*
X191421703Y-203431772D01*
X191485853Y-203276900D01*
X191578985Y-203137519D01*
X191697519Y-203018985D01*
X191836900Y-202925853D01*
X191991772Y-202861703D01*
X192156184Y-202829000D01*
X192323816Y-202829000D01*
X192488228Y-202861703D01*
G37*
G36*
X185638228Y-202861703D02*
G01*
X185793100Y-202925853D01*
X185932481Y-203018985D01*
X186051015Y-203137519D01*
X186144147Y-203276900D01*
X186208297Y-203431772D01*
X186241000Y-203596184D01*
X186241000Y-203763816D01*
X186208297Y-203928228D01*
X186144147Y-204083100D01*
X186051015Y-204222481D01*
X185932481Y-204341015D01*
X185793100Y-204434147D01*
X185638228Y-204498297D01*
X185473816Y-204531000D01*
X185306184Y-204531000D01*
X185141772Y-204498297D01*
X184986900Y-204434147D01*
X184847519Y-204341015D01*
X184728985Y-204222481D01*
X184635853Y-204083100D01*
X184571703Y-203928228D01*
X184539000Y-203763816D01*
X184539000Y-203596184D01*
X184571703Y-203431772D01*
X184635853Y-203276900D01*
X184728985Y-203137519D01*
X184847519Y-203018985D01*
X184986900Y-202925853D01*
X185141772Y-202861703D01*
X185306184Y-202829000D01*
X185473816Y-202829000D01*
X185638228Y-202861703D01*
G37*
G36*
X171558228Y-202651703D02*
G01*
X171713100Y-202715853D01*
X171852481Y-202808985D01*
X171971015Y-202927519D01*
X172064147Y-203066900D01*
X172128297Y-203221772D01*
X172161000Y-203386184D01*
X172161000Y-203553816D01*
X172128297Y-203718228D01*
X172064147Y-203873100D01*
X171971015Y-204012481D01*
X171852481Y-204131015D01*
X171713100Y-204224147D01*
X171558228Y-204288297D01*
X171393816Y-204321000D01*
X171226184Y-204321000D01*
X171061772Y-204288297D01*
X170906900Y-204224147D01*
X170767519Y-204131015D01*
X170648985Y-204012481D01*
X170555853Y-203873100D01*
X170491703Y-203718228D01*
X170459000Y-203553816D01*
X170459000Y-203386184D01*
X170491703Y-203221772D01*
X170555853Y-203066900D01*
X170648985Y-202927519D01*
X170767519Y-202808985D01*
X170906900Y-202715853D01*
X171061772Y-202651703D01*
X171226184Y-202619000D01*
X171393816Y-202619000D01*
X171558228Y-202651703D01*
G37*
G36*
X179178228Y-202651703D02*
G01*
X179333100Y-202715853D01*
X179472481Y-202808985D01*
X179591015Y-202927519D01*
X179684147Y-203066900D01*
X179748297Y-203221772D01*
X179781000Y-203386184D01*
X179781000Y-203553816D01*
X179748297Y-203718228D01*
X179684147Y-203873100D01*
X179591015Y-204012481D01*
X179472481Y-204131015D01*
X179333100Y-204224147D01*
X179178228Y-204288297D01*
X179013816Y-204321000D01*
X178846184Y-204321000D01*
X178681772Y-204288297D01*
X178526900Y-204224147D01*
X178387519Y-204131015D01*
X178268985Y-204012481D01*
X178175853Y-203873100D01*
X178111703Y-203718228D01*
X178079000Y-203553816D01*
X178079000Y-203386184D01*
X178111703Y-203221772D01*
X178175853Y-203066900D01*
X178268985Y-202927519D01*
X178387519Y-202808985D01*
X178526900Y-202715853D01*
X178681772Y-202651703D01*
X178846184Y-202619000D01*
X179013816Y-202619000D01*
X179178228Y-202651703D01*
G37*
G36*
X176638228Y-202651703D02*
G01*
X176793100Y-202715853D01*
X176932481Y-202808985D01*
X177051015Y-202927519D01*
X177144147Y-203066900D01*
X177208297Y-203221772D01*
X177241000Y-203386184D01*
X177241000Y-203553816D01*
X177208297Y-203718228D01*
X177144147Y-203873100D01*
X177051015Y-204012481D01*
X176932481Y-204131015D01*
X176793100Y-204224147D01*
X176638228Y-204288297D01*
X176473816Y-204321000D01*
X176306184Y-204321000D01*
X176141772Y-204288297D01*
X175986900Y-204224147D01*
X175847519Y-204131015D01*
X175728985Y-204012481D01*
X175635853Y-203873100D01*
X175571703Y-203718228D01*
X175539000Y-203553816D01*
X175539000Y-203386184D01*
X175571703Y-203221772D01*
X175635853Y-203066900D01*
X175728985Y-202927519D01*
X175847519Y-202808985D01*
X175986900Y-202715853D01*
X176141772Y-202651703D01*
X176306184Y-202619000D01*
X176473816Y-202619000D01*
X176638228Y-202651703D01*
G37*
G36*
X174098228Y-202651703D02*
G01*
X174253100Y-202715853D01*
X174392481Y-202808985D01*
X174511015Y-202927519D01*
X174604147Y-203066900D01*
X174668297Y-203221772D01*
X174701000Y-203386184D01*
X174701000Y-203553816D01*
X174668297Y-203718228D01*
X174604147Y-203873100D01*
X174511015Y-204012481D01*
X174392481Y-204131015D01*
X174253100Y-204224147D01*
X174098228Y-204288297D01*
X173933816Y-204321000D01*
X173766184Y-204321000D01*
X173601772Y-204288297D01*
X173446900Y-204224147D01*
X173307519Y-204131015D01*
X173188985Y-204012481D01*
X173095853Y-203873100D01*
X173031703Y-203718228D01*
X172999000Y-203553816D01*
X172999000Y-203386184D01*
X173031703Y-203221772D01*
X173095853Y-203066900D01*
X173188985Y-202927519D01*
X173307519Y-202808985D01*
X173446900Y-202715853D01*
X173601772Y-202651703D01*
X173766184Y-202619000D01*
X173933816Y-202619000D01*
X174098228Y-202651703D01*
G37*
G36*
X307121000Y-203921000D02*
G01*
X305319000Y-203921000D01*
X305319000Y-202119000D01*
X307121000Y-202119000D01*
X307121000Y-203921000D01*
G37*
G36*
X303793512Y-202123927D02*
G01*
X303942812Y-202153624D01*
X304106784Y-202221544D01*
X304254354Y-202320147D01*
X304379853Y-202445646D01*
X304478456Y-202593216D01*
X304546376Y-202757188D01*
X304581000Y-202931259D01*
X304581000Y-203108741D01*
X304546376Y-203282812D01*
X304478456Y-203446784D01*
X304379853Y-203594354D01*
X304254354Y-203719853D01*
X304106784Y-203818456D01*
X303942812Y-203886376D01*
X303793512Y-203916073D01*
X303768742Y-203921000D01*
X303591258Y-203921000D01*
X303566488Y-203916073D01*
X303417188Y-203886376D01*
X303253216Y-203818456D01*
X303105646Y-203719853D01*
X302980147Y-203594354D01*
X302881544Y-203446784D01*
X302813624Y-203282812D01*
X302779000Y-203108741D01*
X302779000Y-202931259D01*
X302813624Y-202757188D01*
X302881544Y-202593216D01*
X302980147Y-202445646D01*
X303105646Y-202320147D01*
X303253216Y-202221544D01*
X303417188Y-202153624D01*
X303566488Y-202123927D01*
X303591258Y-202119000D01*
X303768742Y-202119000D01*
X303793512Y-202123927D01*
G37*
G36*
X321111000Y-203801000D02*
G01*
X319509000Y-203801000D01*
X319509000Y-202199000D01*
X321111000Y-202199000D01*
X321111000Y-203801000D01*
G37*
G36*
X165838228Y-201361703D02*
G01*
X165993100Y-201425853D01*
X166132481Y-201518985D01*
X166251015Y-201637519D01*
X166344147Y-201776900D01*
X166408297Y-201931772D01*
X166441000Y-202096184D01*
X166441000Y-202263816D01*
X166408297Y-202428228D01*
X166344147Y-202583100D01*
X166251015Y-202722481D01*
X166132481Y-202841015D01*
X165993100Y-202934147D01*
X165838228Y-202998297D01*
X165673816Y-203031000D01*
X165506184Y-203031000D01*
X165341772Y-202998297D01*
X165186900Y-202934147D01*
X165047519Y-202841015D01*
X164928985Y-202722481D01*
X164835853Y-202583100D01*
X164771703Y-202428228D01*
X164739000Y-202263816D01*
X164739000Y-202096184D01*
X164771703Y-201931772D01*
X164835853Y-201776900D01*
X164928985Y-201637519D01*
X165047519Y-201518985D01*
X165186900Y-201425853D01*
X165341772Y-201361703D01*
X165506184Y-201329000D01*
X165673816Y-201329000D01*
X165838228Y-201361703D01*
G37*
G36*
X318003642Y-199689781D02*
G01*
X318149414Y-199750162D01*
X318149416Y-199750163D01*
X318280608Y-199837822D01*
X318392178Y-199949392D01*
X318479837Y-200080584D01*
X318479838Y-200080586D01*
X318540219Y-200226358D01*
X318571000Y-200381107D01*
X318571000Y-200538893D01*
X318540219Y-200693642D01*
X318479838Y-200839414D01*
X318479837Y-200839416D01*
X318392178Y-200970608D01*
X318280608Y-201082178D01*
X318149416Y-201169837D01*
X318149415Y-201169838D01*
X318149414Y-201169838D01*
X318003642Y-201230219D01*
X317848893Y-201261000D01*
X317691107Y-201261000D01*
X317536358Y-201230219D01*
X317390586Y-201169838D01*
X317390585Y-201169838D01*
X317390584Y-201169837D01*
X317259392Y-201082178D01*
X317147822Y-200970608D01*
X317060163Y-200839416D01*
X317060162Y-200839414D01*
X316999781Y-200693642D01*
X316969000Y-200538893D01*
X316969000Y-200381107D01*
X316999781Y-200226358D01*
X317060162Y-200080586D01*
X317060163Y-200080584D01*
X317147822Y-199949392D01*
X317259392Y-199837822D01*
X317390584Y-199750163D01*
X317390586Y-199750162D01*
X317536358Y-199689781D01*
X317691107Y-199659000D01*
X317848893Y-199659000D01*
X318003642Y-199689781D01*
G37*
G36*
X204210345Y-197733442D02*
G01*
X204300548Y-197742326D01*
X204474157Y-197794990D01*
X204634156Y-197880511D01*
X204677729Y-197916271D01*
X204774397Y-197995603D01*
X204853729Y-198092271D01*
X204889489Y-198135844D01*
X204975010Y-198295843D01*
X205027674Y-198469452D01*
X205045456Y-198650000D01*
X205027674Y-198830548D01*
X204975010Y-199004157D01*
X204889489Y-199164156D01*
X204853729Y-199207729D01*
X204774397Y-199304397D01*
X204677729Y-199383729D01*
X204634156Y-199419489D01*
X204474157Y-199505010D01*
X204300548Y-199557674D01*
X204210345Y-199566558D01*
X204165245Y-199571000D01*
X203614755Y-199571000D01*
X203569655Y-199566558D01*
X203479452Y-199557674D01*
X203305843Y-199505010D01*
X203145844Y-199419489D01*
X203102271Y-199383729D01*
X203005603Y-199304397D01*
X202926271Y-199207729D01*
X202890511Y-199164156D01*
X202804990Y-199004157D01*
X202752326Y-198830548D01*
X202734544Y-198650000D01*
X202752326Y-198469452D01*
X202804990Y-198295843D01*
X202890511Y-198135844D01*
X202926271Y-198092271D01*
X203005603Y-197995603D01*
X203102271Y-197916271D01*
X203145844Y-197880511D01*
X203305843Y-197794990D01*
X203479452Y-197742326D01*
X203569655Y-197733442D01*
X203614755Y-197729000D01*
X204165245Y-197729000D01*
X204210345Y-197733442D01*
G37*
G36*
X320543642Y-197149781D02*
G01*
X320689414Y-197210162D01*
X320689416Y-197210163D01*
X320820608Y-197297822D01*
X320932178Y-197409392D01*
X320944764Y-197428229D01*
X321019838Y-197540586D01*
X321080219Y-197686358D01*
X321111000Y-197841107D01*
X321111000Y-197998893D01*
X321080219Y-198153642D01*
X321021318Y-198295841D01*
X321019837Y-198299416D01*
X320932178Y-198430608D01*
X320820608Y-198542178D01*
X320689416Y-198629837D01*
X320689415Y-198629838D01*
X320689414Y-198629838D01*
X320543642Y-198690219D01*
X320388893Y-198721000D01*
X320231107Y-198721000D01*
X320076358Y-198690219D01*
X319930586Y-198629838D01*
X319930585Y-198629838D01*
X319930584Y-198629837D01*
X319799392Y-198542178D01*
X319687822Y-198430608D01*
X319600163Y-198299416D01*
X319598682Y-198295841D01*
X319539781Y-198153642D01*
X319509000Y-197998893D01*
X319509000Y-197841107D01*
X319539781Y-197686358D01*
X319600162Y-197540586D01*
X319675236Y-197428229D01*
X319687822Y-197409392D01*
X319799392Y-197297822D01*
X319930584Y-197210163D01*
X319930586Y-197210162D01*
X320076358Y-197149781D01*
X320231107Y-197119000D01*
X320388893Y-197119000D01*
X320543642Y-197149781D01*
G37*
G36*
X165838228Y-196361703D02*
G01*
X165993100Y-196425853D01*
X166132481Y-196518985D01*
X166251015Y-196637519D01*
X166344147Y-196776900D01*
X166408297Y-196931772D01*
X166441000Y-197096184D01*
X166441000Y-197263816D01*
X166408297Y-197428228D01*
X166344147Y-197583100D01*
X166251015Y-197722481D01*
X166132481Y-197841015D01*
X165993100Y-197934147D01*
X165838228Y-197998297D01*
X165673816Y-198031000D01*
X165506184Y-198031000D01*
X165341772Y-197998297D01*
X165186900Y-197934147D01*
X165047519Y-197841015D01*
X164928985Y-197722481D01*
X164835853Y-197583100D01*
X164771703Y-197428228D01*
X164739000Y-197263816D01*
X164739000Y-197096184D01*
X164771703Y-196931772D01*
X164835853Y-196776900D01*
X164928985Y-196637519D01*
X165047519Y-196518985D01*
X165186900Y-196425853D01*
X165341772Y-196361703D01*
X165506184Y-196329000D01*
X165673816Y-196329000D01*
X165838228Y-196361703D01*
G37*
G36*
X204210345Y-195193442D02*
G01*
X204300548Y-195202326D01*
X204474157Y-195254990D01*
X204634156Y-195340511D01*
X204677729Y-195376271D01*
X204774397Y-195455603D01*
X204853729Y-195552271D01*
X204889489Y-195595844D01*
X204975010Y-195755843D01*
X205027674Y-195929452D01*
X205045456Y-196110000D01*
X205027674Y-196290548D01*
X204975010Y-196464157D01*
X204889489Y-196624156D01*
X204878522Y-196637519D01*
X204774397Y-196764397D01*
X204677729Y-196843729D01*
X204634156Y-196879489D01*
X204474157Y-196965010D01*
X204300548Y-197017674D01*
X204210345Y-197026558D01*
X204165245Y-197031000D01*
X203614755Y-197031000D01*
X203569655Y-197026558D01*
X203479452Y-197017674D01*
X203305843Y-196965010D01*
X203145844Y-196879489D01*
X203102271Y-196843729D01*
X203005603Y-196764397D01*
X202901478Y-196637519D01*
X202890511Y-196624156D01*
X202804990Y-196464157D01*
X202752326Y-196290548D01*
X202734544Y-196110000D01*
X202752326Y-195929452D01*
X202804990Y-195755843D01*
X202890511Y-195595844D01*
X202926271Y-195552271D01*
X203005603Y-195455603D01*
X203102271Y-195376271D01*
X203145844Y-195340511D01*
X203305843Y-195254990D01*
X203479452Y-195202326D01*
X203569655Y-195193442D01*
X203614755Y-195189000D01*
X204165245Y-195189000D01*
X204210345Y-195193442D01*
G37*
G36*
X179781000Y-196701000D02*
G01*
X178079000Y-196701000D01*
X178079000Y-194999000D01*
X179781000Y-194999000D01*
X179781000Y-196701000D01*
G37*
G36*
X176638228Y-195031703D02*
G01*
X176793100Y-195095853D01*
X176932481Y-195188985D01*
X177051015Y-195307519D01*
X177144147Y-195446900D01*
X177208297Y-195601772D01*
X177241000Y-195766184D01*
X177241000Y-195933816D01*
X177208297Y-196098228D01*
X177144147Y-196253100D01*
X177051015Y-196392481D01*
X176932481Y-196511015D01*
X176793100Y-196604147D01*
X176638228Y-196668297D01*
X176473816Y-196701000D01*
X176306184Y-196701000D01*
X176141772Y-196668297D01*
X175986900Y-196604147D01*
X175847519Y-196511015D01*
X175728985Y-196392481D01*
X175635853Y-196253100D01*
X175571703Y-196098228D01*
X175539000Y-195933816D01*
X175539000Y-195766184D01*
X175571703Y-195601772D01*
X175635853Y-195446900D01*
X175728985Y-195307519D01*
X175847519Y-195188985D01*
X175986900Y-195095853D01*
X176141772Y-195031703D01*
X176306184Y-194999000D01*
X176473816Y-194999000D01*
X176638228Y-195031703D01*
G37*
G36*
X174098228Y-195031703D02*
G01*
X174253100Y-195095853D01*
X174392481Y-195188985D01*
X174511015Y-195307519D01*
X174604147Y-195446900D01*
X174668297Y-195601772D01*
X174701000Y-195766184D01*
X174701000Y-195933816D01*
X174668297Y-196098228D01*
X174604147Y-196253100D01*
X174511015Y-196392481D01*
X174392481Y-196511015D01*
X174253100Y-196604147D01*
X174098228Y-196668297D01*
X173933816Y-196701000D01*
X173766184Y-196701000D01*
X173601772Y-196668297D01*
X173446900Y-196604147D01*
X173307519Y-196511015D01*
X173188985Y-196392481D01*
X173095853Y-196253100D01*
X173031703Y-196098228D01*
X172999000Y-195933816D01*
X172999000Y-195766184D01*
X173031703Y-195601772D01*
X173095853Y-195446900D01*
X173188985Y-195307519D01*
X173307519Y-195188985D01*
X173446900Y-195095853D01*
X173601772Y-195031703D01*
X173766184Y-194999000D01*
X173933816Y-194999000D01*
X174098228Y-195031703D01*
G37*
G36*
X171558228Y-195031703D02*
G01*
X171713100Y-195095853D01*
X171852481Y-195188985D01*
X171971015Y-195307519D01*
X172064147Y-195446900D01*
X172128297Y-195601772D01*
X172161000Y-195766184D01*
X172161000Y-195933816D01*
X172128297Y-196098228D01*
X172064147Y-196253100D01*
X171971015Y-196392481D01*
X171852481Y-196511015D01*
X171713100Y-196604147D01*
X171558228Y-196668297D01*
X171393816Y-196701000D01*
X171226184Y-196701000D01*
X171061772Y-196668297D01*
X170906900Y-196604147D01*
X170767519Y-196511015D01*
X170648985Y-196392481D01*
X170555853Y-196253100D01*
X170491703Y-196098228D01*
X170459000Y-195933816D01*
X170459000Y-195766184D01*
X170491703Y-195601772D01*
X170555853Y-195446900D01*
X170648985Y-195307519D01*
X170767519Y-195188985D01*
X170906900Y-195095853D01*
X171061772Y-195031703D01*
X171226184Y-194999000D01*
X171393816Y-194999000D01*
X171558228Y-195031703D01*
G37*
G36*
X213293836Y-192428985D02*
G01*
X213415734Y-192453232D01*
X213625203Y-192539997D01*
X213813720Y-192665960D01*
X213974040Y-192826280D01*
X214100003Y-193014797D01*
X214186768Y-193224266D01*
X214231000Y-193446636D01*
X214231000Y-193673364D01*
X214186768Y-193895734D01*
X214100003Y-194105203D01*
X213974040Y-194293720D01*
X213813720Y-194454040D01*
X213625203Y-194580003D01*
X213415734Y-194666768D01*
X213304549Y-194688884D01*
X213193365Y-194711000D01*
X212966635Y-194711000D01*
X212855451Y-194688884D01*
X212744266Y-194666768D01*
X212534797Y-194580003D01*
X212346280Y-194454040D01*
X212185960Y-194293720D01*
X212059997Y-194105203D01*
X211973232Y-193895734D01*
X211929000Y-193673364D01*
X211929000Y-193446636D01*
X211973232Y-193224266D01*
X212059997Y-193014797D01*
X212185960Y-192826280D01*
X212346280Y-192665960D01*
X212534797Y-192539997D01*
X212744266Y-192453232D01*
X212866164Y-192428985D01*
X212966635Y-192409000D01*
X213193365Y-192409000D01*
X213293836Y-192428985D01*
G37*
G36*
X204899561Y-192652966D02*
G01*
X204932383Y-192662923D01*
X204962632Y-192679092D01*
X204989148Y-192700852D01*
X205010908Y-192727368D01*
X205027077Y-192757617D01*
X205037034Y-192790439D01*
X205041000Y-192830713D01*
X205041000Y-194309287D01*
X205037034Y-194349561D01*
X205027077Y-194382383D01*
X205010908Y-194412632D01*
X204989148Y-194439148D01*
X204962632Y-194460908D01*
X204932383Y-194477077D01*
X204899561Y-194487034D01*
X204859287Y-194491000D01*
X202920713Y-194491000D01*
X202880439Y-194487034D01*
X202847617Y-194477077D01*
X202817368Y-194460908D01*
X202790852Y-194439148D01*
X202769092Y-194412632D01*
X202752923Y-194382383D01*
X202742966Y-194349561D01*
X202739000Y-194309287D01*
X202739000Y-192830713D01*
X202742966Y-192790439D01*
X202752923Y-192757617D01*
X202769092Y-192727368D01*
X202790852Y-192700852D01*
X202817368Y-192679092D01*
X202847617Y-192662923D01*
X202880439Y-192652966D01*
X202920713Y-192649000D01*
X204859287Y-192649000D01*
X204899561Y-192652966D01*
G37*
G36*
X320568228Y-192271703D02*
G01*
X320723100Y-192335853D01*
X320862481Y-192428985D01*
X320981015Y-192547519D01*
X321074147Y-192686900D01*
X321138297Y-192841772D01*
X321171000Y-193006184D01*
X321171000Y-193173816D01*
X321138297Y-193338228D01*
X321074147Y-193493100D01*
X320981015Y-193632481D01*
X320862481Y-193751015D01*
X320723100Y-193844147D01*
X320568228Y-193908297D01*
X320403816Y-193941000D01*
X320236184Y-193941000D01*
X320071772Y-193908297D01*
X319916900Y-193844147D01*
X319777519Y-193751015D01*
X319658985Y-193632481D01*
X319565853Y-193493100D01*
X319501703Y-193338228D01*
X319469000Y-193173816D01*
X319469000Y-193006184D01*
X319501703Y-192841772D01*
X319565853Y-192686900D01*
X319658985Y-192547519D01*
X319777519Y-192428985D01*
X319916900Y-192335853D01*
X320071772Y-192271703D01*
X320236184Y-192239000D01*
X320403816Y-192239000D01*
X320568228Y-192271703D01*
G37*
G36*
X171518228Y-191441703D02*
G01*
X171673100Y-191505853D01*
X171812481Y-191598985D01*
X171931015Y-191717519D01*
X172024147Y-191856900D01*
X172088297Y-192011772D01*
X172121000Y-192176184D01*
X172121000Y-192343816D01*
X172088297Y-192508228D01*
X172024147Y-192663100D01*
X171931015Y-192802481D01*
X171812481Y-192921015D01*
X171673100Y-193014147D01*
X171518228Y-193078297D01*
X171353816Y-193111000D01*
X171186184Y-193111000D01*
X171021772Y-193078297D01*
X170866900Y-193014147D01*
X170727519Y-192921015D01*
X170608985Y-192802481D01*
X170515853Y-192663100D01*
X170451703Y-192508228D01*
X170419000Y-192343816D01*
X170419000Y-192176184D01*
X170451703Y-192011772D01*
X170515853Y-191856900D01*
X170608985Y-191717519D01*
X170727519Y-191598985D01*
X170866900Y-191505853D01*
X171021772Y-191441703D01*
X171186184Y-191409000D01*
X171353816Y-191409000D01*
X171518228Y-191441703D01*
G37*
G36*
X224274644Y-187319272D02*
G01*
X224470017Y-187378538D01*
X224538737Y-187399384D01*
X224741625Y-187507830D01*
X224782120Y-187529475D01*
X224837691Y-187575082D01*
X224995450Y-187704550D01*
X225124918Y-187862309D01*
X225170525Y-187917880D01*
X225170526Y-187917882D01*
X225300616Y-188161263D01*
X225300617Y-188161267D01*
X225380728Y-188425357D01*
X225401000Y-188631183D01*
X225401000Y-189368818D01*
X225380728Y-189574644D01*
X225321462Y-189770017D01*
X225300616Y-189838737D01*
X225177964Y-190068202D01*
X225170525Y-190082120D01*
X225138092Y-190121640D01*
X224995450Y-190295450D01*
X224823797Y-190436320D01*
X224782119Y-190470525D01*
X224782117Y-190470526D01*
X224538736Y-190600616D01*
X224470016Y-190621462D01*
X224274643Y-190680728D01*
X224000000Y-190707778D01*
X223725356Y-190680728D01*
X223529983Y-190621462D01*
X223461263Y-190600616D01*
X223217882Y-190470526D01*
X223217880Y-190470525D01*
X223178360Y-190438092D01*
X223004550Y-190295450D01*
X222829476Y-190082120D01*
X222829475Y-190082119D01*
X222822036Y-190068201D01*
X222699384Y-189838736D01*
X222678538Y-189770016D01*
X222619272Y-189574643D01*
X222599000Y-189368817D01*
X222599000Y-188631182D01*
X222619272Y-188425356D01*
X222699383Y-188161267D01*
X222699384Y-188161263D01*
X222829474Y-187917882D01*
X222829475Y-187917880D01*
X222861908Y-187878360D01*
X223004550Y-187704550D01*
X223182581Y-187558445D01*
X223217881Y-187529475D01*
X223258376Y-187507830D01*
X223461264Y-187399384D01*
X223529984Y-187378538D01*
X223725357Y-187319272D01*
X224000000Y-187292222D01*
X224274644Y-187319272D01*
G37*
G36*
X262074644Y-187319272D02*
G01*
X262270017Y-187378538D01*
X262338737Y-187399384D01*
X262541625Y-187507830D01*
X262582120Y-187529475D01*
X262637691Y-187575082D01*
X262795450Y-187704550D01*
X262924918Y-187862309D01*
X262970525Y-187917880D01*
X262970526Y-187917882D01*
X263100616Y-188161263D01*
X263100617Y-188161267D01*
X263180728Y-188425357D01*
X263201000Y-188631183D01*
X263201000Y-189368818D01*
X263180728Y-189574644D01*
X263121462Y-189770017D01*
X263100616Y-189838737D01*
X262977964Y-190068202D01*
X262970525Y-190082120D01*
X262938092Y-190121640D01*
X262795450Y-190295450D01*
X262623797Y-190436320D01*
X262582119Y-190470525D01*
X262582117Y-190470526D01*
X262338736Y-190600616D01*
X262270016Y-190621462D01*
X262074643Y-190680728D01*
X261800000Y-190707778D01*
X261525356Y-190680728D01*
X261329983Y-190621462D01*
X261261263Y-190600616D01*
X261017882Y-190470526D01*
X261017880Y-190470525D01*
X260978360Y-190438092D01*
X260804550Y-190295450D01*
X260629476Y-190082120D01*
X260629475Y-190082119D01*
X260622036Y-190068201D01*
X260499384Y-189838736D01*
X260478538Y-189770016D01*
X260419272Y-189574643D01*
X260399000Y-189368817D01*
X260399000Y-188631182D01*
X260419272Y-188425356D01*
X260499383Y-188161267D01*
X260499384Y-188161263D01*
X260629474Y-187917882D01*
X260629475Y-187917880D01*
X260661908Y-187878360D01*
X260804550Y-187704550D01*
X260982581Y-187558445D01*
X261017881Y-187529475D01*
X261058376Y-187507830D01*
X261261264Y-187399384D01*
X261329984Y-187378538D01*
X261525357Y-187319272D01*
X261800000Y-187292222D01*
X262074644Y-187319272D01*
G37*
G36*
X253674644Y-187319272D02*
G01*
X253870017Y-187378538D01*
X253938737Y-187399384D01*
X254141625Y-187507830D01*
X254182120Y-187529475D01*
X254237691Y-187575082D01*
X254395450Y-187704550D01*
X254524918Y-187862309D01*
X254570525Y-187917880D01*
X254570526Y-187917882D01*
X254700616Y-188161263D01*
X254700617Y-188161267D01*
X254780728Y-188425357D01*
X254801000Y-188631183D01*
X254801000Y-189368818D01*
X254780728Y-189574644D01*
X254721462Y-189770017D01*
X254700616Y-189838737D01*
X254577964Y-190068202D01*
X254570525Y-190082120D01*
X254538092Y-190121640D01*
X254395450Y-190295450D01*
X254223797Y-190436320D01*
X254182119Y-190470525D01*
X254182117Y-190470526D01*
X253938736Y-190600616D01*
X253870016Y-190621462D01*
X253674643Y-190680728D01*
X253400000Y-190707778D01*
X253125356Y-190680728D01*
X252929983Y-190621462D01*
X252861263Y-190600616D01*
X252617882Y-190470526D01*
X252617880Y-190470525D01*
X252578360Y-190438092D01*
X252404550Y-190295450D01*
X252229476Y-190082120D01*
X252229475Y-190082119D01*
X252222036Y-190068201D01*
X252099384Y-189838736D01*
X252078538Y-189770016D01*
X252019272Y-189574643D01*
X251999000Y-189368817D01*
X251999000Y-188631182D01*
X252019272Y-188425356D01*
X252099383Y-188161267D01*
X252099384Y-188161263D01*
X252229474Y-187917882D01*
X252229475Y-187917880D01*
X252261908Y-187878360D01*
X252404550Y-187704550D01*
X252582581Y-187558445D01*
X252617881Y-187529475D01*
X252658376Y-187507830D01*
X252861264Y-187399384D01*
X252929984Y-187378538D01*
X253125357Y-187319272D01*
X253400000Y-187292222D01*
X253674644Y-187319272D01*
G37*
G36*
X249474644Y-187319272D02*
G01*
X249670017Y-187378538D01*
X249738737Y-187399384D01*
X249941625Y-187507830D01*
X249982120Y-187529475D01*
X250037691Y-187575082D01*
X250195450Y-187704550D01*
X250324918Y-187862309D01*
X250370525Y-187917880D01*
X250370526Y-187917882D01*
X250500616Y-188161263D01*
X250500617Y-188161267D01*
X250580728Y-188425357D01*
X250601000Y-188631183D01*
X250601000Y-189368818D01*
X250580728Y-189574644D01*
X250521462Y-189770017D01*
X250500616Y-189838737D01*
X250377964Y-190068202D01*
X250370525Y-190082120D01*
X250338092Y-190121640D01*
X250195450Y-190295450D01*
X250023797Y-190436320D01*
X249982119Y-190470525D01*
X249982117Y-190470526D01*
X249738736Y-190600616D01*
X249670016Y-190621462D01*
X249474643Y-190680728D01*
X249200000Y-190707778D01*
X248925356Y-190680728D01*
X248729983Y-190621462D01*
X248661263Y-190600616D01*
X248417882Y-190470526D01*
X248417880Y-190470525D01*
X248378360Y-190438092D01*
X248204550Y-190295450D01*
X248029476Y-190082120D01*
X248029475Y-190082119D01*
X248022036Y-190068201D01*
X247899384Y-189838736D01*
X247878538Y-189770016D01*
X247819272Y-189574643D01*
X247799000Y-189368817D01*
X247799000Y-188631182D01*
X247819272Y-188425356D01*
X247899383Y-188161267D01*
X247899384Y-188161263D01*
X248029474Y-187917882D01*
X248029475Y-187917880D01*
X248061908Y-187878360D01*
X248204550Y-187704550D01*
X248382581Y-187558445D01*
X248417881Y-187529475D01*
X248458376Y-187507830D01*
X248661264Y-187399384D01*
X248729984Y-187378538D01*
X248925357Y-187319272D01*
X249200000Y-187292222D01*
X249474644Y-187319272D01*
G37*
G36*
X245274644Y-187319272D02*
G01*
X245470017Y-187378538D01*
X245538737Y-187399384D01*
X245741625Y-187507830D01*
X245782120Y-187529475D01*
X245837691Y-187575082D01*
X245995450Y-187704550D01*
X246124918Y-187862309D01*
X246170525Y-187917880D01*
X246170526Y-187917882D01*
X246300616Y-188161263D01*
X246300617Y-188161267D01*
X246380728Y-188425357D01*
X246401000Y-188631183D01*
X246401000Y-189368818D01*
X246380728Y-189574644D01*
X246321462Y-189770017D01*
X246300616Y-189838737D01*
X246177964Y-190068202D01*
X246170525Y-190082120D01*
X246138092Y-190121640D01*
X245995450Y-190295450D01*
X245823797Y-190436320D01*
X245782119Y-190470525D01*
X245782117Y-190470526D01*
X245538736Y-190600616D01*
X245470016Y-190621462D01*
X245274643Y-190680728D01*
X245000000Y-190707778D01*
X244725356Y-190680728D01*
X244529983Y-190621462D01*
X244461263Y-190600616D01*
X244217882Y-190470526D01*
X244217880Y-190470525D01*
X244178360Y-190438092D01*
X244004550Y-190295450D01*
X243829476Y-190082120D01*
X243829475Y-190082119D01*
X243822036Y-190068201D01*
X243699384Y-189838736D01*
X243678538Y-189770016D01*
X243619272Y-189574643D01*
X243599000Y-189368817D01*
X243599000Y-188631182D01*
X243619272Y-188425356D01*
X243699383Y-188161267D01*
X243699384Y-188161263D01*
X243829474Y-187917882D01*
X243829475Y-187917880D01*
X243861908Y-187878360D01*
X244004550Y-187704550D01*
X244182581Y-187558445D01*
X244217881Y-187529475D01*
X244258376Y-187507830D01*
X244461264Y-187399384D01*
X244529984Y-187378538D01*
X244725357Y-187319272D01*
X245000000Y-187292222D01*
X245274644Y-187319272D01*
G37*
G36*
X257874644Y-187319272D02*
G01*
X258070017Y-187378538D01*
X258138737Y-187399384D01*
X258341625Y-187507830D01*
X258382120Y-187529475D01*
X258437691Y-187575082D01*
X258595450Y-187704550D01*
X258724918Y-187862309D01*
X258770525Y-187917880D01*
X258770526Y-187917882D01*
X258900616Y-188161263D01*
X258900617Y-188161267D01*
X258980728Y-188425357D01*
X259001000Y-188631183D01*
X259001000Y-189368818D01*
X258980728Y-189574644D01*
X258921462Y-189770017D01*
X258900616Y-189838737D01*
X258777964Y-190068202D01*
X258770525Y-190082120D01*
X258738092Y-190121640D01*
X258595450Y-190295450D01*
X258423797Y-190436320D01*
X258382119Y-190470525D01*
X258382117Y-190470526D01*
X258138736Y-190600616D01*
X258070016Y-190621462D01*
X257874643Y-190680728D01*
X257600000Y-190707778D01*
X257325356Y-190680728D01*
X257129983Y-190621462D01*
X257061263Y-190600616D01*
X256817882Y-190470526D01*
X256817880Y-190470525D01*
X256778360Y-190438092D01*
X256604550Y-190295450D01*
X256429476Y-190082120D01*
X256429475Y-190082119D01*
X256422036Y-190068201D01*
X256299384Y-189838736D01*
X256278538Y-189770016D01*
X256219272Y-189574643D01*
X256199000Y-189368817D01*
X256199000Y-188631182D01*
X256219272Y-188425356D01*
X256299383Y-188161267D01*
X256299384Y-188161263D01*
X256429474Y-187917882D01*
X256429475Y-187917880D01*
X256461908Y-187878360D01*
X256604550Y-187704550D01*
X256782581Y-187558445D01*
X256817881Y-187529475D01*
X256858376Y-187507830D01*
X257061264Y-187399384D01*
X257129984Y-187378538D01*
X257325357Y-187319272D01*
X257600000Y-187292222D01*
X257874644Y-187319272D01*
G37*
G36*
X241074644Y-187319272D02*
G01*
X241270017Y-187378538D01*
X241338737Y-187399384D01*
X241541625Y-187507830D01*
X241582120Y-187529475D01*
X241637691Y-187575082D01*
X241795450Y-187704550D01*
X241924918Y-187862309D01*
X241970525Y-187917880D01*
X241970526Y-187917882D01*
X242100616Y-188161263D01*
X242100617Y-188161267D01*
X242180728Y-188425357D01*
X242201000Y-188631183D01*
X242201000Y-189368818D01*
X242180728Y-189574644D01*
X242121462Y-189770017D01*
X242100616Y-189838737D01*
X241977964Y-190068202D01*
X241970525Y-190082120D01*
X241938092Y-190121640D01*
X241795450Y-190295450D01*
X241623797Y-190436320D01*
X241582119Y-190470525D01*
X241582117Y-190470526D01*
X241338736Y-190600616D01*
X241270016Y-190621462D01*
X241074643Y-190680728D01*
X240800000Y-190707778D01*
X240525356Y-190680728D01*
X240329983Y-190621462D01*
X240261263Y-190600616D01*
X240017882Y-190470526D01*
X240017880Y-190470525D01*
X239978360Y-190438092D01*
X239804550Y-190295450D01*
X239629476Y-190082120D01*
X239629475Y-190082119D01*
X239622036Y-190068201D01*
X239499384Y-189838736D01*
X239478538Y-189770016D01*
X239419272Y-189574643D01*
X239399000Y-189368817D01*
X239399000Y-188631182D01*
X239419272Y-188425356D01*
X239499383Y-188161267D01*
X239499384Y-188161263D01*
X239629474Y-187917882D01*
X239629475Y-187917880D01*
X239661908Y-187878360D01*
X239804550Y-187704550D01*
X239982581Y-187558445D01*
X240017881Y-187529475D01*
X240058376Y-187507830D01*
X240261264Y-187399384D01*
X240329984Y-187378538D01*
X240525357Y-187319272D01*
X240800000Y-187292222D01*
X241074644Y-187319272D01*
G37*
G36*
X236874644Y-187319272D02*
G01*
X237070017Y-187378538D01*
X237138737Y-187399384D01*
X237341625Y-187507830D01*
X237382120Y-187529475D01*
X237437691Y-187575082D01*
X237595450Y-187704550D01*
X237724918Y-187862309D01*
X237770525Y-187917880D01*
X237770526Y-187917882D01*
X237900616Y-188161263D01*
X237900617Y-188161267D01*
X237980728Y-188425357D01*
X238001000Y-188631183D01*
X238001000Y-189368818D01*
X237980728Y-189574644D01*
X237921462Y-189770017D01*
X237900616Y-189838737D01*
X237777964Y-190068202D01*
X237770525Y-190082120D01*
X237738092Y-190121640D01*
X237595450Y-190295450D01*
X237423797Y-190436320D01*
X237382119Y-190470525D01*
X237382117Y-190470526D01*
X237138736Y-190600616D01*
X237070016Y-190621462D01*
X236874643Y-190680728D01*
X236600000Y-190707778D01*
X236325356Y-190680728D01*
X236129983Y-190621462D01*
X236061263Y-190600616D01*
X235817882Y-190470526D01*
X235817880Y-190470525D01*
X235778360Y-190438092D01*
X235604550Y-190295450D01*
X235429476Y-190082120D01*
X235429475Y-190082119D01*
X235422036Y-190068201D01*
X235299384Y-189838736D01*
X235278538Y-189770016D01*
X235219272Y-189574643D01*
X235199000Y-189368817D01*
X235199000Y-188631182D01*
X235219272Y-188425356D01*
X235299383Y-188161267D01*
X235299384Y-188161263D01*
X235429474Y-187917882D01*
X235429475Y-187917880D01*
X235461908Y-187878360D01*
X235604550Y-187704550D01*
X235782581Y-187558445D01*
X235817881Y-187529475D01*
X235858376Y-187507830D01*
X236061264Y-187399384D01*
X236129984Y-187378538D01*
X236325357Y-187319272D01*
X236600000Y-187292222D01*
X236874644Y-187319272D01*
G37*
G36*
X232674644Y-187319272D02*
G01*
X232870017Y-187378538D01*
X232938737Y-187399384D01*
X233141625Y-187507830D01*
X233182120Y-187529475D01*
X233237691Y-187575082D01*
X233395450Y-187704550D01*
X233524918Y-187862309D01*
X233570525Y-187917880D01*
X233570526Y-187917882D01*
X233700616Y-188161263D01*
X233700617Y-188161267D01*
X233780728Y-188425357D01*
X233801000Y-188631183D01*
X233801000Y-189368818D01*
X233780728Y-189574644D01*
X233721462Y-189770017D01*
X233700616Y-189838737D01*
X233577964Y-190068202D01*
X233570525Y-190082120D01*
X233538092Y-190121640D01*
X233395450Y-190295450D01*
X233223797Y-190436320D01*
X233182119Y-190470525D01*
X233182117Y-190470526D01*
X232938736Y-190600616D01*
X232870016Y-190621462D01*
X232674643Y-190680728D01*
X232400000Y-190707778D01*
X232125356Y-190680728D01*
X231929983Y-190621462D01*
X231861263Y-190600616D01*
X231617882Y-190470526D01*
X231617880Y-190470525D01*
X231578360Y-190438092D01*
X231404550Y-190295450D01*
X231229476Y-190082120D01*
X231229475Y-190082119D01*
X231222036Y-190068201D01*
X231099384Y-189838736D01*
X231078538Y-189770016D01*
X231019272Y-189574643D01*
X230999000Y-189368817D01*
X230999000Y-188631182D01*
X231019272Y-188425356D01*
X231099383Y-188161267D01*
X231099384Y-188161263D01*
X231229474Y-187917882D01*
X231229475Y-187917880D01*
X231261908Y-187878360D01*
X231404550Y-187704550D01*
X231582581Y-187558445D01*
X231617881Y-187529475D01*
X231658376Y-187507830D01*
X231861264Y-187399384D01*
X231929984Y-187378538D01*
X232125357Y-187319272D01*
X232400000Y-187292222D01*
X232674644Y-187319272D01*
G37*
G36*
X228474644Y-187319272D02*
G01*
X228670017Y-187378538D01*
X228738737Y-187399384D01*
X228941625Y-187507830D01*
X228982120Y-187529475D01*
X229037691Y-187575082D01*
X229195450Y-187704550D01*
X229324918Y-187862309D01*
X229370525Y-187917880D01*
X229370526Y-187917882D01*
X229500616Y-188161263D01*
X229500617Y-188161267D01*
X229580728Y-188425357D01*
X229601000Y-188631183D01*
X229601000Y-189368818D01*
X229580728Y-189574644D01*
X229521462Y-189770017D01*
X229500616Y-189838737D01*
X229377964Y-190068202D01*
X229370525Y-190082120D01*
X229338092Y-190121640D01*
X229195450Y-190295450D01*
X229023797Y-190436320D01*
X228982119Y-190470525D01*
X228982117Y-190470526D01*
X228738736Y-190600616D01*
X228670016Y-190621462D01*
X228474643Y-190680728D01*
X228200000Y-190707778D01*
X227925356Y-190680728D01*
X227729983Y-190621462D01*
X227661263Y-190600616D01*
X227417882Y-190470526D01*
X227417880Y-190470525D01*
X227378360Y-190438092D01*
X227204550Y-190295450D01*
X227029476Y-190082120D01*
X227029475Y-190082119D01*
X227022036Y-190068201D01*
X226899384Y-189838736D01*
X226878538Y-189770016D01*
X226819272Y-189574643D01*
X226799000Y-189368817D01*
X226799000Y-188631182D01*
X226819272Y-188425356D01*
X226899383Y-188161267D01*
X226899384Y-188161263D01*
X227029474Y-187917882D01*
X227029475Y-187917880D01*
X227061908Y-187878360D01*
X227204550Y-187704550D01*
X227382581Y-187558445D01*
X227417881Y-187529475D01*
X227458376Y-187507830D01*
X227661264Y-187399384D01*
X227729984Y-187378538D01*
X227925357Y-187319272D01*
X228200000Y-187292222D01*
X228474644Y-187319272D01*
G37*
G36*
X220074644Y-187319272D02*
G01*
X220270017Y-187378538D01*
X220338737Y-187399384D01*
X220541625Y-187507830D01*
X220582120Y-187529475D01*
X220637691Y-187575082D01*
X220795450Y-187704550D01*
X220924918Y-187862309D01*
X220970525Y-187917880D01*
X220970526Y-187917882D01*
X221100616Y-188161263D01*
X221100617Y-188161267D01*
X221180728Y-188425357D01*
X221201000Y-188631183D01*
X221201000Y-189368818D01*
X221180728Y-189574644D01*
X221121462Y-189770017D01*
X221100616Y-189838737D01*
X220977964Y-190068202D01*
X220970525Y-190082120D01*
X220938092Y-190121640D01*
X220795450Y-190295450D01*
X220623797Y-190436320D01*
X220582119Y-190470525D01*
X220582117Y-190470526D01*
X220338736Y-190600616D01*
X220270016Y-190621462D01*
X220074643Y-190680728D01*
X219800000Y-190707778D01*
X219525356Y-190680728D01*
X219329983Y-190621462D01*
X219261263Y-190600616D01*
X219017882Y-190470526D01*
X219017880Y-190470525D01*
X218978360Y-190438092D01*
X218804550Y-190295450D01*
X218629476Y-190082120D01*
X218629475Y-190082119D01*
X218622036Y-190068201D01*
X218499384Y-189838736D01*
X218478538Y-189770016D01*
X218419272Y-189574643D01*
X218399000Y-189368817D01*
X218399000Y-188631182D01*
X218419272Y-188425356D01*
X218499383Y-188161267D01*
X218499384Y-188161263D01*
X218629474Y-187917882D01*
X218629475Y-187917880D01*
X218661908Y-187878360D01*
X218804550Y-187704550D01*
X218982581Y-187558445D01*
X219017881Y-187529475D01*
X219058376Y-187507830D01*
X219261264Y-187399384D01*
X219329984Y-187378538D01*
X219525357Y-187319272D01*
X219800000Y-187292222D01*
X220074644Y-187319272D01*
G37*
G36*
X267274031Y-187302621D02*
G01*
X267303486Y-187311556D01*
X267330623Y-187326062D01*
X267354414Y-187345586D01*
X267373938Y-187369377D01*
X267388444Y-187396514D01*
X267397379Y-187425969D01*
X267401000Y-187462734D01*
X267401000Y-190537266D01*
X267397379Y-190574031D01*
X267388444Y-190603486D01*
X267373938Y-190630623D01*
X267354414Y-190654414D01*
X267330623Y-190673938D01*
X267303486Y-190688444D01*
X267274031Y-190697379D01*
X267237266Y-190701000D01*
X264762734Y-190701000D01*
X264725969Y-190697379D01*
X264696514Y-190688444D01*
X264669377Y-190673938D01*
X264645586Y-190654414D01*
X264626062Y-190630623D01*
X264611556Y-190603486D01*
X264602621Y-190574031D01*
X264599000Y-190537266D01*
X264599000Y-187462734D01*
X264602621Y-187425969D01*
X264611556Y-187396514D01*
X264626062Y-187369377D01*
X264645586Y-187345586D01*
X264669377Y-187326062D01*
X264696514Y-187311556D01*
X264725969Y-187302621D01*
X264762734Y-187299000D01*
X267237266Y-187299000D01*
X267274031Y-187302621D01*
G37*
G36*
X192488228Y-187621703D02*
G01*
X192643100Y-187685853D01*
X192782481Y-187778985D01*
X192901015Y-187897519D01*
X192994147Y-188036900D01*
X193058297Y-188191772D01*
X193091000Y-188356184D01*
X193091000Y-188523816D01*
X193058297Y-188688228D01*
X192994147Y-188843100D01*
X192901015Y-188982481D01*
X192782481Y-189101015D01*
X192643100Y-189194147D01*
X192488228Y-189258297D01*
X192323816Y-189291000D01*
X192156184Y-189291000D01*
X191991772Y-189258297D01*
X191836900Y-189194147D01*
X191697519Y-189101015D01*
X191578985Y-188982481D01*
X191485853Y-188843100D01*
X191421703Y-188688228D01*
X191389000Y-188523816D01*
X191389000Y-188356184D01*
X191421703Y-188191772D01*
X191485853Y-188036900D01*
X191578985Y-187897519D01*
X191697519Y-187778985D01*
X191836900Y-187685853D01*
X191991772Y-187621703D01*
X192156184Y-187589000D01*
X192323816Y-187589000D01*
X192488228Y-187621703D01*
G37*
G36*
X185638228Y-187621703D02*
G01*
X185793100Y-187685853D01*
X185932481Y-187778985D01*
X186051015Y-187897519D01*
X186144147Y-188036900D01*
X186208297Y-188191772D01*
X186241000Y-188356184D01*
X186241000Y-188523816D01*
X186208297Y-188688228D01*
X186144147Y-188843100D01*
X186051015Y-188982481D01*
X185932481Y-189101015D01*
X185793100Y-189194147D01*
X185638228Y-189258297D01*
X185473816Y-189291000D01*
X185306184Y-189291000D01*
X185141772Y-189258297D01*
X184986900Y-189194147D01*
X184847519Y-189101015D01*
X184728985Y-188982481D01*
X184635853Y-188843100D01*
X184571703Y-188688228D01*
X184539000Y-188523816D01*
X184539000Y-188356184D01*
X184571703Y-188191772D01*
X184635853Y-188036900D01*
X184728985Y-187897519D01*
X184847519Y-187778985D01*
X184986900Y-187685853D01*
X185141772Y-187621703D01*
X185306184Y-187589000D01*
X185473816Y-187589000D01*
X185638228Y-187621703D01*
G37*
G36*
X171518228Y-183941703D02*
G01*
X171673100Y-184005853D01*
X171812481Y-184098985D01*
X171931015Y-184217519D01*
X172024147Y-184356900D01*
X172088297Y-184511772D01*
X172121000Y-184676184D01*
X172121000Y-184843816D01*
X172088297Y-185008228D01*
X172024147Y-185163100D01*
X171931015Y-185302481D01*
X171812481Y-185421015D01*
X171673100Y-185514147D01*
X171518228Y-185578297D01*
X171353816Y-185611000D01*
X171186184Y-185611000D01*
X171021772Y-185578297D01*
X170866900Y-185514147D01*
X170727519Y-185421015D01*
X170608985Y-185302481D01*
X170515853Y-185163100D01*
X170451703Y-185008228D01*
X170419000Y-184843816D01*
X170419000Y-184676184D01*
X170451703Y-184511772D01*
X170515853Y-184356900D01*
X170608985Y-184217519D01*
X170727519Y-184098985D01*
X170866900Y-184005853D01*
X171021772Y-183941703D01*
X171186184Y-183909000D01*
X171353816Y-183909000D01*
X171518228Y-183941703D01*
G37*
G36*
X236874644Y-181819272D02*
G01*
X237070017Y-181878538D01*
X237138737Y-181899384D01*
X237368202Y-182022036D01*
X237382120Y-182029475D01*
X237437691Y-182075082D01*
X237595450Y-182204550D01*
X237709961Y-182344083D01*
X237770525Y-182417880D01*
X237770526Y-182417882D01*
X237900616Y-182661263D01*
X237900617Y-182661267D01*
X237980728Y-182925357D01*
X237980728Y-182925359D01*
X238001000Y-183131181D01*
X238001000Y-183868820D01*
X237993821Y-183941705D01*
X237980728Y-184074644D01*
X237939941Y-184209099D01*
X237900616Y-184338737D01*
X237777964Y-184568202D01*
X237770525Y-184582120D01*
X237738092Y-184621640D01*
X237595450Y-184795450D01*
X237423797Y-184936320D01*
X237382119Y-184970525D01*
X237382117Y-184970526D01*
X237138736Y-185100616D01*
X237070016Y-185121462D01*
X236874643Y-185180728D01*
X236600000Y-185207778D01*
X236325356Y-185180728D01*
X236129983Y-185121462D01*
X236061263Y-185100616D01*
X235817882Y-184970526D01*
X235817880Y-184970525D01*
X235778360Y-184938092D01*
X235604550Y-184795450D01*
X235429476Y-184582120D01*
X235429475Y-184582119D01*
X235391874Y-184511772D01*
X235299384Y-184338736D01*
X235236368Y-184131000D01*
X235219272Y-184074643D01*
X235199000Y-183868817D01*
X235199000Y-183131182D01*
X235219272Y-182925356D01*
X235299383Y-182661267D01*
X235299384Y-182661263D01*
X235429474Y-182417882D01*
X235429475Y-182417880D01*
X235490039Y-182344083D01*
X235604550Y-182204550D01*
X235776203Y-182063680D01*
X235817881Y-182029475D01*
X235831799Y-182022036D01*
X236061264Y-181899384D01*
X236129984Y-181878538D01*
X236325357Y-181819272D01*
X236600000Y-181792222D01*
X236874644Y-181819272D01*
G37*
G36*
X232674644Y-181819272D02*
G01*
X232870017Y-181878538D01*
X232938737Y-181899384D01*
X233168202Y-182022036D01*
X233182120Y-182029475D01*
X233237691Y-182075082D01*
X233395450Y-182204550D01*
X233509961Y-182344083D01*
X233570525Y-182417880D01*
X233570526Y-182417882D01*
X233700616Y-182661263D01*
X233700617Y-182661267D01*
X233780728Y-182925357D01*
X233780728Y-182925359D01*
X233801000Y-183131181D01*
X233801000Y-183868820D01*
X233793821Y-183941705D01*
X233780728Y-184074644D01*
X233739941Y-184209099D01*
X233700616Y-184338737D01*
X233577964Y-184568202D01*
X233570525Y-184582120D01*
X233538092Y-184621640D01*
X233395450Y-184795450D01*
X233223797Y-184936320D01*
X233182119Y-184970525D01*
X233182117Y-184970526D01*
X232938736Y-185100616D01*
X232870016Y-185121462D01*
X232674643Y-185180728D01*
X232400000Y-185207778D01*
X232125356Y-185180728D01*
X231929983Y-185121462D01*
X231861263Y-185100616D01*
X231617882Y-184970526D01*
X231617880Y-184970525D01*
X231578360Y-184938092D01*
X231404550Y-184795450D01*
X231229476Y-184582120D01*
X231229475Y-184582119D01*
X231191874Y-184511772D01*
X231099384Y-184338736D01*
X231036368Y-184131000D01*
X231019272Y-184074643D01*
X230999000Y-183868817D01*
X230999000Y-183131182D01*
X231019272Y-182925356D01*
X231099383Y-182661267D01*
X231099384Y-182661263D01*
X231229474Y-182417882D01*
X231229475Y-182417880D01*
X231290039Y-182344083D01*
X231404550Y-182204550D01*
X231576203Y-182063680D01*
X231617881Y-182029475D01*
X231631799Y-182022036D01*
X231861264Y-181899384D01*
X231929984Y-181878538D01*
X232125357Y-181819272D01*
X232400000Y-181792222D01*
X232674644Y-181819272D01*
G37*
G36*
X220074644Y-181819272D02*
G01*
X220270017Y-181878538D01*
X220338737Y-181899384D01*
X220568202Y-182022036D01*
X220582120Y-182029475D01*
X220637691Y-182075082D01*
X220795450Y-182204550D01*
X220909961Y-182344083D01*
X220970525Y-182417880D01*
X220970526Y-182417882D01*
X221100616Y-182661263D01*
X221100617Y-182661267D01*
X221180728Y-182925357D01*
X221180728Y-182925359D01*
X221201000Y-183131181D01*
X221201000Y-183868820D01*
X221193821Y-183941705D01*
X221180728Y-184074644D01*
X221139941Y-184209099D01*
X221100616Y-184338737D01*
X220977964Y-184568202D01*
X220970525Y-184582120D01*
X220938092Y-184621640D01*
X220795450Y-184795450D01*
X220623797Y-184936320D01*
X220582119Y-184970525D01*
X220582117Y-184970526D01*
X220338736Y-185100616D01*
X220270016Y-185121462D01*
X220074643Y-185180728D01*
X219800000Y-185207778D01*
X219525356Y-185180728D01*
X219329983Y-185121462D01*
X219261263Y-185100616D01*
X219017882Y-184970526D01*
X219017880Y-184970525D01*
X218978360Y-184938092D01*
X218804550Y-184795450D01*
X218629476Y-184582120D01*
X218629475Y-184582119D01*
X218591874Y-184511772D01*
X218499384Y-184338736D01*
X218436368Y-184131000D01*
X218419272Y-184074643D01*
X218399000Y-183868817D01*
X218399000Y-183131182D01*
X218419272Y-182925356D01*
X218499383Y-182661267D01*
X218499384Y-182661263D01*
X218629474Y-182417882D01*
X218629475Y-182417880D01*
X218690039Y-182344083D01*
X218804550Y-182204550D01*
X218976203Y-182063680D01*
X219017881Y-182029475D01*
X219031799Y-182022036D01*
X219261264Y-181899384D01*
X219329984Y-181878538D01*
X219525357Y-181819272D01*
X219800000Y-181792222D01*
X220074644Y-181819272D01*
G37*
G36*
X224274644Y-181819272D02*
G01*
X224470017Y-181878538D01*
X224538737Y-181899384D01*
X224768202Y-182022036D01*
X224782120Y-182029475D01*
X224837691Y-182075082D01*
X224995450Y-182204550D01*
X225109961Y-182344083D01*
X225170525Y-182417880D01*
X225170526Y-182417882D01*
X225300616Y-182661263D01*
X225300617Y-182661267D01*
X225380728Y-182925357D01*
X225380728Y-182925359D01*
X225401000Y-183131181D01*
X225401000Y-183868820D01*
X225393821Y-183941705D01*
X225380728Y-184074644D01*
X225339941Y-184209099D01*
X225300616Y-184338737D01*
X225177964Y-184568202D01*
X225170525Y-184582120D01*
X225138092Y-184621640D01*
X224995450Y-184795450D01*
X224823797Y-184936320D01*
X224782119Y-184970525D01*
X224782117Y-184970526D01*
X224538736Y-185100616D01*
X224470016Y-185121462D01*
X224274643Y-185180728D01*
X224000000Y-185207778D01*
X223725356Y-185180728D01*
X223529983Y-185121462D01*
X223461263Y-185100616D01*
X223217882Y-184970526D01*
X223217880Y-184970525D01*
X223178360Y-184938092D01*
X223004550Y-184795450D01*
X222829476Y-184582120D01*
X222829475Y-184582119D01*
X222791874Y-184511772D01*
X222699384Y-184338736D01*
X222636368Y-184131000D01*
X222619272Y-184074643D01*
X222599000Y-183868817D01*
X222599000Y-183131182D01*
X222619272Y-182925356D01*
X222699383Y-182661267D01*
X222699384Y-182661263D01*
X222829474Y-182417882D01*
X222829475Y-182417880D01*
X222890039Y-182344083D01*
X223004550Y-182204550D01*
X223176203Y-182063680D01*
X223217881Y-182029475D01*
X223231799Y-182022036D01*
X223461264Y-181899384D01*
X223529984Y-181878538D01*
X223725357Y-181819272D01*
X224000000Y-181792222D01*
X224274644Y-181819272D01*
G37*
G36*
X228474644Y-181819272D02*
G01*
X228670017Y-181878538D01*
X228738737Y-181899384D01*
X228968202Y-182022036D01*
X228982120Y-182029475D01*
X229037691Y-182075082D01*
X229195450Y-182204550D01*
X229309961Y-182344083D01*
X229370525Y-182417880D01*
X229370526Y-182417882D01*
X229500616Y-182661263D01*
X229500617Y-182661267D01*
X229580728Y-182925357D01*
X229580728Y-182925359D01*
X229601000Y-183131181D01*
X229601000Y-183868820D01*
X229593821Y-183941705D01*
X229580728Y-184074644D01*
X229539941Y-184209099D01*
X229500616Y-184338737D01*
X229377964Y-184568202D01*
X229370525Y-184582120D01*
X229338092Y-184621640D01*
X229195450Y-184795450D01*
X229023797Y-184936320D01*
X228982119Y-184970525D01*
X228982117Y-184970526D01*
X228738736Y-185100616D01*
X228670016Y-185121462D01*
X228474643Y-185180728D01*
X228200000Y-185207778D01*
X227925356Y-185180728D01*
X227729983Y-185121462D01*
X227661263Y-185100616D01*
X227417882Y-184970526D01*
X227417880Y-184970525D01*
X227378360Y-184938092D01*
X227204550Y-184795450D01*
X227029476Y-184582120D01*
X227029475Y-184582119D01*
X226991874Y-184511772D01*
X226899384Y-184338736D01*
X226836368Y-184131000D01*
X226819272Y-184074643D01*
X226799000Y-183868817D01*
X226799000Y-183131182D01*
X226819272Y-182925356D01*
X226899383Y-182661267D01*
X226899384Y-182661263D01*
X227029474Y-182417882D01*
X227029475Y-182417880D01*
X227090039Y-182344083D01*
X227204550Y-182204550D01*
X227376203Y-182063680D01*
X227417881Y-182029475D01*
X227431799Y-182022036D01*
X227661264Y-181899384D01*
X227729984Y-181878538D01*
X227925357Y-181819272D01*
X228200000Y-181792222D01*
X228474644Y-181819272D01*
G37*
G36*
X266274644Y-181819272D02*
G01*
X266470017Y-181878538D01*
X266538737Y-181899384D01*
X266768202Y-182022036D01*
X266782120Y-182029475D01*
X266837691Y-182075082D01*
X266995450Y-182204550D01*
X267109961Y-182344083D01*
X267170525Y-182417880D01*
X267170526Y-182417882D01*
X267300616Y-182661263D01*
X267300617Y-182661267D01*
X267380728Y-182925357D01*
X267380728Y-182925359D01*
X267401000Y-183131181D01*
X267401000Y-183868820D01*
X267393821Y-183941705D01*
X267380728Y-184074644D01*
X267339941Y-184209099D01*
X267300616Y-184338737D01*
X267177964Y-184568202D01*
X267170525Y-184582120D01*
X267138092Y-184621640D01*
X266995450Y-184795450D01*
X266823797Y-184936320D01*
X266782119Y-184970525D01*
X266782117Y-184970526D01*
X266538736Y-185100616D01*
X266470016Y-185121462D01*
X266274643Y-185180728D01*
X266000000Y-185207778D01*
X265725356Y-185180728D01*
X265529983Y-185121462D01*
X265461263Y-185100616D01*
X265217882Y-184970526D01*
X265217880Y-184970525D01*
X265178360Y-184938092D01*
X265004550Y-184795450D01*
X264829476Y-184582120D01*
X264829475Y-184582119D01*
X264791874Y-184511772D01*
X264699384Y-184338736D01*
X264636368Y-184131000D01*
X264619272Y-184074643D01*
X264599000Y-183868817D01*
X264599000Y-183131182D01*
X264619272Y-182925356D01*
X264699383Y-182661267D01*
X264699384Y-182661263D01*
X264829474Y-182417882D01*
X264829475Y-182417880D01*
X264890039Y-182344083D01*
X265004550Y-182204550D01*
X265176203Y-182063680D01*
X265217881Y-182029475D01*
X265231799Y-182022036D01*
X265461264Y-181899384D01*
X265529984Y-181878538D01*
X265725357Y-181819272D01*
X266000000Y-181792222D01*
X266274644Y-181819272D01*
G37*
G36*
X262074644Y-181819272D02*
G01*
X262270017Y-181878538D01*
X262338737Y-181899384D01*
X262568202Y-182022036D01*
X262582120Y-182029475D01*
X262637691Y-182075082D01*
X262795450Y-182204550D01*
X262909961Y-182344083D01*
X262970525Y-182417880D01*
X262970526Y-182417882D01*
X263100616Y-182661263D01*
X263100617Y-182661267D01*
X263180728Y-182925357D01*
X263180728Y-182925359D01*
X263201000Y-183131181D01*
X263201000Y-183868820D01*
X263193821Y-183941705D01*
X263180728Y-184074644D01*
X263139941Y-184209099D01*
X263100616Y-184338737D01*
X262977964Y-184568202D01*
X262970525Y-184582120D01*
X262938092Y-184621640D01*
X262795450Y-184795450D01*
X262623797Y-184936320D01*
X262582119Y-184970525D01*
X262582117Y-184970526D01*
X262338736Y-185100616D01*
X262270016Y-185121462D01*
X262074643Y-185180728D01*
X261800000Y-185207778D01*
X261525356Y-185180728D01*
X261329983Y-185121462D01*
X261261263Y-185100616D01*
X261017882Y-184970526D01*
X261017880Y-184970525D01*
X260978360Y-184938092D01*
X260804550Y-184795450D01*
X260629476Y-184582120D01*
X260629475Y-184582119D01*
X260591874Y-184511772D01*
X260499384Y-184338736D01*
X260436368Y-184131000D01*
X260419272Y-184074643D01*
X260399000Y-183868817D01*
X260399000Y-183131182D01*
X260419272Y-182925356D01*
X260499383Y-182661267D01*
X260499384Y-182661263D01*
X260629474Y-182417882D01*
X260629475Y-182417880D01*
X260690039Y-182344083D01*
X260804550Y-182204550D01*
X260976203Y-182063680D01*
X261017881Y-182029475D01*
X261031799Y-182022036D01*
X261261264Y-181899384D01*
X261329984Y-181878538D01*
X261525357Y-181819272D01*
X261800000Y-181792222D01*
X262074644Y-181819272D01*
G37*
G36*
X257874644Y-181819272D02*
G01*
X258070017Y-181878538D01*
X258138737Y-181899384D01*
X258368202Y-182022036D01*
X258382120Y-182029475D01*
X258437691Y-182075082D01*
X258595450Y-182204550D01*
X258709961Y-182344083D01*
X258770525Y-182417880D01*
X258770526Y-182417882D01*
X258900616Y-182661263D01*
X258900617Y-182661267D01*
X258980728Y-182925357D01*
X258980728Y-182925359D01*
X259001000Y-183131181D01*
X259001000Y-183868820D01*
X258993821Y-183941705D01*
X258980728Y-184074644D01*
X258939941Y-184209099D01*
X258900616Y-184338737D01*
X258777964Y-184568202D01*
X258770525Y-184582120D01*
X258738092Y-184621640D01*
X258595450Y-184795450D01*
X258423797Y-184936320D01*
X258382119Y-184970525D01*
X258382117Y-184970526D01*
X258138736Y-185100616D01*
X258070016Y-185121462D01*
X257874643Y-185180728D01*
X257600000Y-185207778D01*
X257325356Y-185180728D01*
X257129983Y-185121462D01*
X257061263Y-185100616D01*
X256817882Y-184970526D01*
X256817880Y-184970525D01*
X256778360Y-184938092D01*
X256604550Y-184795450D01*
X256429476Y-184582120D01*
X256429475Y-184582119D01*
X256391874Y-184511772D01*
X256299384Y-184338736D01*
X256236368Y-184131000D01*
X256219272Y-184074643D01*
X256199000Y-183868817D01*
X256199000Y-183131182D01*
X256219272Y-182925356D01*
X256299383Y-182661267D01*
X256299384Y-182661263D01*
X256429474Y-182417882D01*
X256429475Y-182417880D01*
X256490039Y-182344083D01*
X256604550Y-182204550D01*
X256776203Y-182063680D01*
X256817881Y-182029475D01*
X256831799Y-182022036D01*
X257061264Y-181899384D01*
X257129984Y-181878538D01*
X257325357Y-181819272D01*
X257600000Y-181792222D01*
X257874644Y-181819272D01*
G37*
G36*
X253674644Y-181819272D02*
G01*
X253870017Y-181878538D01*
X253938737Y-181899384D01*
X254168202Y-182022036D01*
X254182120Y-182029475D01*
X254237691Y-182075082D01*
X254395450Y-182204550D01*
X254509961Y-182344083D01*
X254570525Y-182417880D01*
X254570526Y-182417882D01*
X254700616Y-182661263D01*
X254700617Y-182661267D01*
X254780728Y-182925357D01*
X254780728Y-182925359D01*
X254801000Y-183131181D01*
X254801000Y-183868820D01*
X254793821Y-183941705D01*
X254780728Y-184074644D01*
X254739941Y-184209099D01*
X254700616Y-184338737D01*
X254577964Y-184568202D01*
X254570525Y-184582120D01*
X254538092Y-184621640D01*
X254395450Y-184795450D01*
X254223797Y-184936320D01*
X254182119Y-184970525D01*
X254182117Y-184970526D01*
X253938736Y-185100616D01*
X253870016Y-185121462D01*
X253674643Y-185180728D01*
X253400000Y-185207778D01*
X253125356Y-185180728D01*
X252929983Y-185121462D01*
X252861263Y-185100616D01*
X252617882Y-184970526D01*
X252617880Y-184970525D01*
X252578360Y-184938092D01*
X252404550Y-184795450D01*
X252229476Y-184582120D01*
X252229475Y-184582119D01*
X252191874Y-184511772D01*
X252099384Y-184338736D01*
X252036368Y-184131000D01*
X252019272Y-184074643D01*
X251999000Y-183868817D01*
X251999000Y-183131182D01*
X252019272Y-182925356D01*
X252099383Y-182661267D01*
X252099384Y-182661263D01*
X252229474Y-182417882D01*
X252229475Y-182417880D01*
X252290039Y-182344083D01*
X252404550Y-182204550D01*
X252576203Y-182063680D01*
X252617881Y-182029475D01*
X252631799Y-182022036D01*
X252861264Y-181899384D01*
X252929984Y-181878538D01*
X253125357Y-181819272D01*
X253400000Y-181792222D01*
X253674644Y-181819272D01*
G37*
G36*
X249474644Y-181819272D02*
G01*
X249670017Y-181878538D01*
X249738737Y-181899384D01*
X249968202Y-182022036D01*
X249982120Y-182029475D01*
X250037691Y-182075082D01*
X250195450Y-182204550D01*
X250309961Y-182344083D01*
X250370525Y-182417880D01*
X250370526Y-182417882D01*
X250500616Y-182661263D01*
X250500617Y-182661267D01*
X250580728Y-182925357D01*
X250580728Y-182925359D01*
X250601000Y-183131181D01*
X250601000Y-183868820D01*
X250593821Y-183941705D01*
X250580728Y-184074644D01*
X250539941Y-184209099D01*
X250500616Y-184338737D01*
X250377964Y-184568202D01*
X250370525Y-184582120D01*
X250338092Y-184621640D01*
X250195450Y-184795450D01*
X250023797Y-184936320D01*
X249982119Y-184970525D01*
X249982117Y-184970526D01*
X249738736Y-185100616D01*
X249670016Y-185121462D01*
X249474643Y-185180728D01*
X249200000Y-185207778D01*
X248925356Y-185180728D01*
X248729983Y-185121462D01*
X248661263Y-185100616D01*
X248417882Y-184970526D01*
X248417880Y-184970525D01*
X248378360Y-184938092D01*
X248204550Y-184795450D01*
X248029476Y-184582120D01*
X248029475Y-184582119D01*
X247991874Y-184511772D01*
X247899384Y-184338736D01*
X247836368Y-184131000D01*
X247819272Y-184074643D01*
X247799000Y-183868817D01*
X247799000Y-183131182D01*
X247819272Y-182925356D01*
X247899383Y-182661267D01*
X247899384Y-182661263D01*
X248029474Y-182417882D01*
X248029475Y-182417880D01*
X248090039Y-182344083D01*
X248204550Y-182204550D01*
X248376203Y-182063680D01*
X248417881Y-182029475D01*
X248431799Y-182022036D01*
X248661264Y-181899384D01*
X248729984Y-181878538D01*
X248925357Y-181819272D01*
X249200000Y-181792222D01*
X249474644Y-181819272D01*
G37*
G36*
X245274644Y-181819272D02*
G01*
X245470017Y-181878538D01*
X245538737Y-181899384D01*
X245768202Y-182022036D01*
X245782120Y-182029475D01*
X245837691Y-182075082D01*
X245995450Y-182204550D01*
X246109961Y-182344083D01*
X246170525Y-182417880D01*
X246170526Y-182417882D01*
X246300616Y-182661263D01*
X246300617Y-182661267D01*
X246380728Y-182925357D01*
X246380728Y-182925359D01*
X246401000Y-183131181D01*
X246401000Y-183868820D01*
X246393821Y-183941705D01*
X246380728Y-184074644D01*
X246339941Y-184209099D01*
X246300616Y-184338737D01*
X246177964Y-184568202D01*
X246170525Y-184582120D01*
X246138092Y-184621640D01*
X245995450Y-184795450D01*
X245823797Y-184936320D01*
X245782119Y-184970525D01*
X245782117Y-184970526D01*
X245538736Y-185100616D01*
X245470016Y-185121462D01*
X245274643Y-185180728D01*
X245000000Y-185207778D01*
X244725356Y-185180728D01*
X244529983Y-185121462D01*
X244461263Y-185100616D01*
X244217882Y-184970526D01*
X244217880Y-184970525D01*
X244178360Y-184938092D01*
X244004550Y-184795450D01*
X243829476Y-184582120D01*
X243829475Y-184582119D01*
X243791874Y-184511772D01*
X243699384Y-184338736D01*
X243636368Y-184131000D01*
X243619272Y-184074643D01*
X243599000Y-183868817D01*
X243599000Y-183131182D01*
X243619272Y-182925356D01*
X243699383Y-182661267D01*
X243699384Y-182661263D01*
X243829474Y-182417882D01*
X243829475Y-182417880D01*
X243890039Y-182344083D01*
X244004550Y-182204550D01*
X244176203Y-182063680D01*
X244217881Y-182029475D01*
X244231799Y-182022036D01*
X244461264Y-181899384D01*
X244529984Y-181878538D01*
X244725357Y-181819272D01*
X245000000Y-181792222D01*
X245274644Y-181819272D01*
G37*
G36*
X241074644Y-181819272D02*
G01*
X241270017Y-181878538D01*
X241338737Y-181899384D01*
X241568202Y-182022036D01*
X241582120Y-182029475D01*
X241637691Y-182075082D01*
X241795450Y-182204550D01*
X241909961Y-182344083D01*
X241970525Y-182417880D01*
X241970526Y-182417882D01*
X242100616Y-182661263D01*
X242100617Y-182661267D01*
X242180728Y-182925357D01*
X242180728Y-182925359D01*
X242201000Y-183131181D01*
X242201000Y-183868820D01*
X242193821Y-183941705D01*
X242180728Y-184074644D01*
X242139941Y-184209099D01*
X242100616Y-184338737D01*
X241977964Y-184568202D01*
X241970525Y-184582120D01*
X241938092Y-184621640D01*
X241795450Y-184795450D01*
X241623797Y-184936320D01*
X241582119Y-184970525D01*
X241582117Y-184970526D01*
X241338736Y-185100616D01*
X241270016Y-185121462D01*
X241074643Y-185180728D01*
X240800000Y-185207778D01*
X240525356Y-185180728D01*
X240329983Y-185121462D01*
X240261263Y-185100616D01*
X240017882Y-184970526D01*
X240017880Y-184970525D01*
X239978360Y-184938092D01*
X239804550Y-184795450D01*
X239629476Y-184582120D01*
X239629475Y-184582119D01*
X239591874Y-184511772D01*
X239499384Y-184338736D01*
X239436368Y-184131000D01*
X239419272Y-184074643D01*
X239399000Y-183868817D01*
X239399000Y-183131182D01*
X239419272Y-182925356D01*
X239499383Y-182661267D01*
X239499384Y-182661263D01*
X239629474Y-182417882D01*
X239629475Y-182417880D01*
X239690039Y-182344083D01*
X239804550Y-182204550D01*
X239976203Y-182063680D01*
X240017881Y-182029475D01*
X240031799Y-182022036D01*
X240261264Y-181899384D01*
X240329984Y-181878538D01*
X240525357Y-181819272D01*
X240800000Y-181792222D01*
X241074644Y-181819272D01*
G37*
G36*
X208866719Y-182193520D02*
G01*
X209055880Y-182250901D01*
X209055883Y-182250902D01*
X209148333Y-182300318D01*
X209230212Y-182344083D01*
X209383015Y-182469485D01*
X209508417Y-182622288D01*
X209601599Y-182796619D01*
X209658980Y-182985780D01*
X209658980Y-182985782D01*
X209673301Y-183131180D01*
X209673500Y-183133206D01*
X209673500Y-183326793D01*
X209658980Y-183474219D01*
X209642596Y-183528229D01*
X209601598Y-183663383D01*
X209552182Y-183755833D01*
X209508417Y-183837712D01*
X209383015Y-183990515D01*
X209230212Y-184115917D01*
X209055881Y-184209099D01*
X208866720Y-184266480D01*
X208670000Y-184285855D01*
X208473281Y-184266480D01*
X208284120Y-184209099D01*
X208109788Y-184115917D01*
X207956985Y-183990515D01*
X207831583Y-183837712D01*
X207738401Y-183663381D01*
X207681020Y-183474220D01*
X207666500Y-183326794D01*
X207666500Y-183133207D01*
X207666700Y-183131181D01*
X207676490Y-183031772D01*
X207681020Y-182985781D01*
X207738401Y-182796620D01*
X207738402Y-182796617D01*
X207787818Y-182704167D01*
X207831583Y-182622288D01*
X207956985Y-182469485D01*
X208109788Y-182344083D01*
X208284119Y-182250901D01*
X208473280Y-182193520D01*
X208670000Y-182174145D01*
X208866719Y-182193520D01*
G37*
G36*
X211406719Y-182193520D02*
G01*
X211595880Y-182250901D01*
X211595883Y-182250902D01*
X211688333Y-182300318D01*
X211770212Y-182344083D01*
X211923015Y-182469485D01*
X212048417Y-182622288D01*
X212141599Y-182796619D01*
X212198980Y-182985780D01*
X212198980Y-182985782D01*
X212213301Y-183131180D01*
X212213500Y-183133206D01*
X212213500Y-183326793D01*
X212198980Y-183474219D01*
X212182596Y-183528229D01*
X212141598Y-183663383D01*
X212092182Y-183755833D01*
X212048417Y-183837712D01*
X211923015Y-183990515D01*
X211770212Y-184115917D01*
X211595881Y-184209099D01*
X211406720Y-184266480D01*
X211210000Y-184285855D01*
X211013281Y-184266480D01*
X210824120Y-184209099D01*
X210649788Y-184115917D01*
X210496985Y-183990515D01*
X210371583Y-183837712D01*
X210278401Y-183663381D01*
X210221020Y-183474220D01*
X210206500Y-183326794D01*
X210206500Y-183133207D01*
X210206700Y-183131181D01*
X210216490Y-183031772D01*
X210221020Y-182985781D01*
X210278401Y-182796620D01*
X210278402Y-182796617D01*
X210327818Y-182704167D01*
X210371583Y-182622288D01*
X210496985Y-182469485D01*
X210649788Y-182344083D01*
X210824119Y-182250901D01*
X211013280Y-182193520D01*
X211210000Y-182174145D01*
X211406719Y-182193520D01*
G37*
G36*
X207133500Y-184281000D02*
G01*
X205126500Y-184281000D01*
X205126500Y-182179000D01*
X207133500Y-182179000D01*
X207133500Y-184281000D01*
G37*
G36*
X200888228Y-182461703D02*
G01*
X201043100Y-182525853D01*
X201182481Y-182618985D01*
X201301015Y-182737519D01*
X201394147Y-182876900D01*
X201458297Y-183031772D01*
X201491000Y-183196184D01*
X201491000Y-183363816D01*
X201458297Y-183528228D01*
X201394147Y-183683100D01*
X201301015Y-183822481D01*
X201182481Y-183941015D01*
X201043100Y-184034147D01*
X200888228Y-184098297D01*
X200723816Y-184131000D01*
X200556184Y-184131000D01*
X200391772Y-184098297D01*
X200236900Y-184034147D01*
X200097519Y-183941015D01*
X199978985Y-183822481D01*
X199885853Y-183683100D01*
X199821703Y-183528228D01*
X199789000Y-183363816D01*
X199789000Y-183196184D01*
X199821703Y-183031772D01*
X199885853Y-182876900D01*
X199978985Y-182737519D01*
X200097519Y-182618985D01*
X200236900Y-182525853D01*
X200391772Y-182461703D01*
X200556184Y-182429000D01*
X200723816Y-182429000D01*
X200888228Y-182461703D01*
G37*
G36*
X185648228Y-182461703D02*
G01*
X185803100Y-182525853D01*
X185942481Y-182618985D01*
X186061015Y-182737519D01*
X186154147Y-182876900D01*
X186218297Y-183031772D01*
X186251000Y-183196184D01*
X186251000Y-183363816D01*
X186218297Y-183528228D01*
X186154147Y-183683100D01*
X186061015Y-183822481D01*
X185942481Y-183941015D01*
X185803100Y-184034147D01*
X185648228Y-184098297D01*
X185483816Y-184131000D01*
X185316184Y-184131000D01*
X185151772Y-184098297D01*
X184996900Y-184034147D01*
X184857519Y-183941015D01*
X184738985Y-183822481D01*
X184645853Y-183683100D01*
X184581703Y-183528228D01*
X184549000Y-183363816D01*
X184549000Y-183196184D01*
X184581703Y-183031772D01*
X184645853Y-182876900D01*
X184738985Y-182737519D01*
X184857519Y-182618985D01*
X184996900Y-182525853D01*
X185151772Y-182461703D01*
X185316184Y-182429000D01*
X185483816Y-182429000D01*
X185648228Y-182461703D01*
G37*
G36*
X297918254Y-177107818D02*
G01*
X298291511Y-177262426D01*
X298291513Y-177262427D01*
X298627436Y-177486884D01*
X298913116Y-177772564D01*
X299130719Y-178098229D01*
X299137574Y-178108489D01*
X299292182Y-178481746D01*
X299371000Y-178877993D01*
X299371000Y-179282007D01*
X299292182Y-179678254D01*
X299137574Y-180051511D01*
X299137573Y-180051513D01*
X298913116Y-180387436D01*
X298627436Y-180673116D01*
X298291513Y-180897573D01*
X298291512Y-180897574D01*
X298291511Y-180897574D01*
X297918254Y-181052182D01*
X297522007Y-181131000D01*
X297117993Y-181131000D01*
X296721746Y-181052182D01*
X296348489Y-180897574D01*
X296348488Y-180897574D01*
X296348487Y-180897573D01*
X296012564Y-180673116D01*
X295726884Y-180387436D01*
X295502427Y-180051513D01*
X295502426Y-180051511D01*
X295347818Y-179678254D01*
X295269000Y-179282007D01*
X295269000Y-178877993D01*
X295347818Y-178481746D01*
X295502426Y-178108489D01*
X295509282Y-178098229D01*
X295726884Y-177772564D01*
X296012564Y-177486884D01*
X296348487Y-177262427D01*
X296348489Y-177262426D01*
X296721746Y-177107818D01*
X297117993Y-177029000D01*
X297522007Y-177029000D01*
X297918254Y-177107818D01*
G37*
G36*
X185628228Y-177351703D02*
G01*
X185783100Y-177415853D01*
X185922481Y-177508985D01*
X186041015Y-177627519D01*
X186134147Y-177766900D01*
X186198297Y-177921772D01*
X186231000Y-178086184D01*
X186231000Y-178253816D01*
X186198297Y-178418228D01*
X186134147Y-178573100D01*
X186041015Y-178712481D01*
X185922481Y-178831015D01*
X185783100Y-178924147D01*
X185628228Y-178988297D01*
X185463816Y-179021000D01*
X185296184Y-179021000D01*
X185131772Y-178988297D01*
X184976900Y-178924147D01*
X184837519Y-178831015D01*
X184718985Y-178712481D01*
X184625853Y-178573100D01*
X184561703Y-178418228D01*
X184529000Y-178253816D01*
X184529000Y-178086184D01*
X184561703Y-177921772D01*
X184625853Y-177766900D01*
X184718985Y-177627519D01*
X184837519Y-177508985D01*
X184976900Y-177415853D01*
X185131772Y-177351703D01*
X185296184Y-177319000D01*
X185463816Y-177319000D01*
X185628228Y-177351703D01*
G37*
G36*
X200868228Y-177351703D02*
G01*
X201023100Y-177415853D01*
X201162481Y-177508985D01*
X201281015Y-177627519D01*
X201374147Y-177766900D01*
X201438297Y-177921772D01*
X201471000Y-178086184D01*
X201471000Y-178253816D01*
X201438297Y-178418228D01*
X201374147Y-178573100D01*
X201281015Y-178712481D01*
X201162481Y-178831015D01*
X201023100Y-178924147D01*
X200868228Y-178988297D01*
X200703816Y-179021000D01*
X200536184Y-179021000D01*
X200371772Y-178988297D01*
X200216900Y-178924147D01*
X200077519Y-178831015D01*
X199958985Y-178712481D01*
X199865853Y-178573100D01*
X199801703Y-178418228D01*
X199769000Y-178253816D01*
X199769000Y-178086184D01*
X199801703Y-177921772D01*
X199865853Y-177766900D01*
X199958985Y-177627519D01*
X200077519Y-177508985D01*
X200216900Y-177415853D01*
X200371772Y-177351703D01*
X200536184Y-177319000D01*
X200703816Y-177319000D01*
X200868228Y-177351703D01*
G37*
G36*
X320568228Y-177031703D02*
G01*
X320723100Y-177095853D01*
X320862481Y-177188985D01*
X320981015Y-177307519D01*
X321074147Y-177446900D01*
X321138297Y-177601772D01*
X321171000Y-177766184D01*
X321171000Y-177933816D01*
X321138297Y-178098228D01*
X321074147Y-178253100D01*
X320981015Y-178392481D01*
X320862481Y-178511015D01*
X320723100Y-178604147D01*
X320568228Y-178668297D01*
X320403816Y-178701000D01*
X320236184Y-178701000D01*
X320071772Y-178668297D01*
X319916900Y-178604147D01*
X319777519Y-178511015D01*
X319658985Y-178392481D01*
X319565853Y-178253100D01*
X319501703Y-178098228D01*
X319469000Y-177933816D01*
X319469000Y-177766184D01*
X319501703Y-177601772D01*
X319565853Y-177446900D01*
X319658985Y-177307519D01*
X319777519Y-177188985D01*
X319916900Y-177095853D01*
X320071772Y-177031703D01*
X320236184Y-176999000D01*
X320403816Y-176999000D01*
X320568228Y-177031703D01*
G37*
G36*
X308432585Y-172258802D02*
G01*
X308582410Y-172288604D01*
X308864674Y-172405521D01*
X309118705Y-172575259D01*
X309334741Y-172791295D01*
X309504479Y-173045326D01*
X309621396Y-173327590D01*
X309681000Y-173627240D01*
X309681000Y-173932760D01*
X309621396Y-174232410D01*
X309504479Y-174514674D01*
X309334741Y-174768705D01*
X309118705Y-174984741D01*
X308864674Y-175154479D01*
X308582410Y-175271396D01*
X308432585Y-175301198D01*
X308282761Y-175331000D01*
X307977239Y-175331000D01*
X307827415Y-175301198D01*
X307677590Y-175271396D01*
X307395326Y-175154479D01*
X307141295Y-174984741D01*
X306925259Y-174768705D01*
X306755521Y-174514674D01*
X306638604Y-174232410D01*
X306579000Y-173932760D01*
X306579000Y-173627240D01*
X306638604Y-173327590D01*
X306755521Y-173045326D01*
X306925259Y-172791295D01*
X307141295Y-172575259D01*
X307395326Y-172405521D01*
X307677590Y-172288604D01*
X307827415Y-172258802D01*
X307977239Y-172229000D01*
X308282761Y-172229000D01*
X308432585Y-172258802D01*
G37*
G36*
X200908228Y-172231703D02*
G01*
X201063100Y-172295853D01*
X201202481Y-172388985D01*
X201321015Y-172507519D01*
X201414147Y-172646900D01*
X201478297Y-172801772D01*
X201511000Y-172966184D01*
X201511000Y-173133816D01*
X201478297Y-173298228D01*
X201414147Y-173453100D01*
X201321015Y-173592481D01*
X201202481Y-173711015D01*
X201063100Y-173804147D01*
X200908228Y-173868297D01*
X200743816Y-173901000D01*
X200576184Y-173901000D01*
X200411772Y-173868297D01*
X200256900Y-173804147D01*
X200117519Y-173711015D01*
X199998985Y-173592481D01*
X199905853Y-173453100D01*
X199841703Y-173298228D01*
X199809000Y-173133816D01*
X199809000Y-172966184D01*
X199841703Y-172801772D01*
X199905853Y-172646900D01*
X199998985Y-172507519D01*
X200117519Y-172388985D01*
X200256900Y-172295853D01*
X200411772Y-172231703D01*
X200576184Y-172199000D01*
X200743816Y-172199000D01*
X200908228Y-172231703D01*
G37*
G36*
X185668228Y-172231703D02*
G01*
X185823100Y-172295853D01*
X185962481Y-172388985D01*
X186081015Y-172507519D01*
X186174147Y-172646900D01*
X186238297Y-172801772D01*
X186271000Y-172966184D01*
X186271000Y-173133816D01*
X186238297Y-173298228D01*
X186174147Y-173453100D01*
X186081015Y-173592481D01*
X185962481Y-173711015D01*
X185823100Y-173804147D01*
X185668228Y-173868297D01*
X185503816Y-173901000D01*
X185336184Y-173901000D01*
X185171772Y-173868297D01*
X185016900Y-173804147D01*
X184877519Y-173711015D01*
X184758985Y-173592481D01*
X184665853Y-173453100D01*
X184601703Y-173298228D01*
X184569000Y-173133816D01*
X184569000Y-172966184D01*
X184601703Y-172801772D01*
X184665853Y-172646900D01*
X184758985Y-172507519D01*
X184877519Y-172388985D01*
X185016900Y-172295853D01*
X185171772Y-172231703D01*
X185336184Y-172199000D01*
X185503816Y-172199000D01*
X185668228Y-172231703D01*
G37*
G36*
X308141731Y-167689136D02*
G01*
X308244644Y-167699272D01*
X308440017Y-167758538D01*
X308508737Y-167779384D01*
X308738202Y-167902036D01*
X308752120Y-167909475D01*
X308807691Y-167955082D01*
X308965450Y-168084550D01*
X309094918Y-168242309D01*
X309140525Y-168297880D01*
X309140526Y-168297882D01*
X309270616Y-168541263D01*
X309270617Y-168541267D01*
X309350728Y-168805356D01*
X309377778Y-169080000D01*
X309350728Y-169354644D01*
X309291462Y-169550017D01*
X309270616Y-169618737D01*
X309147964Y-169848202D01*
X309140525Y-169862120D01*
X309094918Y-169917691D01*
X308965450Y-170075450D01*
X308807691Y-170204918D01*
X308752120Y-170250525D01*
X308752118Y-170250526D01*
X308508737Y-170380616D01*
X308440017Y-170401462D01*
X308244644Y-170460728D01*
X308141731Y-170470864D01*
X308038820Y-170481000D01*
X307301180Y-170481000D01*
X307198269Y-170470864D01*
X307095356Y-170460728D01*
X306899983Y-170401462D01*
X306831263Y-170380616D01*
X306587882Y-170250526D01*
X306587880Y-170250525D01*
X306532309Y-170204918D01*
X306374550Y-170075450D01*
X306245082Y-169917691D01*
X306199475Y-169862120D01*
X306192036Y-169848202D01*
X306069384Y-169618737D01*
X306048538Y-169550017D01*
X305989272Y-169354644D01*
X305962222Y-169080000D01*
X305989272Y-168805356D01*
X306069383Y-168541267D01*
X306069384Y-168541263D01*
X306199474Y-168297882D01*
X306199475Y-168297880D01*
X306245082Y-168242309D01*
X306374550Y-168084550D01*
X306532309Y-167955082D01*
X306587880Y-167909475D01*
X306601798Y-167902036D01*
X306831263Y-167779384D01*
X306899983Y-167758538D01*
X307095356Y-167699272D01*
X307198269Y-167689136D01*
X307301180Y-167679000D01*
X308038820Y-167679000D01*
X308141731Y-167689136D01*
G37*
G36*
X313641731Y-167689136D02*
G01*
X313744644Y-167699272D01*
X313940017Y-167758538D01*
X314008737Y-167779384D01*
X314238202Y-167902036D01*
X314252120Y-167909475D01*
X314307691Y-167955082D01*
X314465450Y-168084550D01*
X314594918Y-168242309D01*
X314640525Y-168297880D01*
X314640526Y-168297882D01*
X314770616Y-168541263D01*
X314770617Y-168541267D01*
X314850728Y-168805356D01*
X314877778Y-169080000D01*
X314850728Y-169354644D01*
X314791462Y-169550017D01*
X314770616Y-169618737D01*
X314647964Y-169848202D01*
X314640525Y-169862120D01*
X314594918Y-169917691D01*
X314465450Y-170075450D01*
X314307691Y-170204918D01*
X314252120Y-170250525D01*
X314252118Y-170250526D01*
X314008737Y-170380616D01*
X313940017Y-170401462D01*
X313744644Y-170460728D01*
X313641731Y-170470864D01*
X313538820Y-170481000D01*
X312801180Y-170481000D01*
X312698269Y-170470864D01*
X312595356Y-170460728D01*
X312399983Y-170401462D01*
X312331263Y-170380616D01*
X312087882Y-170250526D01*
X312087880Y-170250525D01*
X312032309Y-170204918D01*
X311874550Y-170075450D01*
X311745082Y-169917691D01*
X311699475Y-169862120D01*
X311692036Y-169848202D01*
X311569384Y-169618737D01*
X311548538Y-169550017D01*
X311489272Y-169354644D01*
X311462222Y-169080000D01*
X311489272Y-168805356D01*
X311569383Y-168541267D01*
X311569384Y-168541263D01*
X311699474Y-168297882D01*
X311699475Y-168297880D01*
X311745082Y-168242309D01*
X311874550Y-168084550D01*
X312032309Y-167955082D01*
X312087880Y-167909475D01*
X312101798Y-167902036D01*
X312331263Y-167779384D01*
X312399983Y-167758538D01*
X312595356Y-167699272D01*
X312698269Y-167689136D01*
X312801180Y-167679000D01*
X313538820Y-167679000D01*
X313641731Y-167689136D01*
G37*
G36*
X209195331Y-165698211D02*
G01*
X209523092Y-165833974D01*
X209818070Y-166031072D01*
X210068928Y-166281930D01*
X210266026Y-166576908D01*
X210401789Y-166904669D01*
X210471000Y-167252616D01*
X210471000Y-167607384D01*
X210401789Y-167955331D01*
X210266026Y-168283092D01*
X210068928Y-168578070D01*
X209818070Y-168828928D01*
X209523092Y-169026026D01*
X209195331Y-169161789D01*
X208847384Y-169231000D01*
X208492616Y-169231000D01*
X208144669Y-169161789D01*
X207816908Y-169026026D01*
X207521930Y-168828928D01*
X207271072Y-168578070D01*
X207073974Y-168283092D01*
X206938211Y-167955331D01*
X206869000Y-167607384D01*
X206869000Y-167252616D01*
X206938211Y-166904669D01*
X207073974Y-166576908D01*
X207271072Y-166281930D01*
X207521930Y-166031072D01*
X207816908Y-165833974D01*
X208144669Y-165698211D01*
X208492616Y-165629000D01*
X208847384Y-165629000D01*
X209195331Y-165698211D01*
G37*
G36*
X308141731Y-163489136D02*
G01*
X308244644Y-163499272D01*
X308440017Y-163558538D01*
X308508737Y-163579384D01*
X308738202Y-163702036D01*
X308752120Y-163709475D01*
X308807691Y-163755082D01*
X308965450Y-163884550D01*
X309094918Y-164042309D01*
X309140525Y-164097880D01*
X309140526Y-164097882D01*
X309270616Y-164341263D01*
X309270617Y-164341267D01*
X309350728Y-164605356D01*
X309377778Y-164880000D01*
X309350728Y-165154644D01*
X309291462Y-165350017D01*
X309270616Y-165418737D01*
X309158228Y-165629000D01*
X309140525Y-165662120D01*
X309110905Y-165698212D01*
X308965450Y-165875450D01*
X308807691Y-166004918D01*
X308752120Y-166050525D01*
X308752118Y-166050526D01*
X308508737Y-166180616D01*
X308440017Y-166201462D01*
X308244644Y-166260728D01*
X308141731Y-166270864D01*
X308038820Y-166281000D01*
X307301180Y-166281000D01*
X307198269Y-166270864D01*
X307095356Y-166260728D01*
X306899983Y-166201462D01*
X306831263Y-166180616D01*
X306587882Y-166050526D01*
X306587880Y-166050525D01*
X306532309Y-166004918D01*
X306374550Y-165875450D01*
X306229095Y-165698212D01*
X306199475Y-165662120D01*
X306181772Y-165629000D01*
X306069384Y-165418737D01*
X306048538Y-165350017D01*
X305989272Y-165154644D01*
X305962222Y-164880000D01*
X305989272Y-164605356D01*
X306069383Y-164341267D01*
X306069384Y-164341263D01*
X306199474Y-164097882D01*
X306199475Y-164097880D01*
X306245082Y-164042309D01*
X306374550Y-163884550D01*
X306532309Y-163755082D01*
X306587880Y-163709475D01*
X306601798Y-163702036D01*
X306831263Y-163579384D01*
X306899983Y-163558538D01*
X307095356Y-163499272D01*
X307198269Y-163489136D01*
X307301180Y-163479000D01*
X308038820Y-163479000D01*
X308141731Y-163489136D01*
G37*
G36*
X313641731Y-163489136D02*
G01*
X313744644Y-163499272D01*
X313940017Y-163558538D01*
X314008737Y-163579384D01*
X314238202Y-163702036D01*
X314252120Y-163709475D01*
X314307691Y-163755082D01*
X314465450Y-163884550D01*
X314594918Y-164042309D01*
X314640525Y-164097880D01*
X314640526Y-164097882D01*
X314770616Y-164341263D01*
X314770617Y-164341267D01*
X314850728Y-164605356D01*
X314877778Y-164880000D01*
X314850728Y-165154644D01*
X314791462Y-165350017D01*
X314770616Y-165418737D01*
X314658228Y-165629000D01*
X314640525Y-165662120D01*
X314610905Y-165698212D01*
X314465450Y-165875450D01*
X314307691Y-166004918D01*
X314252120Y-166050525D01*
X314252118Y-166050526D01*
X314008737Y-166180616D01*
X313940017Y-166201462D01*
X313744644Y-166260728D01*
X313641731Y-166270864D01*
X313538820Y-166281000D01*
X312801180Y-166281000D01*
X312698269Y-166270864D01*
X312595356Y-166260728D01*
X312399983Y-166201462D01*
X312331263Y-166180616D01*
X312087882Y-166050526D01*
X312087880Y-166050525D01*
X312032309Y-166004918D01*
X311874550Y-165875450D01*
X311729095Y-165698212D01*
X311699475Y-165662120D01*
X311681772Y-165629000D01*
X311569384Y-165418737D01*
X311548538Y-165350017D01*
X311489272Y-165154644D01*
X311462222Y-164880000D01*
X311489272Y-164605356D01*
X311569383Y-164341267D01*
X311569384Y-164341263D01*
X311699474Y-164097882D01*
X311699475Y-164097880D01*
X311745082Y-164042309D01*
X311874550Y-163884550D01*
X312032309Y-163755082D01*
X312087880Y-163709475D01*
X312101798Y-163702036D01*
X312331263Y-163579384D01*
X312399983Y-163558538D01*
X312595356Y-163499272D01*
X312698269Y-163489136D01*
X312801180Y-163479000D01*
X313538820Y-163479000D01*
X313641731Y-163489136D01*
G37*
G36*
X313641731Y-159289136D02*
G01*
X313744644Y-159299272D01*
X313940017Y-159358538D01*
X314008737Y-159379384D01*
X314238202Y-159502036D01*
X314252120Y-159509475D01*
X314307691Y-159555082D01*
X314465450Y-159684550D01*
X314594918Y-159842309D01*
X314640525Y-159897880D01*
X314640526Y-159897882D01*
X314770616Y-160141263D01*
X314770617Y-160141267D01*
X314850728Y-160405356D01*
X314877778Y-160680000D01*
X314850728Y-160954644D01*
X314791462Y-161150017D01*
X314770616Y-161218737D01*
X314647964Y-161448202D01*
X314640525Y-161462120D01*
X314594918Y-161517691D01*
X314465450Y-161675450D01*
X314307691Y-161804918D01*
X314252120Y-161850525D01*
X314252118Y-161850526D01*
X314008737Y-161980616D01*
X313940017Y-162001462D01*
X313744644Y-162060728D01*
X313641731Y-162070864D01*
X313538820Y-162081000D01*
X312801180Y-162081000D01*
X312698269Y-162070864D01*
X312595356Y-162060728D01*
X312399983Y-162001462D01*
X312331263Y-161980616D01*
X312087882Y-161850526D01*
X312087880Y-161850525D01*
X312032309Y-161804918D01*
X311874550Y-161675450D01*
X311745082Y-161517691D01*
X311699475Y-161462120D01*
X311692036Y-161448202D01*
X311569384Y-161218737D01*
X311548538Y-161150017D01*
X311489272Y-160954644D01*
X311462222Y-160680000D01*
X311489272Y-160405356D01*
X311569383Y-160141267D01*
X311569384Y-160141263D01*
X311699474Y-159897882D01*
X311699475Y-159897880D01*
X311745082Y-159842309D01*
X311874550Y-159684550D01*
X312032309Y-159555082D01*
X312087880Y-159509475D01*
X312101797Y-159502036D01*
X312331263Y-159379384D01*
X312399983Y-159358538D01*
X312595356Y-159299272D01*
X312698269Y-159289136D01*
X312801180Y-159279000D01*
X313538820Y-159279000D01*
X313641731Y-159289136D01*
G37*
G36*
X308141731Y-159289136D02*
G01*
X308244644Y-159299272D01*
X308440017Y-159358538D01*
X308508737Y-159379384D01*
X308738202Y-159502036D01*
X308752120Y-159509475D01*
X308807691Y-159555082D01*
X308965450Y-159684550D01*
X309094918Y-159842309D01*
X309140525Y-159897880D01*
X309140526Y-159897882D01*
X309270616Y-160141263D01*
X309270617Y-160141267D01*
X309350728Y-160405356D01*
X309377778Y-160680000D01*
X309350728Y-160954644D01*
X309291462Y-161150017D01*
X309270616Y-161218737D01*
X309147964Y-161448202D01*
X309140525Y-161462120D01*
X309094918Y-161517691D01*
X308965450Y-161675450D01*
X308807691Y-161804918D01*
X308752120Y-161850525D01*
X308752118Y-161850526D01*
X308508737Y-161980616D01*
X308440017Y-162001462D01*
X308244644Y-162060728D01*
X308141731Y-162070864D01*
X308038820Y-162081000D01*
X307301180Y-162081000D01*
X307198269Y-162070864D01*
X307095356Y-162060728D01*
X306899983Y-162001462D01*
X306831263Y-161980616D01*
X306587882Y-161850526D01*
X306587880Y-161850525D01*
X306532309Y-161804918D01*
X306374550Y-161675450D01*
X306245082Y-161517691D01*
X306199475Y-161462120D01*
X306192036Y-161448202D01*
X306069384Y-161218737D01*
X306048538Y-161150017D01*
X305989272Y-160954644D01*
X305962222Y-160680000D01*
X305989272Y-160405356D01*
X306069383Y-160141267D01*
X306069384Y-160141263D01*
X306199474Y-159897882D01*
X306199475Y-159897880D01*
X306245082Y-159842309D01*
X306374550Y-159684550D01*
X306532309Y-159555082D01*
X306587880Y-159509475D01*
X306601797Y-159502036D01*
X306831263Y-159379384D01*
X306899983Y-159358538D01*
X307095356Y-159299272D01*
X307198269Y-159289136D01*
X307301180Y-159279000D01*
X308038820Y-159279000D01*
X308141731Y-159289136D01*
G37*
G36*
X313641731Y-155089136D02*
G01*
X313744644Y-155099272D01*
X313940017Y-155158538D01*
X314008737Y-155179384D01*
X314238202Y-155302036D01*
X314252120Y-155309475D01*
X314307691Y-155355082D01*
X314465450Y-155484550D01*
X314594918Y-155642309D01*
X314640525Y-155697880D01*
X314640526Y-155697882D01*
X314770616Y-155941263D01*
X314770617Y-155941267D01*
X314850728Y-156205356D01*
X314877778Y-156480000D01*
X314850728Y-156754644D01*
X314791462Y-156950017D01*
X314770616Y-157018737D01*
X314647964Y-157248202D01*
X314640525Y-157262120D01*
X314594918Y-157317691D01*
X314465450Y-157475450D01*
X314307691Y-157604918D01*
X314252120Y-157650525D01*
X314252118Y-157650526D01*
X314008737Y-157780616D01*
X313940017Y-157801462D01*
X313744644Y-157860728D01*
X313641731Y-157870864D01*
X313538820Y-157881000D01*
X312801180Y-157881000D01*
X312698269Y-157870864D01*
X312595356Y-157860728D01*
X312399983Y-157801462D01*
X312331263Y-157780616D01*
X312087882Y-157650526D01*
X312087880Y-157650525D01*
X312032309Y-157604918D01*
X311874550Y-157475450D01*
X311745082Y-157317691D01*
X311699475Y-157262120D01*
X311692036Y-157248202D01*
X311569384Y-157018737D01*
X311548538Y-156950017D01*
X311489272Y-156754644D01*
X311462222Y-156480000D01*
X311489272Y-156205356D01*
X311569383Y-155941267D01*
X311569384Y-155941263D01*
X311699474Y-155697882D01*
X311699475Y-155697880D01*
X311745082Y-155642309D01*
X311874550Y-155484550D01*
X312032309Y-155355082D01*
X312087880Y-155309475D01*
X312101798Y-155302036D01*
X312331263Y-155179384D01*
X312399983Y-155158538D01*
X312595356Y-155099272D01*
X312698269Y-155089136D01*
X312801180Y-155079000D01*
X313538820Y-155079000D01*
X313641731Y-155089136D01*
G37*
G36*
X308141731Y-155089136D02*
G01*
X308244644Y-155099272D01*
X308440017Y-155158538D01*
X308508737Y-155179384D01*
X308738202Y-155302036D01*
X308752120Y-155309475D01*
X308807691Y-155355082D01*
X308965450Y-155484550D01*
X309094918Y-155642309D01*
X309140525Y-155697880D01*
X309140526Y-155697882D01*
X309270616Y-155941263D01*
X309270617Y-155941267D01*
X309350728Y-156205356D01*
X309377778Y-156480000D01*
X309350728Y-156754644D01*
X309291462Y-156950017D01*
X309270616Y-157018737D01*
X309147964Y-157248202D01*
X309140525Y-157262120D01*
X309094918Y-157317691D01*
X308965450Y-157475450D01*
X308807691Y-157604918D01*
X308752120Y-157650525D01*
X308752118Y-157650526D01*
X308508737Y-157780616D01*
X308440017Y-157801462D01*
X308244644Y-157860728D01*
X308141731Y-157870864D01*
X308038820Y-157881000D01*
X307301180Y-157881000D01*
X307198269Y-157870864D01*
X307095356Y-157860728D01*
X306899983Y-157801462D01*
X306831263Y-157780616D01*
X306587882Y-157650526D01*
X306587880Y-157650525D01*
X306532309Y-157604918D01*
X306374550Y-157475450D01*
X306245082Y-157317691D01*
X306199475Y-157262120D01*
X306192036Y-157248202D01*
X306069384Y-157018737D01*
X306048538Y-156950017D01*
X305989272Y-156754644D01*
X305962222Y-156480000D01*
X305989272Y-156205356D01*
X306069383Y-155941267D01*
X306069384Y-155941263D01*
X306199474Y-155697882D01*
X306199475Y-155697880D01*
X306245082Y-155642309D01*
X306374550Y-155484550D01*
X306532309Y-155355082D01*
X306587880Y-155309475D01*
X306601798Y-155302036D01*
X306831263Y-155179384D01*
X306899983Y-155158538D01*
X307095356Y-155099272D01*
X307198269Y-155089136D01*
X307301180Y-155079000D01*
X308038820Y-155079000D01*
X308141731Y-155089136D01*
G37*
G36*
X313641731Y-150889136D02*
G01*
X313744644Y-150899272D01*
X313940017Y-150958538D01*
X314008737Y-150979384D01*
X314238202Y-151102036D01*
X314252120Y-151109475D01*
X314307691Y-151155082D01*
X314465450Y-151284550D01*
X314594918Y-151442309D01*
X314640525Y-151497880D01*
X314640526Y-151497882D01*
X314770616Y-151741263D01*
X314770617Y-151741267D01*
X314850728Y-152005356D01*
X314877778Y-152280000D01*
X314850728Y-152554644D01*
X314791462Y-152750017D01*
X314770616Y-152818737D01*
X314647964Y-153048202D01*
X314640525Y-153062120D01*
X314594918Y-153117691D01*
X314465450Y-153275450D01*
X314307691Y-153404918D01*
X314252120Y-153450525D01*
X314252118Y-153450526D01*
X314008737Y-153580616D01*
X313940017Y-153601462D01*
X313744644Y-153660728D01*
X313641731Y-153670864D01*
X313538820Y-153681000D01*
X312801180Y-153681000D01*
X312698269Y-153670864D01*
X312595356Y-153660728D01*
X312399983Y-153601462D01*
X312331263Y-153580616D01*
X312087882Y-153450526D01*
X312087880Y-153450525D01*
X312032309Y-153404918D01*
X311874550Y-153275450D01*
X311745082Y-153117691D01*
X311699475Y-153062120D01*
X311692036Y-153048202D01*
X311569384Y-152818737D01*
X311548538Y-152750017D01*
X311489272Y-152554644D01*
X311462222Y-152280000D01*
X311489272Y-152005356D01*
X311569383Y-151741267D01*
X311569384Y-151741263D01*
X311699474Y-151497882D01*
X311699475Y-151497880D01*
X311745082Y-151442309D01*
X311874550Y-151284550D01*
X312032309Y-151155082D01*
X312087880Y-151109475D01*
X312101798Y-151102036D01*
X312331263Y-150979384D01*
X312399983Y-150958538D01*
X312595356Y-150899272D01*
X312698269Y-150889136D01*
X312801180Y-150879000D01*
X313538820Y-150879000D01*
X313641731Y-150889136D01*
G37*
G36*
X308141731Y-150889136D02*
G01*
X308244644Y-150899272D01*
X308440017Y-150958538D01*
X308508737Y-150979384D01*
X308738202Y-151102036D01*
X308752120Y-151109475D01*
X308807691Y-151155082D01*
X308965450Y-151284550D01*
X309094918Y-151442309D01*
X309140525Y-151497880D01*
X309140526Y-151497882D01*
X309270616Y-151741263D01*
X309270617Y-151741267D01*
X309350728Y-152005356D01*
X309377778Y-152280000D01*
X309350728Y-152554644D01*
X309291462Y-152750017D01*
X309270616Y-152818737D01*
X309147964Y-153048202D01*
X309140525Y-153062120D01*
X309094918Y-153117691D01*
X308965450Y-153275450D01*
X308807691Y-153404918D01*
X308752120Y-153450525D01*
X308752118Y-153450526D01*
X308508737Y-153580616D01*
X308440017Y-153601462D01*
X308244644Y-153660728D01*
X308141731Y-153670864D01*
X308038820Y-153681000D01*
X307301180Y-153681000D01*
X307198269Y-153670864D01*
X307095356Y-153660728D01*
X306899983Y-153601462D01*
X306831263Y-153580616D01*
X306587882Y-153450526D01*
X306587880Y-153450525D01*
X306532309Y-153404918D01*
X306374550Y-153275450D01*
X306245082Y-153117691D01*
X306199475Y-153062120D01*
X306192036Y-153048202D01*
X306069384Y-152818737D01*
X306048538Y-152750017D01*
X305989272Y-152554644D01*
X305962222Y-152280000D01*
X305989272Y-152005356D01*
X306069383Y-151741267D01*
X306069384Y-151741263D01*
X306199474Y-151497882D01*
X306199475Y-151497880D01*
X306245082Y-151442309D01*
X306374550Y-151284550D01*
X306532309Y-151155082D01*
X306587880Y-151109475D01*
X306601798Y-151102036D01*
X306831263Y-150979384D01*
X306899983Y-150958538D01*
X307095356Y-150899272D01*
X307198269Y-150889136D01*
X307301180Y-150879000D01*
X308038820Y-150879000D01*
X308141731Y-150889136D01*
G37*
G36*
X170598254Y-148027818D02*
G01*
X170971511Y-148182426D01*
X170971513Y-148182427D01*
X171307436Y-148406884D01*
X171593116Y-148692564D01*
X171706409Y-148862118D01*
X171817574Y-149028489D01*
X171972182Y-149401746D01*
X172051000Y-149797993D01*
X172051000Y-150202007D01*
X171972182Y-150598254D01*
X171855893Y-150879000D01*
X171817573Y-150971513D01*
X171593116Y-151307436D01*
X171307436Y-151593116D01*
X170971513Y-151817573D01*
X170971512Y-151817574D01*
X170971511Y-151817574D01*
X170598254Y-151972182D01*
X170202007Y-152051000D01*
X169797993Y-152051000D01*
X169401746Y-151972182D01*
X169028489Y-151817574D01*
X169028488Y-151817574D01*
X169028487Y-151817573D01*
X168692564Y-151593116D01*
X168406884Y-151307436D01*
X168182427Y-150971513D01*
X168144107Y-150879000D01*
X168027818Y-150598254D01*
X167949000Y-150202007D01*
X167949000Y-149797993D01*
X168027818Y-149401746D01*
X168182426Y-149028489D01*
X168293592Y-148862118D01*
X168406884Y-148692564D01*
X168692564Y-148406884D01*
X169028487Y-148182427D01*
X169028489Y-148182426D01*
X169401746Y-148027818D01*
X169797993Y-147949000D01*
X170202007Y-147949000D01*
X170598254Y-148027818D01*
G37*
G36*
X313641731Y-146689136D02*
G01*
X313744644Y-146699272D01*
X313940017Y-146758538D01*
X314008737Y-146779384D01*
X314238202Y-146902036D01*
X314252120Y-146909475D01*
X314307691Y-146955082D01*
X314465450Y-147084550D01*
X314594918Y-147242309D01*
X314640525Y-147297880D01*
X314640526Y-147297882D01*
X314770616Y-147541263D01*
X314770617Y-147541267D01*
X314850728Y-147805356D01*
X314877778Y-148080000D01*
X314850728Y-148354644D01*
X314834881Y-148406884D01*
X314770616Y-148618737D01*
X314647964Y-148848202D01*
X314640525Y-148862120D01*
X314594918Y-148917691D01*
X314465450Y-149075450D01*
X314307691Y-149204918D01*
X314252120Y-149250525D01*
X314252118Y-149250526D01*
X314008737Y-149380616D01*
X313940017Y-149401462D01*
X313744644Y-149460728D01*
X313641731Y-149470864D01*
X313538820Y-149481000D01*
X312801180Y-149481000D01*
X312698269Y-149470864D01*
X312595356Y-149460728D01*
X312399983Y-149401462D01*
X312331263Y-149380616D01*
X312087882Y-149250526D01*
X312087880Y-149250525D01*
X312032309Y-149204918D01*
X311874550Y-149075450D01*
X311745082Y-148917691D01*
X311699475Y-148862120D01*
X311692036Y-148848202D01*
X311569384Y-148618737D01*
X311505119Y-148406884D01*
X311489272Y-148354644D01*
X311462222Y-148080000D01*
X311489272Y-147805356D01*
X311569383Y-147541267D01*
X311569384Y-147541263D01*
X311699474Y-147297882D01*
X311699475Y-147297880D01*
X311745082Y-147242309D01*
X311874550Y-147084550D01*
X312032309Y-146955082D01*
X312087880Y-146909475D01*
X312101798Y-146902036D01*
X312331263Y-146779384D01*
X312399983Y-146758538D01*
X312595356Y-146699272D01*
X312698269Y-146689136D01*
X312801180Y-146679000D01*
X313538820Y-146679000D01*
X313641731Y-146689136D01*
G37*
G36*
X308141731Y-146689136D02*
G01*
X308244644Y-146699272D01*
X308440017Y-146758538D01*
X308508737Y-146779384D01*
X308738202Y-146902036D01*
X308752120Y-146909475D01*
X308807691Y-146955082D01*
X308965450Y-147084550D01*
X309094918Y-147242309D01*
X309140525Y-147297880D01*
X309140526Y-147297882D01*
X309270616Y-147541263D01*
X309270617Y-147541267D01*
X309350728Y-147805356D01*
X309377778Y-148080000D01*
X309350728Y-148354644D01*
X309334881Y-148406884D01*
X309270616Y-148618737D01*
X309147964Y-148848202D01*
X309140525Y-148862120D01*
X309094918Y-148917691D01*
X308965450Y-149075450D01*
X308807691Y-149204918D01*
X308752120Y-149250525D01*
X308752118Y-149250526D01*
X308508737Y-149380616D01*
X308440017Y-149401462D01*
X308244644Y-149460728D01*
X308141731Y-149470864D01*
X308038820Y-149481000D01*
X307301180Y-149481000D01*
X307198269Y-149470864D01*
X307095356Y-149460728D01*
X306899983Y-149401462D01*
X306831263Y-149380616D01*
X306587882Y-149250526D01*
X306587880Y-149250525D01*
X306532309Y-149204918D01*
X306374550Y-149075450D01*
X306245082Y-148917691D01*
X306199475Y-148862120D01*
X306192036Y-148848202D01*
X306069384Y-148618737D01*
X306005119Y-148406884D01*
X305989272Y-148354644D01*
X305962222Y-148080000D01*
X305989272Y-147805356D01*
X306069383Y-147541267D01*
X306069384Y-147541263D01*
X306199474Y-147297882D01*
X306199475Y-147297880D01*
X306245082Y-147242309D01*
X306374550Y-147084550D01*
X306532309Y-146955082D01*
X306587880Y-146909475D01*
X306601798Y-146902036D01*
X306831263Y-146779384D01*
X306899983Y-146758538D01*
X307095356Y-146699272D01*
X307198269Y-146689136D01*
X307301180Y-146679000D01*
X308038820Y-146679000D01*
X308141731Y-146689136D01*
G37*
G36*
X313641731Y-142489136D02*
G01*
X313744644Y-142499272D01*
X313940017Y-142558538D01*
X314008737Y-142579384D01*
X314238202Y-142702036D01*
X314252120Y-142709475D01*
X314307691Y-142755082D01*
X314465450Y-142884550D01*
X314594918Y-143042309D01*
X314640525Y-143097880D01*
X314640526Y-143097882D01*
X314770616Y-143341263D01*
X314770617Y-143341267D01*
X314850728Y-143605356D01*
X314877778Y-143880000D01*
X314850728Y-144154644D01*
X314791462Y-144350017D01*
X314770616Y-144418737D01*
X314647964Y-144648202D01*
X314640525Y-144662120D01*
X314594918Y-144717691D01*
X314465450Y-144875450D01*
X314307691Y-145004918D01*
X314252120Y-145050525D01*
X314252118Y-145050526D01*
X314008737Y-145180616D01*
X313940017Y-145201462D01*
X313744644Y-145260728D01*
X313641731Y-145270864D01*
X313538820Y-145281000D01*
X312801180Y-145281000D01*
X312698269Y-145270864D01*
X312595356Y-145260728D01*
X312399983Y-145201462D01*
X312331263Y-145180616D01*
X312087882Y-145050526D01*
X312087880Y-145050525D01*
X312032309Y-145004918D01*
X311874550Y-144875450D01*
X311745082Y-144717691D01*
X311699475Y-144662120D01*
X311692036Y-144648202D01*
X311569384Y-144418737D01*
X311548538Y-144350017D01*
X311489272Y-144154644D01*
X311462222Y-143880000D01*
X311489272Y-143605356D01*
X311569383Y-143341267D01*
X311569384Y-143341263D01*
X311699474Y-143097882D01*
X311699475Y-143097880D01*
X311745082Y-143042309D01*
X311874550Y-142884550D01*
X312032309Y-142755082D01*
X312087880Y-142709475D01*
X312101798Y-142702036D01*
X312331263Y-142579384D01*
X312399983Y-142558538D01*
X312595356Y-142499272D01*
X312698269Y-142489136D01*
X312801180Y-142479000D01*
X313538820Y-142479000D01*
X313641731Y-142489136D01*
G37*
G36*
X308141731Y-142489136D02*
G01*
X308244644Y-142499272D01*
X308440017Y-142558538D01*
X308508737Y-142579384D01*
X308738202Y-142702036D01*
X308752120Y-142709475D01*
X308807691Y-142755082D01*
X308965450Y-142884550D01*
X309094918Y-143042309D01*
X309140525Y-143097880D01*
X309140526Y-143097882D01*
X309270616Y-143341263D01*
X309270617Y-143341267D01*
X309350728Y-143605356D01*
X309377778Y-143880000D01*
X309350728Y-144154644D01*
X309291462Y-144350017D01*
X309270616Y-144418737D01*
X309147964Y-144648202D01*
X309140525Y-144662120D01*
X309094918Y-144717691D01*
X308965450Y-144875450D01*
X308807691Y-145004918D01*
X308752120Y-145050525D01*
X308752118Y-145050526D01*
X308508737Y-145180616D01*
X308440017Y-145201462D01*
X308244644Y-145260728D01*
X308141731Y-145270864D01*
X308038820Y-145281000D01*
X307301180Y-145281000D01*
X307198269Y-145270864D01*
X307095356Y-145260728D01*
X306899983Y-145201462D01*
X306831263Y-145180616D01*
X306587882Y-145050526D01*
X306587880Y-145050525D01*
X306532309Y-145004918D01*
X306374550Y-144875450D01*
X306245082Y-144717691D01*
X306199475Y-144662120D01*
X306192036Y-144648202D01*
X306069384Y-144418737D01*
X306048538Y-144350017D01*
X305989272Y-144154644D01*
X305962222Y-143880000D01*
X305989272Y-143605356D01*
X306069383Y-143341267D01*
X306069384Y-143341263D01*
X306199474Y-143097882D01*
X306199475Y-143097880D01*
X306245082Y-143042309D01*
X306374550Y-142884550D01*
X306532309Y-142755082D01*
X306587880Y-142709475D01*
X306601798Y-142702036D01*
X306831263Y-142579384D01*
X306899983Y-142558538D01*
X307095356Y-142499272D01*
X307198269Y-142489136D01*
X307301180Y-142479000D01*
X308038820Y-142479000D01*
X308141731Y-142489136D01*
G37*
G36*
X170598254Y-138027818D02*
G01*
X170971511Y-138182426D01*
X170971513Y-138182427D01*
X171266278Y-138379383D01*
X171307436Y-138406884D01*
X171593116Y-138692564D01*
X171817574Y-139028489D01*
X171972182Y-139401746D01*
X172051000Y-139797993D01*
X172051000Y-140202007D01*
X171972182Y-140598254D01*
X171817574Y-140971511D01*
X171817573Y-140971513D01*
X171593116Y-141307436D01*
X171307436Y-141593116D01*
X170971513Y-141817573D01*
X170971512Y-141817574D01*
X170971511Y-141817574D01*
X170598254Y-141972182D01*
X170202007Y-142051000D01*
X169797993Y-142051000D01*
X169401746Y-141972182D01*
X169028489Y-141817574D01*
X169028488Y-141817574D01*
X169028487Y-141817573D01*
X168692564Y-141593116D01*
X168406884Y-141307436D01*
X168182427Y-140971513D01*
X168182426Y-140971511D01*
X168027818Y-140598254D01*
X167949000Y-140202007D01*
X167949000Y-139797993D01*
X168027818Y-139401746D01*
X168182426Y-139028489D01*
X168406884Y-138692564D01*
X168692564Y-138406884D01*
X168733722Y-138379383D01*
X169028487Y-138182427D01*
X169028489Y-138182426D01*
X169401746Y-138027818D01*
X169797993Y-137949000D01*
X170202007Y-137949000D01*
X170598254Y-138027818D01*
G37*
G36*
X308141731Y-138289136D02*
G01*
X308244644Y-138299272D01*
X308440017Y-138358538D01*
X308508737Y-138379384D01*
X308738202Y-138502036D01*
X308752120Y-138509475D01*
X308807691Y-138555082D01*
X308965450Y-138684550D01*
X309094918Y-138842309D01*
X309140525Y-138897880D01*
X309140526Y-138897882D01*
X309270616Y-139141263D01*
X309270617Y-139141267D01*
X309350728Y-139405356D01*
X309377778Y-139680000D01*
X309350728Y-139954644D01*
X309291462Y-140150017D01*
X309270616Y-140218737D01*
X309147964Y-140448202D01*
X309140525Y-140462120D01*
X309094918Y-140517691D01*
X308965450Y-140675450D01*
X308807691Y-140804918D01*
X308752120Y-140850525D01*
X308752118Y-140850526D01*
X308508737Y-140980616D01*
X308440017Y-141001462D01*
X308244644Y-141060728D01*
X308141731Y-141070864D01*
X308038820Y-141081000D01*
X307301180Y-141081000D01*
X307198269Y-141070864D01*
X307095356Y-141060728D01*
X306899983Y-141001462D01*
X306831263Y-140980616D01*
X306587882Y-140850526D01*
X306587880Y-140850525D01*
X306532309Y-140804918D01*
X306374550Y-140675450D01*
X306245082Y-140517691D01*
X306199475Y-140462120D01*
X306192036Y-140448202D01*
X306069384Y-140218737D01*
X306048538Y-140150017D01*
X305989272Y-139954644D01*
X305962222Y-139680000D01*
X305989272Y-139405356D01*
X306069383Y-139141267D01*
X306069384Y-139141263D01*
X306199474Y-138897882D01*
X306199475Y-138897880D01*
X306245082Y-138842309D01*
X306374550Y-138684550D01*
X306532309Y-138555082D01*
X306587880Y-138509475D01*
X306601798Y-138502036D01*
X306831263Y-138379384D01*
X306899983Y-138358538D01*
X307095356Y-138299272D01*
X307198269Y-138289136D01*
X307301180Y-138279000D01*
X308038820Y-138279000D01*
X308141731Y-138289136D01*
G37*
G36*
X313641731Y-138289136D02*
G01*
X313744644Y-138299272D01*
X313940017Y-138358538D01*
X314008737Y-138379384D01*
X314238202Y-138502036D01*
X314252120Y-138509475D01*
X314307691Y-138555082D01*
X314465450Y-138684550D01*
X314594918Y-138842309D01*
X314640525Y-138897880D01*
X314640526Y-138897882D01*
X314770616Y-139141263D01*
X314770617Y-139141267D01*
X314850728Y-139405356D01*
X314877778Y-139680000D01*
X314850728Y-139954644D01*
X314791462Y-140150017D01*
X314770616Y-140218737D01*
X314647964Y-140448202D01*
X314640525Y-140462120D01*
X314594918Y-140517691D01*
X314465450Y-140675450D01*
X314307691Y-140804918D01*
X314252120Y-140850525D01*
X314252118Y-140850526D01*
X314008737Y-140980616D01*
X313940017Y-141001462D01*
X313744644Y-141060728D01*
X313641731Y-141070864D01*
X313538820Y-141081000D01*
X312801180Y-141081000D01*
X312698269Y-141070864D01*
X312595356Y-141060728D01*
X312399983Y-141001462D01*
X312331263Y-140980616D01*
X312087882Y-140850526D01*
X312087880Y-140850525D01*
X312032309Y-140804918D01*
X311874550Y-140675450D01*
X311745082Y-140517691D01*
X311699475Y-140462120D01*
X311692036Y-140448202D01*
X311569384Y-140218737D01*
X311548538Y-140150017D01*
X311489272Y-139954644D01*
X311462222Y-139680000D01*
X311489272Y-139405356D01*
X311569383Y-139141267D01*
X311569384Y-139141263D01*
X311699474Y-138897882D01*
X311699475Y-138897880D01*
X311745082Y-138842309D01*
X311874550Y-138684550D01*
X312032309Y-138555082D01*
X312087880Y-138509475D01*
X312101798Y-138502036D01*
X312331263Y-138379384D01*
X312399983Y-138358538D01*
X312595356Y-138299272D01*
X312698269Y-138289136D01*
X312801180Y-138279000D01*
X313538820Y-138279000D01*
X313641731Y-138289136D01*
G37*
G36*
X313641731Y-134089136D02*
G01*
X313744644Y-134099272D01*
X313940017Y-134158538D01*
X314008737Y-134179384D01*
X314238202Y-134302036D01*
X314252120Y-134309475D01*
X314307691Y-134355082D01*
X314465450Y-134484550D01*
X314594918Y-134642309D01*
X314640525Y-134697880D01*
X314640526Y-134697882D01*
X314770616Y-134941263D01*
X314770617Y-134941267D01*
X314850728Y-135205356D01*
X314877778Y-135480000D01*
X314850728Y-135754644D01*
X314791462Y-135950017D01*
X314770616Y-136018737D01*
X314647964Y-136248202D01*
X314640525Y-136262120D01*
X314594918Y-136317691D01*
X314465450Y-136475450D01*
X314307691Y-136604918D01*
X314252120Y-136650525D01*
X314252118Y-136650526D01*
X314008737Y-136780616D01*
X313940017Y-136801462D01*
X313744644Y-136860728D01*
X313641731Y-136870864D01*
X313538820Y-136881000D01*
X312801180Y-136881000D01*
X312698269Y-136870864D01*
X312595356Y-136860728D01*
X312399983Y-136801462D01*
X312331263Y-136780616D01*
X312087882Y-136650526D01*
X312087880Y-136650525D01*
X312032309Y-136604918D01*
X311874550Y-136475450D01*
X311745082Y-136317691D01*
X311699475Y-136262120D01*
X311692036Y-136248202D01*
X311569384Y-136018737D01*
X311548538Y-135950017D01*
X311489272Y-135754644D01*
X311462222Y-135480000D01*
X311489272Y-135205356D01*
X311569383Y-134941267D01*
X311569384Y-134941263D01*
X311699474Y-134697882D01*
X311699475Y-134697880D01*
X311745082Y-134642309D01*
X311874550Y-134484550D01*
X312032309Y-134355082D01*
X312087880Y-134309475D01*
X312101798Y-134302036D01*
X312331263Y-134179384D01*
X312399983Y-134158538D01*
X312595356Y-134099272D01*
X312698269Y-134089136D01*
X312801180Y-134079000D01*
X313538820Y-134079000D01*
X313641731Y-134089136D01*
G37*
G36*
X308141731Y-134089136D02*
G01*
X308244644Y-134099272D01*
X308440017Y-134158538D01*
X308508737Y-134179384D01*
X308738202Y-134302036D01*
X308752120Y-134309475D01*
X308807691Y-134355082D01*
X308965450Y-134484550D01*
X309094918Y-134642309D01*
X309140525Y-134697880D01*
X309140526Y-134697882D01*
X309270616Y-134941263D01*
X309270617Y-134941267D01*
X309350728Y-135205356D01*
X309377778Y-135480000D01*
X309350728Y-135754644D01*
X309291462Y-135950017D01*
X309270616Y-136018737D01*
X309147964Y-136248202D01*
X309140525Y-136262120D01*
X309094918Y-136317691D01*
X308965450Y-136475450D01*
X308807691Y-136604918D01*
X308752120Y-136650525D01*
X308752118Y-136650526D01*
X308508737Y-136780616D01*
X308440017Y-136801462D01*
X308244644Y-136860728D01*
X308141731Y-136870864D01*
X308038820Y-136881000D01*
X307301180Y-136881000D01*
X307198269Y-136870864D01*
X307095356Y-136860728D01*
X306899983Y-136801462D01*
X306831263Y-136780616D01*
X306587882Y-136650526D01*
X306587880Y-136650525D01*
X306532309Y-136604918D01*
X306374550Y-136475450D01*
X306245082Y-136317691D01*
X306199475Y-136262120D01*
X306192036Y-136248202D01*
X306069384Y-136018737D01*
X306048538Y-135950017D01*
X305989272Y-135754644D01*
X305962222Y-135480000D01*
X305989272Y-135205356D01*
X306069383Y-134941267D01*
X306069384Y-134941263D01*
X306199474Y-134697882D01*
X306199475Y-134697880D01*
X306245082Y-134642309D01*
X306374550Y-134484550D01*
X306532309Y-134355082D01*
X306587880Y-134309475D01*
X306601798Y-134302036D01*
X306831263Y-134179384D01*
X306899983Y-134158538D01*
X307095356Y-134099272D01*
X307198269Y-134089136D01*
X307301180Y-134079000D01*
X308038820Y-134079000D01*
X308141731Y-134089136D01*
G37*
G36*
X313641731Y-129889136D02*
G01*
X313744644Y-129899272D01*
X313940017Y-129958538D01*
X314008737Y-129979384D01*
X314238202Y-130102036D01*
X314252120Y-130109475D01*
X314307691Y-130155082D01*
X314465450Y-130284550D01*
X314594918Y-130442309D01*
X314640525Y-130497880D01*
X314640526Y-130497882D01*
X314770616Y-130741263D01*
X314770617Y-130741267D01*
X314850728Y-131005356D01*
X314877778Y-131280000D01*
X314850728Y-131554644D01*
X314791462Y-131750017D01*
X314770616Y-131818737D01*
X314647964Y-132048202D01*
X314640525Y-132062120D01*
X314594918Y-132117691D01*
X314465450Y-132275450D01*
X314307691Y-132404918D01*
X314252120Y-132450525D01*
X314252118Y-132450526D01*
X314008737Y-132580616D01*
X313940017Y-132601462D01*
X313744644Y-132660728D01*
X313641731Y-132670864D01*
X313538820Y-132681000D01*
X312801180Y-132681000D01*
X312698269Y-132670864D01*
X312595356Y-132660728D01*
X312399983Y-132601462D01*
X312331263Y-132580616D01*
X312087882Y-132450526D01*
X312087880Y-132450525D01*
X312032309Y-132404918D01*
X311874550Y-132275450D01*
X311745082Y-132117691D01*
X311699475Y-132062120D01*
X311692036Y-132048202D01*
X311569384Y-131818737D01*
X311548538Y-131750017D01*
X311489272Y-131554644D01*
X311462222Y-131280000D01*
X311489272Y-131005356D01*
X311569383Y-130741267D01*
X311569384Y-130741263D01*
X311699474Y-130497882D01*
X311699475Y-130497880D01*
X311745082Y-130442309D01*
X311874550Y-130284550D01*
X312032309Y-130155082D01*
X312087880Y-130109475D01*
X312101798Y-130102036D01*
X312331263Y-129979384D01*
X312399983Y-129958538D01*
X312595356Y-129899272D01*
X312698269Y-129889136D01*
X312801180Y-129879000D01*
X313538820Y-129879000D01*
X313641731Y-129889136D01*
G37*
G36*
X308141731Y-129889136D02*
G01*
X308244644Y-129899272D01*
X308440017Y-129958538D01*
X308508737Y-129979384D01*
X308738202Y-130102036D01*
X308752120Y-130109475D01*
X308807691Y-130155082D01*
X308965450Y-130284550D01*
X309094918Y-130442309D01*
X309140525Y-130497880D01*
X309140526Y-130497882D01*
X309270616Y-130741263D01*
X309270617Y-130741267D01*
X309350728Y-131005356D01*
X309377778Y-131280000D01*
X309350728Y-131554644D01*
X309291462Y-131750017D01*
X309270616Y-131818737D01*
X309147964Y-132048202D01*
X309140525Y-132062120D01*
X309094918Y-132117691D01*
X308965450Y-132275450D01*
X308807691Y-132404918D01*
X308752120Y-132450525D01*
X308752118Y-132450526D01*
X308508737Y-132580616D01*
X308440017Y-132601462D01*
X308244644Y-132660728D01*
X308141731Y-132670864D01*
X308038820Y-132681000D01*
X307301180Y-132681000D01*
X307198269Y-132670864D01*
X307095356Y-132660728D01*
X306899983Y-132601462D01*
X306831263Y-132580616D01*
X306587882Y-132450526D01*
X306587880Y-132450525D01*
X306532309Y-132404918D01*
X306374550Y-132275450D01*
X306245082Y-132117691D01*
X306199475Y-132062120D01*
X306192036Y-132048202D01*
X306069384Y-131818737D01*
X306048538Y-131750017D01*
X305989272Y-131554644D01*
X305962222Y-131280000D01*
X305989272Y-131005356D01*
X306069383Y-130741267D01*
X306069384Y-130741263D01*
X306199474Y-130497882D01*
X306199475Y-130497880D01*
X306245082Y-130442309D01*
X306374550Y-130284550D01*
X306532309Y-130155082D01*
X306587880Y-130109475D01*
X306601798Y-130102036D01*
X306831263Y-129979384D01*
X306899983Y-129958538D01*
X307095356Y-129899272D01*
X307198269Y-129889136D01*
X307301180Y-129879000D01*
X308038820Y-129879000D01*
X308141731Y-129889136D01*
G37*
G36*
X308141731Y-125689136D02*
G01*
X308244644Y-125699272D01*
X308440017Y-125758538D01*
X308508737Y-125779384D01*
X308738202Y-125902036D01*
X308752120Y-125909475D01*
X308807691Y-125955082D01*
X308965450Y-126084550D01*
X309094918Y-126242309D01*
X309140525Y-126297880D01*
X309140526Y-126297882D01*
X309270616Y-126541263D01*
X309270617Y-126541267D01*
X309350728Y-126805356D01*
X309377778Y-127080000D01*
X309350728Y-127354644D01*
X309291462Y-127550017D01*
X309270616Y-127618737D01*
X309147964Y-127848202D01*
X309140525Y-127862120D01*
X309094918Y-127917691D01*
X308965450Y-128075450D01*
X308807691Y-128204918D01*
X308752120Y-128250525D01*
X308752118Y-128250526D01*
X308508737Y-128380616D01*
X308440017Y-128401462D01*
X308244644Y-128460728D01*
X308141731Y-128470864D01*
X308038820Y-128481000D01*
X307301180Y-128481000D01*
X307198269Y-128470864D01*
X307095356Y-128460728D01*
X306899983Y-128401462D01*
X306831263Y-128380616D01*
X306587882Y-128250526D01*
X306587880Y-128250525D01*
X306532309Y-128204918D01*
X306374550Y-128075450D01*
X306245082Y-127917691D01*
X306199475Y-127862120D01*
X306192036Y-127848202D01*
X306069384Y-127618737D01*
X306048538Y-127550017D01*
X305989272Y-127354644D01*
X305962222Y-127080000D01*
X305989272Y-126805356D01*
X306069383Y-126541267D01*
X306069384Y-126541263D01*
X306199474Y-126297882D01*
X306199475Y-126297880D01*
X306245082Y-126242309D01*
X306374550Y-126084550D01*
X306532309Y-125955082D01*
X306587880Y-125909475D01*
X306601798Y-125902036D01*
X306831263Y-125779384D01*
X306899983Y-125758538D01*
X307095356Y-125699272D01*
X307198269Y-125689136D01*
X307301180Y-125679000D01*
X308038820Y-125679000D01*
X308141731Y-125689136D01*
G37*
G36*
X313641731Y-125689136D02*
G01*
X313744644Y-125699272D01*
X313940017Y-125758538D01*
X314008737Y-125779384D01*
X314238202Y-125902036D01*
X314252120Y-125909475D01*
X314307691Y-125955082D01*
X314465450Y-126084550D01*
X314594918Y-126242309D01*
X314640525Y-126297880D01*
X314640526Y-126297882D01*
X314770616Y-126541263D01*
X314770617Y-126541267D01*
X314850728Y-126805356D01*
X314877778Y-127080000D01*
X314850728Y-127354644D01*
X314791462Y-127550017D01*
X314770616Y-127618737D01*
X314647964Y-127848202D01*
X314640525Y-127862120D01*
X314594918Y-127917691D01*
X314465450Y-128075450D01*
X314307691Y-128204918D01*
X314252120Y-128250525D01*
X314252118Y-128250526D01*
X314008737Y-128380616D01*
X313940017Y-128401462D01*
X313744644Y-128460728D01*
X313641731Y-128470864D01*
X313538820Y-128481000D01*
X312801180Y-128481000D01*
X312698269Y-128470864D01*
X312595356Y-128460728D01*
X312399983Y-128401462D01*
X312331263Y-128380616D01*
X312087882Y-128250526D01*
X312087880Y-128250525D01*
X312032309Y-128204918D01*
X311874550Y-128075450D01*
X311745082Y-127917691D01*
X311699475Y-127862120D01*
X311692036Y-127848202D01*
X311569384Y-127618737D01*
X311548538Y-127550017D01*
X311489272Y-127354644D01*
X311462222Y-127080000D01*
X311489272Y-126805356D01*
X311569383Y-126541267D01*
X311569384Y-126541263D01*
X311699474Y-126297882D01*
X311699475Y-126297880D01*
X311745082Y-126242309D01*
X311874550Y-126084550D01*
X312032309Y-125955082D01*
X312087880Y-125909475D01*
X312101798Y-125902036D01*
X312331263Y-125779384D01*
X312399983Y-125758538D01*
X312595356Y-125699272D01*
X312698269Y-125689136D01*
X312801180Y-125679000D01*
X313538820Y-125679000D01*
X313641731Y-125689136D01*
G37*
G36*
X308141731Y-121489136D02*
G01*
X308244644Y-121499272D01*
X308440017Y-121558538D01*
X308508737Y-121579384D01*
X308711625Y-121687830D01*
X308752120Y-121709475D01*
X308807691Y-121755082D01*
X308965450Y-121884550D01*
X309094918Y-122042309D01*
X309140525Y-122097880D01*
X309140526Y-122097882D01*
X309270616Y-122341263D01*
X309270617Y-122341267D01*
X309350728Y-122605356D01*
X309377778Y-122880000D01*
X309350728Y-123154644D01*
X309291462Y-123350017D01*
X309270616Y-123418737D01*
X309147964Y-123648202D01*
X309140525Y-123662120D01*
X309094918Y-123717691D01*
X308965450Y-123875450D01*
X308807691Y-124004918D01*
X308752120Y-124050525D01*
X308752118Y-124050526D01*
X308508737Y-124180616D01*
X308440017Y-124201462D01*
X308244644Y-124260728D01*
X308141731Y-124270864D01*
X308038820Y-124281000D01*
X307301180Y-124281000D01*
X307198269Y-124270864D01*
X307095356Y-124260728D01*
X306899983Y-124201462D01*
X306831263Y-124180616D01*
X306587882Y-124050526D01*
X306587880Y-124050525D01*
X306532309Y-124004918D01*
X306374550Y-123875450D01*
X306245082Y-123717691D01*
X306199475Y-123662120D01*
X306192036Y-123648202D01*
X306069384Y-123418737D01*
X306048538Y-123350017D01*
X305989272Y-123154644D01*
X305962222Y-122880000D01*
X305989272Y-122605356D01*
X306069383Y-122341267D01*
X306069384Y-122341263D01*
X306199474Y-122097882D01*
X306199475Y-122097880D01*
X306245082Y-122042309D01*
X306374550Y-121884550D01*
X306532309Y-121755082D01*
X306587880Y-121709475D01*
X306628375Y-121687830D01*
X306831263Y-121579384D01*
X306899983Y-121558538D01*
X307095356Y-121499272D01*
X307198269Y-121489136D01*
X307301180Y-121479000D01*
X308038820Y-121479000D01*
X308141731Y-121489136D01*
G37*
G36*
X314744031Y-121482621D02*
G01*
X314773486Y-121491556D01*
X314800623Y-121506062D01*
X314824414Y-121525586D01*
X314843938Y-121549377D01*
X314858444Y-121576514D01*
X314867379Y-121605969D01*
X314871000Y-121642734D01*
X314871000Y-124117266D01*
X314867379Y-124154031D01*
X314858444Y-124183486D01*
X314843938Y-124210623D01*
X314824414Y-124234414D01*
X314800623Y-124253938D01*
X314773486Y-124268444D01*
X314744031Y-124277379D01*
X314707266Y-124281000D01*
X311632734Y-124281000D01*
X311595969Y-124277379D01*
X311566514Y-124268444D01*
X311539377Y-124253938D01*
X311515586Y-124234414D01*
X311496062Y-124210623D01*
X311481556Y-124183486D01*
X311472621Y-124154031D01*
X311469000Y-124117266D01*
X311469000Y-121642734D01*
X311472621Y-121605969D01*
X311481556Y-121576514D01*
X311496062Y-121549377D01*
X311515586Y-121525586D01*
X311539377Y-121506062D01*
X311566514Y-121491556D01*
X311595969Y-121482621D01*
X311632734Y-121479000D01*
X314707266Y-121479000D01*
X314744031Y-121482621D01*
G37*
G36*
X308432585Y-116658802D02*
G01*
X308582410Y-116688604D01*
X308864674Y-116805521D01*
X309118705Y-116975259D01*
X309334741Y-117191295D01*
X309504479Y-117445326D01*
X309621396Y-117727590D01*
X309681000Y-118027240D01*
X309681000Y-118332760D01*
X309621396Y-118632410D01*
X309504479Y-118914674D01*
X309334741Y-119168705D01*
X309118705Y-119384741D01*
X308864674Y-119554479D01*
X308582410Y-119671396D01*
X308432585Y-119701198D01*
X308282761Y-119731000D01*
X307977239Y-119731000D01*
X307827415Y-119701198D01*
X307677590Y-119671396D01*
X307395326Y-119554479D01*
X307141295Y-119384741D01*
X306925259Y-119168705D01*
X306755521Y-118914674D01*
X306638604Y-118632410D01*
X306579000Y-118332760D01*
X306579000Y-118027240D01*
X306638604Y-117727590D01*
X306755521Y-117445326D01*
X306925259Y-117191295D01*
X307141295Y-116975259D01*
X307395326Y-116805521D01*
X307677590Y-116688604D01*
X307827415Y-116658802D01*
X307977239Y-116629000D01*
X308282761Y-116629000D01*
X308432585Y-116658802D01*
G37*
G36*
X263898254Y-107857818D02*
G01*
X264271511Y-108012426D01*
X264271513Y-108012427D01*
X264607436Y-108236884D01*
X264893116Y-108522564D01*
X265117574Y-108858489D01*
X265272182Y-109231746D01*
X265351000Y-109627993D01*
X265351000Y-110032007D01*
X265272182Y-110428254D01*
X265179706Y-110651511D01*
X265117573Y-110801513D01*
X264893116Y-111137436D01*
X264607436Y-111423116D01*
X264271513Y-111647573D01*
X264271512Y-111647574D01*
X264271511Y-111647574D01*
X263898254Y-111802182D01*
X263502007Y-111881000D01*
X263097993Y-111881000D01*
X262701746Y-111802182D01*
X262328489Y-111647574D01*
X262328488Y-111647574D01*
X262328487Y-111647573D01*
X261992564Y-111423116D01*
X261706884Y-111137436D01*
X261482427Y-110801513D01*
X261420294Y-110651511D01*
X261327818Y-110428254D01*
X261249000Y-110032007D01*
X261249000Y-109627993D01*
X261327818Y-109231746D01*
X261482426Y-108858489D01*
X261706884Y-108522564D01*
X261992564Y-108236884D01*
X262328487Y-108012427D01*
X262328489Y-108012426D01*
X262701746Y-107857818D01*
X263097993Y-107779000D01*
X263502007Y-107779000D01*
X263898254Y-107857818D01*
G37*
G36*
X274058254Y-107857818D02*
G01*
X274431511Y-108012426D01*
X274431513Y-108012427D01*
X274767436Y-108236884D01*
X275053116Y-108522564D01*
X275277574Y-108858489D01*
X275432182Y-109231746D01*
X275511000Y-109627993D01*
X275511000Y-110032007D01*
X275432182Y-110428254D01*
X275339706Y-110651511D01*
X275277573Y-110801513D01*
X275053116Y-111137436D01*
X274767436Y-111423116D01*
X274431513Y-111647573D01*
X274431512Y-111647574D01*
X274431511Y-111647574D01*
X274058254Y-111802182D01*
X273662007Y-111881000D01*
X273257993Y-111881000D01*
X272861746Y-111802182D01*
X272488489Y-111647574D01*
X272488488Y-111647574D01*
X272488487Y-111647573D01*
X272152564Y-111423116D01*
X271866884Y-111137436D01*
X271642427Y-110801513D01*
X271580294Y-110651511D01*
X271487818Y-110428254D01*
X271409000Y-110032007D01*
X271409000Y-109627993D01*
X271487818Y-109231746D01*
X271642426Y-108858489D01*
X271866884Y-108522564D01*
X272152564Y-108236884D01*
X272488487Y-108012427D01*
X272488489Y-108012426D01*
X272861746Y-107857818D01*
X273257993Y-107779000D01*
X273662007Y-107779000D01*
X274058254Y-107857818D01*
G37*
G36*
X181618254Y-107707818D02*
G01*
X181991511Y-107862426D01*
X181991513Y-107862427D01*
X182216002Y-108012426D01*
X182327436Y-108086884D01*
X182613116Y-108372564D01*
X182837574Y-108708489D01*
X182992182Y-109081746D01*
X183071000Y-109477993D01*
X183071000Y-109882007D01*
X182992182Y-110278254D01*
X182837574Y-110651511D01*
X182837573Y-110651513D01*
X182613116Y-110987436D01*
X182327436Y-111273116D01*
X181991513Y-111497573D01*
X181991512Y-111497574D01*
X181991511Y-111497574D01*
X181618254Y-111652182D01*
X181222007Y-111731000D01*
X180817993Y-111731000D01*
X180421746Y-111652182D01*
X180048489Y-111497574D01*
X180048488Y-111497574D01*
X180048487Y-111497573D01*
X179712564Y-111273116D01*
X179426884Y-110987436D01*
X179202427Y-110651513D01*
X179202426Y-110651511D01*
X179047818Y-110278254D01*
X178969000Y-109882007D01*
X178969000Y-109477993D01*
X179047818Y-109081746D01*
X179202426Y-108708489D01*
X179426884Y-108372564D01*
X179712564Y-108086884D01*
X179823998Y-108012426D01*
X180048487Y-107862427D01*
X180048489Y-107862426D01*
X180421746Y-107707818D01*
X180817993Y-107629000D01*
X181222007Y-107629000D01*
X181618254Y-107707818D01*
G37*
G36*
X191778254Y-107707818D02*
G01*
X192151511Y-107862426D01*
X192151513Y-107862427D01*
X192376002Y-108012426D01*
X192487436Y-108086884D01*
X192773116Y-108372564D01*
X192997574Y-108708489D01*
X193152182Y-109081746D01*
X193231000Y-109477993D01*
X193231000Y-109882007D01*
X193152182Y-110278254D01*
X192997574Y-110651511D01*
X192997573Y-110651513D01*
X192773116Y-110987436D01*
X192487436Y-111273116D01*
X192151513Y-111497573D01*
X192151512Y-111497574D01*
X192151511Y-111497574D01*
X191778254Y-111652182D01*
X191382007Y-111731000D01*
X190977993Y-111731000D01*
X190581746Y-111652182D01*
X190208489Y-111497574D01*
X190208488Y-111497574D01*
X190208487Y-111497573D01*
X189872564Y-111273116D01*
X189586884Y-110987436D01*
X189362427Y-110651513D01*
X189362426Y-110651511D01*
X189207818Y-110278254D01*
X189129000Y-109882007D01*
X189129000Y-109477993D01*
X189207818Y-109081746D01*
X189362426Y-108708489D01*
X189586884Y-108372564D01*
X189872564Y-108086884D01*
X189983998Y-108012426D01*
X190208487Y-107862427D01*
X190208489Y-107862426D01*
X190581746Y-107707818D01*
X190977993Y-107629000D01*
X191382007Y-107629000D01*
X191778254Y-107707818D01*
G37*
G36*
X246588254Y-107707818D02*
G01*
X246961511Y-107862426D01*
X246961513Y-107862427D01*
X247186002Y-108012426D01*
X247297436Y-108086884D01*
X247583116Y-108372564D01*
X247807574Y-108708489D01*
X247962182Y-109081746D01*
X248041000Y-109477993D01*
X248041000Y-109882007D01*
X247962182Y-110278254D01*
X247807574Y-110651511D01*
X247807573Y-110651513D01*
X247583116Y-110987436D01*
X247297436Y-111273116D01*
X246961513Y-111497573D01*
X246961512Y-111497574D01*
X246961511Y-111497574D01*
X246588254Y-111652182D01*
X246192007Y-111731000D01*
X245787993Y-111731000D01*
X245391746Y-111652182D01*
X245018489Y-111497574D01*
X245018488Y-111497574D01*
X245018487Y-111497573D01*
X244682564Y-111273116D01*
X244396884Y-110987436D01*
X244172427Y-110651513D01*
X244172426Y-110651511D01*
X244017818Y-110278254D01*
X243939000Y-109882007D01*
X243939000Y-109477993D01*
X244017818Y-109081746D01*
X244172426Y-108708489D01*
X244396884Y-108372564D01*
X244682564Y-108086884D01*
X244793998Y-108012426D01*
X245018487Y-107862427D01*
X245018489Y-107862426D01*
X245391746Y-107707818D01*
X245787993Y-107629000D01*
X246192007Y-107629000D01*
X246588254Y-107707818D01*
G37*
G36*
X236428254Y-107707818D02*
G01*
X236801511Y-107862426D01*
X236801513Y-107862427D01*
X237026002Y-108012426D01*
X237137436Y-108086884D01*
X237423116Y-108372564D01*
X237647574Y-108708489D01*
X237802182Y-109081746D01*
X237881000Y-109477993D01*
X237881000Y-109882007D01*
X237802182Y-110278254D01*
X237647574Y-110651511D01*
X237647573Y-110651513D01*
X237423116Y-110987436D01*
X237137436Y-111273116D01*
X236801513Y-111497573D01*
X236801512Y-111497574D01*
X236801511Y-111497574D01*
X236428254Y-111652182D01*
X236032007Y-111731000D01*
X235627993Y-111731000D01*
X235231746Y-111652182D01*
X234858489Y-111497574D01*
X234858488Y-111497574D01*
X234858487Y-111497573D01*
X234522564Y-111273116D01*
X234236884Y-110987436D01*
X234012427Y-110651513D01*
X234012426Y-110651511D01*
X233857818Y-110278254D01*
X233779000Y-109882007D01*
X233779000Y-109477993D01*
X233857818Y-109081746D01*
X234012426Y-108708489D01*
X234236884Y-108372564D01*
X234522564Y-108086884D01*
X234633998Y-108012426D01*
X234858487Y-107862427D01*
X234858489Y-107862426D01*
X235231746Y-107707818D01*
X235627993Y-107629000D01*
X236032007Y-107629000D01*
X236428254Y-107707818D01*
G37*
G36*
X219298254Y-107667818D02*
G01*
X219566671Y-107779000D01*
X219671513Y-107822427D01*
X220007436Y-108046884D01*
X220293116Y-108332564D01*
X220517574Y-108668489D01*
X220672182Y-109041746D01*
X220751000Y-109437993D01*
X220751000Y-109842007D01*
X220672182Y-110238254D01*
X220655613Y-110278254D01*
X220517573Y-110611513D01*
X220293116Y-110947436D01*
X220007436Y-111233116D01*
X219671513Y-111457573D01*
X219671512Y-111457574D01*
X219671511Y-111457574D01*
X219298254Y-111612182D01*
X218902007Y-111691000D01*
X218497993Y-111691000D01*
X218101746Y-111612182D01*
X217728489Y-111457574D01*
X217728488Y-111457574D01*
X217728487Y-111457573D01*
X217392564Y-111233116D01*
X217106884Y-110947436D01*
X216882427Y-110611513D01*
X216744387Y-110278254D01*
X216727818Y-110238254D01*
X216649000Y-109842007D01*
X216649000Y-109437993D01*
X216727818Y-109041746D01*
X216882426Y-108668489D01*
X217106884Y-108332564D01*
X217392564Y-108046884D01*
X217728487Y-107822427D01*
X217833329Y-107779000D01*
X218101746Y-107667818D01*
X218497993Y-107589000D01*
X218902007Y-107589000D01*
X219298254Y-107667818D01*
G37*
G36*
X209138254Y-107667818D02*
G01*
X209406671Y-107779000D01*
X209511513Y-107822427D01*
X209847436Y-108046884D01*
X210133116Y-108332564D01*
X210357574Y-108668489D01*
X210512182Y-109041746D01*
X210591000Y-109437993D01*
X210591000Y-109842007D01*
X210512182Y-110238254D01*
X210495613Y-110278254D01*
X210357573Y-110611513D01*
X210133116Y-110947436D01*
X209847436Y-111233116D01*
X209511513Y-111457573D01*
X209511512Y-111457574D01*
X209511511Y-111457574D01*
X209138254Y-111612182D01*
X208742007Y-111691000D01*
X208337993Y-111691000D01*
X207941746Y-111612182D01*
X207568489Y-111457574D01*
X207568488Y-111457574D01*
X207568487Y-111457573D01*
X207232564Y-111233116D01*
X206946884Y-110947436D01*
X206722427Y-110611513D01*
X206584387Y-110278254D01*
X206567818Y-110238254D01*
X206489000Y-109842007D01*
X206489000Y-109437993D01*
X206567818Y-109041746D01*
X206722426Y-108668489D01*
X206946884Y-108332564D01*
X207232564Y-108046884D01*
X207568487Y-107822427D01*
X207673329Y-107779000D01*
X207941746Y-107667818D01*
X208337993Y-107589000D01*
X208742007Y-107589000D01*
X209138254Y-107667818D01*
G37*
G36*
X278797714Y-100914382D02*
G01*
X278925322Y-100939765D01*
X279056044Y-100993912D01*
X279165727Y-101039344D01*
X279165728Y-101039345D01*
X279382089Y-101183912D01*
X279566088Y-101367911D01*
X279610429Y-101434273D01*
X279710656Y-101584273D01*
X279731534Y-101634678D01*
X279810235Y-101824678D01*
X279823207Y-101889893D01*
X279861000Y-102079891D01*
X279861000Y-102340109D01*
X279848028Y-102405322D01*
X279810235Y-102595322D01*
X279772788Y-102685727D01*
X279710656Y-102835727D01*
X279710655Y-102835728D01*
X279566088Y-103052089D01*
X279382089Y-103236088D01*
X279241187Y-103330235D01*
X279165727Y-103380656D01*
X279066148Y-103421903D01*
X278925322Y-103480235D01*
X278797715Y-103505617D01*
X278670109Y-103531000D01*
X278409891Y-103531000D01*
X278282285Y-103505617D01*
X278154678Y-103480235D01*
X278013852Y-103421903D01*
X277914273Y-103380656D01*
X277838813Y-103330235D01*
X277697911Y-103236088D01*
X277513912Y-103052089D01*
X277369345Y-102835728D01*
X277369344Y-102835727D01*
X277307212Y-102685727D01*
X277269765Y-102595322D01*
X277231972Y-102405322D01*
X277219000Y-102340109D01*
X277219000Y-102079891D01*
X277256793Y-101889893D01*
X277269765Y-101824678D01*
X277348466Y-101634678D01*
X277369344Y-101584273D01*
X277469571Y-101434273D01*
X277513912Y-101367911D01*
X277697911Y-101183912D01*
X277914272Y-101039345D01*
X277914273Y-101039344D01*
X278023956Y-100993912D01*
X278154678Y-100939765D01*
X278282285Y-100914383D01*
X278409891Y-100889000D01*
X278670109Y-100889000D01*
X278797714Y-100914382D01*
G37*
G36*
X258477714Y-100914382D02*
G01*
X258605322Y-100939765D01*
X258736044Y-100993912D01*
X258845727Y-101039344D01*
X258845728Y-101039345D01*
X259062089Y-101183912D01*
X259246088Y-101367911D01*
X259290429Y-101434273D01*
X259390656Y-101584273D01*
X259411534Y-101634678D01*
X259490235Y-101824678D01*
X259503207Y-101889893D01*
X259541000Y-102079891D01*
X259541000Y-102340109D01*
X259528028Y-102405322D01*
X259490235Y-102595322D01*
X259452788Y-102685727D01*
X259390656Y-102835727D01*
X259390655Y-102835728D01*
X259246088Y-103052089D01*
X259062089Y-103236088D01*
X258921187Y-103330235D01*
X258845727Y-103380656D01*
X258746148Y-103421903D01*
X258605322Y-103480235D01*
X258477715Y-103505617D01*
X258350109Y-103531000D01*
X258089891Y-103531000D01*
X257962285Y-103505617D01*
X257834678Y-103480235D01*
X257693852Y-103421903D01*
X257594273Y-103380656D01*
X257518813Y-103330235D01*
X257377911Y-103236088D01*
X257193912Y-103052089D01*
X257049345Y-102835728D01*
X257049344Y-102835727D01*
X256987212Y-102685727D01*
X256949765Y-102595322D01*
X256911972Y-102405322D01*
X256899000Y-102340109D01*
X256899000Y-102079891D01*
X256936793Y-101889893D01*
X256949765Y-101824678D01*
X257028466Y-101634678D01*
X257049344Y-101584273D01*
X257149571Y-101434273D01*
X257193912Y-101367911D01*
X257377911Y-101183912D01*
X257594272Y-101039345D01*
X257594273Y-101039344D01*
X257703956Y-100993912D01*
X257834678Y-100939765D01*
X257962285Y-100914383D01*
X258089891Y-100889000D01*
X258350109Y-100889000D01*
X258477714Y-100914382D01*
G37*
G36*
X176197714Y-100764382D02*
G01*
X176325322Y-100789765D01*
X176466148Y-100848097D01*
X176565727Y-100889344D01*
X176565728Y-100889345D01*
X176782089Y-101033912D01*
X176966088Y-101217911D01*
X177062685Y-101362479D01*
X177110656Y-101434273D01*
X177151903Y-101533852D01*
X177210235Y-101674678D01*
X177261000Y-101929893D01*
X177261000Y-102190107D01*
X177210235Y-102445322D01*
X177151903Y-102586148D01*
X177110656Y-102685727D01*
X177110655Y-102685728D01*
X176966088Y-102902089D01*
X176782089Y-103086088D01*
X176637521Y-103182685D01*
X176565727Y-103230656D01*
X176466148Y-103271903D01*
X176325322Y-103330235D01*
X176197715Y-103355617D01*
X176070109Y-103381000D01*
X175809891Y-103381000D01*
X175682286Y-103355618D01*
X175554678Y-103330235D01*
X175413852Y-103271903D01*
X175314273Y-103230656D01*
X175242479Y-103182685D01*
X175097911Y-103086088D01*
X174913912Y-102902089D01*
X174769345Y-102685728D01*
X174769344Y-102685727D01*
X174728097Y-102586148D01*
X174669765Y-102445322D01*
X174619000Y-102190107D01*
X174619000Y-101929893D01*
X174669765Y-101674678D01*
X174728097Y-101533852D01*
X174769344Y-101434273D01*
X174817315Y-101362479D01*
X174913912Y-101217911D01*
X175097911Y-101033912D01*
X175314272Y-100889345D01*
X175314273Y-100889344D01*
X175413852Y-100848097D01*
X175554678Y-100789765D01*
X175682286Y-100764382D01*
X175809891Y-100739000D01*
X176070109Y-100739000D01*
X176197714Y-100764382D01*
G37*
G36*
X196517714Y-100764382D02*
G01*
X196645322Y-100789765D01*
X196786148Y-100848097D01*
X196885727Y-100889344D01*
X196885728Y-100889345D01*
X197102089Y-101033912D01*
X197286088Y-101217911D01*
X197382685Y-101362479D01*
X197430656Y-101434273D01*
X197471903Y-101533852D01*
X197530235Y-101674678D01*
X197581000Y-101929893D01*
X197581000Y-102190107D01*
X197530235Y-102445322D01*
X197471903Y-102586148D01*
X197430656Y-102685727D01*
X197430655Y-102685728D01*
X197286088Y-102902089D01*
X197102089Y-103086088D01*
X196957521Y-103182685D01*
X196885727Y-103230656D01*
X196786148Y-103271903D01*
X196645322Y-103330235D01*
X196517715Y-103355617D01*
X196390109Y-103381000D01*
X196129891Y-103381000D01*
X196002286Y-103355618D01*
X195874678Y-103330235D01*
X195733852Y-103271903D01*
X195634273Y-103230656D01*
X195562479Y-103182685D01*
X195417911Y-103086088D01*
X195233912Y-102902089D01*
X195089345Y-102685728D01*
X195089344Y-102685727D01*
X195048097Y-102586148D01*
X194989765Y-102445322D01*
X194939000Y-102190107D01*
X194939000Y-101929893D01*
X194989765Y-101674678D01*
X195048097Y-101533852D01*
X195089344Y-101434273D01*
X195137315Y-101362479D01*
X195233912Y-101217911D01*
X195417911Y-101033912D01*
X195634272Y-100889345D01*
X195634273Y-100889344D01*
X195733852Y-100848097D01*
X195874678Y-100789765D01*
X196002286Y-100764382D01*
X196129891Y-100739000D01*
X196390109Y-100739000D01*
X196517714Y-100764382D01*
G37*
G36*
X251327714Y-100764382D02*
G01*
X251455322Y-100789765D01*
X251596148Y-100848097D01*
X251695727Y-100889344D01*
X251695728Y-100889345D01*
X251912089Y-101033912D01*
X252096088Y-101217911D01*
X252192685Y-101362479D01*
X252240656Y-101434273D01*
X252281903Y-101533852D01*
X252340235Y-101674678D01*
X252391000Y-101929893D01*
X252391000Y-102190107D01*
X252340235Y-102445322D01*
X252281903Y-102586148D01*
X252240656Y-102685727D01*
X252240655Y-102685728D01*
X252096088Y-102902089D01*
X251912089Y-103086088D01*
X251767521Y-103182685D01*
X251695727Y-103230656D01*
X251596148Y-103271903D01*
X251455322Y-103330235D01*
X251327715Y-103355617D01*
X251200109Y-103381000D01*
X250939891Y-103381000D01*
X250812286Y-103355618D01*
X250684678Y-103330235D01*
X250543852Y-103271903D01*
X250444273Y-103230656D01*
X250372479Y-103182685D01*
X250227911Y-103086088D01*
X250043912Y-102902089D01*
X249899345Y-102685728D01*
X249899344Y-102685727D01*
X249858097Y-102586148D01*
X249799765Y-102445322D01*
X249749000Y-102190107D01*
X249749000Y-101929893D01*
X249799765Y-101674678D01*
X249858097Y-101533852D01*
X249899344Y-101434273D01*
X249947315Y-101362479D01*
X250043912Y-101217911D01*
X250227911Y-101033912D01*
X250444272Y-100889345D01*
X250444273Y-100889344D01*
X250543852Y-100848097D01*
X250684678Y-100789765D01*
X250812286Y-100764382D01*
X250939891Y-100739000D01*
X251200109Y-100739000D01*
X251327714Y-100764382D01*
G37*
G36*
X231007714Y-100764382D02*
G01*
X231135322Y-100789765D01*
X231276148Y-100848097D01*
X231375727Y-100889344D01*
X231375728Y-100889345D01*
X231592089Y-101033912D01*
X231776088Y-101217911D01*
X231872685Y-101362479D01*
X231920656Y-101434273D01*
X231961903Y-101533852D01*
X232020235Y-101674678D01*
X232071000Y-101929893D01*
X232071000Y-102190107D01*
X232020235Y-102445322D01*
X231961903Y-102586148D01*
X231920656Y-102685727D01*
X231920655Y-102685728D01*
X231776088Y-102902089D01*
X231592089Y-103086088D01*
X231447521Y-103182685D01*
X231375727Y-103230656D01*
X231276148Y-103271903D01*
X231135322Y-103330235D01*
X231007715Y-103355617D01*
X230880109Y-103381000D01*
X230619891Y-103381000D01*
X230492286Y-103355618D01*
X230364678Y-103330235D01*
X230223852Y-103271903D01*
X230124273Y-103230656D01*
X230052479Y-103182685D01*
X229907911Y-103086088D01*
X229723912Y-102902089D01*
X229579345Y-102685728D01*
X229579344Y-102685727D01*
X229538097Y-102586148D01*
X229479765Y-102445322D01*
X229429000Y-102190107D01*
X229429000Y-101929893D01*
X229479765Y-101674678D01*
X229538097Y-101533852D01*
X229579344Y-101434273D01*
X229627315Y-101362479D01*
X229723912Y-101217911D01*
X229907911Y-101033912D01*
X230124272Y-100889345D01*
X230124273Y-100889344D01*
X230223852Y-100848097D01*
X230364678Y-100789765D01*
X230492286Y-100764382D01*
X230619891Y-100739000D01*
X230880109Y-100739000D01*
X231007714Y-100764382D01*
G37*
G36*
X203710387Y-100722925D02*
G01*
X203845322Y-100749765D01*
X203986148Y-100808097D01*
X204085727Y-100849344D01*
X204085728Y-100849345D01*
X204302089Y-100993912D01*
X204486088Y-101177911D01*
X204582685Y-101322479D01*
X204630656Y-101394273D01*
X204647224Y-101434272D01*
X204730235Y-101634678D01*
X204730235Y-101634680D01*
X204768029Y-101824680D01*
X204781000Y-101889893D01*
X204781000Y-102150107D01*
X204730235Y-102405322D01*
X204713667Y-102445320D01*
X204630656Y-102645727D01*
X204630655Y-102645728D01*
X204486088Y-102862089D01*
X204302089Y-103046088D01*
X204242224Y-103086088D01*
X204085727Y-103190656D01*
X203989160Y-103230655D01*
X203845322Y-103290235D01*
X203717714Y-103315618D01*
X203590109Y-103341000D01*
X203329891Y-103341000D01*
X203202286Y-103315618D01*
X203074678Y-103290235D01*
X202930840Y-103230655D01*
X202834273Y-103190656D01*
X202677776Y-103086088D01*
X202617911Y-103046088D01*
X202433912Y-102862089D01*
X202289345Y-102645728D01*
X202289344Y-102645727D01*
X202206333Y-102445320D01*
X202189765Y-102405322D01*
X202139000Y-102150107D01*
X202139000Y-101889893D01*
X202151972Y-101824680D01*
X202189765Y-101634680D01*
X202189765Y-101634678D01*
X202272776Y-101434272D01*
X202289344Y-101394273D01*
X202337315Y-101322479D01*
X202433912Y-101177911D01*
X202617911Y-100993912D01*
X202834272Y-100849345D01*
X202834273Y-100849344D01*
X202933852Y-100808097D01*
X203074678Y-100749765D01*
X203209613Y-100722925D01*
X203329891Y-100699000D01*
X203590109Y-100699000D01*
X203710387Y-100722925D01*
G37*
G36*
X224030387Y-100722925D02*
G01*
X224165322Y-100749765D01*
X224306148Y-100808097D01*
X224405727Y-100849344D01*
X224405728Y-100849345D01*
X224622089Y-100993912D01*
X224806088Y-101177911D01*
X224902685Y-101322479D01*
X224950656Y-101394273D01*
X224967224Y-101434272D01*
X225050235Y-101634678D01*
X225050235Y-101634680D01*
X225088029Y-101824680D01*
X225101000Y-101889893D01*
X225101000Y-102150107D01*
X225050235Y-102405322D01*
X225033667Y-102445320D01*
X224950656Y-102645727D01*
X224950655Y-102645728D01*
X224806088Y-102862089D01*
X224622089Y-103046088D01*
X224562224Y-103086088D01*
X224405727Y-103190656D01*
X224309160Y-103230655D01*
X224165322Y-103290235D01*
X224037714Y-103315618D01*
X223910109Y-103341000D01*
X223649891Y-103341000D01*
X223522286Y-103315618D01*
X223394678Y-103290235D01*
X223250840Y-103230655D01*
X223154273Y-103190656D01*
X222997776Y-103086088D01*
X222937911Y-103046088D01*
X222753912Y-102862089D01*
X222609345Y-102645728D01*
X222609344Y-102645727D01*
X222526333Y-102445320D01*
X222509765Y-102405322D01*
X222459000Y-102150107D01*
X222459000Y-101889893D01*
X222471972Y-101824680D01*
X222509765Y-101634680D01*
X222509765Y-101634678D01*
X222592776Y-101434272D01*
X222609344Y-101394273D01*
X222657315Y-101322479D01*
X222753912Y-101177911D01*
X222937911Y-100993912D01*
X223154272Y-100849345D01*
X223154273Y-100849344D01*
X223253852Y-100808097D01*
X223394678Y-100749765D01*
X223529613Y-100722925D01*
X223649891Y-100699000D01*
X223910109Y-100699000D01*
X224030387Y-100722925D01*
G37*
G36*
X276364903Y-98467075D02*
G01*
X276560960Y-98548284D01*
X276592571Y-98561378D01*
X276797466Y-98698285D01*
X276971715Y-98872534D01*
X277108622Y-99077429D01*
X277202925Y-99305097D01*
X277251000Y-99546787D01*
X277251000Y-99793213D01*
X277202925Y-100034903D01*
X277108622Y-100262571D01*
X276971715Y-100467466D01*
X276797466Y-100641715D01*
X276592571Y-100778622D01*
X276592570Y-100778623D01*
X276592569Y-100778623D01*
X276364903Y-100872925D01*
X276123214Y-100921000D01*
X275876786Y-100921000D01*
X275635097Y-100872925D01*
X275407431Y-100778623D01*
X275407430Y-100778623D01*
X275407429Y-100778622D01*
X275202534Y-100641715D01*
X275028285Y-100467466D01*
X274891378Y-100262571D01*
X274797075Y-100034903D01*
X274749000Y-99793213D01*
X274749000Y-99546787D01*
X274797075Y-99305097D01*
X274891378Y-99077429D01*
X275028285Y-98872534D01*
X275202534Y-98698285D01*
X275407429Y-98561378D01*
X275439041Y-98548284D01*
X275635097Y-98467075D01*
X275876786Y-98419000D01*
X276123214Y-98419000D01*
X276364903Y-98467075D01*
G37*
G36*
X271284903Y-98467075D02*
G01*
X271480960Y-98548284D01*
X271512571Y-98561378D01*
X271717466Y-98698285D01*
X271891715Y-98872534D01*
X272028622Y-99077429D01*
X272122925Y-99305097D01*
X272171000Y-99546787D01*
X272171000Y-99793213D01*
X272122925Y-100034903D01*
X272028622Y-100262571D01*
X271891715Y-100467466D01*
X271717466Y-100641715D01*
X271512571Y-100778622D01*
X271512570Y-100778623D01*
X271512569Y-100778623D01*
X271284903Y-100872925D01*
X271043214Y-100921000D01*
X270796786Y-100921000D01*
X270555097Y-100872925D01*
X270327431Y-100778623D01*
X270327430Y-100778623D01*
X270327429Y-100778622D01*
X270122534Y-100641715D01*
X269948285Y-100467466D01*
X269811378Y-100262571D01*
X269717075Y-100034903D01*
X269669000Y-99793213D01*
X269669000Y-99546787D01*
X269717075Y-99305097D01*
X269811378Y-99077429D01*
X269948285Y-98872534D01*
X270122534Y-98698285D01*
X270327429Y-98561378D01*
X270359041Y-98548284D01*
X270555097Y-98467075D01*
X270796786Y-98419000D01*
X271043214Y-98419000D01*
X271284903Y-98467075D01*
G37*
G36*
X261124903Y-98467075D02*
G01*
X261320960Y-98548284D01*
X261352571Y-98561378D01*
X261557466Y-98698285D01*
X261731715Y-98872534D01*
X261868622Y-99077429D01*
X261962925Y-99305097D01*
X262011000Y-99546787D01*
X262011000Y-99793213D01*
X261962925Y-100034903D01*
X261868622Y-100262571D01*
X261731715Y-100467466D01*
X261557466Y-100641715D01*
X261352571Y-100778622D01*
X261352570Y-100778623D01*
X261352569Y-100778623D01*
X261124903Y-100872925D01*
X260883214Y-100921000D01*
X260636786Y-100921000D01*
X260395097Y-100872925D01*
X260167431Y-100778623D01*
X260167430Y-100778623D01*
X260167429Y-100778622D01*
X259962534Y-100641715D01*
X259788285Y-100467466D01*
X259651378Y-100262571D01*
X259557075Y-100034903D01*
X259509000Y-99793213D01*
X259509000Y-99546787D01*
X259557075Y-99305097D01*
X259651378Y-99077429D01*
X259788285Y-98872534D01*
X259962534Y-98698285D01*
X260167429Y-98561378D01*
X260199041Y-98548284D01*
X260395097Y-98467075D01*
X260636786Y-98419000D01*
X260883214Y-98419000D01*
X261124903Y-98467075D01*
G37*
G36*
X266204903Y-98467075D02*
G01*
X266400960Y-98548284D01*
X266432571Y-98561378D01*
X266637466Y-98698285D01*
X266811715Y-98872534D01*
X266948622Y-99077429D01*
X267042925Y-99305097D01*
X267091000Y-99546787D01*
X267091000Y-99793213D01*
X267042925Y-100034903D01*
X266948622Y-100262571D01*
X266811715Y-100467466D01*
X266637466Y-100641715D01*
X266432571Y-100778622D01*
X266432570Y-100778623D01*
X266432569Y-100778623D01*
X266204903Y-100872925D01*
X265963214Y-100921000D01*
X265716786Y-100921000D01*
X265475097Y-100872925D01*
X265247431Y-100778623D01*
X265247430Y-100778623D01*
X265247429Y-100778622D01*
X265042534Y-100641715D01*
X264868285Y-100467466D01*
X264731378Y-100262571D01*
X264637075Y-100034903D01*
X264589000Y-99793213D01*
X264589000Y-99546787D01*
X264637075Y-99305097D01*
X264731378Y-99077429D01*
X264868285Y-98872534D01*
X265042534Y-98698285D01*
X265247429Y-98561378D01*
X265279041Y-98548284D01*
X265475097Y-98467075D01*
X265716786Y-98419000D01*
X265963214Y-98419000D01*
X266204903Y-98467075D01*
G37*
G36*
X183924903Y-98317075D02*
G01*
X184056003Y-98371378D01*
X184152571Y-98411378D01*
X184357466Y-98548285D01*
X184531715Y-98722534D01*
X184641896Y-98887431D01*
X184668623Y-98927431D01*
X184762925Y-99155097D01*
X184811000Y-99396786D01*
X184811000Y-99643214D01*
X184762925Y-99884903D01*
X184668622Y-100112571D01*
X184531715Y-100317466D01*
X184357466Y-100491715D01*
X184152571Y-100628622D01*
X184152570Y-100628623D01*
X184152569Y-100628623D01*
X183924903Y-100722925D01*
X183683214Y-100771000D01*
X183436786Y-100771000D01*
X183195097Y-100722925D01*
X182967431Y-100628623D01*
X182967430Y-100628623D01*
X182967429Y-100628622D01*
X182762534Y-100491715D01*
X182588285Y-100317466D01*
X182451378Y-100112571D01*
X182357075Y-99884903D01*
X182309000Y-99643214D01*
X182309000Y-99396786D01*
X182357075Y-99155097D01*
X182451377Y-98927431D01*
X182478104Y-98887431D01*
X182588285Y-98722534D01*
X182762534Y-98548285D01*
X182967429Y-98411378D01*
X183063998Y-98371378D01*
X183195097Y-98317075D01*
X183436786Y-98269000D01*
X183683214Y-98269000D01*
X183924903Y-98317075D01*
G37*
G36*
X178844903Y-98317075D02*
G01*
X178976003Y-98371378D01*
X179072571Y-98411378D01*
X179277466Y-98548285D01*
X179451715Y-98722534D01*
X179561896Y-98887431D01*
X179588623Y-98927431D01*
X179682925Y-99155097D01*
X179731000Y-99396786D01*
X179731000Y-99643214D01*
X179682925Y-99884903D01*
X179588622Y-100112571D01*
X179451715Y-100317466D01*
X179277466Y-100491715D01*
X179072571Y-100628622D01*
X179072570Y-100628623D01*
X179072569Y-100628623D01*
X178844903Y-100722925D01*
X178603214Y-100771000D01*
X178356786Y-100771000D01*
X178115097Y-100722925D01*
X177887431Y-100628623D01*
X177887430Y-100628623D01*
X177887429Y-100628622D01*
X177682534Y-100491715D01*
X177508285Y-100317466D01*
X177371378Y-100112571D01*
X177277075Y-99884903D01*
X177229000Y-99643214D01*
X177229000Y-99396786D01*
X177277075Y-99155097D01*
X177371377Y-98927431D01*
X177398104Y-98887431D01*
X177508285Y-98722534D01*
X177682534Y-98548285D01*
X177887429Y-98411378D01*
X177983998Y-98371378D01*
X178115097Y-98317075D01*
X178356786Y-98269000D01*
X178603214Y-98269000D01*
X178844903Y-98317075D01*
G37*
G36*
X194084903Y-98317075D02*
G01*
X194216003Y-98371378D01*
X194312571Y-98411378D01*
X194517466Y-98548285D01*
X194691715Y-98722534D01*
X194801896Y-98887431D01*
X194828623Y-98927431D01*
X194922925Y-99155097D01*
X194971000Y-99396786D01*
X194971000Y-99643214D01*
X194922925Y-99884903D01*
X194828622Y-100112571D01*
X194691715Y-100317466D01*
X194517466Y-100491715D01*
X194312571Y-100628622D01*
X194312570Y-100628623D01*
X194312569Y-100628623D01*
X194084903Y-100722925D01*
X193843214Y-100771000D01*
X193596786Y-100771000D01*
X193355097Y-100722925D01*
X193127431Y-100628623D01*
X193127430Y-100628623D01*
X193127429Y-100628622D01*
X192922534Y-100491715D01*
X192748285Y-100317466D01*
X192611378Y-100112571D01*
X192517075Y-99884903D01*
X192469000Y-99643214D01*
X192469000Y-99396786D01*
X192517075Y-99155097D01*
X192611377Y-98927431D01*
X192638104Y-98887431D01*
X192748285Y-98722534D01*
X192922534Y-98548285D01*
X193127429Y-98411378D01*
X193223998Y-98371378D01*
X193355097Y-98317075D01*
X193596786Y-98269000D01*
X193843214Y-98269000D01*
X194084903Y-98317075D01*
G37*
G36*
X189004903Y-98317075D02*
G01*
X189136003Y-98371378D01*
X189232571Y-98411378D01*
X189437466Y-98548285D01*
X189611715Y-98722534D01*
X189721896Y-98887431D01*
X189748623Y-98927431D01*
X189842925Y-99155097D01*
X189891000Y-99396786D01*
X189891000Y-99643214D01*
X189842925Y-99884903D01*
X189748622Y-100112571D01*
X189611715Y-100317466D01*
X189437466Y-100491715D01*
X189232571Y-100628622D01*
X189232570Y-100628623D01*
X189232569Y-100628623D01*
X189004903Y-100722925D01*
X188763214Y-100771000D01*
X188516786Y-100771000D01*
X188275097Y-100722925D01*
X188047431Y-100628623D01*
X188047430Y-100628623D01*
X188047429Y-100628622D01*
X187842534Y-100491715D01*
X187668285Y-100317466D01*
X187531378Y-100112571D01*
X187437075Y-99884903D01*
X187389000Y-99643214D01*
X187389000Y-99396786D01*
X187437075Y-99155097D01*
X187531377Y-98927431D01*
X187558104Y-98887431D01*
X187668285Y-98722534D01*
X187842534Y-98548285D01*
X188047429Y-98411378D01*
X188143998Y-98371378D01*
X188275097Y-98317075D01*
X188516786Y-98269000D01*
X188763214Y-98269000D01*
X189004903Y-98317075D01*
G37*
G36*
X233654903Y-98317075D02*
G01*
X233786003Y-98371378D01*
X233882571Y-98411378D01*
X234087466Y-98548285D01*
X234261715Y-98722534D01*
X234371896Y-98887431D01*
X234398623Y-98927431D01*
X234492925Y-99155097D01*
X234541000Y-99396786D01*
X234541000Y-99643214D01*
X234492925Y-99884903D01*
X234398622Y-100112571D01*
X234261715Y-100317466D01*
X234087466Y-100491715D01*
X233882571Y-100628622D01*
X233882570Y-100628623D01*
X233882569Y-100628623D01*
X233654903Y-100722925D01*
X233413214Y-100771000D01*
X233166786Y-100771000D01*
X232925097Y-100722925D01*
X232697431Y-100628623D01*
X232697430Y-100628623D01*
X232697429Y-100628622D01*
X232492534Y-100491715D01*
X232318285Y-100317466D01*
X232181378Y-100112571D01*
X232087075Y-99884903D01*
X232039000Y-99643214D01*
X232039000Y-99396786D01*
X232087075Y-99155097D01*
X232181377Y-98927431D01*
X232208104Y-98887431D01*
X232318285Y-98722534D01*
X232492534Y-98548285D01*
X232697429Y-98411378D01*
X232793998Y-98371378D01*
X232925097Y-98317075D01*
X233166786Y-98269000D01*
X233413214Y-98269000D01*
X233654903Y-98317075D01*
G37*
G36*
X238734903Y-98317075D02*
G01*
X238866003Y-98371378D01*
X238962571Y-98411378D01*
X239167466Y-98548285D01*
X239341715Y-98722534D01*
X239451896Y-98887431D01*
X239478623Y-98927431D01*
X239572925Y-99155097D01*
X239621000Y-99396786D01*
X239621000Y-99643214D01*
X239572925Y-99884903D01*
X239478622Y-100112571D01*
X239341715Y-100317466D01*
X239167466Y-100491715D01*
X238962571Y-100628622D01*
X238962570Y-100628623D01*
X238962569Y-100628623D01*
X238734903Y-100722925D01*
X238493214Y-100771000D01*
X238246786Y-100771000D01*
X238005097Y-100722925D01*
X237777431Y-100628623D01*
X237777430Y-100628623D01*
X237777429Y-100628622D01*
X237572534Y-100491715D01*
X237398285Y-100317466D01*
X237261378Y-100112571D01*
X237167075Y-99884903D01*
X237119000Y-99643214D01*
X237119000Y-99396786D01*
X237167075Y-99155097D01*
X237261377Y-98927431D01*
X237288104Y-98887431D01*
X237398285Y-98722534D01*
X237572534Y-98548285D01*
X237777429Y-98411378D01*
X237873998Y-98371378D01*
X238005097Y-98317075D01*
X238246786Y-98269000D01*
X238493214Y-98269000D01*
X238734903Y-98317075D01*
G37*
G36*
X248894903Y-98317075D02*
G01*
X249026003Y-98371378D01*
X249122571Y-98411378D01*
X249327466Y-98548285D01*
X249501715Y-98722534D01*
X249611896Y-98887431D01*
X249638623Y-98927431D01*
X249732925Y-99155097D01*
X249781000Y-99396786D01*
X249781000Y-99643214D01*
X249732925Y-99884903D01*
X249638622Y-100112571D01*
X249501715Y-100317466D01*
X249327466Y-100491715D01*
X249122571Y-100628622D01*
X249122570Y-100628623D01*
X249122569Y-100628623D01*
X248894903Y-100722925D01*
X248653214Y-100771000D01*
X248406786Y-100771000D01*
X248165097Y-100722925D01*
X247937431Y-100628623D01*
X247937430Y-100628623D01*
X247937429Y-100628622D01*
X247732534Y-100491715D01*
X247558285Y-100317466D01*
X247421378Y-100112571D01*
X247327075Y-99884903D01*
X247279000Y-99643214D01*
X247279000Y-99396786D01*
X247327075Y-99155097D01*
X247421377Y-98927431D01*
X247448104Y-98887431D01*
X247558285Y-98722534D01*
X247732534Y-98548285D01*
X247937429Y-98411378D01*
X248033998Y-98371378D01*
X248165097Y-98317075D01*
X248406786Y-98269000D01*
X248653214Y-98269000D01*
X248894903Y-98317075D01*
G37*
G36*
X243814903Y-98317075D02*
G01*
X243946003Y-98371378D01*
X244042571Y-98411378D01*
X244247466Y-98548285D01*
X244421715Y-98722534D01*
X244531896Y-98887431D01*
X244558623Y-98927431D01*
X244652925Y-99155097D01*
X244701000Y-99396786D01*
X244701000Y-99643214D01*
X244652925Y-99884903D01*
X244558622Y-100112571D01*
X244421715Y-100317466D01*
X244247466Y-100491715D01*
X244042571Y-100628622D01*
X244042570Y-100628623D01*
X244042569Y-100628623D01*
X243814903Y-100722925D01*
X243573214Y-100771000D01*
X243326786Y-100771000D01*
X243085097Y-100722925D01*
X242857431Y-100628623D01*
X242857430Y-100628623D01*
X242857429Y-100628622D01*
X242652534Y-100491715D01*
X242478285Y-100317466D01*
X242341378Y-100112571D01*
X242247075Y-99884903D01*
X242199000Y-99643214D01*
X242199000Y-99396786D01*
X242247075Y-99155097D01*
X242341377Y-98927431D01*
X242368104Y-98887431D01*
X242478285Y-98722534D01*
X242652534Y-98548285D01*
X242857429Y-98411378D01*
X242953998Y-98371378D01*
X243085097Y-98317075D01*
X243326786Y-98269000D01*
X243573214Y-98269000D01*
X243814903Y-98317075D01*
G37*
G36*
X221564307Y-98269000D02*
G01*
X221604903Y-98277075D01*
X221832571Y-98371378D01*
X222037466Y-98508285D01*
X222211715Y-98682534D01*
X222348622Y-98887429D01*
X222348623Y-98887431D01*
X222442925Y-99115097D01*
X222491000Y-99356786D01*
X222491000Y-99603214D01*
X222442925Y-99844903D01*
X222426357Y-99884903D01*
X222348622Y-100072571D01*
X222211715Y-100277466D01*
X222037466Y-100451715D01*
X221832571Y-100588622D01*
X221832570Y-100588623D01*
X221832569Y-100588623D01*
X221604903Y-100682925D01*
X221363214Y-100731000D01*
X221116786Y-100731000D01*
X220875097Y-100682925D01*
X220647431Y-100588623D01*
X220647430Y-100588623D01*
X220647429Y-100588622D01*
X220442534Y-100451715D01*
X220268285Y-100277466D01*
X220131378Y-100072571D01*
X220053644Y-99884903D01*
X220037075Y-99844903D01*
X219989000Y-99603214D01*
X219989000Y-99356786D01*
X220037075Y-99115097D01*
X220131377Y-98887431D01*
X220131378Y-98887429D01*
X220268285Y-98682534D01*
X220442534Y-98508285D01*
X220647429Y-98371378D01*
X220875097Y-98277075D01*
X220915693Y-98269000D01*
X221116786Y-98229000D01*
X221363214Y-98229000D01*
X221564307Y-98269000D01*
G37*
G36*
X211404307Y-98269000D02*
G01*
X211444903Y-98277075D01*
X211672571Y-98371378D01*
X211877466Y-98508285D01*
X212051715Y-98682534D01*
X212188622Y-98887429D01*
X212188623Y-98887431D01*
X212282925Y-99115097D01*
X212331000Y-99356786D01*
X212331000Y-99603214D01*
X212282925Y-99844903D01*
X212266357Y-99884903D01*
X212188622Y-100072571D01*
X212051715Y-100277466D01*
X211877466Y-100451715D01*
X211672571Y-100588622D01*
X211672570Y-100588623D01*
X211672569Y-100588623D01*
X211444903Y-100682925D01*
X211203214Y-100731000D01*
X210956786Y-100731000D01*
X210715097Y-100682925D01*
X210487431Y-100588623D01*
X210487430Y-100588623D01*
X210487429Y-100588622D01*
X210282534Y-100451715D01*
X210108285Y-100277466D01*
X209971378Y-100072571D01*
X209893644Y-99884903D01*
X209877075Y-99844903D01*
X209829000Y-99603214D01*
X209829000Y-99356786D01*
X209877075Y-99115097D01*
X209971377Y-98887431D01*
X209971378Y-98887429D01*
X210108285Y-98682534D01*
X210282534Y-98508285D01*
X210487429Y-98371378D01*
X210715097Y-98277075D01*
X210755693Y-98269000D01*
X210956786Y-98229000D01*
X211203214Y-98229000D01*
X211404307Y-98269000D01*
G37*
G36*
X206324307Y-98269000D02*
G01*
X206364903Y-98277075D01*
X206592571Y-98371378D01*
X206797466Y-98508285D01*
X206971715Y-98682534D01*
X207108622Y-98887429D01*
X207108623Y-98887431D01*
X207202925Y-99115097D01*
X207251000Y-99356786D01*
X207251000Y-99603214D01*
X207202925Y-99844903D01*
X207186357Y-99884903D01*
X207108622Y-100072571D01*
X206971715Y-100277466D01*
X206797466Y-100451715D01*
X206592571Y-100588622D01*
X206592570Y-100588623D01*
X206592569Y-100588623D01*
X206364903Y-100682925D01*
X206123214Y-100731000D01*
X205876786Y-100731000D01*
X205635097Y-100682925D01*
X205407431Y-100588623D01*
X205407430Y-100588623D01*
X205407429Y-100588622D01*
X205202534Y-100451715D01*
X205028285Y-100277466D01*
X204891378Y-100072571D01*
X204813644Y-99884903D01*
X204797075Y-99844903D01*
X204749000Y-99603214D01*
X204749000Y-99356786D01*
X204797075Y-99115097D01*
X204891377Y-98887431D01*
X204891378Y-98887429D01*
X205028285Y-98682534D01*
X205202534Y-98508285D01*
X205407429Y-98371378D01*
X205635097Y-98277075D01*
X205675693Y-98269000D01*
X205876786Y-98229000D01*
X206123214Y-98229000D01*
X206324307Y-98269000D01*
G37*
G36*
X216484307Y-98269000D02*
G01*
X216524903Y-98277075D01*
X216752571Y-98371378D01*
X216957466Y-98508285D01*
X217131715Y-98682534D01*
X217268622Y-98887429D01*
X217268623Y-98887431D01*
X217362925Y-99115097D01*
X217411000Y-99356786D01*
X217411000Y-99603214D01*
X217362925Y-99844903D01*
X217346357Y-99884903D01*
X217268622Y-100072571D01*
X217131715Y-100277466D01*
X216957466Y-100451715D01*
X216752571Y-100588622D01*
X216752570Y-100588623D01*
X216752569Y-100588623D01*
X216524903Y-100682925D01*
X216283214Y-100731000D01*
X216036786Y-100731000D01*
X215795097Y-100682925D01*
X215567431Y-100588623D01*
X215567430Y-100588623D01*
X215567429Y-100588622D01*
X215362534Y-100451715D01*
X215188285Y-100277466D01*
X215051378Y-100072571D01*
X214973644Y-99884903D01*
X214957075Y-99844903D01*
X214909000Y-99603214D01*
X214909000Y-99356786D01*
X214957075Y-99115097D01*
X215051377Y-98887431D01*
X215051378Y-98887429D01*
X215188285Y-98682534D01*
X215362534Y-98508285D01*
X215567429Y-98371378D01*
X215795097Y-98277075D01*
X215835693Y-98269000D01*
X216036786Y-98229000D01*
X216283214Y-98229000D01*
X216484307Y-98269000D01*
G37*
G36*
X171127850Y-88502530D02*
G01*
X171156413Y-88511194D01*
X171182734Y-88525263D01*
X171205804Y-88544196D01*
X171224737Y-88567266D01*
X171238806Y-88593587D01*
X171247470Y-88622150D01*
X171251000Y-88657990D01*
X171251000Y-91602010D01*
X171247470Y-91637850D01*
X171238806Y-91666413D01*
X171224737Y-91692734D01*
X171205804Y-91715804D01*
X171182734Y-91734737D01*
X171156413Y-91748806D01*
X171127850Y-91757470D01*
X171092010Y-91761000D01*
X167207990Y-91761000D01*
X167172150Y-91757470D01*
X167143587Y-91748806D01*
X167117266Y-91734737D01*
X167094196Y-91715804D01*
X167075263Y-91692734D01*
X167061194Y-91666413D01*
X167052530Y-91637850D01*
X167049000Y-91602010D01*
X167049000Y-88657990D01*
X167052530Y-88622150D01*
X167061194Y-88593587D01*
X167075263Y-88567266D01*
X167094196Y-88544196D01*
X167117266Y-88525263D01*
X167143587Y-88511194D01*
X167172150Y-88502530D01*
X167207990Y-88499000D01*
X171092010Y-88499000D01*
X171127850Y-88502530D01*
G37*
G36*
X169939730Y-84562599D02*
G01*
X170247179Y-84655863D01*
X170530518Y-84807311D01*
X170778871Y-85011129D01*
X170982689Y-85259482D01*
X171134137Y-85542821D01*
X171227401Y-85850270D01*
X171258891Y-86170000D01*
X171227401Y-86489730D01*
X171134137Y-86797179D01*
X170982689Y-87080518D01*
X170778871Y-87328871D01*
X170530518Y-87532689D01*
X170247179Y-87684137D01*
X169939730Y-87777401D01*
X169700122Y-87801000D01*
X168599878Y-87801000D01*
X168360270Y-87777401D01*
X168052821Y-87684137D01*
X167769482Y-87532689D01*
X167521129Y-87328871D01*
X167317311Y-87080518D01*
X167165863Y-86797179D01*
X167072599Y-86489730D01*
X167041109Y-86170000D01*
X167072599Y-85850270D01*
X167165863Y-85542821D01*
X167317311Y-85259482D01*
X167521129Y-85011129D01*
X167769482Y-84807311D01*
X168052821Y-84655863D01*
X168360270Y-84562599D01*
X168599878Y-84539000D01*
X169700122Y-84539000D01*
X169939730Y-84562599D01*
G37*
G36*
X275423241Y-84104760D02*
G01*
X275687305Y-84214139D01*
X275924958Y-84372934D01*
X276127066Y-84575042D01*
X276285861Y-84812695D01*
X276395240Y-85076759D01*
X276451000Y-85357088D01*
X276451000Y-85642912D01*
X276395240Y-85923241D01*
X276285861Y-86187305D01*
X276127066Y-86424958D01*
X275924958Y-86627066D01*
X275687305Y-86785861D01*
X275423241Y-86895240D01*
X275142912Y-86951000D01*
X274857088Y-86951000D01*
X274576759Y-86895240D01*
X274312695Y-86785861D01*
X274075042Y-86627066D01*
X273872934Y-86424958D01*
X273714139Y-86187305D01*
X273604760Y-85923241D01*
X273549000Y-85642912D01*
X273549000Y-85357088D01*
X273604760Y-85076759D01*
X273714139Y-84812695D01*
X273872934Y-84575042D01*
X274075042Y-84372934D01*
X274312695Y-84214139D01*
X274576759Y-84104760D01*
X274857088Y-84049000D01*
X275142912Y-84049000D01*
X275423241Y-84104760D01*
G37*
G36*
X271223241Y-84104760D02*
G01*
X271487305Y-84214139D01*
X271724958Y-84372934D01*
X271927066Y-84575042D01*
X272085861Y-84812695D01*
X272195240Y-85076759D01*
X272251000Y-85357088D01*
X272251000Y-85642912D01*
X272195240Y-85923241D01*
X272085861Y-86187305D01*
X271927066Y-86424958D01*
X271724958Y-86627066D01*
X271487305Y-86785861D01*
X271223241Y-86895240D01*
X270942912Y-86951000D01*
X270657088Y-86951000D01*
X270376759Y-86895240D01*
X270112695Y-86785861D01*
X269875042Y-86627066D01*
X269672934Y-86424958D01*
X269514139Y-86187305D01*
X269404760Y-85923241D01*
X269349000Y-85642912D01*
X269349000Y-85357088D01*
X269404760Y-85076759D01*
X269514139Y-84812695D01*
X269672934Y-84575042D01*
X269875042Y-84372934D01*
X270112695Y-84214139D01*
X270376759Y-84104760D01*
X270657088Y-84049000D01*
X270942912Y-84049000D01*
X271223241Y-84104760D01*
G37*
G36*
X248423241Y-84104760D02*
G01*
X248687305Y-84214139D01*
X248924958Y-84372934D01*
X249127066Y-84575042D01*
X249285861Y-84812695D01*
X249395240Y-85076759D01*
X249451000Y-85357088D01*
X249451000Y-85642912D01*
X249395240Y-85923241D01*
X249285861Y-86187305D01*
X249127066Y-86424958D01*
X248924958Y-86627066D01*
X248687305Y-86785861D01*
X248423241Y-86895240D01*
X248142912Y-86951000D01*
X247857088Y-86951000D01*
X247576759Y-86895240D01*
X247312695Y-86785861D01*
X247075042Y-86627066D01*
X246872934Y-86424958D01*
X246714139Y-86187305D01*
X246604760Y-85923241D01*
X246549000Y-85642912D01*
X246549000Y-85357088D01*
X246604760Y-85076759D01*
X246714139Y-84812695D01*
X246872934Y-84575042D01*
X247075042Y-84372934D01*
X247312695Y-84214139D01*
X247576759Y-84104760D01*
X247857088Y-84049000D01*
X248142912Y-84049000D01*
X248423241Y-84104760D01*
G37*
G36*
X244223241Y-84104760D02*
G01*
X244487305Y-84214139D01*
X244724958Y-84372934D01*
X244927066Y-84575042D01*
X245085861Y-84812695D01*
X245195240Y-85076759D01*
X245251000Y-85357088D01*
X245251000Y-85642912D01*
X245195240Y-85923241D01*
X245085861Y-86187305D01*
X244927066Y-86424958D01*
X244724958Y-86627066D01*
X244487305Y-86785861D01*
X244223241Y-86895240D01*
X243942912Y-86951000D01*
X243657088Y-86951000D01*
X243376759Y-86895240D01*
X243112695Y-86785861D01*
X242875042Y-86627066D01*
X242672934Y-86424958D01*
X242514139Y-86187305D01*
X242404760Y-85923241D01*
X242349000Y-85642912D01*
X242349000Y-85357088D01*
X242404760Y-85076759D01*
X242514139Y-84812695D01*
X242672934Y-84575042D01*
X242875042Y-84372934D01*
X243112695Y-84214139D01*
X243376759Y-84104760D01*
X243657088Y-84049000D01*
X243942912Y-84049000D01*
X244223241Y-84104760D01*
G37*
G36*
X221423241Y-84104760D02*
G01*
X221687305Y-84214139D01*
X221924958Y-84372934D01*
X222127066Y-84575042D01*
X222285861Y-84812695D01*
X222395240Y-85076759D01*
X222451000Y-85357088D01*
X222451000Y-85642912D01*
X222395240Y-85923241D01*
X222285861Y-86187305D01*
X222127066Y-86424958D01*
X221924958Y-86627066D01*
X221687305Y-86785861D01*
X221423241Y-86895240D01*
X221142912Y-86951000D01*
X220857088Y-86951000D01*
X220576759Y-86895240D01*
X220312695Y-86785861D01*
X220075042Y-86627066D01*
X219872934Y-86424958D01*
X219714139Y-86187305D01*
X219604760Y-85923241D01*
X219549000Y-85642912D01*
X219549000Y-85357088D01*
X219604760Y-85076759D01*
X219714139Y-84812695D01*
X219872934Y-84575042D01*
X220075042Y-84372934D01*
X220312695Y-84214139D01*
X220576759Y-84104760D01*
X220857088Y-84049000D01*
X221142912Y-84049000D01*
X221423241Y-84104760D01*
G37*
G36*
X217223241Y-84104760D02*
G01*
X217487305Y-84214139D01*
X217724958Y-84372934D01*
X217927066Y-84575042D01*
X218085861Y-84812695D01*
X218195240Y-85076759D01*
X218251000Y-85357088D01*
X218251000Y-85642912D01*
X218195240Y-85923241D01*
X218085861Y-86187305D01*
X217927066Y-86424958D01*
X217724958Y-86627066D01*
X217487305Y-86785861D01*
X217223241Y-86895240D01*
X216942912Y-86951000D01*
X216657088Y-86951000D01*
X216376759Y-86895240D01*
X216112695Y-86785861D01*
X215875042Y-86627066D01*
X215672934Y-86424958D01*
X215514139Y-86187305D01*
X215404760Y-85923241D01*
X215349000Y-85642912D01*
X215349000Y-85357088D01*
X215404760Y-85076759D01*
X215514139Y-84812695D01*
X215672934Y-84575042D01*
X215875042Y-84372934D01*
X216112695Y-84214139D01*
X216376759Y-84104760D01*
X216657088Y-84049000D01*
X216942912Y-84049000D01*
X217223241Y-84104760D01*
G37*
G36*
X194423241Y-84104760D02*
G01*
X194687305Y-84214139D01*
X194924958Y-84372934D01*
X195127066Y-84575042D01*
X195285861Y-84812695D01*
X195395240Y-85076759D01*
X195451000Y-85357088D01*
X195451000Y-85642912D01*
X195395240Y-85923241D01*
X195285861Y-86187305D01*
X195127066Y-86424958D01*
X194924958Y-86627066D01*
X194687305Y-86785861D01*
X194423241Y-86895240D01*
X194142912Y-86951000D01*
X193857088Y-86951000D01*
X193576759Y-86895240D01*
X193312695Y-86785861D01*
X193075042Y-86627066D01*
X192872934Y-86424958D01*
X192714139Y-86187305D01*
X192604760Y-85923241D01*
X192549000Y-85642912D01*
X192549000Y-85357088D01*
X192604760Y-85076759D01*
X192714139Y-84812695D01*
X192872934Y-84575042D01*
X193075042Y-84372934D01*
X193312695Y-84214139D01*
X193576759Y-84104760D01*
X193857088Y-84049000D01*
X194142912Y-84049000D01*
X194423241Y-84104760D01*
G37*
G36*
X190223241Y-84104760D02*
G01*
X190487305Y-84214139D01*
X190724958Y-84372934D01*
X190927066Y-84575042D01*
X191085861Y-84812695D01*
X191195240Y-85076759D01*
X191251000Y-85357088D01*
X191251000Y-85642912D01*
X191195240Y-85923241D01*
X191085861Y-86187305D01*
X190927066Y-86424958D01*
X190724958Y-86627066D01*
X190487305Y-86785861D01*
X190223241Y-86895240D01*
X189942912Y-86951000D01*
X189657088Y-86951000D01*
X189376759Y-86895240D01*
X189112695Y-86785861D01*
X188875042Y-86627066D01*
X188672934Y-86424958D01*
X188514139Y-86187305D01*
X188404760Y-85923241D01*
X188349000Y-85642912D01*
X188349000Y-85357088D01*
X188404760Y-85076759D01*
X188514139Y-84812695D01*
X188672934Y-84575042D01*
X188875042Y-84372934D01*
X189112695Y-84214139D01*
X189376759Y-84104760D01*
X189657088Y-84049000D01*
X189942912Y-84049000D01*
X190223241Y-84104760D01*
G37*
G36*
X205358254Y-82847818D02*
G01*
X205731511Y-83002426D01*
X205731513Y-83002427D01*
X206067436Y-83226884D01*
X206353116Y-83512564D01*
X206577574Y-83848489D01*
X206732182Y-84221746D01*
X206811000Y-84617993D01*
X206811000Y-85022007D01*
X206732182Y-85418254D01*
X206577574Y-85791511D01*
X206577573Y-85791513D01*
X206353116Y-86127436D01*
X206067436Y-86413116D01*
X205731513Y-86637573D01*
X205731512Y-86637574D01*
X205731511Y-86637574D01*
X205358254Y-86792182D01*
X204962007Y-86871000D01*
X204557993Y-86871000D01*
X204161746Y-86792182D01*
X203788489Y-86637574D01*
X203788488Y-86637574D01*
X203788487Y-86637573D01*
X203452564Y-86413116D01*
X203166884Y-86127436D01*
X202942427Y-85791513D01*
X202942426Y-85791511D01*
X202787818Y-85418254D01*
X202709000Y-85022007D01*
X202709000Y-84617993D01*
X202787818Y-84221746D01*
X202942426Y-83848489D01*
X203166884Y-83512564D01*
X203452564Y-83226884D01*
X203788487Y-83002427D01*
X203788489Y-83002426D01*
X204161746Y-82847818D01*
X204557993Y-82769000D01*
X204962007Y-82769000D01*
X205358254Y-82847818D01*
G37*
G36*
X194423241Y-78604760D02*
G01*
X194687305Y-78714139D01*
X194924958Y-78872934D01*
X195127066Y-79075042D01*
X195285861Y-79312695D01*
X195395240Y-79576759D01*
X195451000Y-79857088D01*
X195451000Y-80142912D01*
X195395240Y-80423241D01*
X195285861Y-80687305D01*
X195127066Y-80924958D01*
X194924958Y-81127066D01*
X194687305Y-81285861D01*
X194423241Y-81395240D01*
X194142912Y-81451000D01*
X193857088Y-81451000D01*
X193576759Y-81395240D01*
X193312695Y-81285861D01*
X193075042Y-81127066D01*
X192872934Y-80924958D01*
X192714139Y-80687305D01*
X192604760Y-80423241D01*
X192549000Y-80142912D01*
X192549000Y-79857088D01*
X192604760Y-79576759D01*
X192714139Y-79312695D01*
X192872934Y-79075042D01*
X193075042Y-78872934D01*
X193312695Y-78714139D01*
X193576759Y-78604760D01*
X193857088Y-78549000D01*
X194142912Y-78549000D01*
X194423241Y-78604760D01*
G37*
G36*
X190223241Y-78604760D02*
G01*
X190487305Y-78714139D01*
X190724958Y-78872934D01*
X190927066Y-79075042D01*
X191085861Y-79312695D01*
X191195240Y-79576759D01*
X191251000Y-79857088D01*
X191251000Y-80142912D01*
X191195240Y-80423241D01*
X191085861Y-80687305D01*
X190927066Y-80924958D01*
X190724958Y-81127066D01*
X190487305Y-81285861D01*
X190223241Y-81395240D01*
X189942912Y-81451000D01*
X189657088Y-81451000D01*
X189376759Y-81395240D01*
X189112695Y-81285861D01*
X188875042Y-81127066D01*
X188672934Y-80924958D01*
X188514139Y-80687305D01*
X188404760Y-80423241D01*
X188349000Y-80142912D01*
X188349000Y-79857088D01*
X188404760Y-79576759D01*
X188514139Y-79312695D01*
X188672934Y-79075042D01*
X188875042Y-78872934D01*
X189112695Y-78714139D01*
X189376759Y-78604760D01*
X189657088Y-78549000D01*
X189942912Y-78549000D01*
X190223241Y-78604760D01*
G37*
G36*
X217223241Y-78604760D02*
G01*
X217487305Y-78714139D01*
X217724958Y-78872934D01*
X217927066Y-79075042D01*
X218085861Y-79312695D01*
X218195240Y-79576759D01*
X218251000Y-79857088D01*
X218251000Y-80142912D01*
X218195240Y-80423241D01*
X218085861Y-80687305D01*
X217927066Y-80924958D01*
X217724958Y-81127066D01*
X217487305Y-81285861D01*
X217223241Y-81395240D01*
X216942912Y-81451000D01*
X216657088Y-81451000D01*
X216376759Y-81395240D01*
X216112695Y-81285861D01*
X215875042Y-81127066D01*
X215672934Y-80924958D01*
X215514139Y-80687305D01*
X215404760Y-80423241D01*
X215349000Y-80142912D01*
X215349000Y-79857088D01*
X215404760Y-79576759D01*
X215514139Y-79312695D01*
X215672934Y-79075042D01*
X215875042Y-78872934D01*
X216112695Y-78714139D01*
X216376759Y-78604760D01*
X216657088Y-78549000D01*
X216942912Y-78549000D01*
X217223241Y-78604760D01*
G37*
G36*
X221423241Y-78604760D02*
G01*
X221687305Y-78714139D01*
X221924958Y-78872934D01*
X222127066Y-79075042D01*
X222285861Y-79312695D01*
X222395240Y-79576759D01*
X222451000Y-79857088D01*
X222451000Y-80142912D01*
X222395240Y-80423241D01*
X222285861Y-80687305D01*
X222127066Y-80924958D01*
X221924958Y-81127066D01*
X221687305Y-81285861D01*
X221423241Y-81395240D01*
X221142912Y-81451000D01*
X220857088Y-81451000D01*
X220576759Y-81395240D01*
X220312695Y-81285861D01*
X220075042Y-81127066D01*
X219872934Y-80924958D01*
X219714139Y-80687305D01*
X219604760Y-80423241D01*
X219549000Y-80142912D01*
X219549000Y-79857088D01*
X219604760Y-79576759D01*
X219714139Y-79312695D01*
X219872934Y-79075042D01*
X220075042Y-78872934D01*
X220312695Y-78714139D01*
X220576759Y-78604760D01*
X220857088Y-78549000D01*
X221142912Y-78549000D01*
X221423241Y-78604760D01*
G37*
G36*
X275423241Y-78604760D02*
G01*
X275687305Y-78714139D01*
X275924958Y-78872934D01*
X276127066Y-79075042D01*
X276285861Y-79312695D01*
X276395240Y-79576759D01*
X276451000Y-79857088D01*
X276451000Y-80142912D01*
X276395240Y-80423241D01*
X276285861Y-80687305D01*
X276127066Y-80924958D01*
X275924958Y-81127066D01*
X275687305Y-81285861D01*
X275423241Y-81395240D01*
X275142912Y-81451000D01*
X274857088Y-81451000D01*
X274576759Y-81395240D01*
X274312695Y-81285861D01*
X274075042Y-81127066D01*
X273872934Y-80924958D01*
X273714139Y-80687305D01*
X273604760Y-80423241D01*
X273549000Y-80142912D01*
X273549000Y-79857088D01*
X273604760Y-79576759D01*
X273714139Y-79312695D01*
X273872934Y-79075042D01*
X274075042Y-78872934D01*
X274312695Y-78714139D01*
X274576759Y-78604760D01*
X274857088Y-78549000D01*
X275142912Y-78549000D01*
X275423241Y-78604760D01*
G37*
G36*
X244223241Y-78604760D02*
G01*
X244487305Y-78714139D01*
X244724958Y-78872934D01*
X244927066Y-79075042D01*
X245085861Y-79312695D01*
X245195240Y-79576759D01*
X245251000Y-79857088D01*
X245251000Y-80142912D01*
X245195240Y-80423241D01*
X245085861Y-80687305D01*
X244927066Y-80924958D01*
X244724958Y-81127066D01*
X244487305Y-81285861D01*
X244223241Y-81395240D01*
X243942912Y-81451000D01*
X243657088Y-81451000D01*
X243376759Y-81395240D01*
X243112695Y-81285861D01*
X242875042Y-81127066D01*
X242672934Y-80924958D01*
X242514139Y-80687305D01*
X242404760Y-80423241D01*
X242349000Y-80142912D01*
X242349000Y-79857088D01*
X242404760Y-79576759D01*
X242514139Y-79312695D01*
X242672934Y-79075042D01*
X242875042Y-78872934D01*
X243112695Y-78714139D01*
X243376759Y-78604760D01*
X243657088Y-78549000D01*
X243942912Y-78549000D01*
X244223241Y-78604760D01*
G37*
G36*
X248423241Y-78604760D02*
G01*
X248687305Y-78714139D01*
X248924958Y-78872934D01*
X249127066Y-79075042D01*
X249285861Y-79312695D01*
X249395240Y-79576759D01*
X249451000Y-79857088D01*
X249451000Y-80142912D01*
X249395240Y-80423241D01*
X249285861Y-80687305D01*
X249127066Y-80924958D01*
X248924958Y-81127066D01*
X248687305Y-81285861D01*
X248423241Y-81395240D01*
X248142912Y-81451000D01*
X247857088Y-81451000D01*
X247576759Y-81395240D01*
X247312695Y-81285861D01*
X247075042Y-81127066D01*
X246872934Y-80924958D01*
X246714139Y-80687305D01*
X246604760Y-80423241D01*
X246549000Y-80142912D01*
X246549000Y-79857088D01*
X246604760Y-79576759D01*
X246714139Y-79312695D01*
X246872934Y-79075042D01*
X247075042Y-78872934D01*
X247312695Y-78714139D01*
X247576759Y-78604760D01*
X247857088Y-78549000D01*
X248142912Y-78549000D01*
X248423241Y-78604760D01*
G37*
G36*
X271223241Y-78604760D02*
G01*
X271487305Y-78714139D01*
X271724958Y-78872934D01*
X271927066Y-79075042D01*
X272085861Y-79312695D01*
X272195240Y-79576759D01*
X272251000Y-79857088D01*
X272251000Y-80142912D01*
X272195240Y-80423241D01*
X272085861Y-80687305D01*
X271927066Y-80924958D01*
X271724958Y-81127066D01*
X271487305Y-81285861D01*
X271223241Y-81395240D01*
X270942912Y-81451000D01*
X270657088Y-81451000D01*
X270376759Y-81395240D01*
X270112695Y-81285861D01*
X269875042Y-81127066D01*
X269672934Y-80924958D01*
X269514139Y-80687305D01*
X269404760Y-80423241D01*
X269349000Y-80142912D01*
X269349000Y-79857088D01*
X269404760Y-79576759D01*
X269514139Y-79312695D01*
X269672934Y-79075042D01*
X269875042Y-78872934D01*
X270112695Y-78714139D01*
X270376759Y-78604760D01*
X270657088Y-78549000D01*
X270942912Y-78549000D01*
X271223241Y-78604760D01*
G37*
G36*
X259878254Y-76397818D02*
G01*
X260251511Y-76552426D01*
X260251513Y-76552427D01*
X260587436Y-76776884D01*
X260873116Y-77062564D01*
X261097574Y-77398489D01*
X261252182Y-77771746D01*
X261331000Y-78167993D01*
X261331000Y-78572007D01*
X261252182Y-78968254D01*
X261207949Y-79075041D01*
X261097573Y-79341513D01*
X260873116Y-79677436D01*
X260587436Y-79963116D01*
X260251513Y-80187573D01*
X260251512Y-80187574D01*
X260251511Y-80187574D01*
X259878254Y-80342182D01*
X259482007Y-80421000D01*
X259077993Y-80421000D01*
X258681746Y-80342182D01*
X258308489Y-80187574D01*
X258308488Y-80187574D01*
X258308487Y-80187573D01*
X257972564Y-79963116D01*
X257686884Y-79677436D01*
X257462427Y-79341513D01*
X257352051Y-79075041D01*
X257307818Y-78968254D01*
X257229000Y-78572007D01*
X257229000Y-78167993D01*
X257307818Y-77771746D01*
X257462426Y-77398489D01*
X257686884Y-77062564D01*
X257972564Y-76776884D01*
X258308487Y-76552427D01*
X258308489Y-76552426D01*
X258681746Y-76397818D01*
X259077993Y-76319000D01*
X259482007Y-76319000D01*
X259878254Y-76397818D01*
G37*
G36*
X166598254Y-71027818D02*
G01*
X166971511Y-71182426D01*
X166971513Y-71182427D01*
X167307436Y-71406884D01*
X167593116Y-71692564D01*
X167767458Y-71953484D01*
X167817574Y-72028489D01*
X167972182Y-72401746D01*
X168051000Y-72797993D01*
X168051000Y-73202007D01*
X167972182Y-73598254D01*
X167837188Y-73924159D01*
X167817573Y-73971513D01*
X167593116Y-74307436D01*
X167307436Y-74593116D01*
X166971513Y-74817573D01*
X166971512Y-74817574D01*
X166971511Y-74817574D01*
X166598254Y-74972182D01*
X166202007Y-75051000D01*
X165797993Y-75051000D01*
X165401746Y-74972182D01*
X165028489Y-74817574D01*
X165028488Y-74817574D01*
X165028487Y-74817573D01*
X164692564Y-74593116D01*
X164406884Y-74307436D01*
X164182427Y-73971513D01*
X164162812Y-73924159D01*
X164027818Y-73598254D01*
X163949000Y-73202007D01*
X163949000Y-72797993D01*
X164027818Y-72401746D01*
X164182426Y-72028489D01*
X164232543Y-71953484D01*
X164406884Y-71692564D01*
X164692564Y-71406884D01*
X165028487Y-71182427D01*
X165028489Y-71182426D01*
X165401746Y-71027818D01*
X165797993Y-70949000D01*
X166202007Y-70949000D01*
X166598254Y-71027818D01*
G37*
G36*
X325598254Y-71027818D02*
G01*
X325971511Y-71182426D01*
X325971513Y-71182427D01*
X326307436Y-71406884D01*
X326593116Y-71692564D01*
X326767458Y-71953484D01*
X326817574Y-72028489D01*
X326972182Y-72401746D01*
X327051000Y-72797993D01*
X327051000Y-73202007D01*
X326972182Y-73598254D01*
X326837188Y-73924159D01*
X326817573Y-73971513D01*
X326593116Y-74307436D01*
X326307436Y-74593116D01*
X325971513Y-74817573D01*
X325971512Y-74817574D01*
X325971511Y-74817574D01*
X325598254Y-74972182D01*
X325202007Y-75051000D01*
X324797993Y-75051000D01*
X324401746Y-74972182D01*
X324028489Y-74817574D01*
X324028488Y-74817574D01*
X324028487Y-74817573D01*
X323692564Y-74593116D01*
X323406884Y-74307436D01*
X323182427Y-73971513D01*
X323162812Y-73924159D01*
X323027818Y-73598254D01*
X322949000Y-73202007D01*
X322949000Y-72797993D01*
X323027818Y-72401746D01*
X323182426Y-72028489D01*
X323232543Y-71953484D01*
X323406884Y-71692564D01*
X323692564Y-71406884D01*
X324028487Y-71182427D01*
X324028489Y-71182426D01*
X324401746Y-71027818D01*
X324797993Y-70949000D01*
X325202007Y-70949000D01*
X325598254Y-71027818D01*
G37*
G36*
X192131083Y-71139090D02*
G01*
X192359702Y-71184564D01*
X192646516Y-71303367D01*
X192904642Y-71475841D01*
X193124159Y-71695358D01*
X193296633Y-71953484D01*
X193415436Y-72240298D01*
X193476000Y-72544778D01*
X193476000Y-72855222D01*
X193415436Y-73159702D01*
X193296633Y-73446516D01*
X193124159Y-73704642D01*
X192904642Y-73924159D01*
X192646516Y-74096633D01*
X192359702Y-74215436D01*
X192131083Y-74260910D01*
X192055224Y-74276000D01*
X191744776Y-74276000D01*
X191668917Y-74260910D01*
X191440298Y-74215436D01*
X191153484Y-74096633D01*
X190895358Y-73924159D01*
X190675841Y-73704642D01*
X190503367Y-73446516D01*
X190384564Y-73159702D01*
X190324000Y-72855222D01*
X190324000Y-72544778D01*
X190384564Y-72240298D01*
X190503367Y-71953484D01*
X190675841Y-71695358D01*
X190895358Y-71475841D01*
X191153484Y-71303367D01*
X191440298Y-71184564D01*
X191668917Y-71139090D01*
X191744776Y-71124000D01*
X192055224Y-71124000D01*
X192131083Y-71139090D01*
G37*
G36*
X219131083Y-71139090D02*
G01*
X219359702Y-71184564D01*
X219646516Y-71303367D01*
X219904642Y-71475841D01*
X220124159Y-71695358D01*
X220296633Y-71953484D01*
X220415436Y-72240298D01*
X220476000Y-72544778D01*
X220476000Y-72855222D01*
X220415436Y-73159702D01*
X220296633Y-73446516D01*
X220124159Y-73704642D01*
X219904642Y-73924159D01*
X219646516Y-74096633D01*
X219359702Y-74215436D01*
X219131083Y-74260910D01*
X219055224Y-74276000D01*
X218744776Y-74276000D01*
X218668917Y-74260910D01*
X218440298Y-74215436D01*
X218153484Y-74096633D01*
X217895358Y-73924159D01*
X217675841Y-73704642D01*
X217503367Y-73446516D01*
X217384564Y-73159702D01*
X217324000Y-72855222D01*
X217324000Y-72544778D01*
X217384564Y-72240298D01*
X217503367Y-71953484D01*
X217675841Y-71695358D01*
X217895358Y-71475841D01*
X218153484Y-71303367D01*
X218440298Y-71184564D01*
X218668917Y-71139090D01*
X218744776Y-71124000D01*
X219055224Y-71124000D01*
X219131083Y-71139090D01*
G37*
G36*
X246131083Y-71139090D02*
G01*
X246359702Y-71184564D01*
X246646516Y-71303367D01*
X246904642Y-71475841D01*
X247124159Y-71695358D01*
X247296633Y-71953484D01*
X247415436Y-72240298D01*
X247476000Y-72544778D01*
X247476000Y-72855222D01*
X247415436Y-73159702D01*
X247296633Y-73446516D01*
X247124159Y-73704642D01*
X246904642Y-73924159D01*
X246646516Y-74096633D01*
X246359702Y-74215436D01*
X246131083Y-74260910D01*
X246055224Y-74276000D01*
X245744776Y-74276000D01*
X245668917Y-74260910D01*
X245440298Y-74215436D01*
X245153484Y-74096633D01*
X244895358Y-73924159D01*
X244675841Y-73704642D01*
X244503367Y-73446516D01*
X244384564Y-73159702D01*
X244324000Y-72855222D01*
X244324000Y-72544778D01*
X244384564Y-72240298D01*
X244503367Y-71953484D01*
X244675841Y-71695358D01*
X244895358Y-71475841D01*
X245153484Y-71303367D01*
X245440298Y-71184564D01*
X245668917Y-71139090D01*
X245744776Y-71124000D01*
X246055224Y-71124000D01*
X246131083Y-71139090D01*
G37*
G36*
X273131083Y-71139090D02*
G01*
X273359702Y-71184564D01*
X273646516Y-71303367D01*
X273904642Y-71475841D01*
X274124159Y-71695358D01*
X274296633Y-71953484D01*
X274415436Y-72240298D01*
X274476000Y-72544778D01*
X274476000Y-72855222D01*
X274415436Y-73159702D01*
X274296633Y-73446516D01*
X274124159Y-73704642D01*
X273904642Y-73924159D01*
X273646516Y-74096633D01*
X273359702Y-74215436D01*
X273131083Y-74260910D01*
X273055224Y-74276000D01*
X272744776Y-74276000D01*
X272668917Y-74260910D01*
X272440298Y-74215436D01*
X272153484Y-74096633D01*
X271895358Y-73924159D01*
X271675841Y-73704642D01*
X271503367Y-73446516D01*
X271384564Y-73159702D01*
X271324000Y-72855222D01*
X271324000Y-72544778D01*
X271384564Y-72240298D01*
X271503367Y-71953484D01*
X271675841Y-71695358D01*
X271895358Y-71475841D01*
X272153484Y-71303367D01*
X272440298Y-71184564D01*
X272668917Y-71139090D01*
X272744776Y-71124000D01*
X273055224Y-71124000D01*
X273131083Y-71139090D01*
G37*
M02*
