G04 #@! TF.GenerationSoftware,KiCad,Pcbnew,(5.1.5-0-10_14)*
G04 #@! TF.CreationDate,2020-08-30T11:21:39+02:00*
G04 #@! TF.ProjectId,DC_Board,44435f42-6f61-4726-942e-6b696361645f,rev?*
G04 #@! TF.SameCoordinates,Original*
G04 #@! TF.FileFunction,Soldermask,Bot*
G04 #@! TF.FilePolarity,Negative*
%FSLAX46Y46*%
G04 Gerber Fmt 4.6, Leading zero omitted, Abs format (unit mm)*
G04 Created by KiCad (PCBNEW (5.1.5-0-10_14)) date 2020-08-30 11:21:39*
%MOMM*%
%LPD*%
G04 APERTURE LIST*
%ADD10C,0.100000*%
G04 APERTURE END LIST*
D10*
G36*
X186220345Y-220163442D02*
G01*
X186310548Y-220172326D01*
X186484157Y-220224990D01*
X186644156Y-220310511D01*
X186687729Y-220346271D01*
X186784397Y-220425603D01*
X186863729Y-220522271D01*
X186899489Y-220565844D01*
X186985010Y-220725843D01*
X187037674Y-220899452D01*
X187055456Y-221080000D01*
X187037674Y-221260548D01*
X186985010Y-221434157D01*
X186899489Y-221594156D01*
X186863729Y-221637729D01*
X186784397Y-221734397D01*
X186687729Y-221813729D01*
X186644156Y-221849489D01*
X186484157Y-221935010D01*
X186310548Y-221987674D01*
X186220345Y-221996558D01*
X186175245Y-222001000D01*
X185624755Y-222001000D01*
X185579655Y-221996558D01*
X185489452Y-221987674D01*
X185315843Y-221935010D01*
X185155844Y-221849489D01*
X185112271Y-221813729D01*
X185015603Y-221734397D01*
X184936271Y-221637729D01*
X184900511Y-221594156D01*
X184814990Y-221434157D01*
X184762326Y-221260548D01*
X184744544Y-221080000D01*
X184762326Y-220899452D01*
X184814990Y-220725843D01*
X184900511Y-220565844D01*
X184936271Y-220522271D01*
X185015603Y-220425603D01*
X185112271Y-220346271D01*
X185155844Y-220310511D01*
X185315843Y-220224990D01*
X185489452Y-220172326D01*
X185579655Y-220163442D01*
X185624755Y-220159000D01*
X186175245Y-220159000D01*
X186220345Y-220163442D01*
G37*
G36*
X196291000Y-220141000D02*
G01*
X193989000Y-220141000D01*
X193989000Y-217839000D01*
X196291000Y-217839000D01*
X196291000Y-220141000D01*
G37*
G36*
X186220345Y-217623442D02*
G01*
X186310548Y-217632326D01*
X186484157Y-217684990D01*
X186644156Y-217770511D01*
X186687729Y-217806271D01*
X186784397Y-217885603D01*
X186863729Y-217982271D01*
X186899489Y-218025844D01*
X186985010Y-218185843D01*
X187037674Y-218359452D01*
X187055456Y-218540000D01*
X187037674Y-218720548D01*
X186985010Y-218894157D01*
X186899489Y-219054156D01*
X186863729Y-219097729D01*
X186784397Y-219194397D01*
X186691699Y-219270471D01*
X186644156Y-219309489D01*
X186484157Y-219395010D01*
X186310548Y-219447674D01*
X186220345Y-219456558D01*
X186175245Y-219461000D01*
X185624755Y-219461000D01*
X185579655Y-219456558D01*
X185489452Y-219447674D01*
X185315843Y-219395010D01*
X185155844Y-219309489D01*
X185108301Y-219270471D01*
X185015603Y-219194397D01*
X184936271Y-219097729D01*
X184900511Y-219054156D01*
X184814990Y-218894157D01*
X184762326Y-218720548D01*
X184744544Y-218540000D01*
X184762326Y-218359452D01*
X184814990Y-218185843D01*
X184900511Y-218025844D01*
X184936271Y-217982271D01*
X185015603Y-217885603D01*
X185112271Y-217806271D01*
X185155844Y-217770511D01*
X185315843Y-217684990D01*
X185489452Y-217632326D01*
X185579655Y-217623442D01*
X185624755Y-217619000D01*
X186175245Y-217619000D01*
X186220345Y-217623442D01*
G37*
G36*
X174437142Y-217768242D02*
G01*
X174585101Y-217829529D01*
X174718255Y-217918499D01*
X174831501Y-218031745D01*
X174920471Y-218164899D01*
X174981758Y-218312858D01*
X175013000Y-218469925D01*
X175013000Y-218630075D01*
X174981758Y-218787142D01*
X174920471Y-218935101D01*
X174831501Y-219068255D01*
X174718255Y-219181501D01*
X174585101Y-219270471D01*
X174437142Y-219331758D01*
X174280075Y-219363000D01*
X174119925Y-219363000D01*
X173962858Y-219331758D01*
X173814899Y-219270471D01*
X173681745Y-219181501D01*
X173568499Y-219068255D01*
X173479529Y-218935101D01*
X173418242Y-218787142D01*
X173387000Y-218630075D01*
X173387000Y-218469925D01*
X173418242Y-218312858D01*
X173479529Y-218164899D01*
X173568499Y-218031745D01*
X173681745Y-217918499D01*
X173814899Y-217829529D01*
X173962858Y-217768242D01*
X174119925Y-217737000D01*
X174280075Y-217737000D01*
X174437142Y-217768242D01*
G37*
G36*
X169357142Y-217768242D02*
G01*
X169505101Y-217829529D01*
X169638255Y-217918499D01*
X169751501Y-218031745D01*
X169840471Y-218164899D01*
X169901758Y-218312858D01*
X169933000Y-218469925D01*
X169933000Y-218630075D01*
X169901758Y-218787142D01*
X169840471Y-218935101D01*
X169751501Y-219068255D01*
X169638255Y-219181501D01*
X169505101Y-219270471D01*
X169357142Y-219331758D01*
X169200075Y-219363000D01*
X169039925Y-219363000D01*
X168882858Y-219331758D01*
X168734899Y-219270471D01*
X168601745Y-219181501D01*
X168488499Y-219068255D01*
X168399529Y-218935101D01*
X168338242Y-218787142D01*
X168307000Y-218630075D01*
X168307000Y-218469925D01*
X168338242Y-218312858D01*
X168399529Y-218164899D01*
X168488499Y-218031745D01*
X168601745Y-217918499D01*
X168734899Y-217829529D01*
X168882858Y-217768242D01*
X169039925Y-217737000D01*
X169200075Y-217737000D01*
X169357142Y-217768242D01*
G37*
G36*
X186909561Y-215082966D02*
G01*
X186942383Y-215092923D01*
X186972632Y-215109092D01*
X186999148Y-215130852D01*
X187020908Y-215157368D01*
X187037077Y-215187617D01*
X187047034Y-215220439D01*
X187051000Y-215260713D01*
X187051000Y-216739287D01*
X187047034Y-216779561D01*
X187037077Y-216812383D01*
X187020908Y-216842632D01*
X186999148Y-216869148D01*
X186972632Y-216890908D01*
X186942383Y-216907077D01*
X186909561Y-216917034D01*
X186869287Y-216921000D01*
X184930713Y-216921000D01*
X184890439Y-216917034D01*
X184857617Y-216907077D01*
X184827368Y-216890908D01*
X184800852Y-216869148D01*
X184779092Y-216842632D01*
X184762923Y-216812383D01*
X184752966Y-216779561D01*
X184749000Y-216739287D01*
X184749000Y-215260713D01*
X184752966Y-215220439D01*
X184762923Y-215187617D01*
X184779092Y-215157368D01*
X184800852Y-215130852D01*
X184827368Y-215109092D01*
X184857617Y-215092923D01*
X184890439Y-215082966D01*
X184930713Y-215079000D01*
X186869287Y-215079000D01*
X186909561Y-215082966D01*
G37*
G36*
X171897142Y-215228242D02*
G01*
X172045101Y-215289529D01*
X172178255Y-215378499D01*
X172291501Y-215491745D01*
X172380471Y-215624899D01*
X172441758Y-215772858D01*
X172473000Y-215929925D01*
X172473000Y-216090075D01*
X172441758Y-216247142D01*
X172380471Y-216395101D01*
X172291501Y-216528255D01*
X172178255Y-216641501D01*
X172045101Y-216730471D01*
X171897142Y-216791758D01*
X171740075Y-216823000D01*
X171579925Y-216823000D01*
X171422858Y-216791758D01*
X171274899Y-216730471D01*
X171141745Y-216641501D01*
X171028499Y-216528255D01*
X170939529Y-216395101D01*
X170878242Y-216247142D01*
X170847000Y-216090075D01*
X170847000Y-215929925D01*
X170878242Y-215772858D01*
X170939529Y-215624899D01*
X171028499Y-215491745D01*
X171141745Y-215378499D01*
X171274899Y-215289529D01*
X171422858Y-215228242D01*
X171579925Y-215197000D01*
X171740075Y-215197000D01*
X171897142Y-215228242D01*
G37*
G36*
X195364549Y-207701116D02*
G01*
X195475734Y-207723232D01*
X195623850Y-207784584D01*
X195661059Y-207799996D01*
X195685203Y-207809997D01*
X195873720Y-207935960D01*
X196034040Y-208096280D01*
X196160003Y-208284797D01*
X196246768Y-208494266D01*
X196291000Y-208716636D01*
X196291000Y-208943364D01*
X196246768Y-209165734D01*
X196160003Y-209375203D01*
X196034040Y-209563720D01*
X195873720Y-209724040D01*
X195685203Y-209850003D01*
X195475734Y-209936768D01*
X195364549Y-209958884D01*
X195253365Y-209981000D01*
X195026635Y-209981000D01*
X194915451Y-209958884D01*
X194804266Y-209936768D01*
X194594797Y-209850003D01*
X194406280Y-209724040D01*
X194245960Y-209563720D01*
X194119997Y-209375203D01*
X194033232Y-209165734D01*
X193989000Y-208943364D01*
X193989000Y-208716636D01*
X194033232Y-208494266D01*
X194119997Y-208284797D01*
X194245960Y-208096280D01*
X194406280Y-207935960D01*
X194594797Y-207809997D01*
X194618942Y-207799996D01*
X194656150Y-207784584D01*
X194804266Y-207723232D01*
X194915451Y-207701116D01*
X195026635Y-207679000D01*
X195253365Y-207679000D01*
X195364549Y-207701116D01*
G37*
G36*
X213491000Y-209971000D02*
G01*
X211189000Y-209971000D01*
X211189000Y-207669000D01*
X213491000Y-207669000D01*
X213491000Y-209971000D01*
G37*
G36*
X202343638Y-207679000D02*
G01*
X202515734Y-207713232D01*
X202725203Y-207799997D01*
X202913720Y-207925960D01*
X203074040Y-208086280D01*
X203200003Y-208274797D01*
X203286768Y-208484266D01*
X203331000Y-208706636D01*
X203331000Y-208933364D01*
X203286768Y-209155734D01*
X203200003Y-209365203D01*
X203074040Y-209553720D01*
X202913720Y-209714040D01*
X202725203Y-209840003D01*
X202725202Y-209840004D01*
X202725201Y-209840004D01*
X202663850Y-209865416D01*
X202515734Y-209926768D01*
X202465460Y-209936768D01*
X202293365Y-209971000D01*
X202066635Y-209971000D01*
X201894540Y-209936768D01*
X201844266Y-209926768D01*
X201696150Y-209865416D01*
X201634799Y-209840004D01*
X201634798Y-209840004D01*
X201634797Y-209840003D01*
X201446280Y-209714040D01*
X201285960Y-209553720D01*
X201159997Y-209365203D01*
X201073232Y-209155734D01*
X201029000Y-208933364D01*
X201029000Y-208706636D01*
X201073232Y-208484266D01*
X201159997Y-208274797D01*
X201285960Y-208086280D01*
X201446280Y-207925960D01*
X201634797Y-207799997D01*
X201844266Y-207713232D01*
X202016362Y-207679000D01*
X202066635Y-207669000D01*
X202293365Y-207669000D01*
X202343638Y-207679000D01*
G37*
G36*
X230178254Y-204317818D02*
G01*
X230551511Y-204472426D01*
X230551513Y-204472427D01*
X230560295Y-204478295D01*
X230887436Y-204696884D01*
X231173116Y-204982564D01*
X231397574Y-205318489D01*
X231552182Y-205691746D01*
X231631000Y-206087993D01*
X231631000Y-206492007D01*
X231552182Y-206888254D01*
X231397574Y-207261511D01*
X231397573Y-207261513D01*
X231173116Y-207597436D01*
X230887436Y-207883116D01*
X230551513Y-208107573D01*
X230551512Y-208107574D01*
X230551511Y-208107574D01*
X230178254Y-208262182D01*
X229782007Y-208341000D01*
X229377993Y-208341000D01*
X228981746Y-208262182D01*
X228608489Y-208107574D01*
X228608488Y-208107574D01*
X228608487Y-208107573D01*
X228272564Y-207883116D01*
X227986884Y-207597436D01*
X227762427Y-207261513D01*
X227762426Y-207261511D01*
X227607818Y-206888254D01*
X227529000Y-206492007D01*
X227529000Y-206087993D01*
X227607818Y-205691746D01*
X227762426Y-205318489D01*
X227986884Y-204982564D01*
X228272564Y-204696884D01*
X228599705Y-204478295D01*
X228608487Y-204472427D01*
X228608489Y-204472426D01*
X228981746Y-204317818D01*
X229377993Y-204239000D01*
X229782007Y-204239000D01*
X230178254Y-204317818D01*
G37*
G36*
X195388228Y-202841703D02*
G01*
X195543100Y-202905853D01*
X195682481Y-202998985D01*
X195801015Y-203117519D01*
X195894147Y-203256900D01*
X195958297Y-203411772D01*
X195991000Y-203576184D01*
X195991000Y-203743816D01*
X195958297Y-203908228D01*
X195894147Y-204063100D01*
X195801015Y-204202481D01*
X195682481Y-204321015D01*
X195543100Y-204414147D01*
X195388228Y-204478297D01*
X195223816Y-204511000D01*
X195056184Y-204511000D01*
X194891772Y-204478297D01*
X194736900Y-204414147D01*
X194597519Y-204321015D01*
X194478985Y-204202481D01*
X194385853Y-204063100D01*
X194321703Y-203908228D01*
X194289000Y-203743816D01*
X194289000Y-203576184D01*
X194321703Y-203411772D01*
X194385853Y-203256900D01*
X194478985Y-203117519D01*
X194597519Y-202998985D01*
X194736900Y-202905853D01*
X194891772Y-202841703D01*
X195056184Y-202809000D01*
X195223816Y-202809000D01*
X195388228Y-202841703D01*
G37*
G36*
X189038228Y-202781703D02*
G01*
X189193100Y-202845853D01*
X189332481Y-202938985D01*
X189451015Y-203057519D01*
X189544147Y-203196900D01*
X189608297Y-203351772D01*
X189641000Y-203516184D01*
X189641000Y-203683816D01*
X189608297Y-203848228D01*
X189544147Y-204003100D01*
X189451015Y-204142481D01*
X189332481Y-204261015D01*
X189193100Y-204354147D01*
X189038228Y-204418297D01*
X188873816Y-204451000D01*
X188706184Y-204451000D01*
X188541772Y-204418297D01*
X188386900Y-204354147D01*
X188247519Y-204261015D01*
X188128985Y-204142481D01*
X188035853Y-204003100D01*
X187971703Y-203848228D01*
X187939000Y-203683816D01*
X187939000Y-203516184D01*
X187971703Y-203351772D01*
X188035853Y-203196900D01*
X188128985Y-203057519D01*
X188247519Y-202938985D01*
X188386900Y-202845853D01*
X188541772Y-202781703D01*
X188706184Y-202749000D01*
X188873816Y-202749000D01*
X189038228Y-202781703D01*
G37*
G36*
X176638228Y-202651703D02*
G01*
X176793100Y-202715853D01*
X176932481Y-202808985D01*
X177051015Y-202927519D01*
X177144147Y-203066900D01*
X177208297Y-203221772D01*
X177241000Y-203386184D01*
X177241000Y-203553816D01*
X177208297Y-203718228D01*
X177144147Y-203873100D01*
X177051015Y-204012481D01*
X176932481Y-204131015D01*
X176793100Y-204224147D01*
X176638228Y-204288297D01*
X176473816Y-204321000D01*
X176306184Y-204321000D01*
X176141772Y-204288297D01*
X175986900Y-204224147D01*
X175847519Y-204131015D01*
X175728985Y-204012481D01*
X175635853Y-203873100D01*
X175571703Y-203718228D01*
X175539000Y-203553816D01*
X175539000Y-203386184D01*
X175571703Y-203221772D01*
X175635853Y-203066900D01*
X175728985Y-202927519D01*
X175847519Y-202808985D01*
X175986900Y-202715853D01*
X176141772Y-202651703D01*
X176306184Y-202619000D01*
X176473816Y-202619000D01*
X176638228Y-202651703D01*
G37*
G36*
X174098228Y-202651703D02*
G01*
X174253100Y-202715853D01*
X174392481Y-202808985D01*
X174511015Y-202927519D01*
X174604147Y-203066900D01*
X174668297Y-203221772D01*
X174701000Y-203386184D01*
X174701000Y-203553816D01*
X174668297Y-203718228D01*
X174604147Y-203873100D01*
X174511015Y-204012481D01*
X174392481Y-204131015D01*
X174253100Y-204224147D01*
X174098228Y-204288297D01*
X173933816Y-204321000D01*
X173766184Y-204321000D01*
X173601772Y-204288297D01*
X173446900Y-204224147D01*
X173307519Y-204131015D01*
X173188985Y-204012481D01*
X173095853Y-203873100D01*
X173031703Y-203718228D01*
X172999000Y-203553816D01*
X172999000Y-203386184D01*
X173031703Y-203221772D01*
X173095853Y-203066900D01*
X173188985Y-202927519D01*
X173307519Y-202808985D01*
X173446900Y-202715853D01*
X173601772Y-202651703D01*
X173766184Y-202619000D01*
X173933816Y-202619000D01*
X174098228Y-202651703D01*
G37*
G36*
X179178228Y-202651703D02*
G01*
X179333100Y-202715853D01*
X179472481Y-202808985D01*
X179591015Y-202927519D01*
X179684147Y-203066900D01*
X179748297Y-203221772D01*
X179781000Y-203386184D01*
X179781000Y-203553816D01*
X179748297Y-203718228D01*
X179684147Y-203873100D01*
X179591015Y-204012481D01*
X179472481Y-204131015D01*
X179333100Y-204224147D01*
X179178228Y-204288297D01*
X179013816Y-204321000D01*
X178846184Y-204321000D01*
X178681772Y-204288297D01*
X178526900Y-204224147D01*
X178387519Y-204131015D01*
X178268985Y-204012481D01*
X178175853Y-203873100D01*
X178111703Y-203718228D01*
X178079000Y-203553816D01*
X178079000Y-203386184D01*
X178111703Y-203221772D01*
X178175853Y-203066900D01*
X178268985Y-202927519D01*
X178387519Y-202808985D01*
X178526900Y-202715853D01*
X178681772Y-202651703D01*
X178846184Y-202619000D01*
X179013816Y-202619000D01*
X179178228Y-202651703D01*
G37*
G36*
X171558228Y-202651703D02*
G01*
X171713100Y-202715853D01*
X171852481Y-202808985D01*
X171971015Y-202927519D01*
X172064147Y-203066900D01*
X172128297Y-203221772D01*
X172161000Y-203386184D01*
X172161000Y-203553816D01*
X172128297Y-203718228D01*
X172064147Y-203873100D01*
X171971015Y-204012481D01*
X171852481Y-204131015D01*
X171713100Y-204224147D01*
X171558228Y-204288297D01*
X171393816Y-204321000D01*
X171226184Y-204321000D01*
X171061772Y-204288297D01*
X170906900Y-204224147D01*
X170767519Y-204131015D01*
X170648985Y-204012481D01*
X170555853Y-203873100D01*
X170491703Y-203718228D01*
X170459000Y-203553816D01*
X170459000Y-203386184D01*
X170491703Y-203221772D01*
X170555853Y-203066900D01*
X170648985Y-202927519D01*
X170767519Y-202808985D01*
X170906900Y-202715853D01*
X171061772Y-202651703D01*
X171226184Y-202619000D01*
X171393816Y-202619000D01*
X171558228Y-202651703D01*
G37*
G36*
X210231000Y-203771000D02*
G01*
X208629000Y-203771000D01*
X208629000Y-202169000D01*
X210231000Y-202169000D01*
X210231000Y-203771000D01*
G37*
G36*
X204583642Y-202199781D02*
G01*
X204729414Y-202260162D01*
X204729416Y-202260163D01*
X204860608Y-202347822D01*
X204972178Y-202459392D01*
X205054834Y-202583097D01*
X205059838Y-202590586D01*
X205120219Y-202736358D01*
X205151000Y-202891107D01*
X205151000Y-203048893D01*
X205120219Y-203203642D01*
X205098157Y-203256903D01*
X205059837Y-203349416D01*
X204972178Y-203480608D01*
X204860608Y-203592178D01*
X204729416Y-203679837D01*
X204729415Y-203679838D01*
X204729414Y-203679838D01*
X204583642Y-203740219D01*
X204428893Y-203771000D01*
X204271107Y-203771000D01*
X204116358Y-203740219D01*
X203970586Y-203679838D01*
X203970585Y-203679838D01*
X203970584Y-203679837D01*
X203839392Y-203592178D01*
X203727822Y-203480608D01*
X203640163Y-203349416D01*
X203601843Y-203256903D01*
X203579781Y-203203642D01*
X203549000Y-203048893D01*
X203549000Y-202891107D01*
X203579781Y-202736358D01*
X203640162Y-202590586D01*
X203645166Y-202583097D01*
X203727822Y-202459392D01*
X203839392Y-202347822D01*
X203970584Y-202260163D01*
X203970586Y-202260162D01*
X204116358Y-202199781D01*
X204271107Y-202169000D01*
X204428893Y-202169000D01*
X204583642Y-202199781D01*
G37*
G36*
X165838228Y-201361703D02*
G01*
X165993100Y-201425853D01*
X166132481Y-201518985D01*
X166251015Y-201637519D01*
X166344147Y-201776900D01*
X166408297Y-201931772D01*
X166441000Y-202096184D01*
X166441000Y-202263816D01*
X166408297Y-202428228D01*
X166344147Y-202583100D01*
X166251015Y-202722481D01*
X166132481Y-202841015D01*
X165993100Y-202934147D01*
X165838228Y-202998297D01*
X165673816Y-203031000D01*
X165506184Y-203031000D01*
X165341772Y-202998297D01*
X165186900Y-202934147D01*
X165047519Y-202841015D01*
X164928985Y-202722481D01*
X164835853Y-202583100D01*
X164771703Y-202428228D01*
X164739000Y-202263816D01*
X164739000Y-202096184D01*
X164771703Y-201931772D01*
X164835853Y-201776900D01*
X164928985Y-201637519D01*
X165047519Y-201518985D01*
X165186900Y-201425853D01*
X165341772Y-201361703D01*
X165506184Y-201329000D01*
X165673816Y-201329000D01*
X165838228Y-201361703D01*
G37*
G36*
X219959561Y-199642966D02*
G01*
X219992383Y-199652923D01*
X220022632Y-199669092D01*
X220049148Y-199690852D01*
X220070908Y-199717368D01*
X220087077Y-199747617D01*
X220097034Y-199780439D01*
X220101000Y-199820713D01*
X220101000Y-201299287D01*
X220097034Y-201339561D01*
X220087077Y-201372383D01*
X220070908Y-201402632D01*
X220049148Y-201429148D01*
X220022632Y-201450908D01*
X219992383Y-201467077D01*
X219959561Y-201477034D01*
X219919287Y-201481000D01*
X217980713Y-201481000D01*
X217940439Y-201477034D01*
X217907617Y-201467077D01*
X217877368Y-201450908D01*
X217850852Y-201429148D01*
X217829092Y-201402632D01*
X217812923Y-201372383D01*
X217802966Y-201339561D01*
X217799000Y-201299287D01*
X217799000Y-199820713D01*
X217802966Y-199780439D01*
X217812923Y-199747617D01*
X217829092Y-199717368D01*
X217850852Y-199690852D01*
X217877368Y-199669092D01*
X217907617Y-199652923D01*
X217940439Y-199642966D01*
X217980713Y-199639000D01*
X219919287Y-199639000D01*
X219959561Y-199642966D01*
G37*
G36*
X219270345Y-197103442D02*
G01*
X219360548Y-197112326D01*
X219534157Y-197164990D01*
X219694156Y-197250511D01*
X219715249Y-197267822D01*
X219834397Y-197365603D01*
X219902205Y-197448229D01*
X219949489Y-197505844D01*
X220035010Y-197665843D01*
X220087674Y-197839452D01*
X220105456Y-198020000D01*
X220087674Y-198200548D01*
X220035010Y-198374157D01*
X219949489Y-198534156D01*
X219913729Y-198577729D01*
X219834397Y-198674397D01*
X219737729Y-198753729D01*
X219694156Y-198789489D01*
X219534157Y-198875010D01*
X219360548Y-198927674D01*
X219270345Y-198936558D01*
X219225245Y-198941000D01*
X218674755Y-198941000D01*
X218629655Y-198936558D01*
X218539452Y-198927674D01*
X218365843Y-198875010D01*
X218205844Y-198789489D01*
X218162271Y-198753729D01*
X218065603Y-198674397D01*
X217986271Y-198577729D01*
X217950511Y-198534156D01*
X217864990Y-198374157D01*
X217812326Y-198200548D01*
X217794544Y-198020000D01*
X217812326Y-197839452D01*
X217864990Y-197665843D01*
X217950511Y-197505844D01*
X217997795Y-197448229D01*
X218065603Y-197365603D01*
X218184751Y-197267822D01*
X218205844Y-197250511D01*
X218365843Y-197164990D01*
X218539452Y-197112326D01*
X218629655Y-197103442D01*
X218674755Y-197099000D01*
X219225245Y-197099000D01*
X219270345Y-197103442D01*
G37*
G36*
X204583642Y-197119781D02*
G01*
X204729414Y-197180162D01*
X204729416Y-197180163D01*
X204860608Y-197267822D01*
X204972178Y-197379392D01*
X205059837Y-197510584D01*
X205059838Y-197510586D01*
X205120219Y-197656358D01*
X205151000Y-197811107D01*
X205151000Y-197968893D01*
X205120219Y-198123642D01*
X205088364Y-198200546D01*
X205059837Y-198269416D01*
X204972178Y-198400608D01*
X204860608Y-198512178D01*
X204729416Y-198599837D01*
X204729415Y-198599838D01*
X204729414Y-198599838D01*
X204583642Y-198660219D01*
X204428893Y-198691000D01*
X204271107Y-198691000D01*
X204116358Y-198660219D01*
X203970586Y-198599838D01*
X203970585Y-198599838D01*
X203970584Y-198599837D01*
X203839392Y-198512178D01*
X203727822Y-198400608D01*
X203640163Y-198269416D01*
X203611636Y-198200546D01*
X203579781Y-198123642D01*
X203549000Y-197968893D01*
X203549000Y-197811107D01*
X203579781Y-197656358D01*
X203640162Y-197510586D01*
X203640163Y-197510584D01*
X203727822Y-197379392D01*
X203839392Y-197267822D01*
X203970584Y-197180163D01*
X203970586Y-197180162D01*
X204116358Y-197119781D01*
X204271107Y-197089000D01*
X204428893Y-197089000D01*
X204583642Y-197119781D01*
G37*
G36*
X209663642Y-197119781D02*
G01*
X209809414Y-197180162D01*
X209809416Y-197180163D01*
X209940608Y-197267822D01*
X210052178Y-197379392D01*
X210139837Y-197510584D01*
X210139838Y-197510586D01*
X210200219Y-197656358D01*
X210231000Y-197811107D01*
X210231000Y-197968893D01*
X210200219Y-198123642D01*
X210168364Y-198200546D01*
X210139837Y-198269416D01*
X210052178Y-198400608D01*
X209940608Y-198512178D01*
X209809416Y-198599837D01*
X209809415Y-198599838D01*
X209809414Y-198599838D01*
X209663642Y-198660219D01*
X209508893Y-198691000D01*
X209351107Y-198691000D01*
X209196358Y-198660219D01*
X209050586Y-198599838D01*
X209050585Y-198599838D01*
X209050584Y-198599837D01*
X208919392Y-198512178D01*
X208807822Y-198400608D01*
X208720163Y-198269416D01*
X208691636Y-198200546D01*
X208659781Y-198123642D01*
X208629000Y-197968893D01*
X208629000Y-197811107D01*
X208659781Y-197656358D01*
X208720162Y-197510586D01*
X208720163Y-197510584D01*
X208807822Y-197379392D01*
X208919392Y-197267822D01*
X209050584Y-197180163D01*
X209050586Y-197180162D01*
X209196358Y-197119781D01*
X209351107Y-197089000D01*
X209508893Y-197089000D01*
X209663642Y-197119781D01*
G37*
G36*
X313748228Y-196381703D02*
G01*
X313903100Y-196445853D01*
X314042481Y-196538985D01*
X314161015Y-196657519D01*
X314254147Y-196796900D01*
X314318297Y-196951772D01*
X314351000Y-197116184D01*
X314351000Y-197283816D01*
X314318297Y-197448228D01*
X314254147Y-197603100D01*
X314161015Y-197742481D01*
X314042481Y-197861015D01*
X313903100Y-197954147D01*
X313748228Y-198018297D01*
X313583816Y-198051000D01*
X313416184Y-198051000D01*
X313251772Y-198018297D01*
X313096900Y-197954147D01*
X312957519Y-197861015D01*
X312838985Y-197742481D01*
X312745853Y-197603100D01*
X312681703Y-197448228D01*
X312649000Y-197283816D01*
X312649000Y-197116184D01*
X312681703Y-196951772D01*
X312745853Y-196796900D01*
X312838985Y-196657519D01*
X312957519Y-196538985D01*
X313096900Y-196445853D01*
X313251772Y-196381703D01*
X313416184Y-196349000D01*
X313583816Y-196349000D01*
X313748228Y-196381703D01*
G37*
G36*
X165838228Y-196361703D02*
G01*
X165993100Y-196425853D01*
X166132481Y-196518985D01*
X166251015Y-196637519D01*
X166344147Y-196776900D01*
X166408297Y-196931772D01*
X166441000Y-197096184D01*
X166441000Y-197263816D01*
X166408297Y-197428228D01*
X166344147Y-197583100D01*
X166251015Y-197722481D01*
X166132481Y-197841015D01*
X165993100Y-197934147D01*
X165838228Y-197998297D01*
X165673816Y-198031000D01*
X165506184Y-198031000D01*
X165341772Y-197998297D01*
X165186900Y-197934147D01*
X165047519Y-197841015D01*
X164928985Y-197722481D01*
X164835853Y-197583100D01*
X164771703Y-197428228D01*
X164739000Y-197263816D01*
X164739000Y-197096184D01*
X164771703Y-196931772D01*
X164835853Y-196776900D01*
X164928985Y-196637519D01*
X165047519Y-196518985D01*
X165186900Y-196425853D01*
X165341772Y-196361703D01*
X165506184Y-196329000D01*
X165673816Y-196329000D01*
X165838228Y-196361703D01*
G37*
G36*
X171558228Y-195031703D02*
G01*
X171713100Y-195095853D01*
X171852481Y-195188985D01*
X171971015Y-195307519D01*
X172064147Y-195446900D01*
X172128297Y-195601772D01*
X172161000Y-195766184D01*
X172161000Y-195933816D01*
X172128297Y-196098228D01*
X172064147Y-196253100D01*
X171971015Y-196392481D01*
X171852481Y-196511015D01*
X171713100Y-196604147D01*
X171558228Y-196668297D01*
X171393816Y-196701000D01*
X171226184Y-196701000D01*
X171061772Y-196668297D01*
X170906900Y-196604147D01*
X170767519Y-196511015D01*
X170648985Y-196392481D01*
X170555853Y-196253100D01*
X170491703Y-196098228D01*
X170459000Y-195933816D01*
X170459000Y-195766184D01*
X170491703Y-195601772D01*
X170555853Y-195446900D01*
X170648985Y-195307519D01*
X170767519Y-195188985D01*
X170906900Y-195095853D01*
X171061772Y-195031703D01*
X171226184Y-194999000D01*
X171393816Y-194999000D01*
X171558228Y-195031703D01*
G37*
G36*
X179781000Y-196701000D02*
G01*
X178079000Y-196701000D01*
X178079000Y-194999000D01*
X179781000Y-194999000D01*
X179781000Y-196701000D01*
G37*
G36*
X174098228Y-195031703D02*
G01*
X174253100Y-195095853D01*
X174392481Y-195188985D01*
X174511015Y-195307519D01*
X174604147Y-195446900D01*
X174668297Y-195601772D01*
X174701000Y-195766184D01*
X174701000Y-195933816D01*
X174668297Y-196098228D01*
X174604147Y-196253100D01*
X174511015Y-196392481D01*
X174392481Y-196511015D01*
X174253100Y-196604147D01*
X174098228Y-196668297D01*
X173933816Y-196701000D01*
X173766184Y-196701000D01*
X173601772Y-196668297D01*
X173446900Y-196604147D01*
X173307519Y-196511015D01*
X173188985Y-196392481D01*
X173095853Y-196253100D01*
X173031703Y-196098228D01*
X172999000Y-195933816D01*
X172999000Y-195766184D01*
X173031703Y-195601772D01*
X173095853Y-195446900D01*
X173188985Y-195307519D01*
X173307519Y-195188985D01*
X173446900Y-195095853D01*
X173601772Y-195031703D01*
X173766184Y-194999000D01*
X173933816Y-194999000D01*
X174098228Y-195031703D01*
G37*
G36*
X176638228Y-195031703D02*
G01*
X176793100Y-195095853D01*
X176932481Y-195188985D01*
X177051015Y-195307519D01*
X177144147Y-195446900D01*
X177208297Y-195601772D01*
X177241000Y-195766184D01*
X177241000Y-195933816D01*
X177208297Y-196098228D01*
X177144147Y-196253100D01*
X177051015Y-196392481D01*
X176932481Y-196511015D01*
X176793100Y-196604147D01*
X176638228Y-196668297D01*
X176473816Y-196701000D01*
X176306184Y-196701000D01*
X176141772Y-196668297D01*
X175986900Y-196604147D01*
X175847519Y-196511015D01*
X175728985Y-196392481D01*
X175635853Y-196253100D01*
X175571703Y-196098228D01*
X175539000Y-195933816D01*
X175539000Y-195766184D01*
X175571703Y-195601772D01*
X175635853Y-195446900D01*
X175728985Y-195307519D01*
X175847519Y-195188985D01*
X175986900Y-195095853D01*
X176141772Y-195031703D01*
X176306184Y-194999000D01*
X176473816Y-194999000D01*
X176638228Y-195031703D01*
G37*
G36*
X204583642Y-194579781D02*
G01*
X204729414Y-194640162D01*
X204729416Y-194640163D01*
X204860608Y-194727822D01*
X204972178Y-194839392D01*
X205059837Y-194970584D01*
X205059838Y-194970586D01*
X205120219Y-195116358D01*
X205151000Y-195271107D01*
X205151000Y-195428893D01*
X205120219Y-195583642D01*
X205112709Y-195601772D01*
X205059837Y-195729416D01*
X204972178Y-195860608D01*
X204860608Y-195972178D01*
X204729416Y-196059837D01*
X204729415Y-196059838D01*
X204729414Y-196059838D01*
X204583642Y-196120219D01*
X204428893Y-196151000D01*
X204271107Y-196151000D01*
X204116358Y-196120219D01*
X203970586Y-196059838D01*
X203970585Y-196059838D01*
X203970584Y-196059837D01*
X203839392Y-195972178D01*
X203727822Y-195860608D01*
X203640163Y-195729416D01*
X203587291Y-195601772D01*
X203579781Y-195583642D01*
X203549000Y-195428893D01*
X203549000Y-195271107D01*
X203579781Y-195116358D01*
X203640162Y-194970586D01*
X203640163Y-194970584D01*
X203727822Y-194839392D01*
X203839392Y-194727822D01*
X203970584Y-194640163D01*
X203970586Y-194640162D01*
X204116358Y-194579781D01*
X204271107Y-194549000D01*
X204428893Y-194549000D01*
X204583642Y-194579781D01*
G37*
G36*
X209663642Y-194579781D02*
G01*
X209809414Y-194640162D01*
X209809416Y-194640163D01*
X209940608Y-194727822D01*
X210052178Y-194839392D01*
X210139837Y-194970584D01*
X210139838Y-194970586D01*
X210200219Y-195116358D01*
X210231000Y-195271107D01*
X210231000Y-195428893D01*
X210200219Y-195583642D01*
X210192709Y-195601772D01*
X210139837Y-195729416D01*
X210052178Y-195860608D01*
X209940608Y-195972178D01*
X209809416Y-196059837D01*
X209809415Y-196059838D01*
X209809414Y-196059838D01*
X209663642Y-196120219D01*
X209508893Y-196151000D01*
X209351107Y-196151000D01*
X209196358Y-196120219D01*
X209050586Y-196059838D01*
X209050585Y-196059838D01*
X209050584Y-196059837D01*
X208919392Y-195972178D01*
X208807822Y-195860608D01*
X208720163Y-195729416D01*
X208667291Y-195601772D01*
X208659781Y-195583642D01*
X208629000Y-195428893D01*
X208629000Y-195271107D01*
X208659781Y-195116358D01*
X208720162Y-194970586D01*
X208720163Y-194970584D01*
X208807822Y-194839392D01*
X208919392Y-194727822D01*
X209050584Y-194640163D01*
X209050586Y-194640162D01*
X209196358Y-194579781D01*
X209351107Y-194549000D01*
X209508893Y-194549000D01*
X209663642Y-194579781D01*
G37*
G36*
X209663642Y-192039781D02*
G01*
X209809414Y-192100162D01*
X209809416Y-192100163D01*
X209940608Y-192187822D01*
X210052178Y-192299392D01*
X210139837Y-192430584D01*
X210139838Y-192430586D01*
X210200219Y-192576358D01*
X210231000Y-192731107D01*
X210231000Y-192888893D01*
X210200219Y-193043642D01*
X210139838Y-193189414D01*
X210139837Y-193189416D01*
X210052178Y-193320608D01*
X209940608Y-193432178D01*
X209809416Y-193519837D01*
X209809415Y-193519838D01*
X209809414Y-193519838D01*
X209663642Y-193580219D01*
X209508893Y-193611000D01*
X209351107Y-193611000D01*
X209196358Y-193580219D01*
X209050586Y-193519838D01*
X209050585Y-193519838D01*
X209050584Y-193519837D01*
X208919392Y-193432178D01*
X208807822Y-193320608D01*
X208720163Y-193189416D01*
X208720162Y-193189414D01*
X208659781Y-193043642D01*
X208629000Y-192888893D01*
X208629000Y-192731107D01*
X208659781Y-192576358D01*
X208720162Y-192430586D01*
X208720163Y-192430584D01*
X208807822Y-192299392D01*
X208919392Y-192187822D01*
X209050584Y-192100163D01*
X209050586Y-192100162D01*
X209196358Y-192039781D01*
X209351107Y-192009000D01*
X209508893Y-192009000D01*
X209663642Y-192039781D01*
G37*
G36*
X204583642Y-192039781D02*
G01*
X204729414Y-192100162D01*
X204729416Y-192100163D01*
X204860608Y-192187822D01*
X204972178Y-192299392D01*
X205059837Y-192430584D01*
X205059838Y-192430586D01*
X205120219Y-192576358D01*
X205151000Y-192731107D01*
X205151000Y-192888893D01*
X205120219Y-193043642D01*
X205059838Y-193189414D01*
X205059837Y-193189416D01*
X204972178Y-193320608D01*
X204860608Y-193432178D01*
X204729416Y-193519837D01*
X204729415Y-193519838D01*
X204729414Y-193519838D01*
X204583642Y-193580219D01*
X204428893Y-193611000D01*
X204271107Y-193611000D01*
X204116358Y-193580219D01*
X203970586Y-193519838D01*
X203970585Y-193519838D01*
X203970584Y-193519837D01*
X203839392Y-193432178D01*
X203727822Y-193320608D01*
X203640163Y-193189416D01*
X203640162Y-193189414D01*
X203579781Y-193043642D01*
X203549000Y-192888893D01*
X203549000Y-192731107D01*
X203579781Y-192576358D01*
X203640162Y-192430586D01*
X203640163Y-192430584D01*
X203727822Y-192299392D01*
X203839392Y-192187822D01*
X203970584Y-192100163D01*
X203970586Y-192100162D01*
X204116358Y-192039781D01*
X204271107Y-192009000D01*
X204428893Y-192009000D01*
X204583642Y-192039781D01*
G37*
G36*
X220074644Y-187319272D02*
G01*
X220261162Y-187375852D01*
X220338737Y-187399384D01*
X220541625Y-187507830D01*
X220582120Y-187529475D01*
X220630263Y-187568985D01*
X220795450Y-187704550D01*
X220895859Y-187826900D01*
X220970525Y-187917880D01*
X220970526Y-187917882D01*
X221100616Y-188161263D01*
X221103804Y-188171772D01*
X221180728Y-188425357D01*
X221201000Y-188631183D01*
X221201000Y-189368818D01*
X221180728Y-189574644D01*
X221121462Y-189770017D01*
X221100616Y-189838737D01*
X220977964Y-190068202D01*
X220970525Y-190082120D01*
X220938092Y-190121640D01*
X220795450Y-190295450D01*
X220623797Y-190436320D01*
X220582119Y-190470525D01*
X220582117Y-190470526D01*
X220338736Y-190600616D01*
X220270016Y-190621462D01*
X220074643Y-190680728D01*
X219800000Y-190707778D01*
X219525356Y-190680728D01*
X219329983Y-190621462D01*
X219261263Y-190600616D01*
X219017882Y-190470526D01*
X219017880Y-190470525D01*
X218978360Y-190438092D01*
X218804550Y-190295450D01*
X218629476Y-190082120D01*
X218629475Y-190082119D01*
X218622036Y-190068201D01*
X218499384Y-189838736D01*
X218478538Y-189770016D01*
X218419272Y-189574643D01*
X218399000Y-189368817D01*
X218399000Y-188631182D01*
X218419272Y-188425356D01*
X218496196Y-188171772D01*
X218499384Y-188161263D01*
X218629474Y-187917882D01*
X218629475Y-187917880D01*
X218662599Y-187877519D01*
X218804550Y-187704550D01*
X219002979Y-187541705D01*
X219017881Y-187529475D01*
X219058376Y-187507830D01*
X219261264Y-187399384D01*
X219338839Y-187375852D01*
X219525357Y-187319272D01*
X219800000Y-187292222D01*
X220074644Y-187319272D01*
G37*
G36*
X224274644Y-187319272D02*
G01*
X224461162Y-187375852D01*
X224538737Y-187399384D01*
X224741625Y-187507830D01*
X224782120Y-187529475D01*
X224830263Y-187568985D01*
X224995450Y-187704550D01*
X225095859Y-187826900D01*
X225170525Y-187917880D01*
X225170526Y-187917882D01*
X225300616Y-188161263D01*
X225303804Y-188171772D01*
X225380728Y-188425357D01*
X225401000Y-188631183D01*
X225401000Y-189368818D01*
X225380728Y-189574644D01*
X225321462Y-189770017D01*
X225300616Y-189838737D01*
X225177964Y-190068202D01*
X225170525Y-190082120D01*
X225138092Y-190121640D01*
X224995450Y-190295450D01*
X224823797Y-190436320D01*
X224782119Y-190470525D01*
X224782117Y-190470526D01*
X224538736Y-190600616D01*
X224470016Y-190621462D01*
X224274643Y-190680728D01*
X224000000Y-190707778D01*
X223725356Y-190680728D01*
X223529983Y-190621462D01*
X223461263Y-190600616D01*
X223217882Y-190470526D01*
X223217880Y-190470525D01*
X223178360Y-190438092D01*
X223004550Y-190295450D01*
X222829476Y-190082120D01*
X222829475Y-190082119D01*
X222822036Y-190068201D01*
X222699384Y-189838736D01*
X222678538Y-189770016D01*
X222619272Y-189574643D01*
X222599000Y-189368817D01*
X222599000Y-188631182D01*
X222619272Y-188425356D01*
X222696196Y-188171772D01*
X222699384Y-188161263D01*
X222829474Y-187917882D01*
X222829475Y-187917880D01*
X222862599Y-187877519D01*
X223004550Y-187704550D01*
X223202979Y-187541705D01*
X223217881Y-187529475D01*
X223258376Y-187507830D01*
X223461264Y-187399384D01*
X223538839Y-187375852D01*
X223725357Y-187319272D01*
X224000000Y-187292222D01*
X224274644Y-187319272D01*
G37*
G36*
X228474644Y-187319272D02*
G01*
X228661162Y-187375852D01*
X228738737Y-187399384D01*
X228941625Y-187507830D01*
X228982120Y-187529475D01*
X229030263Y-187568985D01*
X229195450Y-187704550D01*
X229295859Y-187826900D01*
X229370525Y-187917880D01*
X229370526Y-187917882D01*
X229500616Y-188161263D01*
X229503804Y-188171772D01*
X229580728Y-188425357D01*
X229601000Y-188631183D01*
X229601000Y-189368818D01*
X229580728Y-189574644D01*
X229521462Y-189770017D01*
X229500616Y-189838737D01*
X229377964Y-190068202D01*
X229370525Y-190082120D01*
X229338092Y-190121640D01*
X229195450Y-190295450D01*
X229023797Y-190436320D01*
X228982119Y-190470525D01*
X228982117Y-190470526D01*
X228738736Y-190600616D01*
X228670016Y-190621462D01*
X228474643Y-190680728D01*
X228200000Y-190707778D01*
X227925356Y-190680728D01*
X227729983Y-190621462D01*
X227661263Y-190600616D01*
X227417882Y-190470526D01*
X227417880Y-190470525D01*
X227378360Y-190438092D01*
X227204550Y-190295450D01*
X227029476Y-190082120D01*
X227029475Y-190082119D01*
X227022036Y-190068201D01*
X226899384Y-189838736D01*
X226878538Y-189770016D01*
X226819272Y-189574643D01*
X226799000Y-189368817D01*
X226799000Y-188631182D01*
X226819272Y-188425356D01*
X226896196Y-188171772D01*
X226899384Y-188161263D01*
X227029474Y-187917882D01*
X227029475Y-187917880D01*
X227062599Y-187877519D01*
X227204550Y-187704550D01*
X227402979Y-187541705D01*
X227417881Y-187529475D01*
X227458376Y-187507830D01*
X227661264Y-187399384D01*
X227738839Y-187375852D01*
X227925357Y-187319272D01*
X228200000Y-187292222D01*
X228474644Y-187319272D01*
G37*
G36*
X232674644Y-187319272D02*
G01*
X232861162Y-187375852D01*
X232938737Y-187399384D01*
X233141625Y-187507830D01*
X233182120Y-187529475D01*
X233230263Y-187568985D01*
X233395450Y-187704550D01*
X233495859Y-187826900D01*
X233570525Y-187917880D01*
X233570526Y-187917882D01*
X233700616Y-188161263D01*
X233703804Y-188171772D01*
X233780728Y-188425357D01*
X233801000Y-188631183D01*
X233801000Y-189368818D01*
X233780728Y-189574644D01*
X233721462Y-189770017D01*
X233700616Y-189838737D01*
X233577964Y-190068202D01*
X233570525Y-190082120D01*
X233538092Y-190121640D01*
X233395450Y-190295450D01*
X233223797Y-190436320D01*
X233182119Y-190470525D01*
X233182117Y-190470526D01*
X232938736Y-190600616D01*
X232870016Y-190621462D01*
X232674643Y-190680728D01*
X232400000Y-190707778D01*
X232125356Y-190680728D01*
X231929983Y-190621462D01*
X231861263Y-190600616D01*
X231617882Y-190470526D01*
X231617880Y-190470525D01*
X231578360Y-190438092D01*
X231404550Y-190295450D01*
X231229476Y-190082120D01*
X231229475Y-190082119D01*
X231222036Y-190068201D01*
X231099384Y-189838736D01*
X231078538Y-189770016D01*
X231019272Y-189574643D01*
X230999000Y-189368817D01*
X230999000Y-188631182D01*
X231019272Y-188425356D01*
X231096196Y-188171772D01*
X231099384Y-188161263D01*
X231229474Y-187917882D01*
X231229475Y-187917880D01*
X231262599Y-187877519D01*
X231404550Y-187704550D01*
X231602979Y-187541705D01*
X231617881Y-187529475D01*
X231658376Y-187507830D01*
X231861264Y-187399384D01*
X231938839Y-187375852D01*
X232125357Y-187319272D01*
X232400000Y-187292222D01*
X232674644Y-187319272D01*
G37*
G36*
X236874644Y-187319272D02*
G01*
X237061162Y-187375852D01*
X237138737Y-187399384D01*
X237341625Y-187507830D01*
X237382120Y-187529475D01*
X237430263Y-187568985D01*
X237595450Y-187704550D01*
X237695859Y-187826900D01*
X237770525Y-187917880D01*
X237770526Y-187917882D01*
X237900616Y-188161263D01*
X237903804Y-188171772D01*
X237980728Y-188425357D01*
X238001000Y-188631183D01*
X238001000Y-189368818D01*
X237980728Y-189574644D01*
X237921462Y-189770017D01*
X237900616Y-189838737D01*
X237777964Y-190068202D01*
X237770525Y-190082120D01*
X237738092Y-190121640D01*
X237595450Y-190295450D01*
X237423797Y-190436320D01*
X237382119Y-190470525D01*
X237382117Y-190470526D01*
X237138736Y-190600616D01*
X237070016Y-190621462D01*
X236874643Y-190680728D01*
X236600000Y-190707778D01*
X236325356Y-190680728D01*
X236129983Y-190621462D01*
X236061263Y-190600616D01*
X235817882Y-190470526D01*
X235817880Y-190470525D01*
X235778360Y-190438092D01*
X235604550Y-190295450D01*
X235429476Y-190082120D01*
X235429475Y-190082119D01*
X235422036Y-190068201D01*
X235299384Y-189838736D01*
X235278538Y-189770016D01*
X235219272Y-189574643D01*
X235199000Y-189368817D01*
X235199000Y-188631182D01*
X235219272Y-188425356D01*
X235296196Y-188171772D01*
X235299384Y-188161263D01*
X235429474Y-187917882D01*
X235429475Y-187917880D01*
X235462599Y-187877519D01*
X235604550Y-187704550D01*
X235802979Y-187541705D01*
X235817881Y-187529475D01*
X235858376Y-187507830D01*
X236061264Y-187399384D01*
X236138839Y-187375852D01*
X236325357Y-187319272D01*
X236600000Y-187292222D01*
X236874644Y-187319272D01*
G37*
G36*
X241074644Y-187319272D02*
G01*
X241261162Y-187375852D01*
X241338737Y-187399384D01*
X241541625Y-187507830D01*
X241582120Y-187529475D01*
X241630263Y-187568985D01*
X241795450Y-187704550D01*
X241895859Y-187826900D01*
X241970525Y-187917880D01*
X241970526Y-187917882D01*
X242100616Y-188161263D01*
X242103804Y-188171772D01*
X242180728Y-188425357D01*
X242201000Y-188631183D01*
X242201000Y-189368818D01*
X242180728Y-189574644D01*
X242121462Y-189770017D01*
X242100616Y-189838737D01*
X241977964Y-190068202D01*
X241970525Y-190082120D01*
X241938092Y-190121640D01*
X241795450Y-190295450D01*
X241623797Y-190436320D01*
X241582119Y-190470525D01*
X241582117Y-190470526D01*
X241338736Y-190600616D01*
X241270016Y-190621462D01*
X241074643Y-190680728D01*
X240800000Y-190707778D01*
X240525356Y-190680728D01*
X240329983Y-190621462D01*
X240261263Y-190600616D01*
X240017882Y-190470526D01*
X240017880Y-190470525D01*
X239978360Y-190438092D01*
X239804550Y-190295450D01*
X239629476Y-190082120D01*
X239629475Y-190082119D01*
X239622036Y-190068201D01*
X239499384Y-189838736D01*
X239478538Y-189770016D01*
X239419272Y-189574643D01*
X239399000Y-189368817D01*
X239399000Y-188631182D01*
X239419272Y-188425356D01*
X239496196Y-188171772D01*
X239499384Y-188161263D01*
X239629474Y-187917882D01*
X239629475Y-187917880D01*
X239662599Y-187877519D01*
X239804550Y-187704550D01*
X240002979Y-187541705D01*
X240017881Y-187529475D01*
X240058376Y-187507830D01*
X240261264Y-187399384D01*
X240338839Y-187375852D01*
X240525357Y-187319272D01*
X240800000Y-187292222D01*
X241074644Y-187319272D01*
G37*
G36*
X245274644Y-187319272D02*
G01*
X245461162Y-187375852D01*
X245538737Y-187399384D01*
X245741625Y-187507830D01*
X245782120Y-187529475D01*
X245830263Y-187568985D01*
X245995450Y-187704550D01*
X246095859Y-187826900D01*
X246170525Y-187917880D01*
X246170526Y-187917882D01*
X246300616Y-188161263D01*
X246303804Y-188171772D01*
X246380728Y-188425357D01*
X246401000Y-188631183D01*
X246401000Y-189368818D01*
X246380728Y-189574644D01*
X246321462Y-189770017D01*
X246300616Y-189838737D01*
X246177964Y-190068202D01*
X246170525Y-190082120D01*
X246138092Y-190121640D01*
X245995450Y-190295450D01*
X245823797Y-190436320D01*
X245782119Y-190470525D01*
X245782117Y-190470526D01*
X245538736Y-190600616D01*
X245470016Y-190621462D01*
X245274643Y-190680728D01*
X245000000Y-190707778D01*
X244725356Y-190680728D01*
X244529983Y-190621462D01*
X244461263Y-190600616D01*
X244217882Y-190470526D01*
X244217880Y-190470525D01*
X244178360Y-190438092D01*
X244004550Y-190295450D01*
X243829476Y-190082120D01*
X243829475Y-190082119D01*
X243822036Y-190068201D01*
X243699384Y-189838736D01*
X243678538Y-189770016D01*
X243619272Y-189574643D01*
X243599000Y-189368817D01*
X243599000Y-188631182D01*
X243619272Y-188425356D01*
X243696196Y-188171772D01*
X243699384Y-188161263D01*
X243829474Y-187917882D01*
X243829475Y-187917880D01*
X243862599Y-187877519D01*
X244004550Y-187704550D01*
X244202979Y-187541705D01*
X244217881Y-187529475D01*
X244258376Y-187507830D01*
X244461264Y-187399384D01*
X244538839Y-187375852D01*
X244725357Y-187319272D01*
X245000000Y-187292222D01*
X245274644Y-187319272D01*
G37*
G36*
X249474644Y-187319272D02*
G01*
X249661162Y-187375852D01*
X249738737Y-187399384D01*
X249941625Y-187507830D01*
X249982120Y-187529475D01*
X250030263Y-187568985D01*
X250195450Y-187704550D01*
X250295859Y-187826900D01*
X250370525Y-187917880D01*
X250370526Y-187917882D01*
X250500616Y-188161263D01*
X250503804Y-188171772D01*
X250580728Y-188425357D01*
X250601000Y-188631183D01*
X250601000Y-189368818D01*
X250580728Y-189574644D01*
X250521462Y-189770017D01*
X250500616Y-189838737D01*
X250377964Y-190068202D01*
X250370525Y-190082120D01*
X250338092Y-190121640D01*
X250195450Y-190295450D01*
X250023797Y-190436320D01*
X249982119Y-190470525D01*
X249982117Y-190470526D01*
X249738736Y-190600616D01*
X249670016Y-190621462D01*
X249474643Y-190680728D01*
X249200000Y-190707778D01*
X248925356Y-190680728D01*
X248729983Y-190621462D01*
X248661263Y-190600616D01*
X248417882Y-190470526D01*
X248417880Y-190470525D01*
X248378360Y-190438092D01*
X248204550Y-190295450D01*
X248029476Y-190082120D01*
X248029475Y-190082119D01*
X248022036Y-190068201D01*
X247899384Y-189838736D01*
X247878538Y-189770016D01*
X247819272Y-189574643D01*
X247799000Y-189368817D01*
X247799000Y-188631182D01*
X247819272Y-188425356D01*
X247896196Y-188171772D01*
X247899384Y-188161263D01*
X248029474Y-187917882D01*
X248029475Y-187917880D01*
X248062599Y-187877519D01*
X248204550Y-187704550D01*
X248402979Y-187541705D01*
X248417881Y-187529475D01*
X248458376Y-187507830D01*
X248661264Y-187399384D01*
X248738839Y-187375852D01*
X248925357Y-187319272D01*
X249200000Y-187292222D01*
X249474644Y-187319272D01*
G37*
G36*
X253674644Y-187319272D02*
G01*
X253861162Y-187375852D01*
X253938737Y-187399384D01*
X254141625Y-187507830D01*
X254182120Y-187529475D01*
X254230263Y-187568985D01*
X254395450Y-187704550D01*
X254495859Y-187826900D01*
X254570525Y-187917880D01*
X254570526Y-187917882D01*
X254700616Y-188161263D01*
X254703804Y-188171772D01*
X254780728Y-188425357D01*
X254801000Y-188631183D01*
X254801000Y-189368818D01*
X254780728Y-189574644D01*
X254721462Y-189770017D01*
X254700616Y-189838737D01*
X254577964Y-190068202D01*
X254570525Y-190082120D01*
X254538092Y-190121640D01*
X254395450Y-190295450D01*
X254223797Y-190436320D01*
X254182119Y-190470525D01*
X254182117Y-190470526D01*
X253938736Y-190600616D01*
X253870016Y-190621462D01*
X253674643Y-190680728D01*
X253400000Y-190707778D01*
X253125356Y-190680728D01*
X252929983Y-190621462D01*
X252861263Y-190600616D01*
X252617882Y-190470526D01*
X252617880Y-190470525D01*
X252578360Y-190438092D01*
X252404550Y-190295450D01*
X252229476Y-190082120D01*
X252229475Y-190082119D01*
X252222036Y-190068201D01*
X252099384Y-189838736D01*
X252078538Y-189770016D01*
X252019272Y-189574643D01*
X251999000Y-189368817D01*
X251999000Y-188631182D01*
X252019272Y-188425356D01*
X252096196Y-188171772D01*
X252099384Y-188161263D01*
X252229474Y-187917882D01*
X252229475Y-187917880D01*
X252262599Y-187877519D01*
X252404550Y-187704550D01*
X252602979Y-187541705D01*
X252617881Y-187529475D01*
X252658376Y-187507830D01*
X252861264Y-187399384D01*
X252938839Y-187375852D01*
X253125357Y-187319272D01*
X253400000Y-187292222D01*
X253674644Y-187319272D01*
G37*
G36*
X257874644Y-187319272D02*
G01*
X258061162Y-187375852D01*
X258138737Y-187399384D01*
X258341625Y-187507830D01*
X258382120Y-187529475D01*
X258430263Y-187568985D01*
X258595450Y-187704550D01*
X258695859Y-187826900D01*
X258770525Y-187917880D01*
X258770526Y-187917882D01*
X258900616Y-188161263D01*
X258903804Y-188171772D01*
X258980728Y-188425357D01*
X259001000Y-188631183D01*
X259001000Y-189368818D01*
X258980728Y-189574644D01*
X258921462Y-189770017D01*
X258900616Y-189838737D01*
X258777964Y-190068202D01*
X258770525Y-190082120D01*
X258738092Y-190121640D01*
X258595450Y-190295450D01*
X258423797Y-190436320D01*
X258382119Y-190470525D01*
X258382117Y-190470526D01*
X258138736Y-190600616D01*
X258070016Y-190621462D01*
X257874643Y-190680728D01*
X257600000Y-190707778D01*
X257325356Y-190680728D01*
X257129983Y-190621462D01*
X257061263Y-190600616D01*
X256817882Y-190470526D01*
X256817880Y-190470525D01*
X256778360Y-190438092D01*
X256604550Y-190295450D01*
X256429476Y-190082120D01*
X256429475Y-190082119D01*
X256422036Y-190068201D01*
X256299384Y-189838736D01*
X256278538Y-189770016D01*
X256219272Y-189574643D01*
X256199000Y-189368817D01*
X256199000Y-188631182D01*
X256219272Y-188425356D01*
X256296196Y-188171772D01*
X256299384Y-188161263D01*
X256429474Y-187917882D01*
X256429475Y-187917880D01*
X256462599Y-187877519D01*
X256604550Y-187704550D01*
X256802979Y-187541705D01*
X256817881Y-187529475D01*
X256858376Y-187507830D01*
X257061264Y-187399384D01*
X257138839Y-187375852D01*
X257325357Y-187319272D01*
X257600000Y-187292222D01*
X257874644Y-187319272D01*
G37*
G36*
X262074644Y-187319272D02*
G01*
X262261162Y-187375852D01*
X262338737Y-187399384D01*
X262541625Y-187507830D01*
X262582120Y-187529475D01*
X262630263Y-187568985D01*
X262795450Y-187704550D01*
X262895859Y-187826900D01*
X262970525Y-187917880D01*
X262970526Y-187917882D01*
X263100616Y-188161263D01*
X263103804Y-188171772D01*
X263180728Y-188425357D01*
X263201000Y-188631183D01*
X263201000Y-189368818D01*
X263180728Y-189574644D01*
X263121462Y-189770017D01*
X263100616Y-189838737D01*
X262977964Y-190068202D01*
X262970525Y-190082120D01*
X262938092Y-190121640D01*
X262795450Y-190295450D01*
X262623797Y-190436320D01*
X262582119Y-190470525D01*
X262582117Y-190470526D01*
X262338736Y-190600616D01*
X262270016Y-190621462D01*
X262074643Y-190680728D01*
X261800000Y-190707778D01*
X261525356Y-190680728D01*
X261329983Y-190621462D01*
X261261263Y-190600616D01*
X261017882Y-190470526D01*
X261017880Y-190470525D01*
X260978360Y-190438092D01*
X260804550Y-190295450D01*
X260629476Y-190082120D01*
X260629475Y-190082119D01*
X260622036Y-190068201D01*
X260499384Y-189838736D01*
X260478538Y-189770016D01*
X260419272Y-189574643D01*
X260399000Y-189368817D01*
X260399000Y-188631182D01*
X260419272Y-188425356D01*
X260496196Y-188171772D01*
X260499384Y-188161263D01*
X260629474Y-187917882D01*
X260629475Y-187917880D01*
X260662599Y-187877519D01*
X260804550Y-187704550D01*
X261002979Y-187541705D01*
X261017881Y-187529475D01*
X261058376Y-187507830D01*
X261261264Y-187399384D01*
X261338839Y-187375852D01*
X261525357Y-187319272D01*
X261800000Y-187292222D01*
X262074644Y-187319272D01*
G37*
G36*
X267274031Y-187302621D02*
G01*
X267303486Y-187311556D01*
X267330623Y-187326062D01*
X267354414Y-187345586D01*
X267373938Y-187369377D01*
X267388444Y-187396514D01*
X267397379Y-187425969D01*
X267401000Y-187462734D01*
X267401000Y-190537266D01*
X267397379Y-190574031D01*
X267388444Y-190603486D01*
X267373938Y-190630623D01*
X267354414Y-190654414D01*
X267330623Y-190673938D01*
X267303486Y-190688444D01*
X267274031Y-190697379D01*
X267237266Y-190701000D01*
X264762734Y-190701000D01*
X264725969Y-190697379D01*
X264696514Y-190688444D01*
X264669377Y-190673938D01*
X264645586Y-190654414D01*
X264626062Y-190630623D01*
X264611556Y-190603486D01*
X264602621Y-190574031D01*
X264599000Y-190537266D01*
X264599000Y-187462734D01*
X264602621Y-187425969D01*
X264611556Y-187396514D01*
X264626062Y-187369377D01*
X264645586Y-187345586D01*
X264669377Y-187326062D01*
X264696514Y-187311556D01*
X264725969Y-187302621D01*
X264762734Y-187299000D01*
X267237266Y-187299000D01*
X267274031Y-187302621D01*
G37*
G36*
X195388228Y-187601703D02*
G01*
X195543100Y-187665853D01*
X195682481Y-187758985D01*
X195801015Y-187877519D01*
X195894147Y-188016900D01*
X195958297Y-188171772D01*
X195991000Y-188336184D01*
X195991000Y-188503816D01*
X195958297Y-188668228D01*
X195894147Y-188823100D01*
X195801015Y-188962481D01*
X195682481Y-189081015D01*
X195543100Y-189174147D01*
X195388228Y-189238297D01*
X195223816Y-189271000D01*
X195056184Y-189271000D01*
X194891772Y-189238297D01*
X194736900Y-189174147D01*
X194597519Y-189081015D01*
X194478985Y-188962481D01*
X194385853Y-188823100D01*
X194321703Y-188668228D01*
X194289000Y-188503816D01*
X194289000Y-188336184D01*
X194321703Y-188171772D01*
X194385853Y-188016900D01*
X194478985Y-187877519D01*
X194597519Y-187758985D01*
X194736900Y-187665853D01*
X194891772Y-187601703D01*
X195056184Y-187569000D01*
X195223816Y-187569000D01*
X195388228Y-187601703D01*
G37*
G36*
X189038228Y-187541703D02*
G01*
X189193100Y-187605853D01*
X189332481Y-187698985D01*
X189451015Y-187817519D01*
X189544147Y-187956900D01*
X189608297Y-188111772D01*
X189641000Y-188276184D01*
X189641000Y-188443816D01*
X189608297Y-188608228D01*
X189544147Y-188763100D01*
X189451015Y-188902481D01*
X189332481Y-189021015D01*
X189193100Y-189114147D01*
X189038228Y-189178297D01*
X188873816Y-189211000D01*
X188706184Y-189211000D01*
X188541772Y-189178297D01*
X188386900Y-189114147D01*
X188247519Y-189021015D01*
X188128985Y-188902481D01*
X188035853Y-188763100D01*
X187971703Y-188608228D01*
X187939000Y-188443816D01*
X187939000Y-188276184D01*
X187971703Y-188111772D01*
X188035853Y-187956900D01*
X188128985Y-187817519D01*
X188247519Y-187698985D01*
X188386900Y-187605853D01*
X188541772Y-187541703D01*
X188706184Y-187509000D01*
X188873816Y-187509000D01*
X189038228Y-187541703D01*
G37*
G36*
X178983512Y-187333927D02*
G01*
X179132812Y-187363624D01*
X179296784Y-187431544D01*
X179444354Y-187530147D01*
X179569853Y-187655646D01*
X179668456Y-187803216D01*
X179736376Y-187967188D01*
X179752089Y-188046185D01*
X179771000Y-188141258D01*
X179771000Y-188318742D01*
X179767530Y-188336185D01*
X179736376Y-188492812D01*
X179668456Y-188656784D01*
X179569853Y-188804354D01*
X179444354Y-188929853D01*
X179296784Y-189028456D01*
X179132812Y-189096376D01*
X178983512Y-189126073D01*
X178958742Y-189131000D01*
X178781258Y-189131000D01*
X178756488Y-189126073D01*
X178607188Y-189096376D01*
X178443216Y-189028456D01*
X178295646Y-188929853D01*
X178170147Y-188804354D01*
X178071544Y-188656784D01*
X178003624Y-188492812D01*
X177972470Y-188336185D01*
X177969000Y-188318742D01*
X177969000Y-188141258D01*
X177987911Y-188046185D01*
X178003624Y-187967188D01*
X178071544Y-187803216D01*
X178170147Y-187655646D01*
X178295646Y-187530147D01*
X178443216Y-187431544D01*
X178607188Y-187363624D01*
X178756488Y-187333927D01*
X178781258Y-187329000D01*
X178958742Y-187329000D01*
X178983512Y-187333927D01*
G37*
G36*
X182311000Y-189131000D02*
G01*
X180509000Y-189131000D01*
X180509000Y-187329000D01*
X182311000Y-187329000D01*
X182311000Y-189131000D01*
G37*
G36*
X172148228Y-187411703D02*
G01*
X172303100Y-187475853D01*
X172442481Y-187568985D01*
X172561015Y-187687519D01*
X172654147Y-187826900D01*
X172718297Y-187981772D01*
X172751000Y-188146184D01*
X172751000Y-188313816D01*
X172718297Y-188478228D01*
X172654147Y-188633100D01*
X172561015Y-188772481D01*
X172442481Y-188891015D01*
X172303100Y-188984147D01*
X172148228Y-189048297D01*
X171983816Y-189081000D01*
X171816184Y-189081000D01*
X171651772Y-189048297D01*
X171496900Y-188984147D01*
X171357519Y-188891015D01*
X171238985Y-188772481D01*
X171145853Y-188633100D01*
X171081703Y-188478228D01*
X171049000Y-188313816D01*
X171049000Y-188146184D01*
X171081703Y-187981772D01*
X171145853Y-187826900D01*
X171238985Y-187687519D01*
X171357519Y-187568985D01*
X171496900Y-187475853D01*
X171651772Y-187411703D01*
X171816184Y-187379000D01*
X171983816Y-187379000D01*
X172148228Y-187411703D01*
G37*
G36*
X165828228Y-187311703D02*
G01*
X165983100Y-187375853D01*
X166122481Y-187468985D01*
X166241015Y-187587519D01*
X166334147Y-187726900D01*
X166398297Y-187881772D01*
X166431000Y-188046184D01*
X166431000Y-188213816D01*
X166398297Y-188378228D01*
X166334147Y-188533100D01*
X166241015Y-188672481D01*
X166122481Y-188791015D01*
X165983100Y-188884147D01*
X165828228Y-188948297D01*
X165663816Y-188981000D01*
X165496184Y-188981000D01*
X165331772Y-188948297D01*
X165176900Y-188884147D01*
X165037519Y-188791015D01*
X164918985Y-188672481D01*
X164825853Y-188533100D01*
X164761703Y-188378228D01*
X164729000Y-188213816D01*
X164729000Y-188046184D01*
X164761703Y-187881772D01*
X164825853Y-187726900D01*
X164918985Y-187587519D01*
X165037519Y-187468985D01*
X165176900Y-187375853D01*
X165331772Y-187311703D01*
X165496184Y-187279000D01*
X165663816Y-187279000D01*
X165828228Y-187311703D01*
G37*
G36*
X275028254Y-184417818D02*
G01*
X275401511Y-184572426D01*
X275401513Y-184572427D01*
X275735287Y-184795448D01*
X275737436Y-184796884D01*
X276023116Y-185082564D01*
X276247574Y-185418489D01*
X276402182Y-185791746D01*
X276481000Y-186187993D01*
X276481000Y-186592007D01*
X276402182Y-186988254D01*
X276265070Y-187319272D01*
X276247573Y-187361513D01*
X276023116Y-187697436D01*
X275737436Y-187983116D01*
X275401513Y-188207573D01*
X275401512Y-188207574D01*
X275401511Y-188207574D01*
X275028254Y-188362182D01*
X274632007Y-188441000D01*
X274227993Y-188441000D01*
X273831746Y-188362182D01*
X273458489Y-188207574D01*
X273458488Y-188207574D01*
X273458487Y-188207573D01*
X273122564Y-187983116D01*
X272836884Y-187697436D01*
X272612427Y-187361513D01*
X272594930Y-187319272D01*
X272457818Y-186988254D01*
X272379000Y-186592007D01*
X272379000Y-186187993D01*
X272457818Y-185791746D01*
X272612426Y-185418489D01*
X272836884Y-185082564D01*
X273122564Y-184796884D01*
X273124713Y-184795448D01*
X273458487Y-184572427D01*
X273458489Y-184572426D01*
X273831746Y-184417818D01*
X274227993Y-184339000D01*
X274632007Y-184339000D01*
X275028254Y-184417818D01*
G37*
G36*
X253674644Y-181819272D02*
G01*
X253862257Y-181876184D01*
X253938737Y-181899384D01*
X254143786Y-182008985D01*
X254182120Y-182029475D01*
X254199593Y-182043815D01*
X254395450Y-182204550D01*
X254524918Y-182362309D01*
X254570525Y-182417880D01*
X254570526Y-182417882D01*
X254700616Y-182661263D01*
X254700617Y-182661267D01*
X254780728Y-182925357D01*
X254801000Y-183131183D01*
X254801000Y-183868818D01*
X254780728Y-184074644D01*
X254721462Y-184270017D01*
X254700616Y-184338737D01*
X254577964Y-184568202D01*
X254570525Y-184582120D01*
X254538092Y-184621640D01*
X254395450Y-184795450D01*
X254223797Y-184936320D01*
X254182119Y-184970525D01*
X254182117Y-184970526D01*
X253938736Y-185100616D01*
X253870016Y-185121462D01*
X253674643Y-185180728D01*
X253400000Y-185207778D01*
X253125356Y-185180728D01*
X252929983Y-185121462D01*
X252861263Y-185100616D01*
X252617882Y-184970526D01*
X252617880Y-184970525D01*
X252578360Y-184938092D01*
X252404550Y-184795450D01*
X252229476Y-184582120D01*
X252229475Y-184582119D01*
X252222036Y-184568201D01*
X252099384Y-184338736D01*
X252078538Y-184270016D01*
X252019272Y-184074643D01*
X251999000Y-183868817D01*
X251999000Y-183131182D01*
X252004721Y-183073100D01*
X252019272Y-182925358D01*
X252019272Y-182925356D01*
X252099383Y-182661267D01*
X252099384Y-182661263D01*
X252229474Y-182417882D01*
X252229475Y-182417880D01*
X252274435Y-182363097D01*
X252404550Y-182204550D01*
X252600408Y-182043815D01*
X252617881Y-182029475D01*
X252656215Y-182008985D01*
X252861264Y-181899384D01*
X252937744Y-181876184D01*
X253125357Y-181819272D01*
X253400000Y-181792222D01*
X253674644Y-181819272D01*
G37*
G36*
X249474644Y-181819272D02*
G01*
X249662257Y-181876184D01*
X249738737Y-181899384D01*
X249943786Y-182008985D01*
X249982120Y-182029475D01*
X249999593Y-182043815D01*
X250195450Y-182204550D01*
X250324918Y-182362309D01*
X250370525Y-182417880D01*
X250370526Y-182417882D01*
X250500616Y-182661263D01*
X250500617Y-182661267D01*
X250580728Y-182925357D01*
X250601000Y-183131183D01*
X250601000Y-183868818D01*
X250580728Y-184074644D01*
X250521462Y-184270017D01*
X250500616Y-184338737D01*
X250377964Y-184568202D01*
X250370525Y-184582120D01*
X250338092Y-184621640D01*
X250195450Y-184795450D01*
X250023797Y-184936320D01*
X249982119Y-184970525D01*
X249982117Y-184970526D01*
X249738736Y-185100616D01*
X249670016Y-185121462D01*
X249474643Y-185180728D01*
X249200000Y-185207778D01*
X248925356Y-185180728D01*
X248729983Y-185121462D01*
X248661263Y-185100616D01*
X248417882Y-184970526D01*
X248417880Y-184970525D01*
X248378360Y-184938092D01*
X248204550Y-184795450D01*
X248029476Y-184582120D01*
X248029475Y-184582119D01*
X248022036Y-184568201D01*
X247899384Y-184338736D01*
X247878538Y-184270016D01*
X247819272Y-184074643D01*
X247799000Y-183868817D01*
X247799000Y-183131182D01*
X247804721Y-183073100D01*
X247819272Y-182925358D01*
X247819272Y-182925356D01*
X247899383Y-182661267D01*
X247899384Y-182661263D01*
X248029474Y-182417882D01*
X248029475Y-182417880D01*
X248074435Y-182363097D01*
X248204550Y-182204550D01*
X248400408Y-182043815D01*
X248417881Y-182029475D01*
X248456215Y-182008985D01*
X248661264Y-181899384D01*
X248737744Y-181876184D01*
X248925357Y-181819272D01*
X249200000Y-181792222D01*
X249474644Y-181819272D01*
G37*
G36*
X245274644Y-181819272D02*
G01*
X245462257Y-181876184D01*
X245538737Y-181899384D01*
X245743786Y-182008985D01*
X245782120Y-182029475D01*
X245799593Y-182043815D01*
X245995450Y-182204550D01*
X246124918Y-182362309D01*
X246170525Y-182417880D01*
X246170526Y-182417882D01*
X246300616Y-182661263D01*
X246300617Y-182661267D01*
X246380728Y-182925357D01*
X246401000Y-183131183D01*
X246401000Y-183868818D01*
X246380728Y-184074644D01*
X246321462Y-184270017D01*
X246300616Y-184338737D01*
X246177964Y-184568202D01*
X246170525Y-184582120D01*
X246138092Y-184621640D01*
X245995450Y-184795450D01*
X245823797Y-184936320D01*
X245782119Y-184970525D01*
X245782117Y-184970526D01*
X245538736Y-185100616D01*
X245470016Y-185121462D01*
X245274643Y-185180728D01*
X245000000Y-185207778D01*
X244725356Y-185180728D01*
X244529983Y-185121462D01*
X244461263Y-185100616D01*
X244217882Y-184970526D01*
X244217880Y-184970525D01*
X244178360Y-184938092D01*
X244004550Y-184795450D01*
X243829476Y-184582120D01*
X243829475Y-184582119D01*
X243822036Y-184568201D01*
X243699384Y-184338736D01*
X243678538Y-184270016D01*
X243619272Y-184074643D01*
X243599000Y-183868817D01*
X243599000Y-183131182D01*
X243604721Y-183073100D01*
X243619272Y-182925358D01*
X243619272Y-182925356D01*
X243699383Y-182661267D01*
X243699384Y-182661263D01*
X243829474Y-182417882D01*
X243829475Y-182417880D01*
X243874435Y-182363097D01*
X244004550Y-182204550D01*
X244200408Y-182043815D01*
X244217881Y-182029475D01*
X244256215Y-182008985D01*
X244461264Y-181899384D01*
X244537744Y-181876184D01*
X244725357Y-181819272D01*
X245000000Y-181792222D01*
X245274644Y-181819272D01*
G37*
G36*
X241074644Y-181819272D02*
G01*
X241262257Y-181876184D01*
X241338737Y-181899384D01*
X241543786Y-182008985D01*
X241582120Y-182029475D01*
X241599593Y-182043815D01*
X241795450Y-182204550D01*
X241924918Y-182362309D01*
X241970525Y-182417880D01*
X241970526Y-182417882D01*
X242100616Y-182661263D01*
X242100617Y-182661267D01*
X242180728Y-182925357D01*
X242201000Y-183131183D01*
X242201000Y-183868818D01*
X242180728Y-184074644D01*
X242121462Y-184270017D01*
X242100616Y-184338737D01*
X241977964Y-184568202D01*
X241970525Y-184582120D01*
X241938092Y-184621640D01*
X241795450Y-184795450D01*
X241623797Y-184936320D01*
X241582119Y-184970525D01*
X241582117Y-184970526D01*
X241338736Y-185100616D01*
X241270016Y-185121462D01*
X241074643Y-185180728D01*
X240800000Y-185207778D01*
X240525356Y-185180728D01*
X240329983Y-185121462D01*
X240261263Y-185100616D01*
X240017882Y-184970526D01*
X240017880Y-184970525D01*
X239978360Y-184938092D01*
X239804550Y-184795450D01*
X239629476Y-184582120D01*
X239629475Y-184582119D01*
X239622036Y-184568201D01*
X239499384Y-184338736D01*
X239478538Y-184270016D01*
X239419272Y-184074643D01*
X239399000Y-183868817D01*
X239399000Y-183131182D01*
X239404721Y-183073100D01*
X239419272Y-182925358D01*
X239419272Y-182925356D01*
X239499383Y-182661267D01*
X239499384Y-182661263D01*
X239629474Y-182417882D01*
X239629475Y-182417880D01*
X239674435Y-182363097D01*
X239804550Y-182204550D01*
X240000408Y-182043815D01*
X240017881Y-182029475D01*
X240056215Y-182008985D01*
X240261264Y-181899384D01*
X240337744Y-181876184D01*
X240525357Y-181819272D01*
X240800000Y-181792222D01*
X241074644Y-181819272D01*
G37*
G36*
X236874644Y-181819272D02*
G01*
X237062257Y-181876184D01*
X237138737Y-181899384D01*
X237343786Y-182008985D01*
X237382120Y-182029475D01*
X237399593Y-182043815D01*
X237595450Y-182204550D01*
X237724918Y-182362309D01*
X237770525Y-182417880D01*
X237770526Y-182417882D01*
X237900616Y-182661263D01*
X237900617Y-182661267D01*
X237980728Y-182925357D01*
X238001000Y-183131183D01*
X238001000Y-183868818D01*
X237980728Y-184074644D01*
X237921462Y-184270017D01*
X237900616Y-184338737D01*
X237777964Y-184568202D01*
X237770525Y-184582120D01*
X237738092Y-184621640D01*
X237595450Y-184795450D01*
X237423797Y-184936320D01*
X237382119Y-184970525D01*
X237382117Y-184970526D01*
X237138736Y-185100616D01*
X237070016Y-185121462D01*
X236874643Y-185180728D01*
X236600000Y-185207778D01*
X236325356Y-185180728D01*
X236129983Y-185121462D01*
X236061263Y-185100616D01*
X235817882Y-184970526D01*
X235817880Y-184970525D01*
X235778360Y-184938092D01*
X235604550Y-184795450D01*
X235429476Y-184582120D01*
X235429475Y-184582119D01*
X235422036Y-184568201D01*
X235299384Y-184338736D01*
X235278538Y-184270016D01*
X235219272Y-184074643D01*
X235199000Y-183868817D01*
X235199000Y-183131182D01*
X235204721Y-183073100D01*
X235219272Y-182925358D01*
X235219272Y-182925356D01*
X235299383Y-182661267D01*
X235299384Y-182661263D01*
X235429474Y-182417882D01*
X235429475Y-182417880D01*
X235474435Y-182363097D01*
X235604550Y-182204550D01*
X235800408Y-182043815D01*
X235817881Y-182029475D01*
X235856215Y-182008985D01*
X236061264Y-181899384D01*
X236137744Y-181876184D01*
X236325357Y-181819272D01*
X236600000Y-181792222D01*
X236874644Y-181819272D01*
G37*
G36*
X232674644Y-181819272D02*
G01*
X232862257Y-181876184D01*
X232938737Y-181899384D01*
X233143786Y-182008985D01*
X233182120Y-182029475D01*
X233199593Y-182043815D01*
X233395450Y-182204550D01*
X233524918Y-182362309D01*
X233570525Y-182417880D01*
X233570526Y-182417882D01*
X233700616Y-182661263D01*
X233700617Y-182661267D01*
X233780728Y-182925357D01*
X233801000Y-183131183D01*
X233801000Y-183868818D01*
X233780728Y-184074644D01*
X233721462Y-184270017D01*
X233700616Y-184338737D01*
X233577964Y-184568202D01*
X233570525Y-184582120D01*
X233538092Y-184621640D01*
X233395450Y-184795450D01*
X233223797Y-184936320D01*
X233182119Y-184970525D01*
X233182117Y-184970526D01*
X232938736Y-185100616D01*
X232870016Y-185121462D01*
X232674643Y-185180728D01*
X232400000Y-185207778D01*
X232125356Y-185180728D01*
X231929983Y-185121462D01*
X231861263Y-185100616D01*
X231617882Y-184970526D01*
X231617880Y-184970525D01*
X231578360Y-184938092D01*
X231404550Y-184795450D01*
X231229476Y-184582120D01*
X231229475Y-184582119D01*
X231222036Y-184568201D01*
X231099384Y-184338736D01*
X231078538Y-184270016D01*
X231019272Y-184074643D01*
X230999000Y-183868817D01*
X230999000Y-183131182D01*
X231004721Y-183073100D01*
X231019272Y-182925358D01*
X231019272Y-182925356D01*
X231099383Y-182661267D01*
X231099384Y-182661263D01*
X231229474Y-182417882D01*
X231229475Y-182417880D01*
X231274435Y-182363097D01*
X231404550Y-182204550D01*
X231600408Y-182043815D01*
X231617881Y-182029475D01*
X231656215Y-182008985D01*
X231861264Y-181899384D01*
X231937744Y-181876184D01*
X232125357Y-181819272D01*
X232400000Y-181792222D01*
X232674644Y-181819272D01*
G37*
G36*
X228474644Y-181819272D02*
G01*
X228662257Y-181876184D01*
X228738737Y-181899384D01*
X228943786Y-182008985D01*
X228982120Y-182029475D01*
X228999593Y-182043815D01*
X229195450Y-182204550D01*
X229324918Y-182362309D01*
X229370525Y-182417880D01*
X229370526Y-182417882D01*
X229500616Y-182661263D01*
X229500617Y-182661267D01*
X229580728Y-182925357D01*
X229601000Y-183131183D01*
X229601000Y-183868818D01*
X229580728Y-184074644D01*
X229521462Y-184270017D01*
X229500616Y-184338737D01*
X229377964Y-184568202D01*
X229370525Y-184582120D01*
X229338092Y-184621640D01*
X229195450Y-184795450D01*
X229023797Y-184936320D01*
X228982119Y-184970525D01*
X228982117Y-184970526D01*
X228738736Y-185100616D01*
X228670016Y-185121462D01*
X228474643Y-185180728D01*
X228200000Y-185207778D01*
X227925356Y-185180728D01*
X227729983Y-185121462D01*
X227661263Y-185100616D01*
X227417882Y-184970526D01*
X227417880Y-184970525D01*
X227378360Y-184938092D01*
X227204550Y-184795450D01*
X227029476Y-184582120D01*
X227029475Y-184582119D01*
X227022036Y-184568201D01*
X226899384Y-184338736D01*
X226878538Y-184270016D01*
X226819272Y-184074643D01*
X226799000Y-183868817D01*
X226799000Y-183131182D01*
X226804721Y-183073100D01*
X226819272Y-182925358D01*
X226819272Y-182925356D01*
X226899383Y-182661267D01*
X226899384Y-182661263D01*
X227029474Y-182417882D01*
X227029475Y-182417880D01*
X227074435Y-182363097D01*
X227204550Y-182204550D01*
X227400408Y-182043815D01*
X227417881Y-182029475D01*
X227456215Y-182008985D01*
X227661264Y-181899384D01*
X227737744Y-181876184D01*
X227925357Y-181819272D01*
X228200000Y-181792222D01*
X228474644Y-181819272D01*
G37*
G36*
X224274644Y-181819272D02*
G01*
X224462257Y-181876184D01*
X224538737Y-181899384D01*
X224743786Y-182008985D01*
X224782120Y-182029475D01*
X224799593Y-182043815D01*
X224995450Y-182204550D01*
X225124918Y-182362309D01*
X225170525Y-182417880D01*
X225170526Y-182417882D01*
X225300616Y-182661263D01*
X225300617Y-182661267D01*
X225380728Y-182925357D01*
X225401000Y-183131183D01*
X225401000Y-183868818D01*
X225380728Y-184074644D01*
X225321462Y-184270017D01*
X225300616Y-184338737D01*
X225177964Y-184568202D01*
X225170525Y-184582120D01*
X225138092Y-184621640D01*
X224995450Y-184795450D01*
X224823797Y-184936320D01*
X224782119Y-184970525D01*
X224782117Y-184970526D01*
X224538736Y-185100616D01*
X224470016Y-185121462D01*
X224274643Y-185180728D01*
X224000000Y-185207778D01*
X223725356Y-185180728D01*
X223529983Y-185121462D01*
X223461263Y-185100616D01*
X223217882Y-184970526D01*
X223217880Y-184970525D01*
X223178360Y-184938092D01*
X223004550Y-184795450D01*
X222829476Y-184582120D01*
X222829475Y-184582119D01*
X222822036Y-184568201D01*
X222699384Y-184338736D01*
X222678538Y-184270016D01*
X222619272Y-184074643D01*
X222599000Y-183868817D01*
X222599000Y-183131182D01*
X222604721Y-183073100D01*
X222619272Y-182925358D01*
X222619272Y-182925356D01*
X222699383Y-182661267D01*
X222699384Y-182661263D01*
X222829474Y-182417882D01*
X222829475Y-182417880D01*
X222874435Y-182363097D01*
X223004550Y-182204550D01*
X223200408Y-182043815D01*
X223217881Y-182029475D01*
X223256215Y-182008985D01*
X223461264Y-181899384D01*
X223537744Y-181876184D01*
X223725357Y-181819272D01*
X224000000Y-181792222D01*
X224274644Y-181819272D01*
G37*
G36*
X220074644Y-181819272D02*
G01*
X220262257Y-181876184D01*
X220338737Y-181899384D01*
X220543786Y-182008985D01*
X220582120Y-182029475D01*
X220599593Y-182043815D01*
X220795450Y-182204550D01*
X220924918Y-182362309D01*
X220970525Y-182417880D01*
X220970526Y-182417882D01*
X221100616Y-182661263D01*
X221100617Y-182661267D01*
X221180728Y-182925357D01*
X221201000Y-183131183D01*
X221201000Y-183868818D01*
X221180728Y-184074644D01*
X221121462Y-184270017D01*
X221100616Y-184338737D01*
X220977964Y-184568202D01*
X220970525Y-184582120D01*
X220938092Y-184621640D01*
X220795450Y-184795450D01*
X220623797Y-184936320D01*
X220582119Y-184970525D01*
X220582117Y-184970526D01*
X220338736Y-185100616D01*
X220270016Y-185121462D01*
X220074643Y-185180728D01*
X219800000Y-185207778D01*
X219525356Y-185180728D01*
X219329983Y-185121462D01*
X219261263Y-185100616D01*
X219017882Y-184970526D01*
X219017880Y-184970525D01*
X218978360Y-184938092D01*
X218804550Y-184795450D01*
X218629476Y-184582120D01*
X218629475Y-184582119D01*
X218622036Y-184568201D01*
X218499384Y-184338736D01*
X218478538Y-184270016D01*
X218419272Y-184074643D01*
X218399000Y-183868817D01*
X218399000Y-183131182D01*
X218404721Y-183073100D01*
X218419272Y-182925358D01*
X218419272Y-182925356D01*
X218499383Y-182661267D01*
X218499384Y-182661263D01*
X218629474Y-182417882D01*
X218629475Y-182417880D01*
X218674435Y-182363097D01*
X218804550Y-182204550D01*
X219000408Y-182043815D01*
X219017881Y-182029475D01*
X219056215Y-182008985D01*
X219261264Y-181899384D01*
X219337744Y-181876184D01*
X219525357Y-181819272D01*
X219800000Y-181792222D01*
X220074644Y-181819272D01*
G37*
G36*
X262074644Y-181819272D02*
G01*
X262262257Y-181876184D01*
X262338737Y-181899384D01*
X262543786Y-182008985D01*
X262582120Y-182029475D01*
X262599593Y-182043815D01*
X262795450Y-182204550D01*
X262924918Y-182362309D01*
X262970525Y-182417880D01*
X262970526Y-182417882D01*
X263100616Y-182661263D01*
X263100617Y-182661267D01*
X263180728Y-182925357D01*
X263201000Y-183131183D01*
X263201000Y-183868818D01*
X263180728Y-184074644D01*
X263121462Y-184270017D01*
X263100616Y-184338737D01*
X262977964Y-184568202D01*
X262970525Y-184582120D01*
X262938092Y-184621640D01*
X262795450Y-184795450D01*
X262623797Y-184936320D01*
X262582119Y-184970525D01*
X262582117Y-184970526D01*
X262338736Y-185100616D01*
X262270016Y-185121462D01*
X262074643Y-185180728D01*
X261800000Y-185207778D01*
X261525356Y-185180728D01*
X261329983Y-185121462D01*
X261261263Y-185100616D01*
X261017882Y-184970526D01*
X261017880Y-184970525D01*
X260978360Y-184938092D01*
X260804550Y-184795450D01*
X260629476Y-184582120D01*
X260629475Y-184582119D01*
X260622036Y-184568201D01*
X260499384Y-184338736D01*
X260478538Y-184270016D01*
X260419272Y-184074643D01*
X260399000Y-183868817D01*
X260399000Y-183131182D01*
X260404721Y-183073100D01*
X260419272Y-182925358D01*
X260419272Y-182925356D01*
X260499383Y-182661267D01*
X260499384Y-182661263D01*
X260629474Y-182417882D01*
X260629475Y-182417880D01*
X260674435Y-182363097D01*
X260804550Y-182204550D01*
X261000408Y-182043815D01*
X261017881Y-182029475D01*
X261056215Y-182008985D01*
X261261264Y-181899384D01*
X261337744Y-181876184D01*
X261525357Y-181819272D01*
X261800000Y-181792222D01*
X262074644Y-181819272D01*
G37*
G36*
X257874644Y-181819272D02*
G01*
X258062257Y-181876184D01*
X258138737Y-181899384D01*
X258343786Y-182008985D01*
X258382120Y-182029475D01*
X258399593Y-182043815D01*
X258595450Y-182204550D01*
X258724918Y-182362309D01*
X258770525Y-182417880D01*
X258770526Y-182417882D01*
X258900616Y-182661263D01*
X258900617Y-182661267D01*
X258980728Y-182925357D01*
X259001000Y-183131183D01*
X259001000Y-183868818D01*
X258980728Y-184074644D01*
X258921462Y-184270017D01*
X258900616Y-184338737D01*
X258777964Y-184568202D01*
X258770525Y-184582120D01*
X258738092Y-184621640D01*
X258595450Y-184795450D01*
X258423797Y-184936320D01*
X258382119Y-184970525D01*
X258382117Y-184970526D01*
X258138736Y-185100616D01*
X258070016Y-185121462D01*
X257874643Y-185180728D01*
X257600000Y-185207778D01*
X257325356Y-185180728D01*
X257129983Y-185121462D01*
X257061263Y-185100616D01*
X256817882Y-184970526D01*
X256817880Y-184970525D01*
X256778360Y-184938092D01*
X256604550Y-184795450D01*
X256429476Y-184582120D01*
X256429475Y-184582119D01*
X256422036Y-184568201D01*
X256299384Y-184338736D01*
X256278538Y-184270016D01*
X256219272Y-184074643D01*
X256199000Y-183868817D01*
X256199000Y-183131182D01*
X256204721Y-183073100D01*
X256219272Y-182925358D01*
X256219272Y-182925356D01*
X256299383Y-182661267D01*
X256299384Y-182661263D01*
X256429474Y-182417882D01*
X256429475Y-182417880D01*
X256474435Y-182363097D01*
X256604550Y-182204550D01*
X256800408Y-182043815D01*
X256817881Y-182029475D01*
X256856215Y-182008985D01*
X257061264Y-181899384D01*
X257137744Y-181876184D01*
X257325357Y-181819272D01*
X257600000Y-181792222D01*
X257874644Y-181819272D01*
G37*
G36*
X266274644Y-181819272D02*
G01*
X266462257Y-181876184D01*
X266538737Y-181899384D01*
X266743786Y-182008985D01*
X266782120Y-182029475D01*
X266799593Y-182043815D01*
X266995450Y-182204550D01*
X267124918Y-182362309D01*
X267170525Y-182417880D01*
X267170526Y-182417882D01*
X267300616Y-182661263D01*
X267300617Y-182661267D01*
X267380728Y-182925357D01*
X267401000Y-183131183D01*
X267401000Y-183868818D01*
X267380728Y-184074644D01*
X267321462Y-184270017D01*
X267300616Y-184338737D01*
X267177964Y-184568202D01*
X267170525Y-184582120D01*
X267138092Y-184621640D01*
X266995450Y-184795450D01*
X266823797Y-184936320D01*
X266782119Y-184970525D01*
X266782117Y-184970526D01*
X266538736Y-185100616D01*
X266470016Y-185121462D01*
X266274643Y-185180728D01*
X266000000Y-185207778D01*
X265725356Y-185180728D01*
X265529983Y-185121462D01*
X265461263Y-185100616D01*
X265217882Y-184970526D01*
X265217880Y-184970525D01*
X265178360Y-184938092D01*
X265004550Y-184795450D01*
X264829476Y-184582120D01*
X264829475Y-184582119D01*
X264822036Y-184568201D01*
X264699384Y-184338736D01*
X264678538Y-184270016D01*
X264619272Y-184074643D01*
X264599000Y-183868817D01*
X264599000Y-183131182D01*
X264604721Y-183073100D01*
X264619272Y-182925358D01*
X264619272Y-182925356D01*
X264699383Y-182661267D01*
X264699384Y-182661263D01*
X264829474Y-182417882D01*
X264829475Y-182417880D01*
X264874435Y-182363097D01*
X265004550Y-182204550D01*
X265200408Y-182043815D01*
X265217881Y-182029475D01*
X265256215Y-182008985D01*
X265461264Y-181899384D01*
X265537744Y-181876184D01*
X265725357Y-181819272D01*
X266000000Y-181792222D01*
X266274644Y-181819272D01*
G37*
G36*
X178958228Y-181851703D02*
G01*
X179113100Y-181915853D01*
X179252481Y-182008985D01*
X179371015Y-182127519D01*
X179464147Y-182266900D01*
X179528297Y-182421772D01*
X179561000Y-182586184D01*
X179561000Y-182753816D01*
X179528297Y-182918228D01*
X179464147Y-183073100D01*
X179371015Y-183212481D01*
X179252481Y-183331015D01*
X179113100Y-183424147D01*
X178958228Y-183488297D01*
X178793816Y-183521000D01*
X178626184Y-183521000D01*
X178461772Y-183488297D01*
X178306900Y-183424147D01*
X178167519Y-183331015D01*
X178048985Y-183212481D01*
X177955853Y-183073100D01*
X177891703Y-182918228D01*
X177859000Y-182753816D01*
X177859000Y-182586184D01*
X177891703Y-182421772D01*
X177955853Y-182266900D01*
X178048985Y-182127519D01*
X178167519Y-182008985D01*
X178306900Y-181915853D01*
X178461772Y-181851703D01*
X178626184Y-181819000D01*
X178793816Y-181819000D01*
X178958228Y-181851703D01*
G37*
G36*
X313748228Y-181141703D02*
G01*
X313903100Y-181205853D01*
X314042481Y-181298985D01*
X314161015Y-181417519D01*
X314254147Y-181556900D01*
X314318297Y-181711772D01*
X314351000Y-181876184D01*
X314351000Y-182043816D01*
X314318297Y-182208228D01*
X314254147Y-182363100D01*
X314161015Y-182502481D01*
X314042481Y-182621015D01*
X313903100Y-182714147D01*
X313748228Y-182778297D01*
X313583816Y-182811000D01*
X313416184Y-182811000D01*
X313251772Y-182778297D01*
X313096900Y-182714147D01*
X312957519Y-182621015D01*
X312838985Y-182502481D01*
X312745853Y-182363100D01*
X312681703Y-182208228D01*
X312649000Y-182043816D01*
X312649000Y-181876184D01*
X312681703Y-181711772D01*
X312745853Y-181556900D01*
X312838985Y-181417519D01*
X312957519Y-181298985D01*
X313096900Y-181205853D01*
X313251772Y-181141703D01*
X313416184Y-181109000D01*
X313583816Y-181109000D01*
X313748228Y-181141703D01*
G37*
G36*
X306023512Y-177623927D02*
G01*
X306172812Y-177653624D01*
X306336784Y-177721544D01*
X306484354Y-177820147D01*
X306609853Y-177945646D01*
X306708456Y-178093216D01*
X306776376Y-178257188D01*
X306811000Y-178431259D01*
X306811000Y-178608741D01*
X306776376Y-178782812D01*
X306708456Y-178946784D01*
X306609853Y-179094354D01*
X306484354Y-179219853D01*
X306336784Y-179318456D01*
X306172812Y-179386376D01*
X306023512Y-179416073D01*
X305998742Y-179421000D01*
X305821258Y-179421000D01*
X305796488Y-179416073D01*
X305647188Y-179386376D01*
X305483216Y-179318456D01*
X305335646Y-179219853D01*
X305210147Y-179094354D01*
X305111544Y-178946784D01*
X305043624Y-178782812D01*
X305009000Y-178608741D01*
X305009000Y-178431259D01*
X305043624Y-178257188D01*
X305111544Y-178093216D01*
X305210147Y-177945646D01*
X305335646Y-177820147D01*
X305483216Y-177721544D01*
X305647188Y-177653624D01*
X305796488Y-177623927D01*
X305821258Y-177619000D01*
X305998742Y-177619000D01*
X306023512Y-177623927D01*
G37*
G36*
X186175936Y-177001340D02*
G01*
X186274220Y-177011020D01*
X186463381Y-177068401D01*
X186637712Y-177161583D01*
X186790515Y-177286985D01*
X186915917Y-177439788D01*
X187009099Y-177614119D01*
X187066480Y-177803280D01*
X187085855Y-178000000D01*
X187066480Y-178196720D01*
X187009099Y-178385881D01*
X186915917Y-178560212D01*
X186790515Y-178713015D01*
X186637712Y-178838417D01*
X186463381Y-178931599D01*
X186274220Y-178988980D01*
X186175936Y-178998660D01*
X186126795Y-179003500D01*
X185933205Y-179003500D01*
X185884064Y-178998660D01*
X185785780Y-178988980D01*
X185596619Y-178931599D01*
X185422288Y-178838417D01*
X185269485Y-178713015D01*
X185144083Y-178560212D01*
X185050901Y-178385881D01*
X184993520Y-178196720D01*
X184974145Y-178000000D01*
X184993520Y-177803280D01*
X185050901Y-177614119D01*
X185144083Y-177439788D01*
X185269485Y-177286985D01*
X185422288Y-177161583D01*
X185596619Y-177068401D01*
X185785780Y-177011020D01*
X185884064Y-177001340D01*
X185933205Y-176996500D01*
X186126795Y-176996500D01*
X186175936Y-177001340D01*
G37*
G36*
X202355331Y-173728211D02*
G01*
X202683092Y-173863974D01*
X202978070Y-174061072D01*
X203228928Y-174311930D01*
X203426026Y-174606908D01*
X203561789Y-174934669D01*
X203631000Y-175282616D01*
X203631000Y-175637384D01*
X203561789Y-175985331D01*
X203426026Y-176313092D01*
X203228928Y-176608070D01*
X202978070Y-176858928D01*
X202683092Y-177056026D01*
X202355331Y-177191789D01*
X202007384Y-177261000D01*
X201652616Y-177261000D01*
X201304669Y-177191789D01*
X200976908Y-177056026D01*
X200681930Y-176858928D01*
X200431072Y-176608070D01*
X200233974Y-176313092D01*
X200098211Y-175985331D01*
X200029000Y-175637384D01*
X200029000Y-175282616D01*
X200098211Y-174934669D01*
X200233974Y-174606908D01*
X200431072Y-174311930D01*
X200681930Y-174061072D01*
X200976908Y-173863974D01*
X201304669Y-173728211D01*
X201652616Y-173659000D01*
X202007384Y-173659000D01*
X202355331Y-173728211D01*
G37*
G36*
X306811000Y-176881000D02*
G01*
X305009000Y-176881000D01*
X305009000Y-175079000D01*
X306811000Y-175079000D01*
X306811000Y-176881000D01*
G37*
G36*
X313837916Y-172892334D02*
G01*
X313946492Y-172925271D01*
X313946495Y-172925272D01*
X313982601Y-172944571D01*
X314046557Y-172978756D01*
X314134264Y-173050736D01*
X314206244Y-173138443D01*
X314240429Y-173202399D01*
X314259728Y-173238505D01*
X314259729Y-173238508D01*
X314292666Y-173347084D01*
X314303787Y-173460000D01*
X314292666Y-173572916D01*
X314271057Y-173644148D01*
X314259728Y-173681495D01*
X314245403Y-173708295D01*
X314206244Y-173781557D01*
X314134264Y-173869264D01*
X314046557Y-173941244D01*
X313965141Y-173984761D01*
X313944766Y-173998375D01*
X313927439Y-174015702D01*
X313913826Y-174036076D01*
X313904448Y-174058715D01*
X313899668Y-174082748D01*
X313899668Y-174107252D01*
X313904448Y-174131285D01*
X313913826Y-174153924D01*
X313927440Y-174174299D01*
X313944767Y-174191626D01*
X313965141Y-174205239D01*
X314046557Y-174248756D01*
X314134264Y-174320736D01*
X314206244Y-174408443D01*
X314239692Y-174471020D01*
X314259728Y-174508505D01*
X314259729Y-174508508D01*
X314292666Y-174617084D01*
X314303787Y-174730000D01*
X314292666Y-174842916D01*
X314264832Y-174934669D01*
X314259728Y-174951495D01*
X314240429Y-174987601D01*
X314206244Y-175051557D01*
X314134264Y-175139264D01*
X314057354Y-175202383D01*
X314040035Y-175219702D01*
X314026421Y-175240077D01*
X314017043Y-175262716D01*
X314012263Y-175286749D01*
X314012263Y-175311253D01*
X314017043Y-175335286D01*
X314026421Y-175357925D01*
X314040034Y-175378299D01*
X314057361Y-175395626D01*
X314077736Y-175409240D01*
X314100375Y-175418618D01*
X314124408Y-175423398D01*
X314136660Y-175424000D01*
X314301000Y-175424000D01*
X314301000Y-176576000D01*
X312699000Y-176576000D01*
X312699000Y-175424000D01*
X312863340Y-175424000D01*
X312887726Y-175421598D01*
X312911175Y-175414485D01*
X312932786Y-175402934D01*
X312951728Y-175387389D01*
X312967273Y-175368447D01*
X312978824Y-175346836D01*
X312985937Y-175323387D01*
X312988339Y-175299001D01*
X312985937Y-175274615D01*
X312978824Y-175251166D01*
X312967273Y-175229555D01*
X312951728Y-175210613D01*
X312942655Y-175202391D01*
X312865736Y-175139264D01*
X312793756Y-175051557D01*
X312759571Y-174987601D01*
X312740272Y-174951495D01*
X312735168Y-174934669D01*
X312707334Y-174842916D01*
X312696213Y-174730000D01*
X312707334Y-174617084D01*
X312740271Y-174508508D01*
X312740272Y-174508505D01*
X312760308Y-174471020D01*
X312793756Y-174408443D01*
X312865736Y-174320736D01*
X312953443Y-174248756D01*
X313034859Y-174205239D01*
X313055234Y-174191625D01*
X313072561Y-174174298D01*
X313086174Y-174153924D01*
X313095552Y-174131285D01*
X313100332Y-174107252D01*
X313100332Y-174082748D01*
X313095552Y-174058715D01*
X313086174Y-174036076D01*
X313072560Y-174015701D01*
X313055233Y-173998374D01*
X313034859Y-173984761D01*
X312953443Y-173941244D01*
X312865736Y-173869264D01*
X312793756Y-173781557D01*
X312754597Y-173708295D01*
X312740272Y-173681495D01*
X312728943Y-173644148D01*
X312707334Y-173572916D01*
X312696213Y-173460000D01*
X312707334Y-173347084D01*
X312740271Y-173238508D01*
X312740272Y-173238505D01*
X312759571Y-173202399D01*
X312793756Y-173138443D01*
X312865736Y-173050736D01*
X312953443Y-172978756D01*
X313017399Y-172944571D01*
X313053505Y-172925272D01*
X313053508Y-172925271D01*
X313162084Y-172892334D01*
X313246702Y-172884000D01*
X313753298Y-172884000D01*
X313837916Y-172892334D01*
G37*
G36*
X186175936Y-174461340D02*
G01*
X186274220Y-174471020D01*
X186463381Y-174528401D01*
X186637712Y-174621583D01*
X186790515Y-174746985D01*
X186915917Y-174899788D01*
X187009099Y-175074119D01*
X187066480Y-175263280D01*
X187085855Y-175460000D01*
X187066480Y-175656720D01*
X187009099Y-175845881D01*
X186915917Y-176020212D01*
X186790515Y-176173015D01*
X186637712Y-176298417D01*
X186463381Y-176391599D01*
X186274220Y-176448980D01*
X186175936Y-176458660D01*
X186126795Y-176463500D01*
X185933205Y-176463500D01*
X185884064Y-176458660D01*
X185785780Y-176448980D01*
X185596619Y-176391599D01*
X185422288Y-176298417D01*
X185269485Y-176173015D01*
X185144083Y-176020212D01*
X185050901Y-175845881D01*
X184993520Y-175656720D01*
X184974145Y-175460000D01*
X184993520Y-175263280D01*
X185050901Y-175074119D01*
X185144083Y-174899788D01*
X185269485Y-174746985D01*
X185422288Y-174621583D01*
X185596619Y-174528401D01*
X185785780Y-174471020D01*
X185884064Y-174461340D01*
X185933205Y-174456500D01*
X186126795Y-174456500D01*
X186175936Y-174461340D01*
G37*
G36*
X215251000Y-176301000D02*
G01*
X213349000Y-176301000D01*
X213349000Y-174399000D01*
X215251000Y-174399000D01*
X215251000Y-176301000D01*
G37*
G36*
X212037395Y-174435546D02*
G01*
X212210466Y-174507234D01*
X212242146Y-174528402D01*
X212366227Y-174611310D01*
X212498690Y-174743773D01*
X212498691Y-174743775D01*
X212602766Y-174899534D01*
X212674454Y-175072605D01*
X212711000Y-175256333D01*
X212711000Y-175443667D01*
X212674454Y-175627395D01*
X212602766Y-175800466D01*
X212572419Y-175845883D01*
X212498690Y-175956227D01*
X212366227Y-176088690D01*
X212287818Y-176141081D01*
X212210466Y-176192766D01*
X212037395Y-176264454D01*
X211853667Y-176301000D01*
X211666333Y-176301000D01*
X211482605Y-176264454D01*
X211309534Y-176192766D01*
X211232182Y-176141081D01*
X211153773Y-176088690D01*
X211021310Y-175956227D01*
X210947581Y-175845883D01*
X210917234Y-175800466D01*
X210845546Y-175627395D01*
X210809000Y-175443667D01*
X210809000Y-175256333D01*
X210845546Y-175072605D01*
X210917234Y-174899534D01*
X211021309Y-174743775D01*
X211021310Y-174743773D01*
X211153773Y-174611310D01*
X211277854Y-174528402D01*
X211309534Y-174507234D01*
X211482605Y-174435546D01*
X211666333Y-174399000D01*
X211853667Y-174399000D01*
X212037395Y-174435546D01*
G37*
G36*
X187081000Y-173923500D02*
G01*
X184979000Y-173923500D01*
X184979000Y-171916500D01*
X187081000Y-171916500D01*
X187081000Y-173923500D01*
G37*
G36*
X172148228Y-172171703D02*
G01*
X172303100Y-172235853D01*
X172442481Y-172328985D01*
X172561015Y-172447519D01*
X172654147Y-172586900D01*
X172718297Y-172741772D01*
X172751000Y-172906184D01*
X172751000Y-173073816D01*
X172718297Y-173238228D01*
X172654147Y-173393100D01*
X172561015Y-173532481D01*
X172442481Y-173651015D01*
X172303100Y-173744147D01*
X172148228Y-173808297D01*
X171983816Y-173841000D01*
X171816184Y-173841000D01*
X171651772Y-173808297D01*
X171496900Y-173744147D01*
X171357519Y-173651015D01*
X171238985Y-173532481D01*
X171145853Y-173393100D01*
X171081703Y-173238228D01*
X171049000Y-173073816D01*
X171049000Y-172906184D01*
X171081703Y-172741772D01*
X171145853Y-172586900D01*
X171238985Y-172447519D01*
X171357519Y-172328985D01*
X171496900Y-172235853D01*
X171651772Y-172171703D01*
X171816184Y-172139000D01*
X171983816Y-172139000D01*
X172148228Y-172171703D01*
G37*
G36*
X165828228Y-172071703D02*
G01*
X165983100Y-172135853D01*
X166122481Y-172228985D01*
X166241015Y-172347519D01*
X166334147Y-172486900D01*
X166398297Y-172641772D01*
X166431000Y-172806184D01*
X166431000Y-172973816D01*
X166398297Y-173138228D01*
X166334147Y-173293100D01*
X166241015Y-173432481D01*
X166122481Y-173551015D01*
X165983100Y-173644147D01*
X165828228Y-173708297D01*
X165663816Y-173741000D01*
X165496184Y-173741000D01*
X165331772Y-173708297D01*
X165176900Y-173644147D01*
X165037519Y-173551015D01*
X164918985Y-173432481D01*
X164825853Y-173293100D01*
X164761703Y-173138228D01*
X164729000Y-172973816D01*
X164729000Y-172806184D01*
X164761703Y-172641772D01*
X164825853Y-172486900D01*
X164918985Y-172347519D01*
X165037519Y-172228985D01*
X165176900Y-172135853D01*
X165331772Y-172071703D01*
X165496184Y-172039000D01*
X165663816Y-172039000D01*
X165828228Y-172071703D01*
G37*
G36*
X178958228Y-166611703D02*
G01*
X179113100Y-166675853D01*
X179252481Y-166768985D01*
X179371015Y-166887519D01*
X179464147Y-167026900D01*
X179528297Y-167181772D01*
X179561000Y-167346184D01*
X179561000Y-167513816D01*
X179528297Y-167678228D01*
X179464147Y-167833100D01*
X179371015Y-167972481D01*
X179252481Y-168091015D01*
X179113100Y-168184147D01*
X178958228Y-168248297D01*
X178793816Y-168281000D01*
X178626184Y-168281000D01*
X178461772Y-168248297D01*
X178306900Y-168184147D01*
X178167519Y-168091015D01*
X178048985Y-167972481D01*
X177955853Y-167833100D01*
X177891703Y-167678228D01*
X177859000Y-167513816D01*
X177859000Y-167346184D01*
X177891703Y-167181772D01*
X177955853Y-167026900D01*
X178048985Y-166887519D01*
X178167519Y-166768985D01*
X178306900Y-166675853D01*
X178461772Y-166611703D01*
X178626184Y-166579000D01*
X178793816Y-166579000D01*
X178958228Y-166611703D01*
G37*
G36*
X172708228Y-166601703D02*
G01*
X172863100Y-166665853D01*
X173002481Y-166758985D01*
X173121015Y-166877519D01*
X173214147Y-167016900D01*
X173278297Y-167171772D01*
X173311000Y-167336184D01*
X173311000Y-167503816D01*
X173278297Y-167668228D01*
X173214147Y-167823100D01*
X173121015Y-167962481D01*
X173002481Y-168081015D01*
X172863100Y-168174147D01*
X172708228Y-168238297D01*
X172543816Y-168271000D01*
X172376184Y-168271000D01*
X172211772Y-168238297D01*
X172056900Y-168174147D01*
X171917519Y-168081015D01*
X171798985Y-167962481D01*
X171705853Y-167823100D01*
X171641703Y-167668228D01*
X171609000Y-167503816D01*
X171609000Y-167336184D01*
X171641703Y-167171772D01*
X171705853Y-167016900D01*
X171798985Y-166877519D01*
X171917519Y-166758985D01*
X172056900Y-166665853D01*
X172211772Y-166601703D01*
X172376184Y-166569000D01*
X172543816Y-166569000D01*
X172708228Y-166601703D01*
G37*
G36*
X165208228Y-166601703D02*
G01*
X165363100Y-166665853D01*
X165502481Y-166758985D01*
X165621015Y-166877519D01*
X165714147Y-167016900D01*
X165778297Y-167171772D01*
X165811000Y-167336184D01*
X165811000Y-167503816D01*
X165778297Y-167668228D01*
X165714147Y-167823100D01*
X165621015Y-167962481D01*
X165502481Y-168081015D01*
X165363100Y-168174147D01*
X165208228Y-168238297D01*
X165043816Y-168271000D01*
X164876184Y-168271000D01*
X164711772Y-168238297D01*
X164556900Y-168174147D01*
X164417519Y-168081015D01*
X164298985Y-167962481D01*
X164205853Y-167823100D01*
X164141703Y-167668228D01*
X164109000Y-167503816D01*
X164109000Y-167336184D01*
X164141703Y-167171772D01*
X164205853Y-167016900D01*
X164298985Y-166877519D01*
X164417519Y-166758985D01*
X164556900Y-166665853D01*
X164711772Y-166601703D01*
X164876184Y-166569000D01*
X165043816Y-166569000D01*
X165208228Y-166601703D01*
G37*
G36*
X313748228Y-166281703D02*
G01*
X313903100Y-166345853D01*
X314042481Y-166438985D01*
X314161015Y-166557519D01*
X314254147Y-166696900D01*
X314318297Y-166851772D01*
X314351000Y-167016184D01*
X314351000Y-167183816D01*
X314318297Y-167348228D01*
X314254147Y-167503100D01*
X314161015Y-167642481D01*
X314042481Y-167761015D01*
X313903100Y-167854147D01*
X313748228Y-167918297D01*
X313583816Y-167951000D01*
X313416184Y-167951000D01*
X313251772Y-167918297D01*
X313096900Y-167854147D01*
X312957519Y-167761015D01*
X312838985Y-167642481D01*
X312745853Y-167503100D01*
X312681703Y-167348228D01*
X312649000Y-167183816D01*
X312649000Y-167016184D01*
X312681703Y-166851772D01*
X312745853Y-166696900D01*
X312838985Y-166557519D01*
X312957519Y-166438985D01*
X313096900Y-166345853D01*
X313251772Y-166281703D01*
X313416184Y-166249000D01*
X313583816Y-166249000D01*
X313748228Y-166281703D01*
G37*
G36*
X313748228Y-151041703D02*
G01*
X313903100Y-151105853D01*
X314042481Y-151198985D01*
X314161015Y-151317519D01*
X314254147Y-151456900D01*
X314318297Y-151611772D01*
X314351000Y-151776184D01*
X314351000Y-151943816D01*
X314318297Y-152108228D01*
X314254147Y-152263100D01*
X314161015Y-152402481D01*
X314042481Y-152521015D01*
X313903100Y-152614147D01*
X313748228Y-152678297D01*
X313583816Y-152711000D01*
X313416184Y-152711000D01*
X313251772Y-152678297D01*
X313096900Y-152614147D01*
X312957519Y-152521015D01*
X312838985Y-152402481D01*
X312745853Y-152263100D01*
X312681703Y-152108228D01*
X312649000Y-151943816D01*
X312649000Y-151776184D01*
X312681703Y-151611772D01*
X312745853Y-151456900D01*
X312838985Y-151317519D01*
X312957519Y-151198985D01*
X313096900Y-151105853D01*
X313251772Y-151041703D01*
X313416184Y-151009000D01*
X313583816Y-151009000D01*
X313748228Y-151041703D01*
G37*
G36*
X209566564Y-142379389D02*
G01*
X209757833Y-142458615D01*
X209757835Y-142458616D01*
X209929973Y-142573635D01*
X210076365Y-142720027D01*
X210191385Y-142892167D01*
X210270611Y-143083436D01*
X210311000Y-143286484D01*
X210311000Y-143493516D01*
X210270611Y-143696564D01*
X210191385Y-143887833D01*
X210191384Y-143887835D01*
X210076365Y-144059973D01*
X209929973Y-144206365D01*
X209757835Y-144321384D01*
X209757834Y-144321385D01*
X209757833Y-144321385D01*
X209566564Y-144400611D01*
X209363516Y-144441000D01*
X209156484Y-144441000D01*
X208953436Y-144400611D01*
X208762167Y-144321385D01*
X208762166Y-144321385D01*
X208762165Y-144321384D01*
X208590027Y-144206365D01*
X208443635Y-144059973D01*
X208328616Y-143887835D01*
X208328615Y-143887833D01*
X208249389Y-143696564D01*
X208209000Y-143493516D01*
X208209000Y-143286484D01*
X208249389Y-143083436D01*
X208328615Y-142892167D01*
X208443635Y-142720027D01*
X208590027Y-142573635D01*
X208762165Y-142458616D01*
X208762167Y-142458615D01*
X208953436Y-142379389D01*
X209156484Y-142339000D01*
X209363516Y-142339000D01*
X209566564Y-142379389D01*
G37*
G36*
X169566564Y-142379389D02*
G01*
X169757833Y-142458615D01*
X169757835Y-142458616D01*
X169929973Y-142573635D01*
X170076365Y-142720027D01*
X170191385Y-142892167D01*
X170270611Y-143083436D01*
X170311000Y-143286484D01*
X170311000Y-143493516D01*
X170270611Y-143696564D01*
X170191385Y-143887833D01*
X170191384Y-143887835D01*
X170076365Y-144059973D01*
X169929973Y-144206365D01*
X169757835Y-144321384D01*
X169757834Y-144321385D01*
X169757833Y-144321385D01*
X169566564Y-144400611D01*
X169363516Y-144441000D01*
X169156484Y-144441000D01*
X168953436Y-144400611D01*
X168762167Y-144321385D01*
X168762166Y-144321385D01*
X168762165Y-144321384D01*
X168590027Y-144206365D01*
X168443635Y-144059973D01*
X168328616Y-143887835D01*
X168328615Y-143887833D01*
X168249389Y-143696564D01*
X168209000Y-143493516D01*
X168209000Y-143286484D01*
X168249389Y-143083436D01*
X168328615Y-142892167D01*
X168443635Y-142720027D01*
X168590027Y-142573635D01*
X168762165Y-142458616D01*
X168762167Y-142458615D01*
X168953436Y-142379389D01*
X169156484Y-142339000D01*
X169363516Y-142339000D01*
X169566564Y-142379389D01*
G37*
G36*
X314471731Y-136809136D02*
G01*
X314574644Y-136819272D01*
X314770017Y-136878538D01*
X314838737Y-136899384D01*
X315068202Y-137022036D01*
X315082120Y-137029475D01*
X315137691Y-137075082D01*
X315295450Y-137204550D01*
X315424918Y-137362309D01*
X315470525Y-137417880D01*
X315470526Y-137417882D01*
X315600616Y-137661263D01*
X315600617Y-137661267D01*
X315680728Y-137925356D01*
X315707778Y-138200000D01*
X315680728Y-138474644D01*
X315621462Y-138670017D01*
X315600616Y-138738737D01*
X315477964Y-138968202D01*
X315470525Y-138982120D01*
X315424918Y-139037691D01*
X315295450Y-139195450D01*
X315137691Y-139324918D01*
X315082120Y-139370525D01*
X315082118Y-139370526D01*
X314838737Y-139500616D01*
X314770017Y-139521462D01*
X314574644Y-139580728D01*
X314471731Y-139590864D01*
X314368820Y-139601000D01*
X313631180Y-139601000D01*
X313528269Y-139590864D01*
X313425356Y-139580728D01*
X313229983Y-139521462D01*
X313161263Y-139500616D01*
X312917882Y-139370526D01*
X312917880Y-139370525D01*
X312862309Y-139324918D01*
X312704550Y-139195450D01*
X312575082Y-139037691D01*
X312529475Y-138982120D01*
X312522036Y-138968202D01*
X312399384Y-138738737D01*
X312378538Y-138670017D01*
X312319272Y-138474644D01*
X312292222Y-138200000D01*
X312319272Y-137925356D01*
X312399383Y-137661267D01*
X312399384Y-137661263D01*
X312529474Y-137417882D01*
X312529475Y-137417880D01*
X312575082Y-137362309D01*
X312704550Y-137204550D01*
X312862309Y-137075082D01*
X312917880Y-137029475D01*
X312931798Y-137022036D01*
X313161263Y-136899384D01*
X313229983Y-136878538D01*
X313425356Y-136819272D01*
X313528269Y-136809136D01*
X313631180Y-136799000D01*
X314368820Y-136799000D01*
X314471731Y-136809136D01*
G37*
G36*
X308971731Y-136809136D02*
G01*
X309074644Y-136819272D01*
X309270017Y-136878538D01*
X309338737Y-136899384D01*
X309568202Y-137022036D01*
X309582120Y-137029475D01*
X309637691Y-137075082D01*
X309795450Y-137204550D01*
X309924918Y-137362309D01*
X309970525Y-137417880D01*
X309970526Y-137417882D01*
X310100616Y-137661263D01*
X310100617Y-137661267D01*
X310180728Y-137925356D01*
X310207778Y-138200000D01*
X310180728Y-138474644D01*
X310121462Y-138670017D01*
X310100616Y-138738737D01*
X309977964Y-138968202D01*
X309970525Y-138982120D01*
X309924918Y-139037691D01*
X309795450Y-139195450D01*
X309637691Y-139324918D01*
X309582120Y-139370525D01*
X309582118Y-139370526D01*
X309338737Y-139500616D01*
X309270017Y-139521462D01*
X309074644Y-139580728D01*
X308971731Y-139590864D01*
X308868820Y-139601000D01*
X308131180Y-139601000D01*
X308028269Y-139590864D01*
X307925356Y-139580728D01*
X307729983Y-139521462D01*
X307661263Y-139500616D01*
X307417882Y-139370526D01*
X307417880Y-139370525D01*
X307362309Y-139324918D01*
X307204550Y-139195450D01*
X307075082Y-139037691D01*
X307029475Y-138982120D01*
X307022036Y-138968202D01*
X306899384Y-138738737D01*
X306878538Y-138670017D01*
X306819272Y-138474644D01*
X306792222Y-138200000D01*
X306819272Y-137925356D01*
X306899383Y-137661267D01*
X306899384Y-137661263D01*
X307029474Y-137417882D01*
X307029475Y-137417880D01*
X307075082Y-137362309D01*
X307204550Y-137204550D01*
X307362309Y-137075082D01*
X307417880Y-137029475D01*
X307431798Y-137022036D01*
X307661263Y-136899384D01*
X307729983Y-136878538D01*
X307925356Y-136819272D01*
X308028269Y-136809136D01*
X308131180Y-136799000D01*
X308868820Y-136799000D01*
X308971731Y-136809136D01*
G37*
G36*
X314471731Y-132609136D02*
G01*
X314574644Y-132619272D01*
X314770017Y-132678538D01*
X314838737Y-132699384D01*
X315068202Y-132822036D01*
X315082120Y-132829475D01*
X315137691Y-132875082D01*
X315295450Y-133004550D01*
X315424918Y-133162309D01*
X315470525Y-133217880D01*
X315470526Y-133217882D01*
X315600616Y-133461263D01*
X315600617Y-133461267D01*
X315680728Y-133725356D01*
X315707778Y-134000000D01*
X315680728Y-134274644D01*
X315621462Y-134470017D01*
X315600616Y-134538737D01*
X315477964Y-134768202D01*
X315470525Y-134782120D01*
X315424918Y-134837691D01*
X315295450Y-134995450D01*
X315137691Y-135124918D01*
X315082120Y-135170525D01*
X315082118Y-135170526D01*
X314838737Y-135300616D01*
X314770017Y-135321462D01*
X314574644Y-135380728D01*
X314471731Y-135390864D01*
X314368820Y-135401000D01*
X313631180Y-135401000D01*
X313528269Y-135390864D01*
X313425356Y-135380728D01*
X313229983Y-135321462D01*
X313161263Y-135300616D01*
X312917882Y-135170526D01*
X312917880Y-135170525D01*
X312862309Y-135124918D01*
X312704550Y-134995450D01*
X312575082Y-134837691D01*
X312529475Y-134782120D01*
X312522036Y-134768202D01*
X312399384Y-134538737D01*
X312378538Y-134470017D01*
X312319272Y-134274644D01*
X312292222Y-134000000D01*
X312319272Y-133725356D01*
X312399383Y-133461267D01*
X312399384Y-133461263D01*
X312529474Y-133217882D01*
X312529475Y-133217880D01*
X312575082Y-133162309D01*
X312704550Y-133004550D01*
X312862309Y-132875082D01*
X312917880Y-132829475D01*
X312931798Y-132822036D01*
X313161263Y-132699384D01*
X313229983Y-132678538D01*
X313425356Y-132619272D01*
X313528269Y-132609136D01*
X313631180Y-132599000D01*
X314368820Y-132599000D01*
X314471731Y-132609136D01*
G37*
G36*
X308971731Y-132609136D02*
G01*
X309074644Y-132619272D01*
X309270017Y-132678538D01*
X309338737Y-132699384D01*
X309568202Y-132822036D01*
X309582120Y-132829475D01*
X309637691Y-132875082D01*
X309795450Y-133004550D01*
X309924918Y-133162309D01*
X309970525Y-133217880D01*
X309970526Y-133217882D01*
X310100616Y-133461263D01*
X310100617Y-133461267D01*
X310180728Y-133725356D01*
X310207778Y-134000000D01*
X310180728Y-134274644D01*
X310121462Y-134470017D01*
X310100616Y-134538737D01*
X309977964Y-134768202D01*
X309970525Y-134782120D01*
X309924918Y-134837691D01*
X309795450Y-134995450D01*
X309637691Y-135124918D01*
X309582120Y-135170525D01*
X309582118Y-135170526D01*
X309338737Y-135300616D01*
X309270017Y-135321462D01*
X309074644Y-135380728D01*
X308971731Y-135390864D01*
X308868820Y-135401000D01*
X308131180Y-135401000D01*
X308028269Y-135390864D01*
X307925356Y-135380728D01*
X307729983Y-135321462D01*
X307661263Y-135300616D01*
X307417882Y-135170526D01*
X307417880Y-135170525D01*
X307362309Y-135124918D01*
X307204550Y-134995450D01*
X307075082Y-134837691D01*
X307029475Y-134782120D01*
X307022036Y-134768202D01*
X306899384Y-134538737D01*
X306878538Y-134470017D01*
X306819272Y-134274644D01*
X306792222Y-134000000D01*
X306819272Y-133725356D01*
X306899383Y-133461267D01*
X306899384Y-133461263D01*
X307029474Y-133217882D01*
X307029475Y-133217880D01*
X307075082Y-133162309D01*
X307204550Y-133004550D01*
X307362309Y-132875082D01*
X307417880Y-132829475D01*
X307431798Y-132822036D01*
X307661263Y-132699384D01*
X307729983Y-132678538D01*
X307925356Y-132619272D01*
X308028269Y-132609136D01*
X308131180Y-132599000D01*
X308868820Y-132599000D01*
X308971731Y-132609136D01*
G37*
G36*
X209476564Y-130489389D02*
G01*
X209667833Y-130568615D01*
X209667835Y-130568616D01*
X209688042Y-130582118D01*
X209839973Y-130683635D01*
X209986365Y-130830027D01*
X210101385Y-131002167D01*
X210180611Y-131193436D01*
X210221000Y-131396484D01*
X210221000Y-131603516D01*
X210180611Y-131806564D01*
X210101385Y-131997833D01*
X210101384Y-131997835D01*
X209986365Y-132169973D01*
X209839973Y-132316365D01*
X209667835Y-132431384D01*
X209667834Y-132431385D01*
X209667833Y-132431385D01*
X209476564Y-132510611D01*
X209273516Y-132551000D01*
X209066484Y-132551000D01*
X208863436Y-132510611D01*
X208672167Y-132431385D01*
X208672166Y-132431385D01*
X208672165Y-132431384D01*
X208500027Y-132316365D01*
X208353635Y-132169973D01*
X208238616Y-131997835D01*
X208238615Y-131997833D01*
X208159389Y-131806564D01*
X208119000Y-131603516D01*
X208119000Y-131396484D01*
X208159389Y-131193436D01*
X208238615Y-131002167D01*
X208353635Y-130830027D01*
X208500027Y-130683635D01*
X208651958Y-130582118D01*
X208672165Y-130568616D01*
X208672167Y-130568615D01*
X208863436Y-130489389D01*
X209066484Y-130449000D01*
X209273516Y-130449000D01*
X209476564Y-130489389D01*
G37*
G36*
X169476564Y-130489389D02*
G01*
X169667833Y-130568615D01*
X169667835Y-130568616D01*
X169688042Y-130582118D01*
X169839973Y-130683635D01*
X169986365Y-130830027D01*
X170101385Y-131002167D01*
X170180611Y-131193436D01*
X170221000Y-131396484D01*
X170221000Y-131603516D01*
X170180611Y-131806564D01*
X170101385Y-131997833D01*
X170101384Y-131997835D01*
X169986365Y-132169973D01*
X169839973Y-132316365D01*
X169667835Y-132431384D01*
X169667834Y-132431385D01*
X169667833Y-132431385D01*
X169476564Y-132510611D01*
X169273516Y-132551000D01*
X169066484Y-132551000D01*
X168863436Y-132510611D01*
X168672167Y-132431385D01*
X168672166Y-132431385D01*
X168672165Y-132431384D01*
X168500027Y-132316365D01*
X168353635Y-132169973D01*
X168238616Y-131997835D01*
X168238615Y-131997833D01*
X168159389Y-131806564D01*
X168119000Y-131603516D01*
X168119000Y-131396484D01*
X168159389Y-131193436D01*
X168238615Y-131002167D01*
X168353635Y-130830027D01*
X168500027Y-130683635D01*
X168651958Y-130582118D01*
X168672165Y-130568616D01*
X168672167Y-130568615D01*
X168863436Y-130489389D01*
X169066484Y-130449000D01*
X169273516Y-130449000D01*
X169476564Y-130489389D01*
G37*
G36*
X314471731Y-128409136D02*
G01*
X314574644Y-128419272D01*
X314770017Y-128478538D01*
X314838737Y-128499384D01*
X315068202Y-128622036D01*
X315082120Y-128629475D01*
X315137691Y-128675082D01*
X315295450Y-128804550D01*
X315424918Y-128962309D01*
X315470525Y-129017880D01*
X315470526Y-129017882D01*
X315600616Y-129261263D01*
X315600617Y-129261267D01*
X315680728Y-129525356D01*
X315707778Y-129800000D01*
X315680728Y-130074644D01*
X315621462Y-130270017D01*
X315600616Y-130338737D01*
X315520090Y-130489390D01*
X315470525Y-130582120D01*
X315424918Y-130637691D01*
X315295450Y-130795450D01*
X315137691Y-130924918D01*
X315082120Y-130970525D01*
X315082118Y-130970526D01*
X314838737Y-131100616D01*
X314770017Y-131121462D01*
X314574644Y-131180728D01*
X314471731Y-131190864D01*
X314368820Y-131201000D01*
X313631180Y-131201000D01*
X313528269Y-131190864D01*
X313425356Y-131180728D01*
X313229983Y-131121462D01*
X313161263Y-131100616D01*
X312917882Y-130970526D01*
X312917880Y-130970525D01*
X312862309Y-130924918D01*
X312704550Y-130795450D01*
X312575082Y-130637691D01*
X312529475Y-130582120D01*
X312479910Y-130489390D01*
X312399384Y-130338737D01*
X312378538Y-130270017D01*
X312319272Y-130074644D01*
X312292222Y-129800000D01*
X312319272Y-129525356D01*
X312399383Y-129261267D01*
X312399384Y-129261263D01*
X312529474Y-129017882D01*
X312529475Y-129017880D01*
X312575082Y-128962309D01*
X312704550Y-128804550D01*
X312862309Y-128675082D01*
X312917880Y-128629475D01*
X312931798Y-128622036D01*
X313161263Y-128499384D01*
X313229983Y-128478538D01*
X313425356Y-128419272D01*
X313528269Y-128409136D01*
X313631180Y-128399000D01*
X314368820Y-128399000D01*
X314471731Y-128409136D01*
G37*
G36*
X308971731Y-128409136D02*
G01*
X309074644Y-128419272D01*
X309270017Y-128478538D01*
X309338737Y-128499384D01*
X309568202Y-128622036D01*
X309582120Y-128629475D01*
X309637691Y-128675082D01*
X309795450Y-128804550D01*
X309924918Y-128962309D01*
X309970525Y-129017880D01*
X309970526Y-129017882D01*
X310100616Y-129261263D01*
X310100617Y-129261267D01*
X310180728Y-129525356D01*
X310207778Y-129800000D01*
X310180728Y-130074644D01*
X310121462Y-130270017D01*
X310100616Y-130338737D01*
X310020090Y-130489390D01*
X309970525Y-130582120D01*
X309924918Y-130637691D01*
X309795450Y-130795450D01*
X309637691Y-130924918D01*
X309582120Y-130970525D01*
X309582118Y-130970526D01*
X309338737Y-131100616D01*
X309270017Y-131121462D01*
X309074644Y-131180728D01*
X308971731Y-131190864D01*
X308868820Y-131201000D01*
X308131180Y-131201000D01*
X308028269Y-131190864D01*
X307925356Y-131180728D01*
X307729983Y-131121462D01*
X307661263Y-131100616D01*
X307417882Y-130970526D01*
X307417880Y-130970525D01*
X307362309Y-130924918D01*
X307204550Y-130795450D01*
X307075082Y-130637691D01*
X307029475Y-130582120D01*
X306979910Y-130489390D01*
X306899384Y-130338737D01*
X306878538Y-130270017D01*
X306819272Y-130074644D01*
X306792222Y-129800000D01*
X306819272Y-129525356D01*
X306899383Y-129261267D01*
X306899384Y-129261263D01*
X307029474Y-129017882D01*
X307029475Y-129017880D01*
X307075082Y-128962309D01*
X307204550Y-128804550D01*
X307362309Y-128675082D01*
X307417880Y-128629475D01*
X307431798Y-128622036D01*
X307661263Y-128499384D01*
X307729983Y-128478538D01*
X307925356Y-128419272D01*
X308028269Y-128409136D01*
X308131180Y-128399000D01*
X308868820Y-128399000D01*
X308971731Y-128409136D01*
G37*
G36*
X314471731Y-124209136D02*
G01*
X314574644Y-124219272D01*
X314770017Y-124278538D01*
X314838737Y-124299384D01*
X315068202Y-124422036D01*
X315082120Y-124429475D01*
X315137691Y-124475082D01*
X315295450Y-124604550D01*
X315424918Y-124762309D01*
X315470525Y-124817880D01*
X315470526Y-124817882D01*
X315600616Y-125061263D01*
X315600617Y-125061267D01*
X315680728Y-125325356D01*
X315707778Y-125600000D01*
X315680728Y-125874644D01*
X315621462Y-126070017D01*
X315600616Y-126138737D01*
X315477964Y-126368202D01*
X315470525Y-126382120D01*
X315424918Y-126437691D01*
X315295450Y-126595450D01*
X315137691Y-126724918D01*
X315082120Y-126770525D01*
X315082118Y-126770526D01*
X314838737Y-126900616D01*
X314770017Y-126921462D01*
X314574644Y-126980728D01*
X314471731Y-126990864D01*
X314368820Y-127001000D01*
X313631180Y-127001000D01*
X313528269Y-126990864D01*
X313425356Y-126980728D01*
X313229983Y-126921462D01*
X313161263Y-126900616D01*
X312917882Y-126770526D01*
X312917880Y-126770525D01*
X312862309Y-126724918D01*
X312704550Y-126595450D01*
X312575082Y-126437691D01*
X312529475Y-126382120D01*
X312522036Y-126368202D01*
X312399384Y-126138737D01*
X312378538Y-126070017D01*
X312319272Y-125874644D01*
X312292222Y-125600000D01*
X312319272Y-125325356D01*
X312399383Y-125061267D01*
X312399384Y-125061263D01*
X312529474Y-124817882D01*
X312529475Y-124817880D01*
X312575082Y-124762309D01*
X312704550Y-124604550D01*
X312862309Y-124475082D01*
X312917880Y-124429475D01*
X312931798Y-124422036D01*
X313161263Y-124299384D01*
X313229983Y-124278538D01*
X313425356Y-124219272D01*
X313528269Y-124209136D01*
X313631180Y-124199000D01*
X314368820Y-124199000D01*
X314471731Y-124209136D01*
G37*
G36*
X308971731Y-124209136D02*
G01*
X309074644Y-124219272D01*
X309270017Y-124278538D01*
X309338737Y-124299384D01*
X309568202Y-124422036D01*
X309582120Y-124429475D01*
X309637691Y-124475082D01*
X309795450Y-124604550D01*
X309924918Y-124762309D01*
X309970525Y-124817880D01*
X309970526Y-124817882D01*
X310100616Y-125061263D01*
X310100617Y-125061267D01*
X310180728Y-125325356D01*
X310207778Y-125600000D01*
X310180728Y-125874644D01*
X310121462Y-126070017D01*
X310100616Y-126138737D01*
X309977964Y-126368202D01*
X309970525Y-126382120D01*
X309924918Y-126437691D01*
X309795450Y-126595450D01*
X309637691Y-126724918D01*
X309582120Y-126770525D01*
X309582118Y-126770526D01*
X309338737Y-126900616D01*
X309270017Y-126921462D01*
X309074644Y-126980728D01*
X308971731Y-126990864D01*
X308868820Y-127001000D01*
X308131180Y-127001000D01*
X308028269Y-126990864D01*
X307925356Y-126980728D01*
X307729983Y-126921462D01*
X307661263Y-126900616D01*
X307417882Y-126770526D01*
X307417880Y-126770525D01*
X307362309Y-126724918D01*
X307204550Y-126595450D01*
X307075082Y-126437691D01*
X307029475Y-126382120D01*
X307022036Y-126368202D01*
X306899384Y-126138737D01*
X306878538Y-126070017D01*
X306819272Y-125874644D01*
X306792222Y-125600000D01*
X306819272Y-125325356D01*
X306899383Y-125061267D01*
X306899384Y-125061263D01*
X307029474Y-124817882D01*
X307029475Y-124817880D01*
X307075082Y-124762309D01*
X307204550Y-124604550D01*
X307362309Y-124475082D01*
X307417880Y-124429475D01*
X307431798Y-124422036D01*
X307661263Y-124299384D01*
X307729983Y-124278538D01*
X307925356Y-124219272D01*
X308028269Y-124209136D01*
X308131180Y-124199000D01*
X308868820Y-124199000D01*
X308971731Y-124209136D01*
G37*
G36*
X314471731Y-120009136D02*
G01*
X314574644Y-120019272D01*
X314770017Y-120078538D01*
X314838737Y-120099384D01*
X315068202Y-120222036D01*
X315082120Y-120229475D01*
X315137691Y-120275082D01*
X315295450Y-120404550D01*
X315424918Y-120562309D01*
X315470525Y-120617880D01*
X315470526Y-120617882D01*
X315600616Y-120861263D01*
X315600617Y-120861267D01*
X315680728Y-121125356D01*
X315707778Y-121400000D01*
X315680728Y-121674644D01*
X315621462Y-121870017D01*
X315600616Y-121938737D01*
X315477964Y-122168202D01*
X315470525Y-122182120D01*
X315424918Y-122237691D01*
X315295450Y-122395450D01*
X315137691Y-122524918D01*
X315082120Y-122570525D01*
X315082118Y-122570526D01*
X314838737Y-122700616D01*
X314770017Y-122721462D01*
X314574644Y-122780728D01*
X314471731Y-122790864D01*
X314368820Y-122801000D01*
X313631180Y-122801000D01*
X313528269Y-122790864D01*
X313425356Y-122780728D01*
X313229983Y-122721462D01*
X313161263Y-122700616D01*
X312917882Y-122570526D01*
X312917880Y-122570525D01*
X312862309Y-122524918D01*
X312704550Y-122395450D01*
X312575082Y-122237691D01*
X312529475Y-122182120D01*
X312522036Y-122168202D01*
X312399384Y-121938737D01*
X312378538Y-121870017D01*
X312319272Y-121674644D01*
X312292222Y-121400000D01*
X312319272Y-121125356D01*
X312399383Y-120861267D01*
X312399384Y-120861263D01*
X312529474Y-120617882D01*
X312529475Y-120617880D01*
X312575082Y-120562309D01*
X312704550Y-120404550D01*
X312862309Y-120275082D01*
X312917880Y-120229475D01*
X312931798Y-120222036D01*
X313161263Y-120099384D01*
X313229983Y-120078538D01*
X313425356Y-120019272D01*
X313528269Y-120009136D01*
X313631180Y-119999000D01*
X314368820Y-119999000D01*
X314471731Y-120009136D01*
G37*
G36*
X308971731Y-120009136D02*
G01*
X309074644Y-120019272D01*
X309270017Y-120078538D01*
X309338737Y-120099384D01*
X309568202Y-120222036D01*
X309582120Y-120229475D01*
X309637691Y-120275082D01*
X309795450Y-120404550D01*
X309924918Y-120562309D01*
X309970525Y-120617880D01*
X309970526Y-120617882D01*
X310100616Y-120861263D01*
X310100617Y-120861267D01*
X310180728Y-121125356D01*
X310207778Y-121400000D01*
X310180728Y-121674644D01*
X310121462Y-121870017D01*
X310100616Y-121938737D01*
X309977964Y-122168202D01*
X309970525Y-122182120D01*
X309924918Y-122237691D01*
X309795450Y-122395450D01*
X309637691Y-122524918D01*
X309582120Y-122570525D01*
X309582118Y-122570526D01*
X309338737Y-122700616D01*
X309270017Y-122721462D01*
X309074644Y-122780728D01*
X308971731Y-122790864D01*
X308868820Y-122801000D01*
X308131180Y-122801000D01*
X308028269Y-122790864D01*
X307925356Y-122780728D01*
X307729983Y-122721462D01*
X307661263Y-122700616D01*
X307417882Y-122570526D01*
X307417880Y-122570525D01*
X307362309Y-122524918D01*
X307204550Y-122395450D01*
X307075082Y-122237691D01*
X307029475Y-122182120D01*
X307022036Y-122168202D01*
X306899384Y-121938737D01*
X306878538Y-121870017D01*
X306819272Y-121674644D01*
X306792222Y-121400000D01*
X306819272Y-121125356D01*
X306899383Y-120861267D01*
X306899384Y-120861263D01*
X307029474Y-120617882D01*
X307029475Y-120617880D01*
X307075082Y-120562309D01*
X307204550Y-120404550D01*
X307362309Y-120275082D01*
X307417880Y-120229475D01*
X307431798Y-120222036D01*
X307661263Y-120099384D01*
X307729983Y-120078538D01*
X307925356Y-120019272D01*
X308028269Y-120009136D01*
X308131180Y-119999000D01*
X308868820Y-119999000D01*
X308971731Y-120009136D01*
G37*
G36*
X314471731Y-115809136D02*
G01*
X314574644Y-115819272D01*
X314770017Y-115878538D01*
X314838737Y-115899384D01*
X315068202Y-116022036D01*
X315082120Y-116029475D01*
X315137691Y-116075082D01*
X315295450Y-116204550D01*
X315424918Y-116362309D01*
X315470525Y-116417880D01*
X315470526Y-116417882D01*
X315600616Y-116661263D01*
X315600617Y-116661267D01*
X315680728Y-116925356D01*
X315707778Y-117200000D01*
X315680728Y-117474644D01*
X315621462Y-117670017D01*
X315600616Y-117738737D01*
X315477964Y-117968202D01*
X315470525Y-117982120D01*
X315424918Y-118037691D01*
X315295450Y-118195450D01*
X315137691Y-118324918D01*
X315082120Y-118370525D01*
X315082118Y-118370526D01*
X314838737Y-118500616D01*
X314770017Y-118521462D01*
X314574644Y-118580728D01*
X314471731Y-118590864D01*
X314368820Y-118601000D01*
X313631180Y-118601000D01*
X313528269Y-118590864D01*
X313425356Y-118580728D01*
X313229983Y-118521462D01*
X313161263Y-118500616D01*
X312917882Y-118370526D01*
X312917880Y-118370525D01*
X312862309Y-118324918D01*
X312704550Y-118195450D01*
X312575082Y-118037691D01*
X312529475Y-117982120D01*
X312522036Y-117968202D01*
X312399384Y-117738737D01*
X312378538Y-117670017D01*
X312319272Y-117474644D01*
X312292222Y-117200000D01*
X312319272Y-116925356D01*
X312399383Y-116661267D01*
X312399384Y-116661263D01*
X312529474Y-116417882D01*
X312529475Y-116417880D01*
X312575082Y-116362309D01*
X312704550Y-116204550D01*
X312862309Y-116075082D01*
X312917880Y-116029475D01*
X312931798Y-116022036D01*
X313161263Y-115899384D01*
X313229983Y-115878538D01*
X313425356Y-115819272D01*
X313528269Y-115809136D01*
X313631180Y-115799000D01*
X314368820Y-115799000D01*
X314471731Y-115809136D01*
G37*
G36*
X308971731Y-115809136D02*
G01*
X309074644Y-115819272D01*
X309270017Y-115878538D01*
X309338737Y-115899384D01*
X309568202Y-116022036D01*
X309582120Y-116029475D01*
X309637691Y-116075082D01*
X309795450Y-116204550D01*
X309924918Y-116362309D01*
X309970525Y-116417880D01*
X309970526Y-116417882D01*
X310100616Y-116661263D01*
X310100617Y-116661267D01*
X310180728Y-116925356D01*
X310207778Y-117200000D01*
X310180728Y-117474644D01*
X310121462Y-117670017D01*
X310100616Y-117738737D01*
X309977964Y-117968202D01*
X309970525Y-117982120D01*
X309924918Y-118037691D01*
X309795450Y-118195450D01*
X309637691Y-118324918D01*
X309582120Y-118370525D01*
X309582118Y-118370526D01*
X309338737Y-118500616D01*
X309270017Y-118521462D01*
X309074644Y-118580728D01*
X308971731Y-118590864D01*
X308868820Y-118601000D01*
X308131180Y-118601000D01*
X308028269Y-118590864D01*
X307925356Y-118580728D01*
X307729983Y-118521462D01*
X307661263Y-118500616D01*
X307417882Y-118370526D01*
X307417880Y-118370525D01*
X307362309Y-118324918D01*
X307204550Y-118195450D01*
X307075082Y-118037691D01*
X307029475Y-117982120D01*
X307022036Y-117968202D01*
X306899384Y-117738737D01*
X306878538Y-117670017D01*
X306819272Y-117474644D01*
X306792222Y-117200000D01*
X306819272Y-116925356D01*
X306899383Y-116661267D01*
X306899384Y-116661263D01*
X307029474Y-116417882D01*
X307029475Y-116417880D01*
X307075082Y-116362309D01*
X307204550Y-116204550D01*
X307362309Y-116075082D01*
X307417880Y-116029475D01*
X307431798Y-116022036D01*
X307661263Y-115899384D01*
X307729983Y-115878538D01*
X307925356Y-115819272D01*
X308028269Y-115809136D01*
X308131180Y-115799000D01*
X308868820Y-115799000D01*
X308971731Y-115809136D01*
G37*
G36*
X314471731Y-111609136D02*
G01*
X314574644Y-111619272D01*
X314770017Y-111678538D01*
X314838737Y-111699384D01*
X315068202Y-111822036D01*
X315082120Y-111829475D01*
X315137691Y-111875082D01*
X315295450Y-112004550D01*
X315424918Y-112162309D01*
X315470525Y-112217880D01*
X315470526Y-112217882D01*
X315600616Y-112461263D01*
X315600617Y-112461267D01*
X315680728Y-112725356D01*
X315707778Y-113000000D01*
X315680728Y-113274644D01*
X315621462Y-113470017D01*
X315600616Y-113538737D01*
X315477964Y-113768202D01*
X315470525Y-113782120D01*
X315424918Y-113837691D01*
X315295450Y-113995450D01*
X315137691Y-114124918D01*
X315082120Y-114170525D01*
X315082118Y-114170526D01*
X314838737Y-114300616D01*
X314770017Y-114321462D01*
X314574644Y-114380728D01*
X314471731Y-114390864D01*
X314368820Y-114401000D01*
X313631180Y-114401000D01*
X313528269Y-114390864D01*
X313425356Y-114380728D01*
X313229983Y-114321462D01*
X313161263Y-114300616D01*
X312917882Y-114170526D01*
X312917880Y-114170525D01*
X312862309Y-114124918D01*
X312704550Y-113995450D01*
X312575082Y-113837691D01*
X312529475Y-113782120D01*
X312522036Y-113768202D01*
X312399384Y-113538737D01*
X312378538Y-113470017D01*
X312319272Y-113274644D01*
X312292222Y-113000000D01*
X312319272Y-112725356D01*
X312399383Y-112461267D01*
X312399384Y-112461263D01*
X312529474Y-112217882D01*
X312529475Y-112217880D01*
X312575082Y-112162309D01*
X312704550Y-112004550D01*
X312862309Y-111875082D01*
X312917880Y-111829475D01*
X312931798Y-111822036D01*
X313161263Y-111699384D01*
X313229983Y-111678538D01*
X313425356Y-111619272D01*
X313528269Y-111609136D01*
X313631180Y-111599000D01*
X314368820Y-111599000D01*
X314471731Y-111609136D01*
G37*
G36*
X308971731Y-111609136D02*
G01*
X309074644Y-111619272D01*
X309270017Y-111678538D01*
X309338737Y-111699384D01*
X309568202Y-111822036D01*
X309582120Y-111829475D01*
X309637691Y-111875082D01*
X309795450Y-112004550D01*
X309924918Y-112162309D01*
X309970525Y-112217880D01*
X309970526Y-112217882D01*
X310100616Y-112461263D01*
X310100617Y-112461267D01*
X310180728Y-112725356D01*
X310207778Y-113000000D01*
X310180728Y-113274644D01*
X310121462Y-113470017D01*
X310100616Y-113538737D01*
X309977964Y-113768202D01*
X309970525Y-113782120D01*
X309924918Y-113837691D01*
X309795450Y-113995450D01*
X309637691Y-114124918D01*
X309582120Y-114170525D01*
X309582118Y-114170526D01*
X309338737Y-114300616D01*
X309270017Y-114321462D01*
X309074644Y-114380728D01*
X308971731Y-114390864D01*
X308868820Y-114401000D01*
X308131180Y-114401000D01*
X308028269Y-114390864D01*
X307925356Y-114380728D01*
X307729983Y-114321462D01*
X307661263Y-114300616D01*
X307417882Y-114170526D01*
X307417880Y-114170525D01*
X307362309Y-114124918D01*
X307204550Y-113995450D01*
X307075082Y-113837691D01*
X307029475Y-113782120D01*
X307022036Y-113768202D01*
X306899384Y-113538737D01*
X306878538Y-113470017D01*
X306819272Y-113274644D01*
X306792222Y-113000000D01*
X306819272Y-112725356D01*
X306899383Y-112461267D01*
X306899384Y-112461263D01*
X307029474Y-112217882D01*
X307029475Y-112217880D01*
X307075082Y-112162309D01*
X307204550Y-112004550D01*
X307362309Y-111875082D01*
X307417880Y-111829475D01*
X307431798Y-111822036D01*
X307661263Y-111699384D01*
X307729983Y-111678538D01*
X307925356Y-111619272D01*
X308028269Y-111609136D01*
X308131180Y-111599000D01*
X308868820Y-111599000D01*
X308971731Y-111609136D01*
G37*
G36*
X220241000Y-114241000D02*
G01*
X217359000Y-114241000D01*
X217359000Y-111359000D01*
X220241000Y-111359000D01*
X220241000Y-114241000D01*
G37*
G36*
X193241000Y-114241000D02*
G01*
X190359000Y-114241000D01*
X190359000Y-111359000D01*
X193241000Y-111359000D01*
X193241000Y-114241000D01*
G37*
G36*
X247241000Y-114241000D02*
G01*
X244359000Y-114241000D01*
X244359000Y-111359000D01*
X247241000Y-111359000D01*
X247241000Y-114241000D01*
G37*
G36*
X274241000Y-114241000D02*
G01*
X271359000Y-114241000D01*
X271359000Y-111359000D01*
X274241000Y-111359000D01*
X274241000Y-114241000D01*
G37*
G36*
X314471731Y-107409136D02*
G01*
X314574644Y-107419272D01*
X314770017Y-107478538D01*
X314838737Y-107499384D01*
X314985955Y-107578074D01*
X315082120Y-107629475D01*
X315137691Y-107675082D01*
X315295450Y-107804550D01*
X315415638Y-107951000D01*
X315470525Y-108017880D01*
X315470526Y-108017882D01*
X315600616Y-108261263D01*
X315600617Y-108261267D01*
X315680728Y-108525356D01*
X315707778Y-108800000D01*
X315680728Y-109074644D01*
X315654532Y-109161000D01*
X315600616Y-109338737D01*
X315477964Y-109568202D01*
X315470525Y-109582120D01*
X315424918Y-109637691D01*
X315295450Y-109795450D01*
X315137691Y-109924918D01*
X315082120Y-109970525D01*
X315082118Y-109970526D01*
X314838737Y-110100616D01*
X314770017Y-110121462D01*
X314574644Y-110180728D01*
X314471731Y-110190864D01*
X314368820Y-110201000D01*
X313631180Y-110201000D01*
X313528269Y-110190864D01*
X313425356Y-110180728D01*
X313229983Y-110121462D01*
X313161263Y-110100616D01*
X312917882Y-109970526D01*
X312917880Y-109970525D01*
X312862309Y-109924918D01*
X312704550Y-109795450D01*
X312575082Y-109637691D01*
X312529475Y-109582120D01*
X312522036Y-109568202D01*
X312399384Y-109338737D01*
X312345468Y-109161000D01*
X312319272Y-109074644D01*
X312292222Y-108800000D01*
X312319272Y-108525356D01*
X312399383Y-108261267D01*
X312399384Y-108261263D01*
X312529474Y-108017882D01*
X312529475Y-108017880D01*
X312584362Y-107951000D01*
X312704550Y-107804550D01*
X312862309Y-107675082D01*
X312917880Y-107629475D01*
X313014045Y-107578074D01*
X313161263Y-107499384D01*
X313229983Y-107478538D01*
X313425356Y-107419272D01*
X313528269Y-107409136D01*
X313631180Y-107399000D01*
X314368820Y-107399000D01*
X314471731Y-107409136D01*
G37*
G36*
X308971731Y-107409136D02*
G01*
X309074644Y-107419272D01*
X309270017Y-107478538D01*
X309338737Y-107499384D01*
X309485955Y-107578074D01*
X309582120Y-107629475D01*
X309637691Y-107675082D01*
X309795450Y-107804550D01*
X309915638Y-107951000D01*
X309970525Y-108017880D01*
X309970526Y-108017882D01*
X310100616Y-108261263D01*
X310100617Y-108261267D01*
X310180728Y-108525356D01*
X310207778Y-108800000D01*
X310180728Y-109074644D01*
X310154532Y-109161000D01*
X310100616Y-109338737D01*
X309977964Y-109568202D01*
X309970525Y-109582120D01*
X309924918Y-109637691D01*
X309795450Y-109795450D01*
X309637691Y-109924918D01*
X309582120Y-109970525D01*
X309582118Y-109970526D01*
X309338737Y-110100616D01*
X309270017Y-110121462D01*
X309074644Y-110180728D01*
X308971731Y-110190864D01*
X308868820Y-110201000D01*
X308131180Y-110201000D01*
X308028269Y-110190864D01*
X307925356Y-110180728D01*
X307729983Y-110121462D01*
X307661263Y-110100616D01*
X307417882Y-109970526D01*
X307417880Y-109970525D01*
X307362309Y-109924918D01*
X307204550Y-109795450D01*
X307075082Y-109637691D01*
X307029475Y-109582120D01*
X307022036Y-109568202D01*
X306899384Y-109338737D01*
X306845468Y-109161000D01*
X306819272Y-109074644D01*
X306792222Y-108800000D01*
X306819272Y-108525356D01*
X306899383Y-108261267D01*
X306899384Y-108261263D01*
X307029474Y-108017882D01*
X307029475Y-108017880D01*
X307084362Y-107951000D01*
X307204550Y-107804550D01*
X307362309Y-107675082D01*
X307417880Y-107629475D01*
X307514045Y-107578074D01*
X307661263Y-107499384D01*
X307729983Y-107478538D01*
X307925356Y-107419272D01*
X308028269Y-107409136D01*
X308131180Y-107399000D01*
X308868820Y-107399000D01*
X308971731Y-107409136D01*
G37*
G36*
X273081125Y-106306689D02*
G01*
X273220324Y-106334377D01*
X273328949Y-106379371D01*
X273482568Y-106443002D01*
X273718583Y-106600702D01*
X273919298Y-106801417D01*
X274076998Y-107037432D01*
X274185623Y-107299677D01*
X274241000Y-107578073D01*
X274241000Y-107861927D01*
X274185623Y-108140323D01*
X274076998Y-108402568D01*
X273919298Y-108638583D01*
X273718583Y-108839298D01*
X273482568Y-108996998D01*
X273328949Y-109060629D01*
X273220324Y-109105623D01*
X273081125Y-109133311D01*
X272941927Y-109161000D01*
X272658073Y-109161000D01*
X272518875Y-109133311D01*
X272379676Y-109105623D01*
X272271051Y-109060629D01*
X272117432Y-108996998D01*
X271881417Y-108839298D01*
X271680702Y-108638583D01*
X271523002Y-108402568D01*
X271414377Y-108140323D01*
X271359000Y-107861927D01*
X271359000Y-107578073D01*
X271414377Y-107299677D01*
X271523002Y-107037432D01*
X271680702Y-106801417D01*
X271881417Y-106600702D01*
X272117432Y-106443002D01*
X272271051Y-106379371D01*
X272379676Y-106334377D01*
X272518875Y-106306689D01*
X272658073Y-106279000D01*
X272941927Y-106279000D01*
X273081125Y-106306689D01*
G37*
G36*
X219081125Y-106306689D02*
G01*
X219220324Y-106334377D01*
X219328949Y-106379371D01*
X219482568Y-106443002D01*
X219718583Y-106600702D01*
X219919298Y-106801417D01*
X220076998Y-107037432D01*
X220185623Y-107299677D01*
X220241000Y-107578073D01*
X220241000Y-107861927D01*
X220185623Y-108140323D01*
X220076998Y-108402568D01*
X219919298Y-108638583D01*
X219718583Y-108839298D01*
X219482568Y-108996998D01*
X219328949Y-109060629D01*
X219220324Y-109105623D01*
X219081125Y-109133311D01*
X218941927Y-109161000D01*
X218658073Y-109161000D01*
X218518875Y-109133311D01*
X218379676Y-109105623D01*
X218271051Y-109060629D01*
X218117432Y-108996998D01*
X217881417Y-108839298D01*
X217680702Y-108638583D01*
X217523002Y-108402568D01*
X217414377Y-108140323D01*
X217359000Y-107861927D01*
X217359000Y-107578073D01*
X217414377Y-107299677D01*
X217523002Y-107037432D01*
X217680702Y-106801417D01*
X217881417Y-106600702D01*
X218117432Y-106443002D01*
X218271051Y-106379371D01*
X218379676Y-106334377D01*
X218518875Y-106306689D01*
X218658073Y-106279000D01*
X218941927Y-106279000D01*
X219081125Y-106306689D01*
G37*
G36*
X192081125Y-106306689D02*
G01*
X192220324Y-106334377D01*
X192328949Y-106379371D01*
X192482568Y-106443002D01*
X192718583Y-106600702D01*
X192919298Y-106801417D01*
X193076998Y-107037432D01*
X193185623Y-107299677D01*
X193241000Y-107578073D01*
X193241000Y-107861927D01*
X193185623Y-108140323D01*
X193076998Y-108402568D01*
X192919298Y-108638583D01*
X192718583Y-108839298D01*
X192482568Y-108996998D01*
X192328949Y-109060629D01*
X192220324Y-109105623D01*
X192081125Y-109133311D01*
X191941927Y-109161000D01*
X191658073Y-109161000D01*
X191518875Y-109133311D01*
X191379676Y-109105623D01*
X191271051Y-109060629D01*
X191117432Y-108996998D01*
X190881417Y-108839298D01*
X190680702Y-108638583D01*
X190523002Y-108402568D01*
X190414377Y-108140323D01*
X190359000Y-107861927D01*
X190359000Y-107578073D01*
X190414377Y-107299677D01*
X190523002Y-107037432D01*
X190680702Y-106801417D01*
X190881417Y-106600702D01*
X191117432Y-106443002D01*
X191271051Y-106379371D01*
X191379676Y-106334377D01*
X191518875Y-106306689D01*
X191658073Y-106279000D01*
X191941927Y-106279000D01*
X192081125Y-106306689D01*
G37*
G36*
X246081125Y-106306689D02*
G01*
X246220324Y-106334377D01*
X246328949Y-106379371D01*
X246482568Y-106443002D01*
X246718583Y-106600702D01*
X246919298Y-106801417D01*
X247076998Y-107037432D01*
X247185623Y-107299677D01*
X247241000Y-107578073D01*
X247241000Y-107861927D01*
X247185623Y-108140323D01*
X247076998Y-108402568D01*
X246919298Y-108638583D01*
X246718583Y-108839298D01*
X246482568Y-108996998D01*
X246328949Y-109060629D01*
X246220324Y-109105623D01*
X246081125Y-109133311D01*
X245941927Y-109161000D01*
X245658073Y-109161000D01*
X245518875Y-109133311D01*
X245379676Y-109105623D01*
X245271051Y-109060629D01*
X245117432Y-108996998D01*
X244881417Y-108839298D01*
X244680702Y-108638583D01*
X244523002Y-108402568D01*
X244414377Y-108140323D01*
X244359000Y-107861927D01*
X244359000Y-107578073D01*
X244414377Y-107299677D01*
X244523002Y-107037432D01*
X244680702Y-106801417D01*
X244881417Y-106600702D01*
X245117432Y-106443002D01*
X245271051Y-106379371D01*
X245379676Y-106334377D01*
X245518875Y-106306689D01*
X245658073Y-106279000D01*
X245941927Y-106279000D01*
X246081125Y-106306689D01*
G37*
G36*
X204998254Y-103927818D02*
G01*
X205368068Y-104081000D01*
X205371513Y-104082427D01*
X205493827Y-104164155D01*
X205707436Y-104306884D01*
X205993116Y-104592564D01*
X206217574Y-104928489D01*
X206372182Y-105301746D01*
X206451000Y-105697993D01*
X206451000Y-106102007D01*
X206372182Y-106498254D01*
X206329746Y-106600703D01*
X206217573Y-106871513D01*
X205993116Y-107207436D01*
X205707436Y-107493116D01*
X205371513Y-107717573D01*
X205371512Y-107717574D01*
X205371511Y-107717574D01*
X204998254Y-107872182D01*
X204602007Y-107951000D01*
X204197993Y-107951000D01*
X203801746Y-107872182D01*
X203428489Y-107717574D01*
X203428488Y-107717574D01*
X203428487Y-107717573D01*
X203092564Y-107493116D01*
X202806884Y-107207436D01*
X202582427Y-106871513D01*
X202470254Y-106600703D01*
X202427818Y-106498254D01*
X202349000Y-106102007D01*
X202349000Y-105697993D01*
X202427818Y-105301746D01*
X202582426Y-104928489D01*
X202806884Y-104592564D01*
X203092564Y-104306884D01*
X203306173Y-104164155D01*
X203428487Y-104082427D01*
X203431932Y-104081000D01*
X203801746Y-103927818D01*
X204197993Y-103849000D01*
X204602007Y-103849000D01*
X204998254Y-103927818D01*
G37*
G36*
X259598254Y-103927818D02*
G01*
X259968068Y-104081000D01*
X259971513Y-104082427D01*
X260093827Y-104164155D01*
X260307436Y-104306884D01*
X260593116Y-104592564D01*
X260817574Y-104928489D01*
X260972182Y-105301746D01*
X261051000Y-105697993D01*
X261051000Y-106102007D01*
X260972182Y-106498254D01*
X260929746Y-106600703D01*
X260817573Y-106871513D01*
X260593116Y-107207436D01*
X260307436Y-107493116D01*
X259971513Y-107717573D01*
X259971512Y-107717574D01*
X259971511Y-107717574D01*
X259598254Y-107872182D01*
X259202007Y-107951000D01*
X258797993Y-107951000D01*
X258401746Y-107872182D01*
X258028489Y-107717574D01*
X258028488Y-107717574D01*
X258028487Y-107717573D01*
X257692564Y-107493116D01*
X257406884Y-107207436D01*
X257182427Y-106871513D01*
X257070254Y-106600703D01*
X257027818Y-106498254D01*
X256949000Y-106102007D01*
X256949000Y-105697993D01*
X257027818Y-105301746D01*
X257182426Y-104928489D01*
X257406884Y-104592564D01*
X257692564Y-104306884D01*
X257906173Y-104164155D01*
X258028487Y-104082427D01*
X258031932Y-104081000D01*
X258401746Y-103927818D01*
X258797993Y-103849000D01*
X259202007Y-103849000D01*
X259598254Y-103927818D01*
G37*
G36*
X314471731Y-103209136D02*
G01*
X314574644Y-103219272D01*
X314770017Y-103278538D01*
X314838737Y-103299384D01*
X315068202Y-103422036D01*
X315082120Y-103429475D01*
X315137691Y-103475082D01*
X315295450Y-103604550D01*
X315422447Y-103759297D01*
X315470525Y-103817880D01*
X315470526Y-103817882D01*
X315600616Y-104061263D01*
X315600617Y-104061267D01*
X315680728Y-104325356D01*
X315707778Y-104600000D01*
X315680728Y-104874644D01*
X315664394Y-104928489D01*
X315600616Y-105138737D01*
X315477964Y-105368202D01*
X315470525Y-105382120D01*
X315424918Y-105437691D01*
X315295450Y-105595450D01*
X315170500Y-105697993D01*
X315082120Y-105770525D01*
X315082118Y-105770526D01*
X314838737Y-105900616D01*
X314770017Y-105921462D01*
X314574644Y-105980728D01*
X314471731Y-105990864D01*
X314368820Y-106001000D01*
X313631180Y-106001000D01*
X313528269Y-105990864D01*
X313425356Y-105980728D01*
X313229983Y-105921462D01*
X313161263Y-105900616D01*
X312917882Y-105770526D01*
X312917880Y-105770525D01*
X312829500Y-105697993D01*
X312704550Y-105595450D01*
X312575082Y-105437691D01*
X312529475Y-105382120D01*
X312522036Y-105368202D01*
X312399384Y-105138737D01*
X312335606Y-104928489D01*
X312319272Y-104874644D01*
X312292222Y-104600000D01*
X312319272Y-104325356D01*
X312399383Y-104061267D01*
X312399384Y-104061263D01*
X312529474Y-103817882D01*
X312529475Y-103817880D01*
X312577553Y-103759297D01*
X312704550Y-103604550D01*
X312862309Y-103475082D01*
X312917880Y-103429475D01*
X312931798Y-103422036D01*
X313161263Y-103299384D01*
X313229983Y-103278538D01*
X313425356Y-103219272D01*
X313528269Y-103209136D01*
X313631180Y-103199000D01*
X314368820Y-103199000D01*
X314471731Y-103209136D01*
G37*
G36*
X308971731Y-103209136D02*
G01*
X309074644Y-103219272D01*
X309270017Y-103278538D01*
X309338737Y-103299384D01*
X309568202Y-103422036D01*
X309582120Y-103429475D01*
X309637691Y-103475082D01*
X309795450Y-103604550D01*
X309922447Y-103759297D01*
X309970525Y-103817880D01*
X309970526Y-103817882D01*
X310100616Y-104061263D01*
X310100617Y-104061267D01*
X310180728Y-104325356D01*
X310207778Y-104600000D01*
X310180728Y-104874644D01*
X310164394Y-104928489D01*
X310100616Y-105138737D01*
X309977964Y-105368202D01*
X309970525Y-105382120D01*
X309924918Y-105437691D01*
X309795450Y-105595450D01*
X309670500Y-105697993D01*
X309582120Y-105770525D01*
X309582118Y-105770526D01*
X309338737Y-105900616D01*
X309270017Y-105921462D01*
X309074644Y-105980728D01*
X308971731Y-105990864D01*
X308868820Y-106001000D01*
X308131180Y-106001000D01*
X308028269Y-105990864D01*
X307925356Y-105980728D01*
X307729983Y-105921462D01*
X307661263Y-105900616D01*
X307417882Y-105770526D01*
X307417880Y-105770525D01*
X307329500Y-105697993D01*
X307204550Y-105595450D01*
X307075082Y-105437691D01*
X307029475Y-105382120D01*
X307022036Y-105368202D01*
X306899384Y-105138737D01*
X306835606Y-104928489D01*
X306819272Y-104874644D01*
X306792222Y-104600000D01*
X306819272Y-104325356D01*
X306899383Y-104061267D01*
X306899384Y-104061263D01*
X307029474Y-103817882D01*
X307029475Y-103817880D01*
X307077553Y-103759297D01*
X307204550Y-103604550D01*
X307362309Y-103475082D01*
X307417880Y-103429475D01*
X307431798Y-103422036D01*
X307661263Y-103299384D01*
X307729983Y-103278538D01*
X307925356Y-103219272D01*
X308028269Y-103209136D01*
X308131180Y-103199000D01*
X308868820Y-103199000D01*
X308971731Y-103209136D01*
G37*
G36*
X287960548Y-102282326D02*
G01*
X288134157Y-102334990D01*
X288294156Y-102420511D01*
X288308612Y-102432375D01*
X288434397Y-102535603D01*
X288513729Y-102632271D01*
X288549489Y-102675844D01*
X288635010Y-102835843D01*
X288687674Y-103009452D01*
X288701000Y-103144757D01*
X288701000Y-103695244D01*
X288687674Y-103830548D01*
X288635010Y-104004157D01*
X288549489Y-104164156D01*
X288513729Y-104207729D01*
X288434397Y-104304397D01*
X288294155Y-104419489D01*
X288134156Y-104505010D01*
X287960547Y-104557674D01*
X287780000Y-104575456D01*
X287599452Y-104557674D01*
X287425843Y-104505010D01*
X287265844Y-104419489D01*
X287222271Y-104383729D01*
X287125603Y-104304397D01*
X287010511Y-104164155D01*
X286924991Y-104004158D01*
X286924990Y-104004156D01*
X286872326Y-103830547D01*
X286859000Y-103695243D01*
X286859000Y-103144756D01*
X286872326Y-103009452D01*
X286924990Y-102835843D01*
X287010512Y-102675844D01*
X287020832Y-102663269D01*
X287125604Y-102535603D01*
X287251389Y-102432375D01*
X287265845Y-102420511D01*
X287425844Y-102334990D01*
X287599453Y-102282326D01*
X287780000Y-102264544D01*
X287960548Y-102282326D01*
G37*
G36*
X291099561Y-102272966D02*
G01*
X291132383Y-102282923D01*
X291162632Y-102299092D01*
X291189148Y-102320852D01*
X291210908Y-102347368D01*
X291227077Y-102377617D01*
X291237034Y-102410439D01*
X291241000Y-102450713D01*
X291241000Y-104389287D01*
X291237034Y-104429561D01*
X291227077Y-104462383D01*
X291210908Y-104492632D01*
X291189148Y-104519148D01*
X291162632Y-104540908D01*
X291132383Y-104557077D01*
X291099561Y-104567034D01*
X291059287Y-104571000D01*
X289580713Y-104571000D01*
X289540439Y-104567034D01*
X289507617Y-104557077D01*
X289477368Y-104540908D01*
X289450852Y-104519148D01*
X289429092Y-104492632D01*
X289412923Y-104462383D01*
X289402966Y-104429561D01*
X289399000Y-104389287D01*
X289399000Y-102450713D01*
X289402966Y-102410439D01*
X289412923Y-102377617D01*
X289429092Y-102347368D01*
X289450852Y-102320852D01*
X289477368Y-102299092D01*
X289507617Y-102282923D01*
X289540439Y-102272966D01*
X289580713Y-102269000D01*
X291059287Y-102269000D01*
X291099561Y-102272966D01*
G37*
G36*
X219081125Y-101226688D02*
G01*
X219220324Y-101254377D01*
X219328949Y-101299371D01*
X219482568Y-101363002D01*
X219718583Y-101520702D01*
X219919298Y-101721417D01*
X220076998Y-101957432D01*
X220185623Y-102219677D01*
X220241000Y-102498073D01*
X220241000Y-102781927D01*
X220230275Y-102835843D01*
X220185623Y-103060324D01*
X220140629Y-103168949D01*
X220076998Y-103322568D01*
X219919298Y-103558583D01*
X219718583Y-103759298D01*
X219482568Y-103916998D01*
X219328949Y-103980629D01*
X219220324Y-104025623D01*
X219081125Y-104053311D01*
X218941927Y-104081000D01*
X218658073Y-104081000D01*
X218518875Y-104053312D01*
X218379676Y-104025623D01*
X218271051Y-103980629D01*
X218117432Y-103916998D01*
X217881417Y-103759298D01*
X217680702Y-103558583D01*
X217523002Y-103322568D01*
X217459371Y-103168949D01*
X217414377Y-103060324D01*
X217369725Y-102835843D01*
X217359000Y-102781927D01*
X217359000Y-102498073D01*
X217414377Y-102219677D01*
X217523002Y-101957432D01*
X217680702Y-101721417D01*
X217881417Y-101520702D01*
X218117432Y-101363002D01*
X218271051Y-101299371D01*
X218379676Y-101254377D01*
X218518875Y-101226689D01*
X218658073Y-101199000D01*
X218941927Y-101199000D01*
X219081125Y-101226688D01*
G37*
G36*
X192081125Y-101226688D02*
G01*
X192220324Y-101254377D01*
X192328949Y-101299371D01*
X192482568Y-101363002D01*
X192718583Y-101520702D01*
X192919298Y-101721417D01*
X193076998Y-101957432D01*
X193185623Y-102219677D01*
X193241000Y-102498073D01*
X193241000Y-102781927D01*
X193230275Y-102835843D01*
X193185623Y-103060324D01*
X193140629Y-103168949D01*
X193076998Y-103322568D01*
X192919298Y-103558583D01*
X192718583Y-103759298D01*
X192482568Y-103916998D01*
X192328949Y-103980629D01*
X192220324Y-104025623D01*
X192081125Y-104053311D01*
X191941927Y-104081000D01*
X191658073Y-104081000D01*
X191518875Y-104053312D01*
X191379676Y-104025623D01*
X191271051Y-103980629D01*
X191117432Y-103916998D01*
X190881417Y-103759298D01*
X190680702Y-103558583D01*
X190523002Y-103322568D01*
X190459371Y-103168949D01*
X190414377Y-103060324D01*
X190369725Y-102835843D01*
X190359000Y-102781927D01*
X190359000Y-102498073D01*
X190414377Y-102219677D01*
X190523002Y-101957432D01*
X190680702Y-101721417D01*
X190881417Y-101520702D01*
X191117432Y-101363002D01*
X191271051Y-101299371D01*
X191379676Y-101254377D01*
X191518875Y-101226689D01*
X191658073Y-101199000D01*
X191941927Y-101199000D01*
X192081125Y-101226688D01*
G37*
G36*
X273081125Y-101226688D02*
G01*
X273220324Y-101254377D01*
X273328949Y-101299371D01*
X273482568Y-101363002D01*
X273718583Y-101520702D01*
X273919298Y-101721417D01*
X274076998Y-101957432D01*
X274185623Y-102219677D01*
X274241000Y-102498073D01*
X274241000Y-102781927D01*
X274230275Y-102835843D01*
X274185623Y-103060324D01*
X274140629Y-103168949D01*
X274076998Y-103322568D01*
X273919298Y-103558583D01*
X273718583Y-103759298D01*
X273482568Y-103916998D01*
X273328949Y-103980629D01*
X273220324Y-104025623D01*
X273081125Y-104053311D01*
X272941927Y-104081000D01*
X272658073Y-104081000D01*
X272518875Y-104053312D01*
X272379676Y-104025623D01*
X272271051Y-103980629D01*
X272117432Y-103916998D01*
X271881417Y-103759298D01*
X271680702Y-103558583D01*
X271523002Y-103322568D01*
X271459371Y-103168949D01*
X271414377Y-103060324D01*
X271369725Y-102835843D01*
X271359000Y-102781927D01*
X271359000Y-102498073D01*
X271414377Y-102219677D01*
X271523002Y-101957432D01*
X271680702Y-101721417D01*
X271881417Y-101520702D01*
X272117432Y-101363002D01*
X272271051Y-101299371D01*
X272379676Y-101254377D01*
X272518875Y-101226689D01*
X272658073Y-101199000D01*
X272941927Y-101199000D01*
X273081125Y-101226688D01*
G37*
G36*
X246081125Y-101226688D02*
G01*
X246220324Y-101254377D01*
X246328949Y-101299371D01*
X246482568Y-101363002D01*
X246718583Y-101520702D01*
X246919298Y-101721417D01*
X247076998Y-101957432D01*
X247185623Y-102219677D01*
X247241000Y-102498073D01*
X247241000Y-102781927D01*
X247230275Y-102835843D01*
X247185623Y-103060324D01*
X247140629Y-103168949D01*
X247076998Y-103322568D01*
X246919298Y-103558583D01*
X246718583Y-103759298D01*
X246482568Y-103916998D01*
X246328949Y-103980629D01*
X246220324Y-104025623D01*
X246081125Y-104053311D01*
X245941927Y-104081000D01*
X245658073Y-104081000D01*
X245518875Y-104053312D01*
X245379676Y-104025623D01*
X245271051Y-103980629D01*
X245117432Y-103916998D01*
X244881417Y-103759298D01*
X244680702Y-103558583D01*
X244523002Y-103322568D01*
X244459371Y-103168949D01*
X244414377Y-103060324D01*
X244369725Y-102835843D01*
X244359000Y-102781927D01*
X244359000Y-102498073D01*
X244414377Y-102219677D01*
X244523002Y-101957432D01*
X244680702Y-101721417D01*
X244881417Y-101520702D01*
X245117432Y-101363002D01*
X245271051Y-101299371D01*
X245379676Y-101254377D01*
X245518875Y-101226689D01*
X245658073Y-101199000D01*
X245941927Y-101199000D01*
X246081125Y-101226688D01*
G37*
G36*
X314471731Y-99009136D02*
G01*
X314574644Y-99019272D01*
X314770017Y-99078538D01*
X314838737Y-99099384D01*
X315068202Y-99222036D01*
X315082120Y-99229475D01*
X315137691Y-99275082D01*
X315295450Y-99404550D01*
X315424918Y-99562309D01*
X315470525Y-99617880D01*
X315470526Y-99617882D01*
X315600616Y-99861263D01*
X315600617Y-99861267D01*
X315680728Y-100125356D01*
X315707778Y-100400000D01*
X315680728Y-100674644D01*
X315621462Y-100870017D01*
X315600616Y-100938737D01*
X315477964Y-101168202D01*
X315470525Y-101182120D01*
X315424918Y-101237691D01*
X315295450Y-101395450D01*
X315142829Y-101520702D01*
X315082120Y-101570525D01*
X315082118Y-101570526D01*
X314838737Y-101700616D01*
X314770168Y-101721416D01*
X314574644Y-101780728D01*
X314471731Y-101790864D01*
X314368820Y-101801000D01*
X313631180Y-101801000D01*
X313528269Y-101790864D01*
X313425356Y-101780728D01*
X313229832Y-101721416D01*
X313161263Y-101700616D01*
X312917882Y-101570526D01*
X312917880Y-101570525D01*
X312857171Y-101520702D01*
X312704550Y-101395450D01*
X312575082Y-101237691D01*
X312529475Y-101182120D01*
X312522036Y-101168202D01*
X312399384Y-100938737D01*
X312378538Y-100870017D01*
X312319272Y-100674644D01*
X312292222Y-100400000D01*
X312319272Y-100125356D01*
X312399383Y-99861267D01*
X312399384Y-99861263D01*
X312529474Y-99617882D01*
X312529475Y-99617880D01*
X312575082Y-99562309D01*
X312704550Y-99404550D01*
X312862309Y-99275082D01*
X312917880Y-99229475D01*
X312931798Y-99222036D01*
X313161263Y-99099384D01*
X313229983Y-99078538D01*
X313425356Y-99019272D01*
X313528269Y-99009136D01*
X313631180Y-98999000D01*
X314368820Y-98999000D01*
X314471731Y-99009136D01*
G37*
G36*
X308971731Y-99009136D02*
G01*
X309074644Y-99019272D01*
X309270017Y-99078538D01*
X309338737Y-99099384D01*
X309568202Y-99222036D01*
X309582120Y-99229475D01*
X309637691Y-99275082D01*
X309795450Y-99404550D01*
X309924918Y-99562309D01*
X309970525Y-99617880D01*
X309970526Y-99617882D01*
X310100616Y-99861263D01*
X310100617Y-99861267D01*
X310180728Y-100125356D01*
X310207778Y-100400000D01*
X310180728Y-100674644D01*
X310121462Y-100870017D01*
X310100616Y-100938737D01*
X309977964Y-101168202D01*
X309970525Y-101182120D01*
X309924918Y-101237691D01*
X309795450Y-101395450D01*
X309642829Y-101520702D01*
X309582120Y-101570525D01*
X309582118Y-101570526D01*
X309338737Y-101700616D01*
X309270168Y-101721416D01*
X309074644Y-101780728D01*
X308971731Y-101790864D01*
X308868820Y-101801000D01*
X308131180Y-101801000D01*
X308028269Y-101790864D01*
X307925356Y-101780728D01*
X307729832Y-101721416D01*
X307661263Y-101700616D01*
X307417882Y-101570526D01*
X307417880Y-101570525D01*
X307357171Y-101520702D01*
X307204550Y-101395450D01*
X307075082Y-101237691D01*
X307029475Y-101182120D01*
X307022036Y-101168202D01*
X306899384Y-100938737D01*
X306878538Y-100870017D01*
X306819272Y-100674644D01*
X306792222Y-100400000D01*
X306819272Y-100125356D01*
X306899383Y-99861267D01*
X306899384Y-99861263D01*
X307029474Y-99617882D01*
X307029475Y-99617880D01*
X307075082Y-99562309D01*
X307204550Y-99404550D01*
X307362309Y-99275082D01*
X307417880Y-99229475D01*
X307431798Y-99222036D01*
X307661263Y-99099384D01*
X307729983Y-99078538D01*
X307925356Y-99019272D01*
X308028269Y-99009136D01*
X308131180Y-98999000D01*
X308868820Y-98999000D01*
X308971731Y-99009136D01*
G37*
G36*
X192081125Y-96146688D02*
G01*
X192220324Y-96174377D01*
X192282183Y-96200000D01*
X192482568Y-96283002D01*
X192718583Y-96440702D01*
X192919298Y-96641417D01*
X193076998Y-96877432D01*
X193185623Y-97139677D01*
X193241000Y-97418073D01*
X193241000Y-97701927D01*
X193185623Y-97980323D01*
X193076998Y-98242568D01*
X192919298Y-98478583D01*
X192718583Y-98679298D01*
X192482568Y-98836998D01*
X192328949Y-98900629D01*
X192220324Y-98945623D01*
X192081125Y-98973311D01*
X191941927Y-99001000D01*
X191658073Y-99001000D01*
X191518875Y-98973311D01*
X191379676Y-98945623D01*
X191271051Y-98900629D01*
X191117432Y-98836998D01*
X190881417Y-98679298D01*
X190680702Y-98478583D01*
X190523002Y-98242568D01*
X190414377Y-97980323D01*
X190359000Y-97701927D01*
X190359000Y-97418073D01*
X190414377Y-97139677D01*
X190523002Y-96877432D01*
X190680702Y-96641417D01*
X190881417Y-96440702D01*
X191117432Y-96283002D01*
X191317817Y-96200000D01*
X191379676Y-96174377D01*
X191518875Y-96146689D01*
X191658073Y-96119000D01*
X191941927Y-96119000D01*
X192081125Y-96146688D01*
G37*
G36*
X219081125Y-96146688D02*
G01*
X219220324Y-96174377D01*
X219282183Y-96200000D01*
X219482568Y-96283002D01*
X219718583Y-96440702D01*
X219919298Y-96641417D01*
X220076998Y-96877432D01*
X220185623Y-97139677D01*
X220241000Y-97418073D01*
X220241000Y-97701927D01*
X220185623Y-97980323D01*
X220076998Y-98242568D01*
X219919298Y-98478583D01*
X219718583Y-98679298D01*
X219482568Y-98836998D01*
X219328949Y-98900629D01*
X219220324Y-98945623D01*
X219081125Y-98973311D01*
X218941927Y-99001000D01*
X218658073Y-99001000D01*
X218518875Y-98973311D01*
X218379676Y-98945623D01*
X218271051Y-98900629D01*
X218117432Y-98836998D01*
X217881417Y-98679298D01*
X217680702Y-98478583D01*
X217523002Y-98242568D01*
X217414377Y-97980323D01*
X217359000Y-97701927D01*
X217359000Y-97418073D01*
X217414377Y-97139677D01*
X217523002Y-96877432D01*
X217680702Y-96641417D01*
X217881417Y-96440702D01*
X218117432Y-96283002D01*
X218317817Y-96200000D01*
X218379676Y-96174377D01*
X218518875Y-96146689D01*
X218658073Y-96119000D01*
X218941927Y-96119000D01*
X219081125Y-96146688D01*
G37*
G36*
X246081125Y-96146688D02*
G01*
X246220324Y-96174377D01*
X246282183Y-96200000D01*
X246482568Y-96283002D01*
X246718583Y-96440702D01*
X246919298Y-96641417D01*
X247076998Y-96877432D01*
X247185623Y-97139677D01*
X247241000Y-97418073D01*
X247241000Y-97701927D01*
X247185623Y-97980323D01*
X247076998Y-98242568D01*
X246919298Y-98478583D01*
X246718583Y-98679298D01*
X246482568Y-98836998D01*
X246328949Y-98900629D01*
X246220324Y-98945623D01*
X246081125Y-98973311D01*
X245941927Y-99001000D01*
X245658073Y-99001000D01*
X245518875Y-98973311D01*
X245379676Y-98945623D01*
X245271051Y-98900629D01*
X245117432Y-98836998D01*
X244881417Y-98679298D01*
X244680702Y-98478583D01*
X244523002Y-98242568D01*
X244414377Y-97980323D01*
X244359000Y-97701927D01*
X244359000Y-97418073D01*
X244414377Y-97139677D01*
X244523002Y-96877432D01*
X244680702Y-96641417D01*
X244881417Y-96440702D01*
X245117432Y-96283002D01*
X245317817Y-96200000D01*
X245379676Y-96174377D01*
X245518875Y-96146689D01*
X245658073Y-96119000D01*
X245941927Y-96119000D01*
X246081125Y-96146688D01*
G37*
G36*
X273081125Y-96146688D02*
G01*
X273220324Y-96174377D01*
X273282183Y-96200000D01*
X273482568Y-96283002D01*
X273718583Y-96440702D01*
X273919298Y-96641417D01*
X274076998Y-96877432D01*
X274185623Y-97139677D01*
X274241000Y-97418073D01*
X274241000Y-97701927D01*
X274185623Y-97980323D01*
X274076998Y-98242568D01*
X273919298Y-98478583D01*
X273718583Y-98679298D01*
X273482568Y-98836998D01*
X273328949Y-98900629D01*
X273220324Y-98945623D01*
X273081125Y-98973311D01*
X272941927Y-99001000D01*
X272658073Y-99001000D01*
X272518875Y-98973311D01*
X272379676Y-98945623D01*
X272271051Y-98900629D01*
X272117432Y-98836998D01*
X271881417Y-98679298D01*
X271680702Y-98478583D01*
X271523002Y-98242568D01*
X271414377Y-97980323D01*
X271359000Y-97701927D01*
X271359000Y-97418073D01*
X271414377Y-97139677D01*
X271523002Y-96877432D01*
X271680702Y-96641417D01*
X271881417Y-96440702D01*
X272117432Y-96283002D01*
X272317817Y-96200000D01*
X272379676Y-96174377D01*
X272518875Y-96146689D01*
X272658073Y-96119000D01*
X272941927Y-96119000D01*
X273081125Y-96146688D01*
G37*
G36*
X308971731Y-94809136D02*
G01*
X309074644Y-94819272D01*
X309270017Y-94878538D01*
X309338737Y-94899384D01*
X309568202Y-95022036D01*
X309582120Y-95029475D01*
X309637691Y-95075082D01*
X309795450Y-95204550D01*
X309924918Y-95362309D01*
X309970525Y-95417880D01*
X309970526Y-95417882D01*
X310100616Y-95661263D01*
X310100617Y-95661267D01*
X310180728Y-95925356D01*
X310207778Y-96200000D01*
X310180728Y-96474644D01*
X310130138Y-96641416D01*
X310100616Y-96738737D01*
X309977964Y-96968202D01*
X309970525Y-96982120D01*
X309924918Y-97037691D01*
X309795450Y-97195450D01*
X309637691Y-97324918D01*
X309582120Y-97370525D01*
X309582118Y-97370526D01*
X309338737Y-97500616D01*
X309270017Y-97521462D01*
X309074644Y-97580728D01*
X308971731Y-97590864D01*
X308868820Y-97601000D01*
X308131180Y-97601000D01*
X308028269Y-97590864D01*
X307925356Y-97580728D01*
X307729983Y-97521462D01*
X307661263Y-97500616D01*
X307417882Y-97370526D01*
X307417880Y-97370525D01*
X307362309Y-97324918D01*
X307204550Y-97195450D01*
X307075082Y-97037691D01*
X307029475Y-96982120D01*
X307022036Y-96968202D01*
X306899384Y-96738737D01*
X306869862Y-96641416D01*
X306819272Y-96474644D01*
X306792222Y-96200000D01*
X306819272Y-95925356D01*
X306899383Y-95661267D01*
X306899384Y-95661263D01*
X307029474Y-95417882D01*
X307029475Y-95417880D01*
X307075082Y-95362309D01*
X307204550Y-95204550D01*
X307362309Y-95075082D01*
X307417880Y-95029475D01*
X307431798Y-95022036D01*
X307661263Y-94899384D01*
X307729983Y-94878538D01*
X307925356Y-94819272D01*
X308028269Y-94809136D01*
X308131180Y-94799000D01*
X308868820Y-94799000D01*
X308971731Y-94809136D01*
G37*
G36*
X314471731Y-94809136D02*
G01*
X314574644Y-94819272D01*
X314770017Y-94878538D01*
X314838737Y-94899384D01*
X315068202Y-95022036D01*
X315082120Y-95029475D01*
X315137691Y-95075082D01*
X315295450Y-95204550D01*
X315424918Y-95362309D01*
X315470525Y-95417880D01*
X315470526Y-95417882D01*
X315600616Y-95661263D01*
X315600617Y-95661267D01*
X315680728Y-95925356D01*
X315707778Y-96200000D01*
X315680728Y-96474644D01*
X315630138Y-96641416D01*
X315600616Y-96738737D01*
X315477964Y-96968202D01*
X315470525Y-96982120D01*
X315424918Y-97037691D01*
X315295450Y-97195450D01*
X315137691Y-97324918D01*
X315082120Y-97370525D01*
X315082118Y-97370526D01*
X314838737Y-97500616D01*
X314770017Y-97521462D01*
X314574644Y-97580728D01*
X314471731Y-97590864D01*
X314368820Y-97601000D01*
X313631180Y-97601000D01*
X313528269Y-97590864D01*
X313425356Y-97580728D01*
X313229983Y-97521462D01*
X313161263Y-97500616D01*
X312917882Y-97370526D01*
X312917880Y-97370525D01*
X312862309Y-97324918D01*
X312704550Y-97195450D01*
X312575082Y-97037691D01*
X312529475Y-96982120D01*
X312522036Y-96968202D01*
X312399384Y-96738737D01*
X312369862Y-96641416D01*
X312319272Y-96474644D01*
X312292222Y-96200000D01*
X312319272Y-95925356D01*
X312399383Y-95661267D01*
X312399384Y-95661263D01*
X312529474Y-95417882D01*
X312529475Y-95417880D01*
X312575082Y-95362309D01*
X312704550Y-95204550D01*
X312862309Y-95075082D01*
X312917880Y-95029475D01*
X312931798Y-95022036D01*
X313161263Y-94899384D01*
X313229983Y-94878538D01*
X313425356Y-94819272D01*
X313528269Y-94809136D01*
X313631180Y-94799000D01*
X314368820Y-94799000D01*
X314471731Y-94809136D01*
G37*
G36*
X315574031Y-90602621D02*
G01*
X315603486Y-90611556D01*
X315630623Y-90626062D01*
X315654414Y-90645586D01*
X315673938Y-90669377D01*
X315688444Y-90696514D01*
X315697379Y-90725969D01*
X315701000Y-90762734D01*
X315701000Y-93237266D01*
X315697379Y-93274031D01*
X315688444Y-93303486D01*
X315673938Y-93330623D01*
X315654414Y-93354414D01*
X315630623Y-93373938D01*
X315603486Y-93388444D01*
X315574031Y-93397379D01*
X315537266Y-93401000D01*
X312462734Y-93401000D01*
X312425969Y-93397379D01*
X312396514Y-93388444D01*
X312369377Y-93373938D01*
X312345586Y-93354414D01*
X312326062Y-93330623D01*
X312311556Y-93303486D01*
X312302621Y-93274031D01*
X312299000Y-93237266D01*
X312299000Y-90762734D01*
X312302621Y-90725969D01*
X312311556Y-90696514D01*
X312326062Y-90669377D01*
X312345586Y-90645586D01*
X312369377Y-90626062D01*
X312396514Y-90611556D01*
X312425969Y-90602621D01*
X312462734Y-90599000D01*
X315537266Y-90599000D01*
X315574031Y-90602621D01*
G37*
G36*
X308971731Y-90609136D02*
G01*
X309074644Y-90619272D01*
X309270017Y-90678538D01*
X309338737Y-90699384D01*
X309541625Y-90807830D01*
X309582120Y-90829475D01*
X309637691Y-90875082D01*
X309795450Y-91004550D01*
X309924918Y-91162309D01*
X309970525Y-91217880D01*
X309970526Y-91217882D01*
X310100616Y-91461263D01*
X310100617Y-91461267D01*
X310180728Y-91725356D01*
X310207778Y-92000000D01*
X310180728Y-92274644D01*
X310121462Y-92470017D01*
X310100616Y-92538737D01*
X309977964Y-92768202D01*
X309970525Y-92782120D01*
X309924918Y-92837691D01*
X309795450Y-92995450D01*
X309637691Y-93124918D01*
X309582120Y-93170525D01*
X309582118Y-93170526D01*
X309338737Y-93300616D01*
X309270017Y-93321462D01*
X309074644Y-93380728D01*
X308971731Y-93390864D01*
X308868820Y-93401000D01*
X308131180Y-93401000D01*
X308028269Y-93390864D01*
X307925356Y-93380728D01*
X307729983Y-93321462D01*
X307661263Y-93300616D01*
X307417882Y-93170526D01*
X307417880Y-93170525D01*
X307362309Y-93124918D01*
X307204550Y-92995450D01*
X307075082Y-92837691D01*
X307029475Y-92782120D01*
X307022036Y-92768202D01*
X306899384Y-92538737D01*
X306878538Y-92470017D01*
X306819272Y-92274644D01*
X306792222Y-92000000D01*
X306819272Y-91725356D01*
X306899383Y-91461267D01*
X306899384Y-91461263D01*
X307029474Y-91217882D01*
X307029475Y-91217880D01*
X307075082Y-91162309D01*
X307204550Y-91004550D01*
X307362309Y-90875082D01*
X307417880Y-90829475D01*
X307458375Y-90807830D01*
X307661263Y-90699384D01*
X307729983Y-90678538D01*
X307925356Y-90619272D01*
X308028269Y-90609136D01*
X308131180Y-90599000D01*
X308868820Y-90599000D01*
X308971731Y-90609136D01*
G37*
G36*
X275423241Y-84104760D02*
G01*
X275687305Y-84214139D01*
X275924958Y-84372934D01*
X276127066Y-84575042D01*
X276285861Y-84812695D01*
X276395240Y-85076759D01*
X276451000Y-85357088D01*
X276451000Y-85642912D01*
X276395240Y-85923241D01*
X276285861Y-86187305D01*
X276127066Y-86424958D01*
X275924958Y-86627066D01*
X275687305Y-86785861D01*
X275423241Y-86895240D01*
X275142912Y-86951000D01*
X274857088Y-86951000D01*
X274576759Y-86895240D01*
X274312695Y-86785861D01*
X274075042Y-86627066D01*
X273872934Y-86424958D01*
X273714139Y-86187305D01*
X273604760Y-85923241D01*
X273549000Y-85642912D01*
X273549000Y-85357088D01*
X273604760Y-85076759D01*
X273714139Y-84812695D01*
X273872934Y-84575042D01*
X274075042Y-84372934D01*
X274312695Y-84214139D01*
X274576759Y-84104760D01*
X274857088Y-84049000D01*
X275142912Y-84049000D01*
X275423241Y-84104760D01*
G37*
G36*
X271223241Y-84104760D02*
G01*
X271487305Y-84214139D01*
X271724958Y-84372934D01*
X271927066Y-84575042D01*
X272085861Y-84812695D01*
X272195240Y-85076759D01*
X272251000Y-85357088D01*
X272251000Y-85642912D01*
X272195240Y-85923241D01*
X272085861Y-86187305D01*
X271927066Y-86424958D01*
X271724958Y-86627066D01*
X271487305Y-86785861D01*
X271223241Y-86895240D01*
X270942912Y-86951000D01*
X270657088Y-86951000D01*
X270376759Y-86895240D01*
X270112695Y-86785861D01*
X269875042Y-86627066D01*
X269672934Y-86424958D01*
X269514139Y-86187305D01*
X269404760Y-85923241D01*
X269349000Y-85642912D01*
X269349000Y-85357088D01*
X269404760Y-85076759D01*
X269514139Y-84812695D01*
X269672934Y-84575042D01*
X269875042Y-84372934D01*
X270112695Y-84214139D01*
X270376759Y-84104760D01*
X270657088Y-84049000D01*
X270942912Y-84049000D01*
X271223241Y-84104760D01*
G37*
G36*
X248423241Y-84104760D02*
G01*
X248687305Y-84214139D01*
X248924958Y-84372934D01*
X249127066Y-84575042D01*
X249285861Y-84812695D01*
X249395240Y-85076759D01*
X249451000Y-85357088D01*
X249451000Y-85642912D01*
X249395240Y-85923241D01*
X249285861Y-86187305D01*
X249127066Y-86424958D01*
X248924958Y-86627066D01*
X248687305Y-86785861D01*
X248423241Y-86895240D01*
X248142912Y-86951000D01*
X247857088Y-86951000D01*
X247576759Y-86895240D01*
X247312695Y-86785861D01*
X247075042Y-86627066D01*
X246872934Y-86424958D01*
X246714139Y-86187305D01*
X246604760Y-85923241D01*
X246549000Y-85642912D01*
X246549000Y-85357088D01*
X246604760Y-85076759D01*
X246714139Y-84812695D01*
X246872934Y-84575042D01*
X247075042Y-84372934D01*
X247312695Y-84214139D01*
X247576759Y-84104760D01*
X247857088Y-84049000D01*
X248142912Y-84049000D01*
X248423241Y-84104760D01*
G37*
G36*
X244223241Y-84104760D02*
G01*
X244487305Y-84214139D01*
X244724958Y-84372934D01*
X244927066Y-84575042D01*
X245085861Y-84812695D01*
X245195240Y-85076759D01*
X245251000Y-85357088D01*
X245251000Y-85642912D01*
X245195240Y-85923241D01*
X245085861Y-86187305D01*
X244927066Y-86424958D01*
X244724958Y-86627066D01*
X244487305Y-86785861D01*
X244223241Y-86895240D01*
X243942912Y-86951000D01*
X243657088Y-86951000D01*
X243376759Y-86895240D01*
X243112695Y-86785861D01*
X242875042Y-86627066D01*
X242672934Y-86424958D01*
X242514139Y-86187305D01*
X242404760Y-85923241D01*
X242349000Y-85642912D01*
X242349000Y-85357088D01*
X242404760Y-85076759D01*
X242514139Y-84812695D01*
X242672934Y-84575042D01*
X242875042Y-84372934D01*
X243112695Y-84214139D01*
X243376759Y-84104760D01*
X243657088Y-84049000D01*
X243942912Y-84049000D01*
X244223241Y-84104760D01*
G37*
G36*
X221423241Y-84104760D02*
G01*
X221687305Y-84214139D01*
X221924958Y-84372934D01*
X222127066Y-84575042D01*
X222285861Y-84812695D01*
X222395240Y-85076759D01*
X222451000Y-85357088D01*
X222451000Y-85642912D01*
X222395240Y-85923241D01*
X222285861Y-86187305D01*
X222127066Y-86424958D01*
X221924958Y-86627066D01*
X221687305Y-86785861D01*
X221423241Y-86895240D01*
X221142912Y-86951000D01*
X220857088Y-86951000D01*
X220576759Y-86895240D01*
X220312695Y-86785861D01*
X220075042Y-86627066D01*
X219872934Y-86424958D01*
X219714139Y-86187305D01*
X219604760Y-85923241D01*
X219549000Y-85642912D01*
X219549000Y-85357088D01*
X219604760Y-85076759D01*
X219714139Y-84812695D01*
X219872934Y-84575042D01*
X220075042Y-84372934D01*
X220312695Y-84214139D01*
X220576759Y-84104760D01*
X220857088Y-84049000D01*
X221142912Y-84049000D01*
X221423241Y-84104760D01*
G37*
G36*
X217223241Y-84104760D02*
G01*
X217487305Y-84214139D01*
X217724958Y-84372934D01*
X217927066Y-84575042D01*
X218085861Y-84812695D01*
X218195240Y-85076759D01*
X218251000Y-85357088D01*
X218251000Y-85642912D01*
X218195240Y-85923241D01*
X218085861Y-86187305D01*
X217927066Y-86424958D01*
X217724958Y-86627066D01*
X217487305Y-86785861D01*
X217223241Y-86895240D01*
X216942912Y-86951000D01*
X216657088Y-86951000D01*
X216376759Y-86895240D01*
X216112695Y-86785861D01*
X215875042Y-86627066D01*
X215672934Y-86424958D01*
X215514139Y-86187305D01*
X215404760Y-85923241D01*
X215349000Y-85642912D01*
X215349000Y-85357088D01*
X215404760Y-85076759D01*
X215514139Y-84812695D01*
X215672934Y-84575042D01*
X215875042Y-84372934D01*
X216112695Y-84214139D01*
X216376759Y-84104760D01*
X216657088Y-84049000D01*
X216942912Y-84049000D01*
X217223241Y-84104760D01*
G37*
G36*
X194423241Y-84104760D02*
G01*
X194687305Y-84214139D01*
X194924958Y-84372934D01*
X195127066Y-84575042D01*
X195285861Y-84812695D01*
X195395240Y-85076759D01*
X195451000Y-85357088D01*
X195451000Y-85642912D01*
X195395240Y-85923241D01*
X195285861Y-86187305D01*
X195127066Y-86424958D01*
X194924958Y-86627066D01*
X194687305Y-86785861D01*
X194423241Y-86895240D01*
X194142912Y-86951000D01*
X193857088Y-86951000D01*
X193576759Y-86895240D01*
X193312695Y-86785861D01*
X193075042Y-86627066D01*
X192872934Y-86424958D01*
X192714139Y-86187305D01*
X192604760Y-85923241D01*
X192549000Y-85642912D01*
X192549000Y-85357088D01*
X192604760Y-85076759D01*
X192714139Y-84812695D01*
X192872934Y-84575042D01*
X193075042Y-84372934D01*
X193312695Y-84214139D01*
X193576759Y-84104760D01*
X193857088Y-84049000D01*
X194142912Y-84049000D01*
X194423241Y-84104760D01*
G37*
G36*
X190223241Y-84104760D02*
G01*
X190487305Y-84214139D01*
X190724958Y-84372934D01*
X190927066Y-84575042D01*
X191085861Y-84812695D01*
X191195240Y-85076759D01*
X191251000Y-85357088D01*
X191251000Y-85642912D01*
X191195240Y-85923241D01*
X191085861Y-86187305D01*
X190927066Y-86424958D01*
X190724958Y-86627066D01*
X190487305Y-86785861D01*
X190223241Y-86895240D01*
X189942912Y-86951000D01*
X189657088Y-86951000D01*
X189376759Y-86895240D01*
X189112695Y-86785861D01*
X188875042Y-86627066D01*
X188672934Y-86424958D01*
X188514139Y-86187305D01*
X188404760Y-85923241D01*
X188349000Y-85642912D01*
X188349000Y-85357088D01*
X188404760Y-85076759D01*
X188514139Y-84812695D01*
X188672934Y-84575042D01*
X188875042Y-84372934D01*
X189112695Y-84214139D01*
X189376759Y-84104760D01*
X189657088Y-84049000D01*
X189942912Y-84049000D01*
X190223241Y-84104760D01*
G37*
G36*
X194423241Y-78604760D02*
G01*
X194687305Y-78714139D01*
X194924958Y-78872934D01*
X195127066Y-79075042D01*
X195285861Y-79312695D01*
X195395240Y-79576759D01*
X195451000Y-79857088D01*
X195451000Y-80142912D01*
X195395240Y-80423241D01*
X195285861Y-80687305D01*
X195127066Y-80924958D01*
X194924958Y-81127066D01*
X194687305Y-81285861D01*
X194423241Y-81395240D01*
X194142912Y-81451000D01*
X193857088Y-81451000D01*
X193576759Y-81395240D01*
X193312695Y-81285861D01*
X193075042Y-81127066D01*
X192872934Y-80924958D01*
X192714139Y-80687305D01*
X192604760Y-80423241D01*
X192549000Y-80142912D01*
X192549000Y-79857088D01*
X192604760Y-79576759D01*
X192714139Y-79312695D01*
X192872934Y-79075042D01*
X193075042Y-78872934D01*
X193312695Y-78714139D01*
X193576759Y-78604760D01*
X193857088Y-78549000D01*
X194142912Y-78549000D01*
X194423241Y-78604760D01*
G37*
G36*
X190223241Y-78604760D02*
G01*
X190487305Y-78714139D01*
X190724958Y-78872934D01*
X190927066Y-79075042D01*
X191085861Y-79312695D01*
X191195240Y-79576759D01*
X191251000Y-79857088D01*
X191251000Y-80142912D01*
X191195240Y-80423241D01*
X191085861Y-80687305D01*
X190927066Y-80924958D01*
X190724958Y-81127066D01*
X190487305Y-81285861D01*
X190223241Y-81395240D01*
X189942912Y-81451000D01*
X189657088Y-81451000D01*
X189376759Y-81395240D01*
X189112695Y-81285861D01*
X188875042Y-81127066D01*
X188672934Y-80924958D01*
X188514139Y-80687305D01*
X188404760Y-80423241D01*
X188349000Y-80142912D01*
X188349000Y-79857088D01*
X188404760Y-79576759D01*
X188514139Y-79312695D01*
X188672934Y-79075042D01*
X188875042Y-78872934D01*
X189112695Y-78714139D01*
X189376759Y-78604760D01*
X189657088Y-78549000D01*
X189942912Y-78549000D01*
X190223241Y-78604760D01*
G37*
G36*
X221423241Y-78604760D02*
G01*
X221687305Y-78714139D01*
X221924958Y-78872934D01*
X222127066Y-79075042D01*
X222285861Y-79312695D01*
X222395240Y-79576759D01*
X222451000Y-79857088D01*
X222451000Y-80142912D01*
X222395240Y-80423241D01*
X222285861Y-80687305D01*
X222127066Y-80924958D01*
X221924958Y-81127066D01*
X221687305Y-81285861D01*
X221423241Y-81395240D01*
X221142912Y-81451000D01*
X220857088Y-81451000D01*
X220576759Y-81395240D01*
X220312695Y-81285861D01*
X220075042Y-81127066D01*
X219872934Y-80924958D01*
X219714139Y-80687305D01*
X219604760Y-80423241D01*
X219549000Y-80142912D01*
X219549000Y-79857088D01*
X219604760Y-79576759D01*
X219714139Y-79312695D01*
X219872934Y-79075042D01*
X220075042Y-78872934D01*
X220312695Y-78714139D01*
X220576759Y-78604760D01*
X220857088Y-78549000D01*
X221142912Y-78549000D01*
X221423241Y-78604760D01*
G37*
G36*
X217223241Y-78604760D02*
G01*
X217487305Y-78714139D01*
X217724958Y-78872934D01*
X217927066Y-79075042D01*
X218085861Y-79312695D01*
X218195240Y-79576759D01*
X218251000Y-79857088D01*
X218251000Y-80142912D01*
X218195240Y-80423241D01*
X218085861Y-80687305D01*
X217927066Y-80924958D01*
X217724958Y-81127066D01*
X217487305Y-81285861D01*
X217223241Y-81395240D01*
X216942912Y-81451000D01*
X216657088Y-81451000D01*
X216376759Y-81395240D01*
X216112695Y-81285861D01*
X215875042Y-81127066D01*
X215672934Y-80924958D01*
X215514139Y-80687305D01*
X215404760Y-80423241D01*
X215349000Y-80142912D01*
X215349000Y-79857088D01*
X215404760Y-79576759D01*
X215514139Y-79312695D01*
X215672934Y-79075042D01*
X215875042Y-78872934D01*
X216112695Y-78714139D01*
X216376759Y-78604760D01*
X216657088Y-78549000D01*
X216942912Y-78549000D01*
X217223241Y-78604760D01*
G37*
G36*
X244223241Y-78604760D02*
G01*
X244487305Y-78714139D01*
X244724958Y-78872934D01*
X244927066Y-79075042D01*
X245085861Y-79312695D01*
X245195240Y-79576759D01*
X245251000Y-79857088D01*
X245251000Y-80142912D01*
X245195240Y-80423241D01*
X245085861Y-80687305D01*
X244927066Y-80924958D01*
X244724958Y-81127066D01*
X244487305Y-81285861D01*
X244223241Y-81395240D01*
X243942912Y-81451000D01*
X243657088Y-81451000D01*
X243376759Y-81395240D01*
X243112695Y-81285861D01*
X242875042Y-81127066D01*
X242672934Y-80924958D01*
X242514139Y-80687305D01*
X242404760Y-80423241D01*
X242349000Y-80142912D01*
X242349000Y-79857088D01*
X242404760Y-79576759D01*
X242514139Y-79312695D01*
X242672934Y-79075042D01*
X242875042Y-78872934D01*
X243112695Y-78714139D01*
X243376759Y-78604760D01*
X243657088Y-78549000D01*
X243942912Y-78549000D01*
X244223241Y-78604760D01*
G37*
G36*
X248423241Y-78604760D02*
G01*
X248687305Y-78714139D01*
X248924958Y-78872934D01*
X249127066Y-79075042D01*
X249285861Y-79312695D01*
X249395240Y-79576759D01*
X249451000Y-79857088D01*
X249451000Y-80142912D01*
X249395240Y-80423241D01*
X249285861Y-80687305D01*
X249127066Y-80924958D01*
X248924958Y-81127066D01*
X248687305Y-81285861D01*
X248423241Y-81395240D01*
X248142912Y-81451000D01*
X247857088Y-81451000D01*
X247576759Y-81395240D01*
X247312695Y-81285861D01*
X247075042Y-81127066D01*
X246872934Y-80924958D01*
X246714139Y-80687305D01*
X246604760Y-80423241D01*
X246549000Y-80142912D01*
X246549000Y-79857088D01*
X246604760Y-79576759D01*
X246714139Y-79312695D01*
X246872934Y-79075042D01*
X247075042Y-78872934D01*
X247312695Y-78714139D01*
X247576759Y-78604760D01*
X247857088Y-78549000D01*
X248142912Y-78549000D01*
X248423241Y-78604760D01*
G37*
G36*
X271223241Y-78604760D02*
G01*
X271487305Y-78714139D01*
X271724958Y-78872934D01*
X271927066Y-79075042D01*
X272085861Y-79312695D01*
X272195240Y-79576759D01*
X272251000Y-79857088D01*
X272251000Y-80142912D01*
X272195240Y-80423241D01*
X272085861Y-80687305D01*
X271927066Y-80924958D01*
X271724958Y-81127066D01*
X271487305Y-81285861D01*
X271223241Y-81395240D01*
X270942912Y-81451000D01*
X270657088Y-81451000D01*
X270376759Y-81395240D01*
X270112695Y-81285861D01*
X269875042Y-81127066D01*
X269672934Y-80924958D01*
X269514139Y-80687305D01*
X269404760Y-80423241D01*
X269349000Y-80142912D01*
X269349000Y-79857088D01*
X269404760Y-79576759D01*
X269514139Y-79312695D01*
X269672934Y-79075042D01*
X269875042Y-78872934D01*
X270112695Y-78714139D01*
X270376759Y-78604760D01*
X270657088Y-78549000D01*
X270942912Y-78549000D01*
X271223241Y-78604760D01*
G37*
G36*
X275423241Y-78604760D02*
G01*
X275687305Y-78714139D01*
X275924958Y-78872934D01*
X276127066Y-79075042D01*
X276285861Y-79312695D01*
X276395240Y-79576759D01*
X276451000Y-79857088D01*
X276451000Y-80142912D01*
X276395240Y-80423241D01*
X276285861Y-80687305D01*
X276127066Y-80924958D01*
X275924958Y-81127066D01*
X275687305Y-81285861D01*
X275423241Y-81395240D01*
X275142912Y-81451000D01*
X274857088Y-81451000D01*
X274576759Y-81395240D01*
X274312695Y-81285861D01*
X274075042Y-81127066D01*
X273872934Y-80924958D01*
X273714139Y-80687305D01*
X273604760Y-80423241D01*
X273549000Y-80142912D01*
X273549000Y-79857088D01*
X273604760Y-79576759D01*
X273714139Y-79312695D01*
X273872934Y-79075042D01*
X274075042Y-78872934D01*
X274312695Y-78714139D01*
X274576759Y-78604760D01*
X274857088Y-78549000D01*
X275142912Y-78549000D01*
X275423241Y-78604760D01*
G37*
G36*
X325598254Y-71027818D02*
G01*
X325971511Y-71182426D01*
X325971513Y-71182427D01*
X326307436Y-71406884D01*
X326593116Y-71692564D01*
X326767458Y-71953484D01*
X326817574Y-72028489D01*
X326972182Y-72401746D01*
X327051000Y-72797993D01*
X327051000Y-73202007D01*
X326972182Y-73598254D01*
X326837188Y-73924159D01*
X326817573Y-73971513D01*
X326593116Y-74307436D01*
X326307436Y-74593116D01*
X325971513Y-74817573D01*
X325971512Y-74817574D01*
X325971511Y-74817574D01*
X325598254Y-74972182D01*
X325202007Y-75051000D01*
X324797993Y-75051000D01*
X324401746Y-74972182D01*
X324028489Y-74817574D01*
X324028488Y-74817574D01*
X324028487Y-74817573D01*
X323692564Y-74593116D01*
X323406884Y-74307436D01*
X323182427Y-73971513D01*
X323162812Y-73924159D01*
X323027818Y-73598254D01*
X322949000Y-73202007D01*
X322949000Y-72797993D01*
X323027818Y-72401746D01*
X323182426Y-72028489D01*
X323232543Y-71953484D01*
X323406884Y-71692564D01*
X323692564Y-71406884D01*
X324028487Y-71182427D01*
X324028489Y-71182426D01*
X324401746Y-71027818D01*
X324797993Y-70949000D01*
X325202007Y-70949000D01*
X325598254Y-71027818D01*
G37*
G36*
X166598254Y-71027818D02*
G01*
X166971511Y-71182426D01*
X166971513Y-71182427D01*
X167307436Y-71406884D01*
X167593116Y-71692564D01*
X167767458Y-71953484D01*
X167817574Y-72028489D01*
X167972182Y-72401746D01*
X168051000Y-72797993D01*
X168051000Y-73202007D01*
X167972182Y-73598254D01*
X167837188Y-73924159D01*
X167817573Y-73971513D01*
X167593116Y-74307436D01*
X167307436Y-74593116D01*
X166971513Y-74817573D01*
X166971512Y-74817574D01*
X166971511Y-74817574D01*
X166598254Y-74972182D01*
X166202007Y-75051000D01*
X165797993Y-75051000D01*
X165401746Y-74972182D01*
X165028489Y-74817574D01*
X165028488Y-74817574D01*
X165028487Y-74817573D01*
X164692564Y-74593116D01*
X164406884Y-74307436D01*
X164182427Y-73971513D01*
X164162812Y-73924159D01*
X164027818Y-73598254D01*
X163949000Y-73202007D01*
X163949000Y-72797993D01*
X164027818Y-72401746D01*
X164182426Y-72028489D01*
X164232543Y-71953484D01*
X164406884Y-71692564D01*
X164692564Y-71406884D01*
X165028487Y-71182427D01*
X165028489Y-71182426D01*
X165401746Y-71027818D01*
X165797993Y-70949000D01*
X166202007Y-70949000D01*
X166598254Y-71027818D01*
G37*
G36*
X273131083Y-71139090D02*
G01*
X273359702Y-71184564D01*
X273646516Y-71303367D01*
X273904642Y-71475841D01*
X274124159Y-71695358D01*
X274296633Y-71953484D01*
X274415436Y-72240298D01*
X274476000Y-72544778D01*
X274476000Y-72855222D01*
X274415436Y-73159702D01*
X274296633Y-73446516D01*
X274124159Y-73704642D01*
X273904642Y-73924159D01*
X273646516Y-74096633D01*
X273359702Y-74215436D01*
X273131083Y-74260910D01*
X273055224Y-74276000D01*
X272744776Y-74276000D01*
X272668917Y-74260910D01*
X272440298Y-74215436D01*
X272153484Y-74096633D01*
X271895358Y-73924159D01*
X271675841Y-73704642D01*
X271503367Y-73446516D01*
X271384564Y-73159702D01*
X271324000Y-72855222D01*
X271324000Y-72544778D01*
X271384564Y-72240298D01*
X271503367Y-71953484D01*
X271675841Y-71695358D01*
X271895358Y-71475841D01*
X272153484Y-71303367D01*
X272440298Y-71184564D01*
X272668917Y-71139090D01*
X272744776Y-71124000D01*
X273055224Y-71124000D01*
X273131083Y-71139090D01*
G37*
G36*
X246131083Y-71139090D02*
G01*
X246359702Y-71184564D01*
X246646516Y-71303367D01*
X246904642Y-71475841D01*
X247124159Y-71695358D01*
X247296633Y-71953484D01*
X247415436Y-72240298D01*
X247476000Y-72544778D01*
X247476000Y-72855222D01*
X247415436Y-73159702D01*
X247296633Y-73446516D01*
X247124159Y-73704642D01*
X246904642Y-73924159D01*
X246646516Y-74096633D01*
X246359702Y-74215436D01*
X246131083Y-74260910D01*
X246055224Y-74276000D01*
X245744776Y-74276000D01*
X245668917Y-74260910D01*
X245440298Y-74215436D01*
X245153484Y-74096633D01*
X244895358Y-73924159D01*
X244675841Y-73704642D01*
X244503367Y-73446516D01*
X244384564Y-73159702D01*
X244324000Y-72855222D01*
X244324000Y-72544778D01*
X244384564Y-72240298D01*
X244503367Y-71953484D01*
X244675841Y-71695358D01*
X244895358Y-71475841D01*
X245153484Y-71303367D01*
X245440298Y-71184564D01*
X245668917Y-71139090D01*
X245744776Y-71124000D01*
X246055224Y-71124000D01*
X246131083Y-71139090D01*
G37*
G36*
X192131083Y-71139090D02*
G01*
X192359702Y-71184564D01*
X192646516Y-71303367D01*
X192904642Y-71475841D01*
X193124159Y-71695358D01*
X193296633Y-71953484D01*
X193415436Y-72240298D01*
X193476000Y-72544778D01*
X193476000Y-72855222D01*
X193415436Y-73159702D01*
X193296633Y-73446516D01*
X193124159Y-73704642D01*
X192904642Y-73924159D01*
X192646516Y-74096633D01*
X192359702Y-74215436D01*
X192131083Y-74260910D01*
X192055224Y-74276000D01*
X191744776Y-74276000D01*
X191668917Y-74260910D01*
X191440298Y-74215436D01*
X191153484Y-74096633D01*
X190895358Y-73924159D01*
X190675841Y-73704642D01*
X190503367Y-73446516D01*
X190384564Y-73159702D01*
X190324000Y-72855222D01*
X190324000Y-72544778D01*
X190384564Y-72240298D01*
X190503367Y-71953484D01*
X190675841Y-71695358D01*
X190895358Y-71475841D01*
X191153484Y-71303367D01*
X191440298Y-71184564D01*
X191668917Y-71139090D01*
X191744776Y-71124000D01*
X192055224Y-71124000D01*
X192131083Y-71139090D01*
G37*
G36*
X219131083Y-71139090D02*
G01*
X219359702Y-71184564D01*
X219646516Y-71303367D01*
X219904642Y-71475841D01*
X220124159Y-71695358D01*
X220296633Y-71953484D01*
X220415436Y-72240298D01*
X220476000Y-72544778D01*
X220476000Y-72855222D01*
X220415436Y-73159702D01*
X220296633Y-73446516D01*
X220124159Y-73704642D01*
X219904642Y-73924159D01*
X219646516Y-74096633D01*
X219359702Y-74215436D01*
X219131083Y-74260910D01*
X219055224Y-74276000D01*
X218744776Y-74276000D01*
X218668917Y-74260910D01*
X218440298Y-74215436D01*
X218153484Y-74096633D01*
X217895358Y-73924159D01*
X217675841Y-73704642D01*
X217503367Y-73446516D01*
X217384564Y-73159702D01*
X217324000Y-72855222D01*
X217324000Y-72544778D01*
X217384564Y-72240298D01*
X217503367Y-71953484D01*
X217675841Y-71695358D01*
X217895358Y-71475841D01*
X218153484Y-71303367D01*
X218440298Y-71184564D01*
X218668917Y-71139090D01*
X218744776Y-71124000D01*
X219055224Y-71124000D01*
X219131083Y-71139090D01*
G37*
M02*
